<svg xmlns="http://www.w3.org/2000/svg" xmlns:xlink="http://www.w3.org/1999/xlink" width="500" zoomAndPan="magnify" viewBox="0 0 375 374.999991" height="500" preserveAspectRatio="xMidYMid meet" version="1.0"><defs><g/><clipPath id="ff3d00a9f0"><rect x="0" width="337" y="0" height="140"/></clipPath><clipPath id="706112c3a3"><path d="M 131 111.226562 L 166.425781 111.226562 L 166.425781 174.976562 L 131 174.976562 Z M 131 111.226562 " clip-rule="nonzero"/></clipPath><clipPath id="2b5d0ad4db"><path d="M 102 115 L 129 115 L 129 164 L 102 164 Z M 102 115 " clip-rule="nonzero"/></clipPath><clipPath id="f20398c26f"><path d="M 108.492188 115.085938 C 107.886719 118.132812 109.410156 121.277344 111.605469 123.46875 C 113.796875 125.664062 116.605469 127.125 119.289062 128.691406 C 121.96875 130.261719 124.644531 132.042969 126.332031 134.65625 C 127.800781 136.925781 128.394531 139.644531 128.703125 142.332031 C 129.078125 145.582031 129.027344 149.003906 127.988281 152.070312 C 127.234375 150.226562 126.257812 148.453125 125.136719 146.804688 C 122.941406 143.554688 120.242188 140.683594 117.554688 137.832031 C 114.414062 134.5 111.277344 131.164062 108.132812 127.832031 C 111.382812 133.929688 116.421875 138.835938 120.683594 144.28125 C 124.945312 149.71875 128.578125 156.214844 128.179688 163.113281 C 127.863281 159.582031 124.996094 156.78125 121.894531 155.074219 C 118.789062 153.367188 115.304688 152.417969 112.238281 150.636719 C 106.445312 147.246094 102.550781 140.820312 102.246094 134.125 C 101.941406 127.351562 105.035156 120.914062 108.492188 115.085938 Z M 108.492188 115.085938 " clip-rule="nonzero"/></clipPath><linearGradient x1="-1204.20996" gradientTransform="matrix(-0.063235, 0, 0, 0.063235, 39.421955, 111.227627)" y1="61.000047" x2="-1204.20996" gradientUnits="userSpaceOnUse" y2="820.500106" id="3c0bb6de4f"><stop stop-opacity="1" stop-color="rgb(53.50647%, 74.847412%, 25.752258%)" offset="0"/><stop stop-opacity="1" stop-color="rgb(53.416443%, 74.743652%, 25.744629%)" offset="0.125"/><stop stop-opacity="1" stop-color="rgb(53.236389%, 74.534607%, 25.727844%)" offset="0.25"/><stop stop-opacity="1" stop-color="rgb(53.057861%, 74.325562%, 25.71106%)" offset="0.375"/><stop stop-opacity="1" stop-color="rgb(52.877808%, 74.118042%, 25.695801%)" offset="0.5"/><stop stop-opacity="1" stop-color="rgb(52.69928%, 73.908997%, 25.679016%)" offset="0.625"/><stop stop-opacity="1" stop-color="rgb(52.520752%, 73.701477%, 25.662231%)" offset="0.75"/><stop stop-opacity="1" stop-color="rgb(52.340698%, 73.492432%, 25.646973%)" offset="0.875"/><stop stop-opacity="1" stop-color="rgb(52.16217%, 73.283386%, 25.630188%)" offset="1"/></linearGradient><clipPath id="0d6d54607f"><rect x="0" width="65" y="0" height="42"/></clipPath></defs><g transform="matrix(1, 0, 0, 1, 17, 121)"><g clip-path="url(#ff3d00a9f0)"><g fill="#fefae0" fill-opacity="1"><g transform="translate(1.370048, 99.914177)"><g><path d="M 2.546875 -45.625 C 2.546875 -58.800781 7.035156 -69.957031 16.015625 -79.09375 C 25.003906 -88.226562 35.832031 -92.796875 48.5 -92.796875 C 61.238281 -92.796875 72.0625 -88.25 80.96875 -79.15625 C 89.882812 -70.0625 94.34375 -58.882812 94.34375 -45.625 C 94.34375 -32.289062 89.957031 -21.078125 81.1875 -11.984375 C 72.425781 -2.890625 61.53125 1.65625 48.5 1.65625 C 35.164062 1.65625 24.171875 -2.851562 15.515625 -11.875 C 6.867188 -20.894531 2.546875 -32.144531 2.546875 -45.625 Z M 24.96875 -45.625 C 24.96875 -40.832031 25.703125 -36.46875 27.171875 -32.53125 C 28.648438 -28.59375 31.226562 -25.257812 34.90625 -22.53125 C 38.59375 -19.8125 43.125 -18.453125 48.5 -18.453125 C 56.226562 -18.453125 62.0625 -21.101562 66 -26.40625 C 69.945312 -31.707031 71.921875 -38.113281 71.921875 -45.625 C 71.921875 -53.0625 69.910156 -59.445312 65.890625 -64.78125 C 61.878906 -70.125 56.082031 -72.796875 48.5 -72.796875 C 40.988281 -72.796875 35.1875 -70.125 31.09375 -64.78125 C 27.007812 -59.445312 24.96875 -53.0625 24.96875 -45.625 Z M 24.96875 -45.625 "/></g></g></g><g fill="#fefae0" fill-opacity="1"><g transform="translate(88.854345, 99.914177)"><g><path d="M 6.625 0 L 6.625 -56.671875 L 26.1875 -56.671875 L 26.1875 -48.5 L 26.40625 -48.5 C 26.550781 -48.789062 26.789062 -49.15625 27.125 -49.59375 C 27.457031 -50.039062 28.175781 -50.816406 29.28125 -51.921875 C 30.382812 -53.023438 31.5625 -54.019531 32.8125 -54.90625 C 34.0625 -55.789062 35.679688 -56.582031 37.671875 -57.28125 C 39.660156 -57.976562 41.6875 -58.328125 43.75 -58.328125 C 45.882812 -58.328125 47.984375 -58.03125 50.046875 -57.4375 C 52.109375 -56.851562 53.617188 -56.265625 54.578125 -55.671875 L 56.125 -54.796875 L 47.9375 -38.21875 C 45.507812 -40.28125 42.125 -41.3125 37.78125 -41.3125 C 35.425781 -41.3125 33.398438 -40.796875 31.703125 -39.765625 C 30.003906 -38.734375 28.804688 -37.476562 28.109375 -36 C 27.410156 -34.53125 26.914062 -33.28125 26.625 -32.25 C 26.332031 -31.21875 26.1875 -30.410156 26.1875 -29.828125 L 26.1875 0 Z M 6.625 0 "/></g></g></g><g fill="#fefae0" fill-opacity="1"><g transform="translate(134.473746, 99.914177)"><g><path d="M 4.09375 13.921875 L 20.109375 6.078125 C 23.054688 10.929688 28.171875 13.359375 35.453125 13.359375 C 38.847656 13.359375 42 12.269531 44.90625 10.09375 C 47.8125 7.925781 49.265625 4.597656 49.265625 0.109375 L 49.265625 -4.09375 C 45.804688 -0.257812 39.617188 1.65625 30.703125 1.65625 C 22.535156 1.65625 15.800781 -1.234375 10.5 -7.015625 C 5.195312 -12.796875 2.546875 -19.882812 2.546875 -28.28125 C 2.546875 -36.675781 5.195312 -43.78125 10.5 -49.59375 C 15.800781 -55.414062 22.535156 -58.328125 30.703125 -58.328125 C 37.992188 -58.328125 44.070312 -56.082031 48.9375 -51.59375 L 49.265625 -51.59375 L 49.265625 -56.671875 L 68.828125 -56.671875 L 68.828125 1.546875 C 68.828125 10.753906 65.769531 17.859375 59.65625 22.859375 C 53.539062 27.867188 45.472656 30.375 35.453125 30.375 C 19.253906 30.375 8.800781 24.890625 4.09375 13.921875 Z M 27.125 -37.890625 C 24.582031 -35.390625 23.3125 -32.1875 23.3125 -28.28125 C 23.3125 -24.375 24.523438 -21.1875 26.953125 -18.71875 C 29.378906 -16.257812 32.582031 -15.03125 36.5625 -15.03125 C 40.394531 -15.03125 43.546875 -16.28125 46.015625 -18.78125 C 48.484375 -21.28125 49.71875 -24.445312 49.71875 -28.28125 C 49.71875 -32.1875 48.445312 -35.390625 45.90625 -37.890625 C 43.363281 -40.390625 40.25 -41.640625 36.5625 -41.640625 C 32.8125 -41.640625 29.664062 -40.390625 27.125 -37.890625 Z M 27.125 -37.890625 "/></g></g></g><g fill="#fefae0" fill-opacity="1"><g transform="translate(200.528519, 99.914177)"><g><path d="M 10.5 -7.015625 C 5.195312 -12.796875 2.546875 -19.882812 2.546875 -28.28125 C 2.546875 -36.675781 5.195312 -43.78125 10.5 -49.59375 C 15.800781 -55.414062 22.535156 -58.328125 30.703125 -58.328125 C 38.222656 -58.328125 44.410156 -55.96875 49.265625 -51.25 L 49.265625 -56.671875 L 68.828125 -56.671875 L 68.828125 0 L 49.484375 0 L 49.484375 -6.40625 L 49.265625 -6.40625 C 44.410156 -1.03125 38.222656 1.65625 30.703125 1.65625 C 22.535156 1.65625 15.800781 -1.234375 10.5 -7.015625 Z M 27.125 -37.890625 C 24.582031 -35.390625 23.3125 -32.1875 23.3125 -28.28125 C 23.3125 -24.375 24.523438 -21.1875 26.953125 -18.71875 C 29.378906 -16.257812 32.582031 -15.03125 36.5625 -15.03125 C 40.394531 -15.03125 43.546875 -16.28125 46.015625 -18.78125 C 48.484375 -21.28125 49.71875 -24.445312 49.71875 -28.28125 C 49.71875 -32.1875 48.445312 -35.390625 45.90625 -37.890625 C 43.363281 -40.390625 40.25 -41.640625 36.5625 -41.640625 C 32.8125 -41.640625 29.664062 -40.390625 27.125 -37.890625 Z M 27.125 -37.890625 "/></g></g></g><g fill="#fefae0" fill-opacity="1"><g transform="translate(266.583292, 99.914177)"><g><path d="M 6.625 0 L 6.625 -56.671875 L 26.1875 -56.671875 L 26.1875 -50.703125 L 26.40625 -50.703125 C 31.488281 -55.785156 36.898438 -58.328125 42.640625 -58.328125 C 45.441406 -58.328125 48.222656 -57.957031 50.984375 -57.21875 C 53.742188 -56.488281 56.394531 -55.347656 58.9375 -53.796875 C 61.476562 -52.253906 63.539062 -50.0625 65.125 -47.21875 C 66.707031 -44.382812 67.5 -41.09375 67.5 -37.34375 L 67.5 0 L 47.9375 0 L 47.9375 -32.03125 C 47.9375 -34.976562 47 -37.554688 45.125 -39.765625 C 43.25 -41.972656 40.800781 -43.078125 37.78125 -43.078125 C 34.832031 -43.078125 32.160156 -41.9375 29.765625 -39.65625 C 27.378906 -37.375 26.1875 -34.832031 26.1875 -32.03125 L 26.1875 0 Z M 6.625 0 "/></g></g></g></g></g><g clip-path="url(#706112c3a3)"><path fill="#8cc342" d="M 157.980469 111.226562 C 158.785156 115.25 156.773438 119.398438 153.878906 122.292969 C 150.980469 125.195312 147.273438 127.117188 143.742188 129.1875 C 140.199219 131.253906 136.664062 133.613281 134.445312 137.058594 C 132.511719 140.054688 131.71875 143.648438 131.316406 147.1875 C 130.808594 151.488281 130.878906 155.996094 132.246094 160.046875 C 133.238281 157.605469 134.535156 155.269531 136.007812 153.089844 C 138.902344 148.796875 142.46875 145.007812 146.015625 141.238281 C 150.164062 136.835938 154.308594 132.441406 158.457031 128.042969 C 154.160156 136.085938 147.507812 142.574219 141.886719 149.75 C 136.265625 156.933594 131.472656 165.507812 131.996094 174.613281 C 132.414062 169.953125 136.195312 166.253906 140.300781 164.003906 C 144.40625 161.753906 149 160.492188 153.042969 158.140625 C 160.6875 153.691406 165.828125 145.203125 166.226562 136.363281 C 166.632812 127.421875 162.554688 118.917969 157.980469 111.226562 Z M 157.980469 111.226562 " fill-opacity="1" fill-rule="nonzero"/></g><g clip-path="url(#2b5d0ad4db)"><g clip-path="url(#f20398c26f)"><path fill="url(#3c0bb6de4f)" d="M 129.078125 115.085938 L 129.078125 163.113281 L 101.941406 163.113281 L 101.941406 115.085938 Z M 129.078125 115.085938 " fill-rule="nonzero"/></g></g><g transform="matrix(1, 0, 0, 1, 253, 222)"><g clip-path="url(#0d6d54607f)"><g fill="#fefae0" fill-opacity="1"><g transform="translate(0.831634, 33.019418)"><g><path d="M 4.90625 -2.375 L 13.125 -2.375 L 13.125 0 L 2.53125 0 L 2.53125 -23 L 4.90625 -23 Z M 4.90625 -2.375 "/></g></g></g><g fill="#fefae0" fill-opacity="1"><g transform="translate(14.631592, 33.019418)"><g><path d="M 17.078125 -7.78125 L 17.078125 -6.53125 L 3.984375 -6.53125 C 4.210938 -5.238281 4.835938 -4.1875 5.859375 -3.375 C 6.890625 -2.539062 8.035156 -2.125 9.296875 -2.125 C 10.160156 -2.125 10.984375 -2.328125 11.765625 -2.734375 C 12.535156 -3.117188 13.179688 -3.660156 13.703125 -4.359375 L 16.40625 -4.359375 C 15.769531 -2.941406 14.820312 -1.828125 13.5625 -1.015625 C 12.28125 -0.179688 10.984375 0.234375 9.671875 0.234375 C 8.335938 0.234375 7.210938 0.03125 6.296875 -0.375 C 5.347656 -0.78125 4.523438 -1.332031 3.828125 -2.03125 C 2.285156 -3.519531 1.515625 -5.347656 1.515625 -7.515625 C 1.515625 -9.648438 2.285156 -11.488281 3.828125 -13.03125 C 5.335938 -14.539062 7.160156 -15.296875 9.296875 -15.296875 C 11.378906 -15.296875 13.195312 -14.5625 14.75 -13.09375 C 16.300781 -11.601562 17.078125 -9.832031 17.078125 -7.78125 Z M 14.578125 -8.5625 C 14.304688 -9.820312 13.675781 -10.867188 12.6875 -11.703125 C 11.695312 -12.515625 10.566406 -12.921875 9.296875 -12.921875 C 7.359375 -12.921875 5.835938 -12.050781 4.734375 -10.3125 C 4.398438 -9.769531 4.164062 -9.1875 4.03125 -8.5625 Z M 14.578125 -8.5625 "/></g></g></g><g fill="#fefae0" fill-opacity="1"><g transform="translate(33.065362, 33.019418)"><g><path d="M 14.375 -7.4375 C 14.375 -8.882812 13.878906 -10.148438 12.890625 -11.234375 C 11.867188 -12.316406 10.617188 -12.859375 9.140625 -12.859375 C 7.648438 -12.859375 6.40625 -12.316406 5.40625 -11.234375 C 4.394531 -10.148438 3.890625 -8.882812 3.890625 -7.4375 C 3.890625 -6 4.394531 -4.738281 5.40625 -3.65625 C 6.40625 -2.570312 7.648438 -2.03125 9.140625 -2.03125 C 10.617188 -2.03125 11.867188 -2.570312 12.890625 -3.65625 C 13.878906 -4.738281 14.375 -6 14.375 -7.4375 Z M 16.75 0 L 14.375 0 L 14.375 -2.53125 C 14.238281 -2.351562 14.101562 -2.1875 13.96875 -2.03125 C 12.550781 -0.445312 10.816406 0.34375 8.765625 0.34375 C 6.710938 0.34375 4.984375 -0.445312 3.578125 -2.03125 C 2.203125 -3.5625 1.515625 -5.363281 1.515625 -7.4375 C 1.515625 -9.507812 2.203125 -11.316406 3.578125 -12.859375 C 4.984375 -14.429688 6.710938 -15.21875 8.765625 -15.21875 C 10.816406 -15.21875 12.550781 -14.429688 13.96875 -12.859375 C 14.101562 -12.703125 14.238281 -12.53125 14.375 -12.34375 L 14.375 -14.890625 L 16.75 -14.890625 Z M 16.75 0 "/></g></g></g><g fill="#fefae0" fill-opacity="1"><g transform="translate(52.344713, 33.019418)"><g><path d="M 10.515625 -23.171875 L 8.484375 -23.171875 C 7.703125 -23.171875 7.1875 -22.988281 6.9375 -22.625 C 6.6875 -22.269531 6.5625 -21.832031 6.5625 -21.3125 L 6.5625 -14.890625 L 10.515625 -14.890625 L 10.515625 -12.6875 L 6.5625 -12.6875 L 6.5625 0 L 4.1875 0 L 4.1875 -12.6875 L 1.1875 -12.6875 L 1.1875 -14.890625 L 4.1875 -14.890625 L 4.1875 -20.640625 C 4.1875 -22.148438 4.550781 -23.320312 5.28125 -24.15625 C 5.976562 -24.96875 7.160156 -25.375 8.828125 -25.375 L 10.515625 -25.375 Z M 10.515625 -23.171875 "/></g></g></g></g></g></svg>