<svg xmlns="http://www.w3.org/2000/svg" xmlns:xlink="http://www.w3.org/1999/xlink" width="500" zoomAndPan="magnify" viewBox="0 0 375 374.999991" height="500" preserveAspectRatio="xMidYMid meet" version="1.0"><defs><clipPath id="6fa54a3f5b"><path d="M 53.167969 34 L 337.417969 34 L 337.417969 366.191406 L 53.167969 366.191406 Z M 53.167969 34 " clip-rule="nonzero"/></clipPath></defs><g clip-path="url(#6fa54a3f5b)"><path fill="#fefae0" d="M 180.761719 167.828125 C 180.761719 178.980469 189.804688 188.023438 200.957031 188.023438 C 212.113281 188.023438 221.15625 178.980469 221.15625 167.828125 C 221.15625 156.675781 212.113281 147.632812 200.957031 147.632812 C 189.804688 147.632812 180.761719 156.675781 180.761719 167.828125 Z M 197.101562 34.214844 C 198.121094 73.390625 179.632812 91.449219 218 117.335938 C 202.675781 101.957031 208.035156 85.34375 212.054688 63.371094 C 210.285156 87.164062 204.820312 102.59375 224.699219 119.746094 C 224.539062 109.832031 225.449219 101.363281 226.148438 93.863281 C 284.882812 107.742188 328.554688 160.527344 328.554688 223.496094 C 328.554688 269.421875 305.351562 309.882812 270.039062 333.835938 C 281.667969 321.992188 291.417969 307.953125 298.601562 291.875 C 315.804688 253.132812 314.300781 210.792969 297.957031 174.996094 C 293.1875 164.492188 281.238281 160.582031 289.007812 176.871094 C 305.085938 210.792969 306.90625 251.253906 290.402344 288.285156 C 277.804688 316.6875 256.425781 338.5 230.863281 351.953125 C 219.554688 355.058594 207.65625 356.71875 195.332031 356.71875 C 183.0625 356.71875 171.109375 355.058594 159.800781 351.953125 C 134.292969 338.5 112.910156 316.6875 100.265625 288.285156 C 83.8125 251.253906 85.582031 210.792969 101.710938 176.871094 C 109.429688 160.582031 97.476562 164.492188 92.707031 174.996094 C 76.363281 210.792969 74.863281 253.132812 92.121094 291.875 C 99.246094 307.953125 109 322.046875 120.628906 333.835938 C 85.3125 309.882812 62.109375 269.421875 62.109375 223.496094 C 62.109375 174.730469 88.3125 132.125 127.382812 108.867188 C 142.117188 122.050781 161.570312 128.425781 198.011719 123.121094 C 159.800781 121.246094 147.101562 93.21875 126.308594 59.78125 C 152.191406 92.84375 163.394531 119.480469 209.589844 118.296875 C 161.570312 66.960938 163.609375 27.304688 72.183594 39.523438 C 95.121094 63.421875 106.425781 86.304688 120.898438 102.382812 C 80.277344 127.410156 53.160156 172.316406 53.160156 223.496094 C 53.160156 293.214844 103.375 351.253906 169.609375 363.367188 C 175.613281 364.648438 181.722656 365.507812 187.882812 365.988281 C 187.402344 366.042969 186.917969 366.097656 186.4375 366.152344 C 189.4375 366.3125 192.386719 366.367188 195.332031 366.3125 C 198.277344 366.367188 201.28125 366.3125 204.230469 366.152344 C 203.746094 366.097656 203.265625 366.042969 202.78125 365.988281 C 208.996094 365.507812 215.160156 364.597656 221.21875 363.308594 C 287.347656 351.144531 337.503906 293.164062 337.503906 223.496094 C 337.503906 155.867188 290.242188 99.273438 226.949219 84.855469 C 228.078125 66.960938 224.96875 53.511719 197.101562 34.214844 Z M 131.722656 239.570312 C 131.9375 228.316406 151.816406 212.617188 160.605469 208.171875 C 176.199219 200.398438 193.726562 203.398438 210.125 197.933594 C 225.019531 192.949219 236.117188 183.734375 247.046875 174.515625 C 253.371094 169.15625 269.554688 147.773438 270.359375 138.125 L 271.484375 138.125 L 272.179688 143.164062 L 272.074219 146.539062 C 272.074219 179.820312 222.984375 222.476562 222.984375 237.320312 L 222.984375 240.695312 C 222.984375 245.414062 228.824219 249.164062 233.703125 249.164062 L 235.417969 249.164062 C 248.171875 249.164062 277.109375 230.945312 277.109375 249.699219 C 277.109375 263.792969 258.355469 301.253906 251.761719 308.917969 L 254.980469 284.160156 L 254.550781 277.890625 C 254.550781 269.101562 246.296875 263.792969 237.667969 263.792969 C 206.265625 263.792969 172.878906 304.953125 129.417969 304.953125 L 121.539062 304.953125 L 113.554688 303.933594 L 113.660156 303.238281 C 124.96875 303.023438 154.335938 286.085938 161.410156 280.035156 C 171.808594 271.085938 188.632812 255.113281 188.632812 236.734375 C 188.632812 221.671875 174.484375 217.816406 160.015625 221.085938 C 153.800781 222.476562 148.710938 225.371094 143.886719 228.640625 C 138.796875 232.019531 135.367188 237.105469 131.722656 239.570312 " fill-opacity="1" fill-rule="evenodd"/></g></svg>