<svg xmlns="http://www.w3.org/2000/svg" xmlns:xlink="http://www.w3.org/1999/xlink" width="500" zoomAndPan="magnify" viewBox="0 0 375 374.999991" height="500" preserveAspectRatio="xMidYMid meet" version="1.0"><defs><clipPath id="ceac025043"><path d="M 81 50.503906 L 303 50.503906 L 303 240 L 81 240 Z M 81 50.503906 " clip-rule="nonzero"/></clipPath><clipPath id="a4d321d0e4"><path d="M 66.601562 51 L 276 51 L 276 259 L 66.601562 259 Z M 66.601562 51 " clip-rule="nonzero"/></clipPath><clipPath id="5b12f0cf69"><path d="M 74 59 L 308.101562 59 L 308.101562 258 L 74 258 Z M 74 59 " clip-rule="nonzero"/></clipPath><clipPath id="75ec855b0b"><path d="M 79 62 L 305 62 L 305 324.253906 L 79 324.253906 Z M 79 62 " clip-rule="nonzero"/></clipPath></defs><g clip-path="url(#ceac025043)"><path fill="#fefae0" d="M 130.75 166.9375 C 134.929688 168.183594 137.902344 169.296875 137.902344 169.296875 C 137.902344 169.296875 137.503906 169.746094 136.707031 170.492188 C 135.933594 171.242188 134.664062 172.304688 133.300781 173.53125 C 131.890625 174.761719 130.09375 176.183594 128.023438 177.609375 C 126.042969 179.015625 123.714844 180.425781 121.042969 181.507812 C 115.699219 183.710938 109.933594 183.898438 105.414062 183.050781 C 103.152344 182.648438 101.222656 182.03125 99.851562 181.507812 C 98.496094 180.980469 97.742188 180.546875 97.742188 180.546875 C 97.742188 180.546875 98.078125 179.660156 98.753906 178.304688 C 99.464844 176.949219 100.382812 175.140625 101.902344 173.304688 C 103.40625 171.46875 105.273438 169.625 107.453125 168.171875 C 109.679688 166.707031 112.34375 165.625 115.175781 165.164062 C 120.871094 164.277344 126.515625 165.746094 130.75 166.9375 Z M 225.859375 58.058594 C 224.207031 53.789062 221.824219 50.617188 221.824219 50.617188 C 221.824219 50.617188 220.925781 50.761719 219.550781 51.167969 C 218.15625 51.640625 216.289062 52.390625 214.40625 53.453125 C 210.601562 55.578125 206.851562 59.015625 205.910156 63.828125 C 205.148438 67.644531 206.066406 71.71875 207.195312 75.214844 C 208.347656 78.707031 209.738281 81.621094 210.535156 83.1875 C 210.535156 82.09375 211.328125 81.105469 212.535156 80.390625 C 213.746094 79.65625 215.417969 79.042969 217.203125 78.371094 C 220.765625 77.011719 224.90625 75.515625 226.347656 72.257812 C 227.316406 70.011719 227.652344 67.496094 227.492188 65.023438 C 227.335938 62.597656 226.691406 60.195312 225.859375 58.058594 Z M 107.324219 104.332031 C 105.503906 104.265625 102.140625 104.058594 98.375 103.097656 C 94.617188 102.121094 90.4375 100.367188 87.082031 96.867188 C 87.082031 96.867188 88.925781 98.292969 92.445312 99.613281 C 95.957031 100.960938 101.152344 102.113281 107.71875 102.234375 C 107.390625 101.539062 106.9375 100.644531 106.363281 99.652344 C 105.871094 98.671875 105.28125 97.589844 104.554688 96.488281 C 103.097656 94.304688 101.128906 92.03125 98.453125 90.675781 C 94.867188 88.847656 90.621094 89.175781 87.195312 90.226562 C 83.785156 91.253906 81.246094 92.917969 81.246094 92.917969 C 81.246094 92.917969 81.347656 93.683594 81.628906 94.867188 C 81.960938 96.058594 82.578125 97.683594 83.410156 99.347656 C 84.253906 101.019531 85.355469 102.734375 86.730469 104.160156 C 88.0625 105.582031 89.914062 106.734375 91.84375 107.324219 C 94.957031 108.253906 98.152344 107.710938 100.871094 106.894531 C 103.585938 106.070312 106.054688 104.976562 107.324219 104.332031 Z M 298.019531 135.496094 C 296.621094 134.390625 295.011719 133.3125 293.253906 132.578125 C 291.421875 131.871094 289.492188 131.484375 287.59375 131.636719 C 283.796875 131.960938 280.777344 134.277344 278.632812 136.3125 C 276.535156 138.359375 275.164062 140.257812 275.164062 140.257812 C 275.164062 140.257812 276.820312 141.902344 279.460938 143.679688 C 280.769531 144.574219 282.367188 145.492188 284.050781 146.246094 C 285.675781 147.011719 287.46875 147.605469 289.355469 147.734375 C 293.125 148.003906 296.519531 146.265625 298.917969 144.25 C 300.113281 143.257812 301.09375 142.207031 301.714844 141.414062 C 302.328125 140.628906 302.652344 140.085938 302.652344 140.085938 C 302.652344 140.085938 300.804688 137.71875 298.019531 135.496094 Z M 273.347656 186.648438 C 275.1875 185.230469 276.808594 183.753906 277.734375 182.597656 C 278.664062 181.445312 279.167969 180.660156 279.167969 180.660156 C 279.167969 180.660156 276.515625 178.222656 272.382812 176.34375 C 268.257812 174.40625 262.660156 173.179688 256.894531 173.988281 C 254.015625 174.378906 251.371094 175.171875 249.058594 176.039062 C 247.902344 176.476562 246.824219 176.929688 245.835938 177.386719 C 245.355469 177.613281 244.882812 177.84375 244.417969 178.0625 C 243.9375 178.285156 243.46875 178.5 243.015625 178.710938 C 239.464844 180.386719 237.527344 181.75 237.527344 181.75 C 237.527344 181.75 238.199219 182.199219 239.300781 182.9375 C 240.394531 183.667969 241.976562 184.683594 243.894531 185.8125 C 247.761719 188.027344 252.839844 190.820312 258.605469 191.34375 C 261.464844 191.585938 264.226562 191.160156 266.78125 190.285156 C 269.28125 189.40625 271.460938 188.058594 273.347656 186.648438 Z M 281.152344 228.71875 C 278.523438 225.195312 273.695312 223.835938 269.269531 224.265625 C 266.679688 224.5 263.964844 225.238281 261.839844 224.09375 C 263.085938 224.71875 263.28125 229.101562 263.742188 230.503906 C 264.597656 232.960938 265.832031 235.277344 267.730469 236.9375 C 270.445312 239.316406 274.300781 239.941406 277.472656 239.714844 C 279.0625 239.621094 280.5 239.347656 281.535156 239.101562 C 282.574219 238.847656 283.195312 238.601562 283.195312 238.601562 C 283.5 238.488281 283.207031 236.140625 282.703125 233.804688 C 282.203125 231.453125 281.410156 229.074219 281.152344 228.71875 Z M 281.152344 228.71875 " fill-opacity="1" fill-rule="nonzero"/></g><g clip-path="url(#a4d321d0e4)"><path fill="#13577a" d="M 106.546875 216.464844 C 109.566406 217.523438 111.605469 218.699219 111.605469 218.699219 C 111.605469 218.699219 110.730469 220.878906 109.1875 223.378906 C 107.597656 225.886719 105.230469 228.871094 101.628906 230.105469 C 99.832031 230.714844 97.851562 230.816406 95.933594 230.554688 C 94.050781 230.269531 92.203125 229.636719 90.570312 228.910156 C 88.9375 228.183594 87.519531 227.359375 86.519531 226.71875 C 85.550781 226.054688 85 225.582031 85 225.582031 C 85 225.582031 85.796875 223.132812 87.609375 220.632812 C 89.414062 218.113281 92.25 215.613281 95.996094 214.933594 C 99.773438 214.257812 103.558594 215.410156 106.546875 216.464844 Z M 97.167969 159.992188 C 98.488281 159.246094 99.578125 158.570312 100.335938 158.082031 C 98.097656 158.347656 96.4375 155.4375 94.617188 152.023438 C 92.933594 148.675781 91.019531 144.765625 87.507812 143.707031 C 82.796875 142.300781 77.558594 143.738281 73.441406 145.921875 C 71.390625 146.992188 69.605469 148.207031 68.460938 149.1875 C 67.289062 150.164062 66.601562 150.851562 66.601562 150.851562 C 66.601562 150.851562 67.738281 154.398438 70.222656 157.878906 C 72.855469 161.410156 76.777344 164.722656 81.671875 165.0625 C 85.558594 165.347656 89.457031 163.921875 92.75 162.367188 C 94.40625 161.582031 95.863281 160.746094 97.167969 159.992188 Z M 171.925781 88.929688 C 170.515625 87.503906 169.089844 86.390625 168.027344 85.664062 C 166.976562 85 166.28125 84.671875 166.28125 84.671875 C 166.28125 84.671875 164.53125 87.347656 163.464844 91.144531 C 162.324219 94.875 162.148438 100.078125 163.988281 104.796875 C 165.847656 109.578125 168.996094 113.132812 171.453125 116.007812 C 173.914062 118.785156 175.6875 120.382812 175.6875 120.382812 C 175.6875 120.382812 175.871094 119.78125 176.140625 118.710938 C 176.425781 117.703125 176.820312 116.28125 177.210938 114.507812 C 177.964844 110.96875 178.902344 106.058594 178.171875 101.007812 C 177.453125 95.957031 174.785156 91.777344 171.925781 88.929688 Z M 245.785156 82.371094 C 246.792969 80.871094 247.34375 79.15625 247.566406 77.398438 C 247.800781 75.625 247.671875 73.867188 247.351562 72.339844 C 246.742188 69.25 245.5 66.851562 245.5 66.851562 C 245.351562 66.5625 243.066406 67.125 240.824219 67.898438 C 238.589844 68.617188 236.316406 69.738281 235.988281 70.054688 C 234.386719 71.59375 233.414062 73.597656 232.957031 75.75 C 232.496094 77.917969 232.589844 80.136719 233.03125 82.410156 C 233.578125 84.96875 234.628906 87.605469 233.761719 89.859375 C 234.222656 88.550781 238.589844 87.726562 239.9375 87.082031 C 242.242188 85.972656 244.386719 84.460938 245.785156 82.371094 Z M 200.195312 54.945312 C 199.429688 53.066406 198.363281 51.761719 198.363281 51.761719 C 198.363281 51.761719 196.53125 52.292969 194.542969 53.496094 C 192.542969 54.792969 190.421875 56.707031 189.707031 59.078125 C 188.984375 61.453125 189.71875 63.84375 190.535156 65.636719 C 191.363281 67.429688 192.308594 68.628906 192.308594 68.628906 C 192.308594 68.628906 192.695312 68.445312 193.300781 68.105469 C 193.910156 67.730469 194.738281 67.308594 195.628906 66.730469 C 197.414062 65.574219 199.503906 63.851562 200.460938 61.5625 C 201.414062 59.269531 200.972656 56.824219 200.195312 54.945312 Z M 274.863281 157.367188 C 274.613281 157.144531 274.195312 156.839844 273.636719 156.488281 C 272.546875 155.777344 270.996094 154.886719 269.148438 154.125 C 265.441406 152.5625 260.585938 151.683594 255.636719 152.933594 C 250.699219 154.183594 246.488281 156.929688 243.484375 158.972656 C 241.984375 160.019531 240.792969 160.921875 239.984375 161.570312 C 239.160156 162.222656 238.660156 162.621094 238.660156 162.621094 C 238.660156 162.621094 240.792969 163.644531 244.273438 164.867188 C 246.007812 165.472656 248.097656 166.125 250.355469 166.652344 C 252.546875 167.171875 254.972656 167.558594 257.523438 167.492188 C 260.074219 167.429688 262.503906 166.898438 264.726562 166.039062 C 266.878906 165.191406 268.746094 164.019531 270.3125 162.789062 C 273.441406 160.355469 275.269531 157.714844 275.269531 157.714844 C 275.269531 157.714844 275.132812 157.59375 274.863281 157.367188 Z M 256.15625 201.851562 C 255.109375 200.015625 253.722656 198.304688 251.921875 196.902344 C 248.28125 194.089844 243.773438 192.882812 240.261719 192.078125 C 236.742188 191.304688 234.230469 191.027344 234.230469 191.027344 C 234.230469 191.027344 234.367188 191.507812 234.601562 192.300781 C 234.835938 193.089844 235.28125 194.253906 235.835938 195.621094 C 236.988281 198.34375 238.683594 202.039062 241.765625 205.464844 C 244.8125 208.859375 248.886719 211.144531 252.363281 212.308594 C 255.789062 213.480469 258.566406 213.605469 258.566406 213.605469 C 258.566406 213.605469 258.65625 212.921875 258.660156 211.789062 C 258.636719 210.644531 258.527344 209.0625 258.1875 207.332031 C 257.78125 205.566406 257.167969 203.660156 256.15625 201.851562 Z M 211.472656 129.210938 C 211.175781 128.597656 205.910156 130.410156 205.59375 130.617188 C 203.417969 131.726562 201.597656 133.421875 200.890625 135.929688 C 200.082031 138.796875 200.777344 142.128906 200.832031 145.421875 C 200.871094 146.164062 200.933594 148.789062 200.105469 148.941406 C 201.214844 148.71875 203.214844 148.269531 205.351562 147.421875 C 207.492188 146.554688 209.738281 145.332031 211.226562 143.269531 C 213.09375 140.695312 213.238281 137.238281 212.816406 134.34375 C 212.402344 131.464844 211.472656 129.210938 211.472656 129.210938 Z M 134.992188 244.835938 C 132.902344 249.097656 132.828125 254.078125 133.5 258.765625 C 135.757812 257.417969 138.054688 256.039062 139.859375 254.113281 C 142.265625 251.550781 143.632812 248.191406 144.640625 244.824219 C 145.339844 242.46875 145.890625 240.0625 146.289062 237.640625 C 141.5625 237.246094 137.082031 240.574219 134.992188 244.835938 Z M 134.992188 244.835938 " fill-opacity="1" fill-rule="nonzero"/></g><g clip-path="url(#5b12f0cf69)"><path fill="#84b21f" d="M 85.007812 197.109375 C 88.5 195.148438 93.792969 193.289062 100.6875 192.597656 C 100.457031 193.484375 100.066406 194.640625 99.679688 195.90625 C 99.300781 197.171875 98.804688 198.578125 98.179688 200.003906 C 97.550781 201.433594 96.792969 202.890625 95.863281 204.230469 C 94.984375 205.554688 93.933594 206.761719 92.632812 207.707031 C 89.199219 210.25 84.546875 210.238281 80.792969 209.21875 C 77.089844 208.21875 74.214844 206.34375 74.214844 206.34375 C 74.214844 206.34375 74.191406 202.492188 75.550781 198.179688 C 76.214844 196.035156 77.042969 193.824219 78.378906 191.917969 C 79.703125 190.007812 81.34375 188.445312 83.304688 187.558594 C 86.425781 186.148438 89.882812 186.558594 92.886719 187.34375 C 94.386719 187.742188 95.78125 188.25 96.96875 188.734375 C 98.199219 189.21875 99.234375 189.679688 99.96875 190.027344 C 98.058594 190.261719 94.558594 190.792969 90.742188 192.300781 C 86.929688 193.820312 82.796875 196.339844 79.785156 200.964844 C 79.777344 200.964844 81.507812 199.046875 85.007812 197.109375 Z M 124.125 240.777344 C 123.105469 241.042969 121.371094 241.46875 119.484375 242.277344 C 117.609375 243.082031 115.609375 244.226562 114.332031 246.019531 C 112.738281 248.253906 112.585938 251.265625 113.105469 253.597656 C 113.59375 255.945312 114.523438 257.75 114.523438 257.75 C 114.648438 257.988281 115.882812 257.714844 117.109375 257.324219 C 118.359375 256.914062 119.585938 256.398438 119.746094 256.3125 C 121.679688 255.265625 123.261719 253.753906 123.828125 251.632812 C 124.15625 250.414062 124.105469 249.144531 124.015625 247.777344 C 123.921875 246.417969 123.71875 245.039062 123.597656 243.710938 C 123.542969 243.109375 123.378906 240.957031 124.125 240.777344 Z M 131.359375 118.273438 C 128.65625 115.976562 125.675781 114.453125 122.617188 113.589844 C 119.59375 112.742188 116.359375 112.457031 113.636719 112.722656 C 108.191406 113.234375 103.925781 115.222656 103.925781 115.222656 C 103.925781 115.222656 104.070312 116.425781 104.710938 118.386719 C 105.320312 120.332031 106.300781 122.9375 107.75 125.617188 C 110.515625 130.976562 115.839844 136.542969 122.371094 139.226562 C 124.808594 140.25 127.265625 140.394531 129.582031 140.21875 C 132.003906 140.09375 134.386719 139.6875 136.519531 139.332031 C 137.585938 139.15625 138.605469 138.996094 139.5625 138.894531 C 140.542969 138.808594 141.542969 138.828125 142.421875 138.894531 C 144.207031 139.054688 145.695312 139.566406 146.878906 140.648438 C 145.703125 138.625 143.601562 135.015625 141.246094 130.972656 C 138.726562 126.832031 135.632812 121.9375 131.359375 118.273438 Z M 149.992188 62.832031 C 147.746094 60.761719 145.429688 59.710938 145.429688 59.710938 C 145.429688 59.710938 143.285156 61.777344 141.40625 64.757812 C 139.539062 67.800781 138.125 71.972656 138.890625 75.652344 C 139.671875 79.359375 142.347656 82.09375 144.652344 84 C 146.972656 85.890625 148.976562 86.921875 148.976562 86.921875 C 148.976562 86.921875 149.324219 86.429688 149.835938 85.5625 C 150.375 84.753906 151.101562 83.621094 151.835938 82.21875 C 153.277344 79.449219 154.816406 75.644531 154.609375 71.832031 C 154.417969 68.09375 152.246094 64.863281 149.992188 62.832031 Z M 232.363281 127.160156 C 236.816406 125.148438 242.117188 122.628906 246.25 118.871094 C 251.539062 114.101562 253.597656 107.714844 253.890625 102.027344 C 254.109375 99.152344 253.660156 96.796875 253.324219 94.992188 C 252.964844 93.214844 252.589844 92.121094 252.589844 92.121094 C 252.589844 92.121094 251.335938 92.164062 249.386719 92.457031 C 247.476562 92.695312 244.679688 93.460938 241.84375 94.574219 C 238.980469 95.714844 236.007812 97.316406 233.363281 99.445312 C 230.722656 101.53125 228.324219 104.28125 226.558594 107.335938 C 224.03125 111.832031 224.488281 117.167969 224.691406 121.363281 C 224.796875 125.804688 224.527344 129.476562 222.074219 131.515625 C 223.082031 131.105469 224.632812 130.390625 226.335938 129.710938 C 228.0625 129.007812 230.121094 128.15625 232.363281 127.160156 Z M 302.652344 157.03125 C 299.277344 155.113281 294.917969 153.9375 290.890625 155.570312 C 287.886719 156.777344 285.460938 159.234375 283.574219 161.6875 C 282.632812 162.921875 281.839844 164.15625 281.164062 165.292969 C 280.398438 166.425781 279.777344 167.449219 279.320312 168.253906 C 286.164062 169.285156 291.753906 168.785156 295.625 167.746094 C 299.5 166.742188 301.660156 165.304688 301.660156 165.304688 C 297.582031 169.042969 292.949219 170.46875 288.878906 171.007812 C 284.808594 171.527344 281.285156 171.175781 279.378906 170.929688 C 280.59375 171.957031 282.96875 173.761719 285.65625 175.277344 C 288.339844 176.78125 291.570312 178.027344 294.957031 177.429688 C 297.058594 177.050781 299.171875 175.949219 300.796875 174.417969 C 302.460938 172.894531 303.898438 170.960938 305.050781 169.039062 C 306.203125 167.121094 307.109375 165.214844 307.660156 163.789062 C 308.148438 162.371094 308.378906 161.441406 308.378906 161.441406 C 308.378906 161.441406 306.019531 158.917969 302.652344 157.03125 Z M 245.324219 214.726562 C 243.21875 213.128906 240.882812 212.390625 238.515625 211.929688 C 236.183594 211.503906 233.816406 211.34375 231.640625 211.148438 C 227.261719 210.761719 223.644531 210.042969 221.898438 207.332031 C 222.511719 209.476562 223.539062 213.394531 224.949219 218.097656 C 225.652344 220.429688 226.480469 222.96875 227.519531 225.503906 C 228.539062 228.011719 229.777344 230.539062 231.417969 232.828125 C 233.476562 235.714844 236.027344 237.96875 238.761719 239.53125 C 241.507812 241.113281 244.488281 242.082031 247.21875 242.519531 C 249.976562 243.011719 252.472656 242.988281 254.292969 242.859375 C 256.136719 242.753906 257.238281 242.492188 257.238281 242.492188 C 257.238281 242.492188 257.6875 237.460938 256.136719 231.523438 C 254.648438 225.535156 251.039062 218.972656 245.324219 214.726562 Z M 162.929688 131.371094 C 160.242188 134.941406 159.488281 140.371094 161.058594 144.503906 C 162.621094 148.636719 166.363281 151.59375 169.253906 155.308594 C 171.121094 151.226562 172.4375 146.847656 171.722656 142.429688 C 171.007812 138.023438 167.957031 133.554688 162.929688 131.371094 Z M 162.929688 131.371094 " fill-opacity="1" fill-rule="nonzero"/></g><path fill="#59b8a9" d="M 143.664062 217.046875 C 147.773438 212.578125 150.792969 208.382812 152.429688 206.144531 C 152 207.960938 151.144531 211.410156 149.808594 215.523438 C 148.539062 219.492188 146.796875 224.1875 143.53125 227.972656 C 141.46875 230.347656 138.917969 232.09375 136.125 233.265625 C 133.347656 234.441406 130.460938 234.878906 127.699219 235.039062 C 124.914062 235.222656 122.511719 234.855469 120.71875 234.523438 C 118.929688 234.1875 117.8125 233.855469 117.8125 233.855469 C 117.8125 233.855469 117.800781 233.582031 117.777344 233.082031 C 117.75 232.59375 117.761719 231.859375 117.832031 230.960938 C 117.964844 229.164062 118.28125 226.734375 119.015625 224.183594 C 119.707031 221.65625 120.996094 218.871094 122.71875 216.449219 C 124.445312 214.003906 126.679688 211.863281 129.382812 210.246094 C 131.402344 209.035156 133.53125 208.1875 135.605469 207.542969 C 137.683594 206.902344 139.683594 206.484375 141.636719 206.085938 C 143.570312 205.710938 145.328125 205.453125 146.835938 205.269531 C 148.328125 205.078125 149.652344 204.910156 150.691406 204.769531 C 144.714844 212.847656 139.277344 219.167969 134.890625 223.003906 C 130.554688 226.890625 127.398438 228.449219 127.398438 228.449219 C 134.214844 226.257812 139.539062 221.472656 143.664062 217.046875 Z M 137.652344 192.84375 C 140.125 190.039062 141.519531 188.070312 141.519531 188.070312 C 141.519531 188.070312 140.90625 187.957031 139.816406 187.816406 C 138.757812 187.667969 137.296875 187.445312 135.472656 187.28125 C 133.65625 187.109375 131.503906 186.976562 129.183594 187.027344 C 126.863281 187.078125 124.460938 187.292969 121.992188 187.984375 C 119.546875 188.667969 117.28125 189.800781 115.410156 191.152344 C 113.535156 192.507812 111.976562 194.117188 110.75 195.691406 C 109.523438 197.261719 108.589844 198.8125 108.023438 199.953125 C 107.484375 201.078125 107.230469 201.8125 107.230469 201.8125 C 107.230469 201.8125 110.074219 203.226562 113.953125 203.839844 C 117.972656 204.421875 122.996094 204.042969 127.480469 201.628906 C 131.980469 199.191406 135.289062 195.546875 137.652344 192.84375 Z M 109.820312 143.566406 C 109.820312 143.566406 109.914062 144.257812 110.1875 145.351562 C 110.476562 146.453125 110.863281 147.929688 111.65625 149.535156 C 113.363281 152.800781 115.953125 156.289062 120.28125 158.152344 C 124.53125 160 129.195312 160.074219 132.746094 159.992188 C 134.519531 159.9375 136.023438 159.816406 137.132812 159.722656 C 138.207031 159.605469 138.867188 159.539062 138.867188 159.539062 C 138.867188 159.539062 138.023438 157.847656 136.15625 155.421875 C 134.53125 153.085938 131.917969 149.882812 128.046875 147.300781 C 124.179688 144.726562 119.710938 143.535156 116.109375 143.277344 C 112.523438 142.996094 109.820312 143.566406 109.820312 143.566406 Z M 80.042969 170.753906 C 77.652344 170.089844 75.277344 170.835938 73.511719 171.84375 C 71.746094 172.835938 70.582031 174.058594 70.582031 174.058594 C 70.582031 174.058594 70.777344 174.496094 71.144531 175.164062 C 71.492188 175.835938 72.101562 176.730469 72.855469 177.640625 C 74.355469 179.46875 76.480469 181.335938 78.917969 181.753906 C 81.355469 182.171875 83.644531 181.152344 85.335938 180.113281 C 87.03125 179.070312 88.121094 177.976562 88.121094 177.976562 C 88.121094 177.976562 87.222656 176.546875 85.78125 174.914062 C 84.398438 173.285156 82.4375 171.417969 80.042969 170.753906 Z M 135.644531 118.753906 C 138.980469 122.453125 143.472656 124.800781 147.316406 126.609375 C 149.246094 127.503906 151.03125 128.238281 152.53125 128.832031 C 154.050781 129.445312 155.355469 129.972656 156.292969 130.351562 C 154.246094 128.425781 150.417969 124.871094 146.492188 120.242188 C 142.601562 115.589844 138.621094 109.84375 137.214844 102.722656 C 137.214844 102.722656 138.378906 106.0625 141.707031 110.855469 C 144.980469 115.691406 150.574219 121.863281 157.828125 128.738281 C 157.746094 126.597656 157.957031 123.585938 157.660156 119.609375 C 157.316406 115.609375 156.9375 111.273438 155.03125 106.929688 C 153.761719 104.050781 151.898438 101.5625 149.675781 99.53125 C 148.570312 98.519531 147.367188 97.601562 146.140625 96.816406 C 144.9375 96.078125 143.695312 95.457031 142.472656 94.9375 C 140.03125 93.898438 137.65625 93.277344 135.890625 92.929688 C 135.003906 92.753906 134.277344 92.644531 133.769531 92.574219 C 133.257812 92.5 132.984375 92.5 132.984375 92.5 C 132.984375 92.5 131.125 96.847656 130.59375 102.171875 C 130.351562 104.867188 130.605469 107.96875 131.378906 110.816406 C 132.164062 113.703125 133.550781 116.417969 135.644531 118.753906 Z M 170.527344 57.554688 C 172.617188 59.199219 174.171875 61.25 175.332031 63.328125 C 176.488281 65.394531 177.25 67.503906 177.769531 69.496094 C 178.792969 73.484375 178.882812 77.019531 178.875 78.933594 C 179.742188 77.601562 181.25 75.144531 182.421875 72.207031 C 183.574219 69.269531 184.402344 65.851562 183.394531 62.617188 C 182.140625 58.535156 177.9375 55.535156 173.804688 53.648438 C 171.742188 52.640625 169.773438 52.1875 168.300781 51.832031 C 166.824219 51.496094 165.867188 51.363281 165.867188 51.363281 C 165.867188 51.363281 163.648438 53.964844 162.191406 57.503906 C 160.703125 61.074219 160.132812 65.738281 162.230469 69.449219 C 163.007812 70.851562 164.070312 72.011719 165.28125 73.074219 C 166.5 74.167969 167.851562 75.113281 169.199219 75.921875 C 171.894531 77.5625 174.527344 78.554688 176.230469 79.265625 C 176.402344 72.371094 175.210938 66.878906 173.699219 63.144531 C 172.203125 59.410156 170.527344 57.554688 170.527344 57.554688 Z M 195.226562 82.929688 C 193.597656 81.136719 191.921875 79.980469 190.660156 79.167969 C 189.402344 78.359375 188.558594 77.933594 188.558594 77.933594 C 188.558594 77.933594 186.472656 80.820312 185.117188 85.121094 C 183.710938 89.507812 183.191406 95.355469 184.710938 100.84375 C 185.453125 103.546875 186.566406 106.132812 187.710938 108.363281 C 188.863281 110.589844 190.054688 112.488281 191.097656 114.007812 C 192.144531 115.578125 193.046875 116.976562 193.695312 117.824219 C 194.339844 118.703125 194.738281 119.160156 194.738281 119.160156 C 194.738281 119.160156 195.097656 118.4375 195.695312 117.25 C 196.28125 116.035156 197.105469 114.269531 197.980469 112.300781 C 199.6875 108.28125 201.839844 102.886719 201.664062 97.089844 C 201.515625 91.144531 198.523438 86.390625 195.226562 82.929688 Z M 111.640625 92.714844 C 114.882812 94.03125 118.851562 93.601562 122.472656 93.703125 C 123.332031 93.746094 126.378906 93.976562 126.472656 95.007812 C 126.320312 93.621094 125.984375 91.109375 125.199219 88.386719 C 124.402344 85.664062 123.167969 82.726562 120.933594 80.675781 C 118.125 78.085938 114.136719 77.503906 110.761719 77.695312 C 109.921875 77.738281 109.125 77.828125 108.394531 77.933594 C 107.699219 78.074219 107.074219 78.234375 106.546875 78.386719 C 105.496094 78.683594 104.855469 78.933594 104.855469 78.933594 C 104.128906 79.238281 105.722656 85.929688 105.9375 86.339844 C 107.023438 89.140625 108.804688 91.558594 111.640625 92.714844 Z M 268.945312 122.339844 C 267.238281 121.609375 264.863281 120.75 262.21875 120.1875 C 260.894531 119.902344 259.496094 119.691406 258.078125 119.605469 C 256.636719 119.535156 255.089844 119.628906 253.609375 119.851562 C 250.621094 120.300781 247.730469 121.351562 245.148438 123.148438 C 241.058594 126.007812 238.210938 130.148438 235.996094 133.707031 C 235.445312 134.597656 234.945312 135.460938 234.476562 136.28125 C 233.988281 137.117188 233.519531 137.914062 233.082031 138.664062 C 232.246094 140.128906 231.589844 141.339844 231.140625 142.195312 C 233.285156 140.410156 237.261719 137.0625 242.335938 133.738281 C 247.4375 130.445312 253.648438 127.1875 260.972656 126.617188 C 260.972656 126.617188 257.484375 127.382812 252.304688 130.105469 C 247.085938 132.769531 240.316406 137.535156 232.601562 143.890625 C 234.5 144.207031 237.710938 144.644531 241.710938 144.832031 C 245.457031 145.097656 250.027344 145.164062 254.539062 143.816406 C 260.597656 142.046875 265.226562 137.535156 268.054688 132.792969 C 270.675781 128.238281 271.511719 123.742188 271.511719 123.742188 C 271.511719 123.742188 270.546875 123.121094 268.945312 122.339844 Z M 260.890625 90.867188 C 261.054688 92.007812 261.257812 92.988281 261.425781 93.734375 C 266.503906 89.5625 269.859375 85.4375 271.777344 82.203125 C 273.714844 78.980469 274.277344 76.71875 274.277344 76.71875 C 273.820312 81.542969 271.628906 85.511719 269.289062 88.613281 C 266.933594 91.707031 264.425781 93.949219 263.035156 95.132812 C 264.433594 94.84375 267.046875 94.175781 269.695312 93.132812 C 272.328125 92.089844 275.167969 90.523438 277.035156 87.867188 C 278.183594 86.214844 278.921875 84.15625 279.082031 82.214844 C 279.269531 80.246094 279.066406 78.214844 278.695312 76.382812 C 278.316406 74.5625 277.785156 72.910156 277.308594 71.765625 C 276.789062 70.664062 276.398438 69.996094 276.398438 69.996094 C 276.398438 69.996094 273.371094 70.265625 270.0625 71.582031 C 266.726562 72.878906 263.1875 75.257812 261.515625 78.917969 C 260.261719 81.644531 260.128906 84.636719 260.339844 87.257812 C 260.457031 88.582031 260.667969 89.789062 260.890625 90.867188 Z M 186.792969 126.710938 C 184.636719 124.933594 182.445312 124.007812 182.445312 124.007812 C 182.445312 124.007812 181.988281 124.40625 181.34375 125.105469 C 180.710938 125.84375 179.921875 126.945312 179.199219 128.21875 C 178.476562 129.496094 177.835938 130.957031 177.507812 132.472656 C 177.160156 133.960938 177.21875 135.667969 177.671875 137.179688 C 178.425781 139.613281 180.171875 141.460938 181.882812 142.871094 C 183.609375 144.28125 185.394531 145.410156 186.371094 145.960938 C 185.617188 144.746094 184.289062 142.464844 183.273438 139.59375 C 182.269531 136.71875 181.589844 133.230469 182.40625 129.523438 C 182.40625 129.523438 182.28125 131.34375 182.957031 134.210938 C 183.609375 137.085938 185.125 140.972656 187.910156 145.300781 C 188.21875 144.78125 188.605469 144.097656 188.996094 143.296875 C 189.421875 142.546875 189.871094 141.695312 190.269531 140.738281 C 191.058594 138.832031 191.675781 136.566406 191.394531 134.230469 C 191.035156 131.109375 188.964844 128.484375 186.792969 126.710938 Z M 301.90625 214.667969 C 301.632812 213.230469 301.222656 211.320312 300.367188 209.308594 C 299.539062 207.300781 298.40625 205.242188 296.867188 203.507812 C 295.296875 201.769531 293.359375 200.363281 291.03125 199.585938 C 287.308594 198.355469 283.285156 198.804688 279.652344 199.496094 C 276.042969 200.21875 272.992188 201.242188 271.246094 201.8125 C 273.464844 202.089844 274.441406 205.34375 275.28125 209.0625 C 276.238281 212.789062 276.984375 216.984375 280.167969 218.882812 C 284.386719 221.398438 289.867188 221.289062 294.378906 220.15625 C 296.59375 219.59375 298.570312 218.816406 299.980469 218.175781 C 301.40625 217.535156 302.226562 217.03125 302.226562 217.03125 C 302.226562 217.03125 302.171875 216.097656 301.90625 214.667969 Z M 273.984375 102.511719 C 272.300781 105.550781 272.339844 109.457031 271.613281 113.167969 C 271.480469 114.007812 270.921875 116.96875 269.871094 116.953125 C 271.28125 116.964844 273.839844 116.917969 276.664062 116.464844 C 279.5 115.988281 282.535156 115.136719 284.859375 113.160156 C 287.765625 110.699219 288.777344 106.847656 288.960938 103.5 C 289.15625 100.164062 288.5625 97.417969 288.5625 97.417969 C 288.347656 96.660156 281.460938 97.476562 281.019531 97.632812 C 278.09375 98.378906 275.460938 99.863281 273.984375 102.511719 Z M 236.648438 244.0625 C 233.792969 248.488281 234.355469 254.832031 237.945312 258.679688 C 240.179688 261.078125 243.28125 262.4375 246.285156 263.742188 C 245.28125 259.484375 246.589844 254.78125 244.835938 250.765625 C 243.382812 247.445312 240.066406 245.285156 236.648438 244.0625 Z M 221.09375 146.851562 C 217.601562 148.023438 214.839844 152.644531 212.371094 155.378906 C 216.074219 157.265625 221.855469 158.980469 225.703125 157.410156 C 229.550781 155.839844 231.546875 151.101562 234.324219 148.011719 C 229.996094 147.960938 225.203125 145.480469 221.09375 146.851562 Z M 156.449219 149.265625 C 152.359375 146.871094 147.480469 145.867188 142.777344 146.453125 C 146.808594 154.898438 156.253906 160.421875 165.589844 159.808594 C 163.804688 155.421875 160.539062 151.65625 156.449219 149.265625 Z M 156.449219 149.265625 " fill-opacity="1" fill-rule="nonzero"/><g clip-path="url(#75ec855b0b)"><path fill="#fefae0" d="M 96.769531 135.851562 C 92.648438 137.378906 87.628906 137.230469 84.203125 134.460938 C 83.847656 134.175781 82.519531 132.078125 81.386719 129.914062 C 80.246094 127.757812 79.519531 125.605469 79.765625 125.414062 C 79.765625 125.414062 82.027344 123.90625 85.058594 122.933594 C 88.089844 121.9375 91.863281 121.546875 95.089844 123.1875 C 97.335938 124.320312 99.167969 126.289062 100.621094 128.472656 C 101.417969 129.726562 102.710938 133.921875 104.066406 134.226562 C 101.753906 133.644531 99.097656 134.945312 96.769531 135.851562 Z M 205.59375 120.789062 C 206.382812 120.375 207.484375 119.8125 208.746094 119.160156 C 210.019531 118.464844 211.519531 117.546875 213.09375 116.355469 C 214.671875 115.160156 216.335938 113.710938 217.789062 112.035156 C 220.765625 108.609375 222.53125 104.28125 223.273438 100.660156 C 223.664062 98.835938 223.792969 97.273438 223.816406 96.164062 C 223.847656 95.042969 223.785156 94.359375 223.785156 94.359375 C 223.785156 94.359375 220.949219 94.449219 217.601562 95.519531 C 215.953125 95.988281 214.070312 97.027344 212.390625 98.253906 C 210.703125 99.507812 209.167969 101.089844 207.992188 103.046875 C 205.65625 106.964844 205 111.621094 204.636719 115.203125 C 204.308594 118.800781 204.347656 121.332031 204.347656 121.332031 C 204.347656 121.332031 204.808594 121.171875 205.59375 120.789062 Z M 297.753906 184.140625 C 295.46875 183.132812 293.023438 183.558594 291.164062 184.152344 C 290.226562 184.449219 289.449219 184.804688 288.886719 185.070312 C 288.296875 185.335938 287.953125 185.535156 287.953125 185.535156 C 287.953125 185.535156 288.386719 187.121094 289.347656 189.046875 C 290.308594 190.964844 291.796875 193.253906 293.96875 194.484375 C 296.140625 195.710938 298.609375 195.566406 300.550781 195.027344 C 302.496094 194.496094 303.898438 193.605469 303.898438 193.605469 C 303.898438 193.605469 303.542969 191.710938 302.609375 189.597656 C 301.734375 187.488281 300.050781 185.148438 297.753906 184.140625 Z M 127.484375 62.359375 C 125.546875 63.332031 124.523438 65.625 124.574219 67.789062 C 124.628906 69.953125 125.597656 72.003906 126.800781 73.808594 C 128.839844 76.867188 131.617188 79.429688 134.828125 81.21875 C 134.898438 77.6875 134.683594 74.113281 133.59375 70.75 C 132.503906 67.390625 130.464844 64.25 127.484375 62.359375 Z M 304.628906 118.875 C 298.867188 116.6875 292.15625 117.152344 286.757812 120.117188 C 285.734375 120.679688 284.636719 121.519531 284.621094 122.691406 C 291.222656 125.625 299.5625 124.027344 304.628906 118.875 Z M 98.425781 234.640625 C 95.527344 235.488281 92.46875 237.039062 91.496094 239.890625 C 98.242188 242.507812 106.660156 239.664062 110.453125 233.492188 C 106.414062 233.121094 102.3125 233.503906 98.425781 234.640625 Z M 187.648438 192.871094 C 195.566406 192.871094 201.984375 185.601562 201.984375 176.640625 C 201.984375 167.675781 195.566406 160.410156 187.648438 160.410156 C 179.730469 160.410156 173.3125 167.675781 173.3125 176.640625 C 173.3125 185.601562 179.730469 192.871094 187.648438 192.871094 Z M 188.035156 226.308594 C 180.558594 202.273438 166.886719 178.261719 142.734375 160.054688 C 142.734375 160.054688 204.15625 240.207031 155.550781 324.394531 L 220.511719 324.394531 C 171.90625 240.207031 233.335938 160.054688 233.335938 160.054688 C 209.175781 178.253906 195.503906 202.269531 188.035156 226.308594 Z M 188.035156 226.308594 " fill-opacity="1" fill-rule="nonzero"/></g></svg>