<svg xmlns="http://www.w3.org/2000/svg" xmlns:xlink="http://www.w3.org/1999/xlink" width="500" zoomAndPan="magnify" viewBox="0 0 375 374.999991" height="500" preserveAspectRatio="xMidYMid meet" version="1.0"><defs><clipPath id="e836317432"><path d="M 28.210938 6.746094 L 221 6.746094 L 221 368.246094 L 28.210938 368.246094 Z M 28.210938 6.746094 " clip-rule="nonzero"/></clipPath><clipPath id="6512a32426"><path d="M 217 49 L 346.960938 49 L 346.960938 320 L 217 320 Z M 217 49 " clip-rule="nonzero"/></clipPath></defs><g clip-path="url(#e836317432)"><path fill="#fefae0" d="M 205.300781 211.679688 C 155.832031 247.1875 138.8125 312.84375 164.332031 368.136719 C 218.851562 336.09375 237.128906 266.035156 205.300781 211.679688 Z M 116.125 329.808594 C 113.292969 334.199219 114.863281 340.171875 119.277344 342.679688 C 124.003906 345.199219 129.675781 343.628906 132.195312 339.226562 C 134.714844 334.832031 133.140625 329.171875 128.730469 326.351562 C 124.316406 323.835938 118.644531 325.40625 116.125 329.808594 Z M 56.25 263.515625 C 51.523438 266.035156 50.261719 271.683594 52.78125 276.085938 C 55.3125 280.800781 60.984375 282.371094 65.386719 279.542969 C 69.800781 277.023438 71.382812 271.371094 68.851562 266.972656 C 66.332031 262.578125 60.660156 261.007812 56.25 263.515625 Z M 37.660156 176.191406 C 32.300781 176.191406 28.210938 180.273438 28.210938 185.609375 C 28.210938 190.636719 32.300781 194.714844 37.660156 194.714844 C 42.707031 194.714844 46.796875 190.636719 46.796875 185.609375 C 46.796875 180.273438 42.707031 176.191406 37.660156 176.191406 Z M 65.386719 91.367188 C 60.984375 88.847656 54.988281 90.417969 52.472656 94.820312 C 49.953125 99.222656 51.523438 104.875 55.9375 107.394531 C 60.347656 109.902344 66.023438 108.640625 68.851562 103.929688 C 71.382812 99.535156 69.800781 93.875 65.386719 91.367188 Z M 131.882812 31.671875 C 129.363281 27.28125 123.691406 25.710938 118.96875 28.21875 C 114.554688 30.738281 112.972656 36.386719 115.8125 41.101562 C 118.332031 45.503906 124.003906 47.074219 128.417969 44.246094 C 132.828125 41.726562 134.402344 36.074219 131.882812 31.671875 Z M 194.265625 204.457031 C 133.777344 210.429688 85.867188 258.8125 80.519531 319.441406 C 102.574219 319.117188 123.367188 312.84375 140.707031 301.53125 C 144.488281 264.152344 163.074219 228.652344 194.265625 204.457031 Z M 208.765625 162.671875 C 233.660156 107.070312 215.695312 41.726562 165.914062 6.863281 C 154.882812 26.023438 150.160156 47.386719 151.105469 67.804688 C 181.675781 89.484375 203.40625 123.410156 208.765625 162.671875 Z M 196.796875 168.648438 C 190.800781 108.019531 142.28125 60.261719 81.46875 54.921875 C 81.777344 77.234375 88.074219 97.652344 99.421875 115.238281 C 136.921875 118.695312 172.535156 137.230469 196.796875 168.648438 Z M 189.542969 179.324219 C 153.9375 130.007812 88.074219 113.042969 32.621094 138.488281 C 43.96875 157.648438 60.035156 172.101562 78.3125 181.84375 C 112.660156 166.140625 152.675781 164.570312 189.542969 179.324219 Z M 188.59375 192.519531 C 132.828125 167.699219 67.28125 185.609375 32.300781 235.5625 C 51.523438 246.238281 72.640625 250.953125 93.4375 250.007812 C 115.179688 219.535156 149.210938 197.859375 188.59375 192.519531 Z M 188.59375 192.519531 " fill-opacity="1" fill-rule="evenodd"/></g><g clip-path="url(#6512a32426)"><path fill="#fefae0" d="M 217.902344 49.582031 C 225.160156 64.351562 231.453125 79.429688 236.179688 94.820312 C 241.539062 97.339844 249.417969 100.160156 252.25 102.679688 C 263.59375 112.417969 268.332031 124.03125 266.4375 137.863281 L 266.4375 138.175781 C 269.589844 138.175781 272.734375 137.863281 275.886719 136.917969 C 273.367188 139.4375 269.902344 141.007812 266.4375 141.632812 C 266.746094 159.542969 277.144531 171.164062 298.261719 176.503906 C 304.246094 179.324219 301.09375 183.414062 289.4375 189.066406 C 286.285156 192.519531 286.917969 195.976562 291.957031 199.429688 C 291.332031 202.886719 289.125 205.714844 285.335938 207.914062 C 289.125 211.679688 289.4375 215.132812 285.972656 217.964844 C 282.191406 221.730469 282.191406 226.445312 285.972656 232.109375 C 290.070312 243.730469 284.078125 249.070312 268.007812 247.8125 C 255.402344 250.007812 246.898438 253.148438 243.113281 257.550781 C 238.386719 278.90625 231.765625 299.648438 222.628906 319.441406 C 292.277344 313.78125 346.785156 255.667969 346.785156 184.675781 C 346.785156 112.097656 289.75 53.039062 217.902344 49.582031 Z M 217.902344 49.582031 " fill-opacity="1" fill-rule="evenodd"/></g></svg>