<svg xmlns="http://www.w3.org/2000/svg" xmlns:xlink="http://www.w3.org/1999/xlink" width="500" zoomAndPan="magnify" viewBox="0 0 375 374.999991" height="500" preserveAspectRatio="xMidYMid meet" version="1.0"><defs><clipPath id="9e61fcf15f"><path d="M 13.488281 13.488281 L 361.488281 13.488281 L 361.488281 361.488281 L 13.488281 361.488281 Z M 13.488281 13.488281 " clip-rule="nonzero"/></clipPath></defs><g clip-path="url(#9e61fcf15f)"><path fill="#fefae0" d="M 187.5 13.488281 C 91.484375 13.488281 13.488281 91.484375 13.488281 187.5 C 13.488281 283.511719 91.484375 361.511719 187.5 361.511719 C 283.511719 361.511719 361.511719 283.511719 361.511719 187.5 C 361.511719 91.484375 283.511719 13.488281 187.5 13.488281 Z M 187.5 28.617188 C 275.335938 28.617188 346.378906 99.664062 346.378906 187.5 C 346.378906 275.335938 275.335938 346.378906 187.5 346.378906 C 99.664062 346.378906 28.617188 275.335938 28.617188 187.5 C 28.617188 99.664062 99.664062 28.617188 187.5 28.617188 Z M 137.863281 119.40625 L 137.863281 255.589844 L 191 255.589844 C 219.976562 255.589844 237.148438 241.332031 237.148438 217.363281 C 237.148438 199.339844 225.34375 186.609375 206.753906 184.25 L 206.753906 182.726562 C 219.871094 180.375 230.25 167.535156 230.25 153.378906 C 230.25 132.519531 214.964844 119.40625 189.953125 119.40625 Z M 154.855469 134.421875 L 186.375 134.421875 C 203.269531 134.421875 213.078125 142.445312 213.078125 156.320312 C 213.078125 170.753906 202.601562 178.117188 182.03125 178.117188 L 154.855469 178.117188 Z M 154.84375 192.746094 L 186.835938 192.746094 C 208.539062 192.746094 219.683594 200.761719 219.683594 216.519531 C 219.683594 232.28125 208.925781 240.59375 188.445312 240.59375 L 154.84375 240.59375 Z M 154.84375 192.746094 " fill-opacity="1" fill-rule="nonzero"/></g></svg>