<svg xmlns="http://www.w3.org/2000/svg" xmlns:xlink="http://www.w3.org/1999/xlink" width="500" zoomAndPan="magnify" viewBox="0 0 375 374.999991" height="500" preserveAspectRatio="xMidYMid meet" version="1.0"><defs><clipPath id="9449903d1b"><path d="M 85.488281 7 L 289.488281 7 L 289.488281 368.765625 L 85.488281 368.765625 Z M 85.488281 7 " clip-rule="nonzero"/></clipPath><clipPath id="5fb2c22099"><path d="M 85.488281 7 L 289.488281 7 L 289.488281 368.765625 L 85.488281 368.765625 Z M 85.488281 7 " clip-rule="nonzero"/></clipPath></defs><g clip-path="url(#9449903d1b)"><path fill="#1c2628" d="M 185.429688 368.289062 C 185.324219 368.289062 185.222656 368.261719 185.132812 368.207031 L 86.210938 309.828125 C 85.976562 309.6875 85.867188 309.398438 85.957031 309.136719 L 86.054688 308.859375 C 91.308594 293.710938 102.707031 281.71875 117.328125 275.957031 C 129.136719 271.308594 138.945312 262.589844 144.953125 251.402344 C 144.96875 251.375 144.976562 251.34375 144.976562 251.3125 L 145.613281 27.589844 C 145.625 22.371094 147.429688 18.453125 150.691406 16.554688 L 164.328125 8.625 C 165.695312 7.832031 167.246094 7.429688 168.941406 7.429688 C 171.339844 7.429688 173.921875 8.21875 176.613281 9.773438 L 272.414062 65.082031 C 281.644531 70.410156 289.128906 83.375 289.097656 93.976562 L 288.457031 320.574219 C 288.441406 325.796875 286.636719 329.71875 283.371094 331.617188 L 269.738281 339.539062 C 268.351562 340.335938 266.808594 340.734375 265.125 340.734375 C 262.726562 340.734375 260.144531 339.945312 257.453125 338.390625 L 233.882812 324.785156 C 233.851562 324.765625 233.820312 324.757812 233.785156 324.757812 C 233.738281 324.757812 233.691406 324.773438 233.65625 324.808594 C 228.738281 329.316406 223.105469 332.855469 216.914062 335.328125 C 202.425781 341.113281 191.183594 352.882812 186.074219 367.621094 L 185.976562 367.898438 C 185.921875 368.066406 185.792969 368.195312 185.628906 368.253906 C 185.566406 368.277344 185.496094 368.289062 185.429688 368.289062 Z M 185.429688 368.289062 " fill-opacity="1" fill-rule="nonzero"/></g><path fill="#386641" d="M 269.632812 100.378906 L 269 323.945312 C 268.976562 331.445312 263.652344 334.472656 257.128906 330.707031 L 237.867188 319.585938 C 240.808594 316.140625 243.335938 312.324219 245.355469 308.191406 C 253.109375 292.320312 257.15625 274.898438 257.195312 257.238281 L 257.507812 101.640625 C 257.511719 99.992188 256.644531 98.46875 255.226562 97.632812 L 162.082031 42.660156 C 160.539062 41.75 158.585938 42.859375 158.582031 44.65625 L 158.273438 198.855469 C 158.242188 212.773438 155.710938 226.539062 150.851562 239.519531 L 151.4375 32.140625 C 151.460938 24.640625 156.785156 21.605469 163.308594 25.375 L 185.929688 38.433594 L 185.921875 41.148438 C 185.914062 43.75 187.753906 46.933594 190.023438 48.242188 L 231.082031 71.949219 C 233.355469 73.261719 235.203125 72.207031 235.210938 69.601562 L 235.21875 66.890625 L 257.839844 79.949219 C 264.363281 83.714844 269.65625 92.882812 269.632812 100.378906 Z M 269.632812 100.378906 " fill-opacity="1" fill-rule="nonzero"/><path fill="#fefae0" d="M 288.519531 93.972656 L 287.875 320.570312 L 274.246094 328.492188 L 274.886719 101.894531 Z M 162.691406 18.195312 L 258.492188 73.507812 L 272.125 65.585938 L 176.324219 10.273438 Z M 162.691406 18.195312 " fill-opacity="1" fill-rule="nonzero"/><path fill="#d7907b" d="M 274.246094 328.492188 L 287.875 320.570312 C 287.859375 325.753906 286.03125 329.398438 283.078125 331.113281 L 269.449219 339.035156 C 272.398438 337.320312 274.230469 333.675781 274.246094 328.492188 Z M 164.617188 9.128906 L 150.988281 17.050781 C 153.980469 15.3125 158.121094 15.554688 162.691406 18.195312 L 176.324219 10.273438 C 171.75 7.636719 167.609375 7.390625 164.617188 9.128906 Z M 288.519531 93.972656 C 288.546875 83.542969 281.207031 70.828125 272.125 65.585938 L 258.492188 73.507812 C 267.578125 78.75 274.917969 91.464844 274.886719 101.894531 Z M 288.519531 93.972656 " fill-opacity="1" fill-rule="nonzero"/><path fill="#ffffff" d="M 257.507812 101.640625 L 257.195312 257.238281 C 257.15625 274.898438 253.109375 292.320312 245.355469 308.191406 C 243.335938 312.324219 240.808594 316.140625 237.867188 319.585938 C 232.1875 326.242188 224.949219 331.492188 216.699219 334.789062 C 202.0625 340.632812 190.6875 352.542969 185.527344 367.429688 L 185.429688 367.710938 L 86.507812 309.328125 L 86.601562 309.050781 C 91.738281 294.246094 102.960938 282.242188 117.539062 276.5 C 130.171875 271.523438 140.476562 262 146.433594 249.808594 C 148.078125 246.445312 149.542969 243.007812 150.851562 239.519531 C 155.710938 226.539062 158.242188 212.773438 158.273438 198.855469 L 158.582031 44.65625 C 158.585938 42.859375 160.539062 41.75 162.082031 42.660156 L 255.226562 97.632812 C 256.644531 98.46875 257.511719 99.992188 257.507812 101.640625 Z M 257.507812 101.640625 " fill-opacity="1" fill-rule="nonzero"/><path fill="#386641" d="M 248.71875 128.621094 L 245.367188 121.078125 L 248.351562 118.410156 C 248.667969 118.125 248.695312 117.636719 248.410156 117.316406 C 248.125 117 247.636719 116.972656 247.320312 117.257812 L 244.707031 119.59375 L 241.261719 111.835938 L 243.632812 113.207031 C 244.15625 113.507812 244.675781 113.660156 245.167969 113.660156 C 245.570312 113.660156 245.949219 113.558594 246.296875 113.359375 C 247.175781 112.851562 247.679688 111.757812 247.679688 110.355469 C 247.679688 107.945312 246.242188 105.230469 244.40625 104.171875 L 237.6875 100.289062 C 237.449219 100.152344 237.15625 100.152344 236.914062 100.289062 C 236.675781 100.429688 236.527344 100.683594 236.527344 100.960938 L 236.527344 122.089844 C 236.527344 122.515625 236.875 122.863281 237.300781 122.863281 C 237.730469 122.863281 238.074219 122.515625 238.074219 122.089844 L 238.074219 110 L 238.980469 110.523438 L 243.492188 120.675781 L 240.292969 123.539062 C 239.972656 123.820312 239.945312 124.3125 240.230469 124.628906 C 240.382812 124.800781 240.59375 124.886719 240.808594 124.886719 C 240.992188 124.886719 241.175781 124.824219 241.324219 124.691406 L 244.152344 122.160156 L 247.304688 129.25 C 247.433594 129.539062 247.714844 129.710938 248.011719 129.710938 C 248.117188 129.710938 248.222656 129.6875 248.324219 129.644531 C 248.714844 129.46875 248.890625 129.011719 248.71875 128.621094 Z M 238.074219 102.300781 L 243.632812 105.511719 C 244.988281 106.292969 246.132812 108.511719 246.132812 110.355469 C 246.132812 111.175781 245.90625 111.796875 245.523438 112.019531 C 245.152344 112.234375 244.664062 112.015625 244.40625 111.867188 L 238.074219 108.210938 Z M 218.183594 98.15625 L 218.183594 105.105469 C 218.183594 105.382812 218.035156 105.636719 217.796875 105.773438 C 217.554688 105.910156 217.261719 105.910156 217.023438 105.773438 L 209.636719 101.511719 L 209.636719 109.976562 C 209.636719 110.253906 209.488281 110.507812 209.246094 110.648438 C 209.128906 110.714844 208.996094 110.75 208.859375 110.75 C 208.726562 110.75 208.59375 110.714844 208.472656 110.648438 L 202.417969 107.152344 C 202.179688 107.011719 202.03125 106.757812 202.03125 106.480469 L 202.03125 97.121094 L 193.871094 92.410156 C 193.632812 92.269531 193.484375 92.015625 193.484375 91.738281 L 193.484375 84.789062 C 193.484375 84.511719 193.632812 84.257812 193.871094 84.117188 C 194.109375 83.980469 194.40625 83.980469 194.644531 84.117188 L 202.03125 88.382812 L 202.03125 79.914062 C 202.03125 79.636719 202.179688 79.382812 202.417969 79.246094 C 202.65625 79.109375 202.953125 79.109375 203.191406 79.246094 L 209.246094 82.742188 C 209.488281 82.878906 209.636719 83.136719 209.636719 83.410156 L 209.636719 92.773438 L 217.796875 97.484375 C 218.035156 97.621094 218.183594 97.878906 218.183594 98.15625 Z M 218.183594 98.15625 " fill-opacity="1" fill-rule="nonzero"/><g clip-path="url(#5fb2c22099)"><path fill="#1c2628" d="M 272.511719 64.914062 L 176.710938 9.605469 C 172.035156 6.90625 167.601562 6.5 164.230469 8.460938 L 150.605469 16.378906 C 150.605469 16.378906 150.601562 16.378906 150.601562 16.378906 C 150.597656 16.382812 150.59375 16.386719 150.59375 16.386719 C 147.269531 18.320312 145.433594 22.296875 145.417969 27.589844 L 144.785156 251.3125 C 138.789062 262.46875 129.089844 271.117188 117.257812 275.777344 C 102.585938 281.558594 91.144531 293.59375 85.871094 308.792969 L 85.773438 309.074219 C 85.65625 309.421875 85.796875 309.804688 86.113281 309.992188 L 185.035156 368.375 C 185.15625 368.445312 185.292969 368.484375 185.429688 368.484375 C 185.519531 368.484375 185.609375 368.46875 185.695312 368.433594 C 185.914062 368.355469 186.085938 368.183594 186.160156 367.960938 L 186.257812 367.683594 C 191.351562 353 202.550781 341.269531 216.984375 335.507812 C 223.242188 333.007812 228.917969 329.414062 233.785156 324.949219 L 257.359375 338.558594 C 260.082031 340.132812 262.726562 340.925781 265.125 340.925781 C 266.828125 340.925781 268.40625 340.527344 269.804688 339.722656 C 269.816406 339.71875 269.824219 339.710938 269.832031 339.707031 C 269.835938 339.707031 269.835938 339.707031 269.835938 339.703125 L 283.46875 331.78125 C 286.792969 329.851562 288.632812 325.871094 288.648438 320.574219 L 289.292969 93.976562 C 289.320312 83.3125 281.792969 70.273438 272.511719 64.914062 Z M 273.445312 335.816406 C 273.476562 335.753906 273.507812 335.6875 273.539062 335.625 C 273.601562 335.492188 273.667969 335.355469 273.730469 335.21875 C 273.777344 335.113281 273.824219 335.003906 273.867188 334.894531 C 273.925781 334.753906 273.980469 334.613281 274.035156 334.46875 C 274.078125 334.355469 274.117188 334.238281 274.160156 334.121094 C 274.207031 333.976562 274.253906 333.832031 274.300781 333.683594 C 274.335938 333.558594 274.371094 333.4375 274.40625 333.308594 C 274.449219 333.160156 274.488281 333.011719 274.523438 332.859375 C 274.554688 332.726562 274.585938 332.59375 274.613281 332.460938 C 274.648438 332.308594 274.679688 332.152344 274.707031 331.996094 C 274.730469 331.859375 274.757812 331.71875 274.777344 331.578125 C 274.804688 331.421875 274.828125 331.261719 274.847656 331.101562 C 274.867188 330.953125 274.882812 330.808594 274.898438 330.65625 C 274.917969 330.496094 274.933594 330.332031 274.945312 330.167969 C 274.957031 330.015625 274.96875 329.863281 274.976562 329.707031 C 274.988281 329.539062 274.996094 329.371094 275 329.199219 C 275.003906 329.113281 275.011719 329.027344 275.011719 328.941406 L 287.050781 321.945312 C 286.761719 325.972656 285.238281 328.964844 282.691406 330.445312 Z M 232.375 324.136719 C 227.722656 328.320312 222.339844 331.703125 216.410156 334.070312 C 201.761719 339.917969 190.347656 351.742188 185.011719 366.566406 L 87.445312 308.984375 C 92.621094 294.359375 103.675781 282.792969 117.824219 277.21875 C 129.136719 272.761719 138.554688 264.765625 144.78125 254.449219 C 145.046875 254.007812 145.300781 253.5625 145.550781 253.113281 C 145.820312 252.644531 146.078125 252.167969 146.328125 251.6875 C 146.601562 251.179688 146.875 250.667969 147.128906 250.148438 C 148.175781 248.003906 149.152344 245.824219 150.066406 243.617188 C 150.332031 242.972656 150.589844 242.328125 150.84375 241.683594 C 151.109375 241.003906 151.367188 240.320312 151.621094 239.632812 C 156.464844 226.621094 159.015625 212.722656 159.046875 198.855469 L 159.355469 44.65625 C 159.355469 44.09375 159.648438 43.59375 160.136719 43.316406 C 160.625 43.039062 161.207031 43.042969 161.691406 43.328125 L 254.832031 98.296875 C 256.007812 98.992188 256.738281 100.273438 256.734375 101.636719 L 256.421875 257.066406 L 256.421875 257.234375 C 256.421875 257.8125 256.40625 258.386719 256.394531 258.960938 C 256.382812 259.605469 256.375 260.246094 256.351562 260.890625 C 255.792969 277.113281 251.78125 293.273438 244.660156 307.851562 C 242.765625 311.734375 240.417969 315.332031 237.703125 318.597656 C 237.535156 318.800781 237.363281 318.996094 237.191406 319.195312 C 237.019531 319.394531 236.851562 319.597656 236.679688 319.792969 C 235.6875 320.917969 234.644531 321.996094 233.558594 323.035156 C 233.367188 323.21875 233.179688 323.410156 232.984375 323.59375 C 232.785156 323.777344 232.574219 323.953125 232.375 324.136719 Z M 174.734375 10.300781 L 173.539062 10.996094 L 162.6875 17.304688 C 162.609375 17.261719 162.535156 17.226562 162.460938 17.1875 C 162.304688 17.101562 162.148438 17.019531 161.988281 16.941406 C 161.851562 16.871094 161.710938 16.800781 161.570312 16.734375 C 161.417969 16.660156 161.265625 16.589844 161.113281 16.523438 C 160.972656 16.460938 160.832031 16.398438 160.691406 16.339844 C 160.542969 16.277344 160.394531 16.21875 160.246094 16.164062 C 160.105469 16.109375 159.964844 16.054688 159.820312 16.003906 C 159.675781 15.953125 159.53125 15.902344 159.386719 15.855469 C 159.246094 15.808594 159.105469 15.765625 158.964844 15.722656 C 158.824219 15.679688 158.679688 15.644531 158.539062 15.605469 C 158.398438 15.570312 158.261719 15.53125 158.121094 15.5 C 157.980469 15.464844 157.839844 15.4375 157.699219 15.410156 C 157.5625 15.382812 157.425781 15.355469 157.292969 15.332031 C 157.152344 15.308594 157.015625 15.289062 156.875 15.273438 C 156.742188 15.253906 156.609375 15.234375 156.476562 15.222656 C 156.339844 15.207031 156.203125 15.199219 156.066406 15.191406 C 155.964844 15.183594 155.867188 15.171875 155.765625 15.167969 L 165.007812 9.796875 C 167.605469 8.289062 171.023438 8.476562 174.734375 10.300781 Z M 262.195312 70.460938 L 258.492188 72.613281 L 164.234375 18.191406 L 172.476562 13.40625 L 176.324219 11.167969 L 270.582031 65.585938 Z M 287.101562 320.125 L 275.023438 327.148438 L 275.195312 266.113281 L 275.660156 102.339844 L 283.160156 97.984375 L 287.742188 95.320312 Z M 152.210938 32.140625 C 152.222656 28.816406 153.316406 26.355469 155.300781 25.214844 C 156.101562 24.753906 157.019531 24.523438 158.015625 24.523438 C 159.503906 24.523438 161.175781 25.035156 162.921875 26.042969 L 185.15625 38.878906 L 185.148438 41.144531 C 185.148438 42.179688 185.398438 43.28125 185.835938 44.335938 C 186.429688 45.765625 187.367188 47.105469 188.488281 48.078125 C 188.855469 48.398438 189.238281 48.683594 189.636719 48.914062 L 201.488281 55.757812 L 230.695312 72.617188 C 232.046875 73.398438 233.359375 73.503906 234.390625 72.910156 C 235.414062 72.320312 235.980469 71.148438 235.984375 69.605469 L 235.988281 68.226562 L 257.449219 80.617188 C 262.417969 83.488281 266.632812 89.589844 268.199219 95.59375 C 268.625 97.214844 268.863281 98.832031 268.859375 100.378906 L 268.226562 323.945312 C 268.214844 327.269531 267.121094 329.726562 265.140625 330.867188 C 263.359375 331.890625 261.019531 331.761719 258.46875 330.535156 L 257.96875 257.234375 L 258.28125 101.640625 C 258.285156 99.730469 257.265625 97.9375 255.617188 96.964844 L 162.476562 41.996094 C 161.507812 41.425781 160.347656 41.414062 159.371094 41.972656 C 158.394531 42.527344 157.8125 43.53125 157.808594 44.652344 L 157.5 198.855469 C 157.472656 211.066406 155.464844 223.308594 151.636719 234.929688 Z M 275.625 100.570312 C 275.625 100.523438 275.617188 100.472656 275.613281 100.425781 C 275.582031 99.867188 275.53125 99.304688 275.460938 98.738281 C 275.453125 98.679688 275.445312 98.625 275.4375 98.570312 C 275.359375 97.980469 275.265625 97.386719 275.148438 96.789062 C 275.148438 96.78125 275.144531 96.777344 275.144531 96.769531 C 275.027344 96.175781 274.890625 95.578125 274.734375 94.976562 C 274.71875 94.914062 274.703125 94.847656 274.6875 94.78125 C 274.535156 94.214844 274.367188 93.644531 274.1875 93.074219 C 274.15625 92.984375 274.128906 92.890625 274.097656 92.800781 C 273.917969 92.246094 273.71875 91.691406 273.507812 91.136719 C 273.46875 91.039062 273.433594 90.9375 273.390625 90.839844 C 273.175781 90.289062 272.949219 89.738281 272.707031 89.195312 C 272.664062 89.101562 272.625 89.011719 272.582031 88.921875 C 272.332031 88.367188 272.066406 87.816406 271.789062 87.269531 C 271.753906 87.203125 271.71875 87.136719 271.6875 87.070312 C 271.390625 86.5 271.085938 85.933594 270.765625 85.378906 C 270.757812 85.363281 270.75 85.351562 270.742188 85.339844 C 270.421875 84.785156 270.085938 84.242188 269.742188 83.707031 C 269.703125 83.648438 269.667969 83.589844 269.628906 83.53125 C 269.292969 83.015625 268.945312 82.507812 268.589844 82.011719 C 268.53125 81.929688 268.476562 81.851562 268.417969 81.773438 C 268.066406 81.289062 267.703125 80.8125 267.332031 80.351562 C 267.265625 80.265625 267.199219 80.183594 267.132812 80.101562 C 266.761719 79.644531 266.378906 79.195312 265.988281 78.757812 C 265.921875 78.683594 265.855469 78.613281 265.789062 78.542969 C 265.386719 78.101562 264.980469 77.667969 264.5625 77.253906 C 264.511719 77.203125 264.460938 77.15625 264.410156 77.109375 C 263.96875 76.675781 263.523438 76.257812 263.066406 75.859375 C 263.054688 75.847656 263.042969 75.839844 263.03125 75.828125 C 262.574219 75.433594 262.109375 75.054688 261.640625 74.695312 C 261.597656 74.660156 261.554688 74.628906 261.515625 74.597656 C 261.058594 74.25 260.59375 73.925781 260.125 73.613281 C 260.082031 73.585938 260.042969 73.554688 260 73.527344 L 272.121094 66.480469 C 280.671875 71.652344 287.570312 83.59375 287.742188 93.53125 Z M 188.464844 127.390625 L 163.640625 113.058594 L 163.644531 112.167969 L 163.644531 111.304688 C 163.6875 111.320312 163.730469 111.324219 163.769531 111.347656 L 189.238281 126.050781 C 189.609375 126.265625 189.738281 126.738281 189.523438 127.109375 C 189.378906 127.355469 189.121094 127.496094 188.851562 127.496094 C 188.722656 127.496094 188.589844 127.460938 188.464844 127.390625 Z M 178.75 245.046875 L 158.386719 233.292969 C 158.460938 233.039062 158.539062 232.785156 158.613281 232.527344 C 158.6875 232.273438 158.753906 232.015625 158.824219 231.757812 L 179.523438 243.707031 C 179.894531 243.921875 180.019531 244.394531 179.804688 244.765625 C 179.664062 245.011719 179.402344 245.152344 179.136719 245.152344 C 179.003906 245.152344 178.871094 245.117188 178.75 245.046875 Z M 116.816406 302.660156 C 116.671875 302.90625 116.410156 303.046875 116.144531 303.046875 C 116.011719 303.046875 115.878906 303.011719 115.757812 302.941406 L 101.199219 294.539062 C 101.136719 294.5 101.085938 294.445312 101.039062 294.394531 C 101.375 294.011719 101.710938 293.621094 102.0625 293.25 L 116.53125 301.601562 C 116.902344 301.816406 117.027344 302.289062 116.816406 302.660156 Z M 148.382812 306.382812 C 148.238281 306.632812 147.980469 306.769531 147.710938 306.769531 C 147.582031 306.769531 147.449219 306.738281 147.324219 306.667969 L 111.273438 285.851562 C 111.199219 285.808594 111.140625 285.75 111.085938 285.6875 C 111.3125 285.535156 111.550781 285.398438 111.78125 285.253906 C 112.03125 285.097656 112.28125 284.945312 112.53125 284.792969 L 148.097656 305.328125 C 148.46875 305.539062 148.597656 306.011719 148.382812 306.382812 Z M 129.375 302.660156 C 129.230469 302.90625 128.972656 303.046875 128.703125 303.046875 C 128.574219 303.046875 128.4375 303.011719 128.316406 302.941406 L 106.21875 290.183594 C 106.007812 290.0625 105.886719 289.851562 105.851562 289.625 C 106.179688 289.34375 106.511719 289.066406 106.84375 288.796875 C 106.894531 288.8125 106.945312 288.816406 106.992188 288.84375 L 129.089844 301.601562 C 129.460938 301.816406 129.585938 302.289062 129.375 302.660156 Z M 124.796875 278.894531 C 125.257812 278.660156 125.707031 278.40625 126.160156 278.160156 L 158.445312 296.800781 C 158.816406 297.011719 158.945312 297.484375 158.730469 297.855469 C 158.585938 298.105469 158.328125 298.242188 158.058594 298.242188 C 157.929688 298.242188 157.796875 298.210938 157.671875 298.140625 L 125.15625 279.367188 C 124.972656 279.257812 124.847656 279.085938 124.796875 278.894531 Z M 118.257812 281.832031 C 118.574219 281.695312 118.886719 281.558594 119.203125 281.425781 C 119.25 281.441406 119.296875 281.449219 119.339844 281.472656 L 145.542969 296.601562 C 145.914062 296.8125 146.039062 297.285156 145.828125 297.65625 C 145.683594 297.90625 145.421875 298.042969 145.15625 298.042969 C 145.023438 298.042969 144.890625 298.011719 144.769531 297.941406 L 118.566406 282.8125 C 118.222656 282.613281 118.101562 282.1875 118.257812 281.832031 Z M 164.832031 308.628906 C 164.6875 308.878906 164.425781 309.015625 164.160156 309.015625 C 164.027344 309.015625 163.894531 308.984375 163.773438 308.914062 L 149.824219 300.855469 C 149.453125 300.644531 149.324219 300.171875 149.539062 299.800781 C 149.753906 299.429688 150.222656 299.300781 150.597656 299.515625 L 164.546875 307.574219 C 164.917969 307.785156 165.042969 308.257812 164.832031 308.628906 Z M 138.125 271.457031 C 138.339844 271.089844 138.8125 270.960938 139.183594 271.175781 L 160.167969 283.289062 C 160.539062 283.503906 160.664062 283.976562 160.453125 284.347656 C 160.308594 284.597656 160.046875 284.734375 159.78125 284.734375 C 159.648438 284.734375 159.515625 284.703125 159.394531 284.632812 L 138.410156 272.515625 C 138.039062 272.300781 137.914062 271.828125 138.125 271.457031 Z M 173.296875 284.511719 C 173.152344 284.761719 172.894531 284.898438 172.625 284.898438 C 172.496094 284.898438 172.359375 284.867188 172.238281 284.796875 L 153.828125 274.167969 L 152.183594 273.214844 L 150.675781 272.34375 L 142.941406 267.878906 C 142.570312 267.667969 142.445312 267.195312 142.660156 266.824219 C 142.871094 266.453125 143.34375 266.324219 143.714844 266.539062 L 149.078125 269.636719 L 150.355469 270.375 L 151.753906 271.179688 L 173.011719 283.457031 C 173.382812 283.667969 173.507812 284.140625 173.296875 284.511719 Z M 158.101562 239.484375 C 158.316406 239.117188 158.789062 238.988281 159.160156 239.203125 L 185 254.121094 C 185.367188 254.335938 185.496094 254.808594 185.28125 255.175781 C 185.136719 255.425781 184.878906 255.5625 184.609375 255.5625 C 184.480469 255.5625 184.347656 255.53125 184.226562 255.460938 L 158.386719 240.542969 C 158.015625 240.328125 157.890625 239.855469 158.101562 239.484375 Z M 191.488281 266.011719 C 191.347656 266.261719 191.085938 266.398438 190.820312 266.398438 C 190.6875 266.398438 190.554688 266.367188 190.433594 266.296875 L 180.734375 260.695312 C 180.367188 260.484375 180.238281 260.011719 180.453125 259.640625 C 180.667969 259.269531 181.136719 259.140625 181.507812 259.355469 L 191.207031 264.957031 C 191.578125 265.171875 191.703125 265.644531 191.488281 266.011719 Z M 155.375 245.160156 C 155.585938 244.792969 156.058594 244.664062 156.429688 244.878906 L 176.773438 256.621094 C 177.144531 256.835938 177.269531 257.308594 177.058594 257.679688 C 176.914062 257.925781 176.652344 258.066406 176.386719 258.066406 C 176.253906 258.066406 176.121094 258.035156 176 257.964844 L 155.65625 246.21875 C 155.285156 246.003906 155.160156 245.53125 155.375 245.160156 Z M 181.792969 282.167969 C 181.648438 282.414062 181.390625 282.554688 181.121094 282.554688 C 180.992188 282.554688 180.859375 282.519531 180.734375 282.449219 L 155.480469 267.871094 L 154.121094 267.082031 L 152.859375 266.355469 L 148.070312 263.589844 L 147.0625 263.007812 L 146.8125 262.863281 C 146.441406 262.652344 146.316406 262.179688 146.527344 261.808594 C 146.5625 261.75 146.609375 261.710938 146.65625 261.664062 C 146.847656 261.464844 147.128906 261.386719 147.398438 261.460938 C 147.460938 261.476562 147.527344 261.488281 147.585938 261.523438 L 151.769531 263.9375 L 152.851562 264.5625 L 154.007812 265.234375 L 181.507812 281.109375 C 181.878906 281.324219 182.007812 281.796875 181.792969 282.167969 Z M 153.777344 251.492188 C 153.992188 251.121094 154.464844 250.992188 154.835938 251.207031 L 178.820312 265.054688 C 179.191406 265.269531 179.316406 265.742188 179.101562 266.113281 C 178.960938 266.359375 178.699219 266.5 178.433594 266.5 C 178.300781 266.5 178.167969 266.464844 178.046875 266.394531 L 154.0625 252.546875 C 153.691406 252.335938 153.566406 251.863281 153.777344 251.492188 Z M 247.59375 168.78125 L 163.625 120.300781 L 163.628906 119.410156 L 163.628906 118.515625 L 248.367188 167.441406 C 248.738281 167.652344 248.863281 168.125 248.652344 168.496094 C 248.507812 168.746094 248.246094 168.882812 247.980469 168.882812 C 247.847656 168.882812 247.714844 168.851562 247.59375 168.78125 Z M 233.753906 166.253906 L 250.980469 176.199219 C 251.347656 176.414062 251.476562 176.886719 251.261719 177.253906 C 251.121094 177.503906 250.859375 177.640625 250.59375 177.640625 C 250.460938 177.640625 250.328125 177.609375 250.207031 177.539062 L 232.980469 167.59375 C 232.609375 167.378906 232.480469 166.90625 232.695312 166.535156 C 232.910156 166.167969 233.382812 166.039062 233.753906 166.253906 Z M 227.101562 164.199219 L 178.339844 136.046875 C 177.96875 135.832031 177.839844 135.359375 178.054688 134.988281 C 178.269531 134.617188 178.742188 134.492188 179.113281 134.707031 L 227.875 162.859375 C 228.246094 163.074219 228.371094 163.546875 228.160156 163.917969 C 228.015625 164.164062 227.757812 164.304688 227.488281 164.304688 C 227.359375 164.304688 227.222656 164.269531 227.101562 164.199219 Z M 174.117188 133.609375 L 163.609375 127.542969 L 163.613281 126.648438 L 163.613281 125.757812 L 174.890625 132.269531 C 175.261719 132.484375 175.390625 132.957031 175.175781 133.328125 C 175.03125 133.574219 174.773438 133.714844 174.503906 133.714844 C 174.375 133.714844 174.242188 133.679688 174.117188 133.609375 Z M 218.238281 165.441406 C 218.453125 165.070312 218.925781 164.945312 219.296875 165.15625 L 245.820312 180.472656 C 246.191406 180.6875 246.320312 181.160156 246.105469 181.527344 C 245.960938 181.777344 245.703125 181.914062 245.433594 181.914062 C 245.304688 181.914062 245.171875 181.882812 245.046875 181.8125 L 218.523438 166.496094 C 218.152344 166.285156 218.027344 165.8125 218.238281 165.441406 Z M 215.042969 162.703125 C 215.414062 162.914062 215.539062 163.386719 215.324219 163.757812 C 215.183594 164.007812 214.921875 164.144531 214.65625 164.144531 C 214.523438 164.144531 214.390625 164.113281 214.269531 164.042969 L 195.792969 153.375 C 195.421875 153.160156 195.292969 152.6875 195.507812 152.316406 C 195.722656 151.945312 196.191406 151.820312 196.566406 152.035156 Z M 186.644531 148.09375 L 163.59375 134.785156 L 163.597656 133.890625 L 163.597656 133 L 187.417969 146.753906 C 187.789062 146.964844 187.914062 147.441406 187.703125 147.808594 C 187.558594 148.058594 187.296875 148.195312 187.03125 148.195312 C 186.898438 148.195312 186.765625 148.164062 186.644531 148.09375 Z M 227.746094 179.074219 L 163.578125 142.027344 L 163.578125 141.132812 L 163.582031 140.242188 L 228.519531 177.734375 C 228.886719 177.945312 229.015625 178.417969 228.800781 178.789062 C 228.65625 179.039062 228.398438 179.175781 228.128906 179.175781 C 228 179.175781 227.867188 179.144531 227.746094 179.074219 Z M 248.085938 205.320312 L 163.546875 156.507812 L 163.546875 155.617188 L 163.550781 154.726562 L 248.859375 203.980469 C 249.230469 204.191406 249.359375 204.664062 249.144531 205.035156 C 249 205.285156 248.742188 205.421875 248.472656 205.421875 C 248.34375 205.421875 248.210938 205.390625 248.085938 205.320312 Z M 239.523438 207.625 L 181.988281 174.40625 C 181.617188 174.195312 181.492188 173.722656 181.703125 173.351562 C 181.917969 172.980469 182.390625 172.855469 182.761719 173.066406 L 240.296875 206.285156 C 240.667969 206.5 240.792969 206.972656 240.578125 207.34375 C 240.4375 207.589844 240.175781 207.730469 239.910156 207.730469 C 239.777344 207.730469 239.644531 207.695312 239.523438 207.625 Z M 176.210938 171.074219 L 163.53125 163.75 L 163.53125 162.859375 L 163.535156 161.96875 L 176.984375 169.734375 C 177.355469 169.945312 177.480469 170.417969 177.269531 170.789062 C 177.125 171.039062 176.863281 171.175781 176.597656 171.175781 C 176.464844 171.175781 176.332031 171.144531 176.210938 171.074219 Z M 210.339844 198.027344 L 163.515625 170.992188 L 163.515625 170.101562 L 163.519531 169.210938 L 211.113281 196.6875 C 211.484375 196.902344 211.609375 197.375 211.398438 197.746094 C 211.253906 197.992188 210.996094 198.132812 210.726562 198.132812 C 210.597656 198.132812 210.460938 198.097656 210.339844 198.027344 Z M 215.640625 200.195312 C 215.851562 199.824219 216.324219 199.695312 216.695312 199.910156 L 248.582031 218.320312 C 248.953125 218.535156 249.078125 219.007812 248.867188 219.378906 C 248.722656 219.625 248.460938 219.765625 248.195312 219.765625 C 248.0625 219.765625 247.929688 219.730469 247.808594 219.660156 L 215.921875 201.25 C 215.550781 201.039062 215.425781 200.566406 215.640625 200.195312 Z M 189.238281 198.625 C 189.609375 198.835938 189.738281 199.3125 189.523438 199.679688 C 189.378906 199.929688 189.121094 200.066406 188.851562 200.066406 C 188.722656 200.066406 188.589844 200.035156 188.464844 199.964844 L 167.621094 187.929688 C 167.253906 187.714844 167.125 187.242188 167.339844 186.871094 C 167.554688 186.503906 168.023438 186.375 168.394531 186.589844 Z M 247.59375 241.351562 L 163.464844 192.78125 L 163.46875 191.886719 L 163.46875 190.996094 L 248.367188 240.011719 C 248.738281 240.226562 248.863281 240.699219 248.652344 241.070312 C 248.507812 241.316406 248.246094 241.457031 247.980469 241.457031 C 247.847656 241.457031 247.714844 241.421875 247.59375 241.351562 Z M 251.261719 249.828125 C 251.121094 250.078125 250.859375 250.214844 250.59375 250.214844 C 250.460938 250.214844 250.328125 250.179688 250.207031 250.109375 L 232.980469 240.164062 C 232.609375 239.949219 232.480469 239.476562 232.695312 239.109375 C 232.910156 238.738281 233.382812 238.609375 233.753906 238.824219 L 250.980469 248.769531 C 251.347656 248.984375 251.476562 249.457031 251.261719 249.828125 Z M 227.875 235.433594 C 228.246094 235.644531 228.371094 236.117188 228.160156 236.488281 C 228.015625 236.738281 227.757812 236.875 227.488281 236.875 C 227.359375 236.875 227.222656 236.84375 227.101562 236.773438 L 178.339844 208.617188 C 177.96875 208.402344 177.839844 207.929688 178.054688 207.5625 C 178.269531 207.191406 178.742188 207.0625 179.113281 207.277344 Z M 174.117188 206.183594 L 163.433594 200.011719 C 163.4375 199.71875 163.445312 199.421875 163.449219 199.128906 C 163.449219 199.039062 163.453125 198.953125 163.453125 198.867188 L 163.453125 198.238281 L 174.890625 204.84375 C 175.261719 205.054688 175.390625 205.527344 175.175781 205.898438 C 175.03125 206.148438 174.773438 206.285156 174.503906 206.285156 C 174.375 206.285156 174.242188 206.253906 174.117188 206.183594 Z M 246.105469 254.101562 C 245.960938 254.347656 245.703125 254.488281 245.433594 254.488281 C 245.304688 254.488281 245.171875 254.453125 245.046875 254.382812 L 236.621094 249.519531 C 236.253906 249.304688 236.125 248.832031 236.339844 248.460938 C 236.554688 248.09375 237.023438 247.964844 237.394531 248.179688 L 245.820312 253.042969 C 246.191406 253.257812 246.320312 253.730469 246.105469 254.101562 Z M 233.050781 247.335938 C 232.917969 247.335938 232.785156 247.304688 232.664062 247.234375 L 182.5625 218.308594 C 182.191406 218.09375 182.066406 217.621094 182.28125 217.25 C 182.492188 216.882812 182.964844 216.753906 183.335938 216.96875 L 233.4375 245.894531 C 233.808594 246.109375 233.933594 246.582031 233.722656 246.949219 C 233.578125 247.199219 233.316406 247.335938 233.050781 247.335938 Z M 178.386719 215.898438 L 163.140625 207.09375 C 163.160156 206.808594 163.183594 206.523438 163.203125 206.238281 C 163.222656 205.949219 163.242188 205.664062 163.257812 205.375 L 179.160156 214.558594 C 179.53125 214.769531 179.65625 215.242188 179.445312 215.613281 C 179.300781 215.863281 179.039062 216 178.773438 216 C 178.640625 216 178.507812 215.96875 178.386719 215.898438 Z M 214.828125 243.292969 C 214.6875 243.542969 214.425781 243.679688 214.160156 243.679688 C 214.027344 243.679688 213.894531 243.648438 213.773438 243.578125 L 162.457031 213.953125 C 162.492188 213.675781 162.535156 213.398438 162.566406 213.121094 C 162.601562 212.84375 162.636719 212.566406 162.667969 212.285156 L 214.546875 242.238281 C 214.917969 242.453125 215.042969 242.925781 214.828125 243.292969 Z M 177.175781 99.664062 L 163.6875 91.878906 L 163.691406 90.984375 L 163.691406 90.207031 C 163.8125 90.210938 163.933594 90.234375 164.046875 90.300781 L 177.949219 98.324219 C 178.320312 98.539062 178.445312 99.011719 178.234375 99.382812 C 178.089844 99.628906 177.828125 99.769531 177.5625 99.769531 C 177.429688 99.769531 177.296875 99.734375 177.175781 99.664062 Z M 172.011719 101.519531 L 163.679688 96.707031 L 163.679688 95.042969 C 163.804688 95.046875 163.933594 95.066406 164.046875 95.136719 L 172.785156 100.179688 C 173.15625 100.394531 173.28125 100.867188 173.066406 101.234375 C 172.925781 101.484375 172.664062 101.621094 172.398438 101.621094 C 172.265625 101.621094 172.132812 101.589844 172.011719 101.519531 Z M 174.449219 107.761719 L 163.667969 101.539062 L 163.667969 100.644531 L 163.671875 99.878906 C 163.800781 99.878906 163.929688 99.902344 164.046875 99.972656 L 175.222656 106.421875 C 175.59375 106.636719 175.71875 107.109375 175.507812 107.480469 C 175.363281 107.726562 175.101562 107.867188 174.835938 107.867188 C 174.703125 107.867188 174.570312 107.832031 174.449219 107.761719 Z M 174.449219 107.761719 " fill-opacity="1" fill-rule="nonzero"/></g></svg>