<svg xmlns="http://www.w3.org/2000/svg" xmlns:xlink="http://www.w3.org/1999/xlink" width="500" zoomAndPan="magnify" viewBox="0 0 375 374.999991" height="500" preserveAspectRatio="xMidYMid meet" version="1.0"><defs><clipPath id="617fd8a23c"><path d="M 11 50 L 365 50 L 365 326.160156 L 11 326.160156 Z M 11 50 " clip-rule="nonzero"/></clipPath></defs><g clip-path="url(#617fd8a23c)"><path fill="#386641" d="M 283.398438 306.339844 C 282.707031 301.535156 280.339844 297.144531 276.425781 294.222656 C 274.550781 292.832031 272.496094 291.792969 270.265625 291.113281 C 268.03125 290.429688 265.75 290.140625 263.417969 290.246094 C 258.691406 290.828125 254.671875 292.519531 251.660156 296.339844 C 250.21875 298.179688 249.1875 300.226562 248.5625 302.480469 C 247.941406 304.730469 247.777344 307.015625 248.070312 309.335938 C 248.796875 314.851562 252.65625 319.355469 256.972656 322.59375 C 260.304688 325.09375 263.960938 326.265625 268.144531 326.058594 C 272.960938 325.492188 277.023438 323.9375 280.085938 319.984375 C 283.039062 316.191406 284.070312 311.039062 283.398438 306.339844 Z M 215.757812 273.273438 C 215.570312 271.570312 215.21875 269.902344 214.699219 268.269531 C 214.179688 266.636719 213.503906 265.070312 212.671875 263.570312 C 211.84375 262.074219 210.871094 260.671875 209.761719 259.367188 C 208.648438 258.0625 207.421875 256.878906 206.074219 255.820312 C 199.988281 251.113281 190.75 247.785156 182.996094 248.621094 C 173.746094 249.238281 165.5625 252.566406 159.359375 259.648438 C 154.253906 265.476562 152.277344 273.667969 152.859375 281.285156 C 153.371094 287.929688 156.152344 293.242188 161.242188 297.527344 C 168.527344 303.664062 177.015625 306.070312 186.433594 305.839844 C 195.59375 304.875 204 301.671875 209.894531 294.304688 C 214.636719 288.355469 216.617188 280.800781 215.757812 273.273438 Z M 361.734375 215.210938 C 356.664062 201.1875 344.214844 189.964844 330.875 183.824219 C 323.011719 180.207031 314.753906 178.257812 306.097656 178.332031 C 293.671875 179.445312 283.421875 184.398438 275.328125 194.054688 C 273.085938 196.726562 271.125 199.628906 269.761719 202.835938 C 273.40625 206.003906 277.304688 208.90625 281.082031 211.914062 C 286.851562 216.511719 293.058594 222.101562 299.78125 225.269531 C 303.449219 219.785156 306.941406 212.53125 314.089844 211.035156 C 318.234375 210.171875 322.734375 211.804688 326.144531 214.113281 C 329.15625 216.164062 331.875 219.390625 332.585938 223.039062 C 333.1875 226.082031 332.148438 229.03125 330.375 231.5 C 321.554688 243.777344 299.6875 243 286.628906 250.785156 C 281.097656 254.082031 276.691406 258.578125 272.90625 263.746094 C 270.085938 267.589844 266.964844 272.226562 265.589844 276.820312 C 267.316406 279.8125 287.191406 293.117188 290.972656 294.574219 C 292.039062 294.207031 292.644531 293.117188 293.117188 292.136719 C 297.347656 283.3125 298.800781 277.371094 308.902344 273.675781 C 314.667969 271.570312 320.988281 270.625 326.949219 269.195312 C 340.992188 265.832031 354.1875 259.132812 360.601562 245.542969 C 364.960938 236.253906 365.214844 224.835938 361.734375 215.210938 Z M 287.785156 121.214844 C 286.292969 102.527344 275.355469 84.667969 261.199219 72.71875 C 242.582031 56.972656 215.324219 48.714844 191.011719 50.699219 C 169.144531 51.949219 148.21875 58.898438 133.21875 75.632812 C 124.050781 85.867188 117.9375 99.714844 115.128906 113.097656 C 114.617188 115.582031 113.847656 118.601562 114 121.152344 C 114.050781 121.972656 114.144531 122.460938 114.820312 122.988281 C 115.617188 123.617188 116.980469 123.894531 117.953125 124.132812 C 129.378906 126.953125 140.949219 129.296875 152.390625 132.082031 C 157.121094 133.222656 161.847656 134.390625 166.566406 135.589844 C 169.488281 136.335938 172.441406 137.253906 175.414062 137.726562 C 176.835938 136.027344 176.953125 129.007812 177.386719 126.511719 C 179.925781 111.804688 188.222656 98.015625 204.394531 96.550781 C 210.789062 95.972656 217.507812 97.554688 222.480469 101.753906 C 226.300781 104.976562 228.210938 109.515625 228.601562 114.429688 C 229.628906 127.03125 222.261719 138.574219 214.363281 147.738281 C 201.683594 162.449219 184.785156 172.863281 175.097656 190.140625 C 169.199219 201.792969 167.867188 213.339844 167.339844 226.140625 C 167.25 228.28125 166.703125 231.503906 167.320312 233.503906 C 167.417969 233.851562 167.480469 234.082031 167.804688 234.226562 C 171.539062 235.890625 207.660156 241.40625 210.78125 240.546875 C 211.132812 240.167969 211.375 239.730469 211.5 239.230469 C 211.851562 237.785156 211.757812 236.152344 211.847656 234.65625 C 212.050781 232.128906 212.550781 229.664062 213.335938 227.253906 C 214.738281 222.828125 217.121094 218.9375 220.066406 215.367188 C 227.773438 206.023438 238 199.199219 247.332031 191.628906 C 262.429688 179.382812 275.265625 166.699219 282.957031 148.515625 C 286.628906 139.847656 288.542969 130.644531 287.785156 121.214844 Z M 107.847656 287.433594 C 103.574219 285.125 98.636719 284.429688 93.960938 285.84375 C 91.726562 286.523438 89.671875 287.558594 87.796875 288.949219 C 85.921875 290.339844 84.332031 292.003906 83.03125 293.941406 C 80.691406 298.089844 79.664062 302.324219 80.945312 307.019531 C 81.570312 309.269531 82.605469 311.3125 84.050781 313.152344 C 85.492188 314.988281 87.234375 316.480469 89.273438 317.621094 C 94.144531 320.3125 100.058594 319.886719 105.222656 318.335938 C 109.214844 317.140625 112.332031 314.898438 114.652344 311.414062 C 117.058594 307.199219 118.222656 303.011719 116.863281 298.199219 C 115.558594 293.574219 112.027344 289.6875 107.847656 287.433594 Z M 81.097656 170.277344 C 66.808594 166.023438 50.382812 169.382812 37.519531 176.449219 C 29.933594 180.625 23.460938 186.105469 18.378906 193.117188 C 11.890625 203.769531 9.78125 214.957031 12.738281 227.21875 C 13.554688 230.605469 14.722656 233.910156 16.492188 236.910156 C 21.203125 235.863281 25.859375 234.453125 30.523438 233.203125 C 37.648438 231.292969 45.832031 229.613281 52.375 226.097656 C 50.140625 219.886719 46.382812 212.761719 49.425781 206.128906 C 51.195312 202.28125 55.1875 199.636719 59.070312 198.269531 C 62.507812 197.054688 66.71875 196.792969 70.078125 198.390625 C 72.886719 199.714844 74.636719 202.300781 75.566406 205.195312 C 80.199219 219.582031 66.589844 236.710938 65.082031 251.835938 C 64.449219 258.246094 65.449219 264.460938 67.355469 270.574219 C 68.769531 275.125 70.644531 280.394531 73.527344 284.234375 C 76.960938 284.625 99.472656 276.542969 102.878906 274.375 C 103.222656 273.300781 102.703125 272.164062 102.195312 271.203125 C 97.609375 262.558594 93.695312 257.859375 96.730469 247.539062 C 98.460938 241.644531 101.453125 236 103.847656 230.359375 C 109.488281 217.066406 111.941406 202.472656 104.820312 189.238281 C 99.941406 180.183594 90.910156 173.199219 81.097656 170.277344 Z M 81.097656 170.277344 " fill-opacity="1" fill-rule="nonzero"/></g><path fill="#fefae0" d="M 275.539062 299.007812 C 274.652344 298.117188 273.742188 297.34375 272.570312 296.855469 C 275.164062 300.21875 276.230469 303.65625 275.675781 307.902344 C 275.183594 311.714844 273.503906 315.335938 270.402344 317.734375 C 267.972656 319.597656 265.191406 320.414062 262.199219 320.734375 C 263.574219 321.195312 264.984375 321.527344 266.421875 321.726562 C 269.957031 321.835938 272.964844 321.292969 275.609375 318.730469 C 278.195312 316.230469 279.507812 312.953125 279.554688 309.378906 C 279.59375 305.570312 278.25 301.730469 275.539062 299.007812 Z M 273.132812 301.71875 C 272.703125 300.417969 272.039062 299.25 271.144531 298.214844 C 270.246094 297.179688 269.1875 296.355469 267.964844 295.738281 C 265.996094 294.777344 264.085938 294.617188 261.933594 294.800781 C 258.511719 295.539062 255.738281 297.164062 253.816406 300.183594 C 252.960938 301.554688 252.402344 303.035156 252.132812 304.625 C 251.867188 306.21875 251.914062 307.800781 252.277344 309.371094 C 252.996094 312.539062 255.046875 315.78125 257.917969 317.40625 C 260.003906 318.59375 261.847656 318.726562 264.144531 318.191406 C 267.585938 317.164062 270.453125 315.667969 272.195312 312.351562 C 273.855469 309.199219 274.300781 305.101562 273.132812 301.71875 Z M 204.632812 259.332031 C 203.25 259.351562 201.8125 259.285156 200.445312 259.4375 C 199.597656 259.535156 198.574219 259.496094 197.882812 259.992188 C 199.179688 262.234375 200.355469 264.542969 201.398438 266.917969 C 203.046875 266.65625 204.703125 266.484375 206.371094 266.402344 L 209.742188 266.273438 C 208.28125 263.679688 206.746094 261.457031 204.632812 259.332031 Z M 209.171875 288.050781 L 208.527344 288.082031 L 200.28125 289.363281 C 198.507812 292.46875 196.691406 295.644531 194.03125 298.082031 C 193.359375 298.703125 189.925781 300.648438 189.769531 301.25 L 190.539062 301.21875 C 197.777344 299.808594 203.917969 296.726562 208.082031 290.449219 C 208.515625 289.785156 208.902344 289.09375 209.238281 288.378906 Z M 212.101562 276.769531 L 211.730469 276.421875 L 211.132812 276.464844 C 208.496094 276.832031 205.867188 277.246094 203.246094 277.707031 C 202.945312 280.527344 202.644531 283.011719 201.710938 285.691406 C 201.550781 286.15625 201.0625 287.003906 201.292969 287.429688 L 202.097656 287.515625 C 204.816406 287.085938 207.53125 286.628906 210.242188 286.148438 C 211.1875 283.496094 212.753906 279.636719 212.101562 276.769531 Z M 320.546875 203.109375 C 317.671875 201.867188 313.960938 200.867188 310.800781 201.316406 C 305.128906 201.828125 300.546875 205.433594 296.988281 209.671875 C 295.46875 211.464844 294.183594 213.414062 293.144531 215.523438 L 293.09375 215.621094 C 294.90625 217.136719 296.828125 218.503906 298.855469 219.722656 C 302.164062 214.59375 306.089844 208.652344 312.441406 207.1875 C 318.507812 206.300781 324.117188 207.640625 329.070312 211.320312 C 330.957031 212.761719 332.65625 214.40625 334.164062 216.242188 C 331.710938 210.003906 326.617188 205.734375 320.546875 203.113281 Z M 358.085938 216.304688 C 357.964844 216.023438 357.824219 215.757812 357.65625 215.503906 C 358.679688 226.253906 356.117188 237.074219 349.148438 245.542969 C 341.054688 255.390625 328.242188 260.648438 315.957031 262.921875 C 311.957031 263.664062 307.804688 263.75 303.867188 264.804688 C 294.355469 267.371094 287.527344 276.714844 284.855469 285.847656 C 286.109375 286.835938 287.414062 287.75 288.769531 288.589844 L 289.472656 289.011719 C 290.160156 288.722656 290.339844 288.335938 290.652344 287.671875 C 291.164062 286.542969 291.503906 285.328125 292.054688 284.203125 C 294.875 278.363281 299.375 272.886719 305.492188 270.359375 C 311.089844 268.035156 317.351562 267.433594 323.246094 266.183594 C 337.511719 263.15625 351.777344 256.480469 357.699219 242.324219 C 361.007812 234.390625 361.554688 224.289062 358.085938 216.304688 Z M 354.179688 210.296875 C 349.722656 199.226562 338.054688 190.945312 327.421875 186.453125 C 320.828125 183.660156 312.773438 181.460938 305.546875 182.125 C 294.816406 183.070312 285.546875 187.9375 278.585938 196.207031 C 277.105469 197.957031 275.785156 199.824219 274.625 201.800781 C 280.5 205.457031 285.464844 210.5 291.238281 214.308594 C 294.871094 208.15625 300.554688 201.679688 307.734375 199.773438 C 313.628906 198.203125 320.210938 200.324219 325.285156 203.359375 C 330.449219 206.4375 334.945312 211.152344 336.457031 217.113281 C 337.722656 222.105469 336.746094 227.613281 334.082031 231.988281 C 325.679688 245.769531 309.707031 245.757812 296.265625 250.859375 C 288.234375 253.910156 281.667969 258.460938 276.265625 265.148438 C 273.808594 268.335938 271.863281 271.640625 269.929688 275.148438 C 274.074219 278.445312 278.46875 281.761719 283.007812 284.46875 C 286.621094 275.945312 291.210938 267.425781 300.238281 263.75 C 305.003906 261.804688 310.15625 262.121094 315.148438 261.269531 C 330.480469 258.671875 346.226562 250.792969 352.699219 235.933594 C 356.203125 227.898438 357.515625 218.578125 354.175781 210.289062 Z M 208.796875 226.707031 C 205.734375 227.003906 202.675781 227.339844 199.621094 227.71875 C 199.363281 229.613281 198.335938 233.792969 199.183594 235.441406 L 200.023438 235.675781 C 202.570312 236.0625 205.121094 236.414062 207.679688 236.734375 C 207.835938 233.429688 208.828125 230.277344 209.089844 227.007812 Z M 282.566406 136.910156 L 282.238281 136.804688 C 278.308594 138.703125 274.40625 140.601562 270.296875 142.09375 C 268.316406 145.074219 266.191406 147.941406 264.175781 150.882812 L 264.332031 151.140625 L 264.507812 151.160156 C 269.890625 149.519531 274.996094 147.027344 280.046875 145.492188 C 280.882812 143.109375 282.703125 139.339844 282.566406 136.914062 Z M 215.132812 214.601562 C 210.6875 215.125 206.230469 215.566406 201.761719 215.925781 C 201.277344 218.070312 199.453125 224.566406 200.265625 226.242188 C 203.425781 225.726562 206.589844 225.1875 209.785156 224.882812 C 211.261719 221.222656 212.839844 217.957031 215.238281 214.8125 Z M 221.925781 204.601562 C 216.460938 205.113281 210.980469 205.390625 205.515625 205.84375 C 204.457031 208.347656 202.859375 211.347656 202.523438 214.019531 C 203.210938 214.242188 203.671875 214.109375 204.359375 213.988281 C 208.769531 213.527344 213.171875 212.984375 217.566406 212.351562 C 218.957031 210.503906 224.675781 204.609375 224.675781 204.40625 C 223.761719 204.433594 222.851562 204.488281 221.933594 204.601562 Z M 262.332031 171.75 C 254.363281 173.882812 245.105469 176.207031 236.8125 176.207031 C 235.074219 177.40625 228.609375 181.355469 227.746094 182.9375 C 227.960938 182.988281 228.183594 183.015625 228.40625 183.019531 C 237.378906 181.667969 247.085938 179.683594 256.011719 178.800781 C 257.652344 177.152344 261.789062 173.675781 262.753906 171.847656 Z M 272.265625 159.640625 C 268.523438 160.777344 264.777344 162.011719 260.980469 162.972656 C 258.070312 163.722656 252.394531 164.378906 249.933594 165.683594 C 247.207031 167.140625 242.222656 171.765625 239.4375 173.929688 C 239.371094 174.085938 239.335938 174.25 239.328125 174.421875 C 244.671875 173.84375 260.722656 171.136719 265.101562 168.886719 C 266.296875 168.273438 267.277344 167.140625 268.109375 166.101562 C 268.945312 165.066406 272.25 160.851562 272.28125 159.792969 C 272.277344 159.742188 272.273438 159.691406 272.265625 159.640625 Z M 252.585938 181.023438 C 244.566406 182.359375 232.589844 185.023438 224.726562 184.78125 C 223.039062 186.132812 216.160156 191.21875 215.527344 192.695312 L 216.246094 192.644531 C 221.855469 191.964844 238.90625 191.671875 242.84375 189.839844 C 245.152344 188.773438 247.179688 186.578125 249.117188 184.945312 C 250.34375 183.917969 252.230469 182.691406 253.21875 181.457031 C 253.304688 181.324219 253.378906 181.183594 253.441406 181.039062 C 253.160156 180.972656 252.875 180.964844 252.585938 181.019531 Z M 238.90625 192.703125 C 230.433594 193.199219 221.972656 193.796875 213.523438 194.496094 C 211.128906 197.363281 208.910156 200.359375 206.871094 203.484375 C 206.894531 203.664062 206.953125 203.835938 207.042969 203.996094 C 213.828125 203.484375 220.601562 202.6875 227.378906 202.203125 C 231.265625 199.105469 235.171875 196.03125 239.097656 192.972656 C 239.039062 192.875 239.007812 192.738281 238.90625 192.699219 Z M 202.140625 257.484375 C 198.070312 254.90625 191.480469 252.441406 186.65625 252.335938 C 190.195312 254 193.34375 255.558594 196.175781 258.339844 C 198.167969 257.757812 200.160156 257.730469 202.214844 257.882812 Z M 210.46875 267.96875 L 210.070312 267.859375 C 207.410156 268.140625 204.742188 268.378906 202.074219 268.585938 C 202.332031 269.941406 202.769531 275.207031 203.730469 275.886719 L 204.34375 275.816406 C 206.933594 275.398438 209.515625 275.074219 212.125 274.808594 C 211.789062 272.5 211.5 270.089844 210.46875 267.96875 Z M 277.183594 99.054688 C 276.273438 96.492188 273.289062 90.988281 271.101562 89.398438 C 272.742188 93.242188 274.042969 97.152344 275.511719 101.058594 L 275.925781 101.179688 L 277.191406 100.472656 C 277.472656 99.84375 277.421875 99.730469 277.183594 99.054688 Z M 278.523438 102.171875 L 276.292969 103.828125 C 276.480469 105.339844 277.347656 114.71875 277.808594 115.207031 C 278.289062 114.953125 278.742188 114.71875 279.199219 114.441406 C 280.289062 113.765625 281.394531 113.117188 282.460938 112.410156 C 281.519531 108.976562 280.496094 105.171875 278.523438 102.171875 Z M 160.378906 125.703125 C 160.085938 126.9375 159.679688 128.132812 159.167969 129.292969 C 163.589844 130.570312 168.019531 131.808594 172.457031 133.003906 L 172.792969 132.773438 C 172.824219 131.386719 172.875 130 172.9375 128.609375 C 168.777344 127.484375 164.65625 126.304688 160.378906 125.703125 Z M 282.703125 114.714844 C 282.664062 114.6875 282.621094 114.65625 282.578125 114.632812 C 280.917969 115.578125 279.226562 116.5 277.613281 117.535156 C 277.210938 119.992188 276.214844 123.550781 276.636719 125.941406 L 277.003906 126.09375 L 277.675781 125.78125 C 279.921875 124.722656 282.101562 123.539062 284.21875 122.238281 C 284.035156 120.589844 283.875 115.757812 282.703125 114.714844 Z M 166.273438 105.792969 C 165.46875 107.425781 164.316406 109.289062 163.929688 111.058594 C 168.210938 112.019531 172.285156 113.621094 176.546875 114.621094 C 177.546875 112.480469 178.496094 110.300781 179.664062 108.25 C 177.769531 109.175781 168.621094 106.457031 166.273438 105.792969 Z M 283.9375 124.769531 C 283.894531 124.71875 283.847656 124.679688 283.792969 124.640625 C 281.191406 126.117188 278.34375 127.238281 275.800781 128.792969 C 275.402344 130.195312 271.847656 138.96875 271.839844 139.238281 C 271.859375 139.371094 271.902344 139.496094 271.976562 139.609375 C 271.976562 139.625 272.007812 139.632812 272.019531 139.648438 C 275.789062 138.027344 280.253906 136.199219 283.480469 133.648438 C 283.773438 132.183594 284.753906 125.820312 283.9375 124.769531 Z M 278.414062 148.277344 L 278.328125 148.199219 C 272.976562 150.558594 267.214844 152.445312 261.578125 154.023438 L 253.613281 162.59375 L 253.871094 162.785156 C 260.988281 161.039062 268.152344 159.246094 274.976562 156.535156 C 275.628906 155.15625 278.730469 149.425781 278.414062 148.285156 Z M 174.589844 95.875 C 174.566406 95.871094 174.546875 95.871094 174.523438 95.875 C 172.277344 96.554688 168.1875 102.628906 167.035156 104.699219 C 170.761719 105.339844 176.671875 105.902344 179.664062 108.242188 C 181.851562 104.789062 184.484375 101.96875 187.480469 99.222656 C 183.246094 97.703125 178.984375 96.792969 174.589844 95.875 Z M 163.363281 112.285156 C 162.023438 115.921875 160.863281 120.058594 160.566406 123.933594 C 164.734375 124.933594 168.914062 125.890625 173.101562 126.800781 C 174.210938 125.605469 175.1875 118.53125 175.785156 116.511719 C 171.660156 115.074219 167.519531 113.664062 163.363281 112.28125 Z M 191.480469 89.09375 C 185.753906 89.734375 180.902344 91.144531 176.023438 94.316406 C 180.6875 95.070312 184.941406 96.882812 189.515625 97.789062 C 192.351562 96.082031 195.347656 94.734375 198.503906 93.742188 C 205.03125 92.296875 210.371094 92.515625 216.878906 94 C 209.402344 90.222656 199.847656 88.253906 191.480469 89.089844 Z M 97.28125 289.402344 C 96.039062 289.585938 94.875 289.855469 93.789062 290.511719 C 98.03125 290.421875 101.429688 291.601562 104.515625 294.574219 C 107.292969 297.238281 109.214844 300.746094 109.289062 304.65625 C 109.347656 307.722656 108.351562 310.441406 106.824219 313.050781 C 108.015625 312.214844 109.121094 311.28125 110.140625 310.242188 C 112.332031 307.460938 113.683594 304.722656 113.195312 301.070312 C 112.71875 297.503906 110.863281 294.503906 108.011719 292.339844 C 104.96875 290.035156 101.082031 288.835938 97.28125 289.402344 Z M 98.03125 292.945312 C 96.726562 292.519531 95.394531 292.359375 94.027344 292.460938 C 92.660156 292.566406 91.363281 292.929688 90.140625 293.550781 C 88.199219 294.574219 86.9375 296.003906 85.804688 297.839844 C 84.363281 301.03125 84.019531 304.230469 85.304688 307.566406 C 85.902344 309.066406 86.761719 310.398438 87.886719 311.554688 C 89.011719 312.710938 90.316406 313.613281 91.796875 314.25 C 94.773438 315.554688 98.59375 315.828125 101.609375 314.488281 C 103.804688 313.515625 105.003906 312.117188 105.941406 309.945312 C 107.167969 306.574219 107.660156 303.375 106.027344 300.003906 C 104.476562 296.816406 101.445312 294.019531 98.03125 292.945312 Z M 46.894531 196.21875 C 44.1875 197.789062 41.175781 200.183594 39.660156 202.980469 C 36.699219 207.851562 36.878906 213.679688 38.175781 219.054688 C 38.710938 221.347656 39.515625 223.539062 40.59375 225.628906 L 40.640625 225.726562 C 42.941406 225.171875 45.183594 224.441406 47.367188 223.535156 C 45.210938 217.828125 42.753906 211.136719 45.363281 205.152344 C 48.253906 199.75 52.664062 196.03125 58.566406 194.238281 C 60.847656 193.574219 63.179688 193.183594 65.550781 193.0625 C 59.074219 191.332031 52.613281 192.894531 46.894531 196.21875 Z M 79.800781 173.863281 C 79.503906 173.792969 79.207031 173.75 78.902344 173.734375 C 88.152344 179.308594 95.332031 187.792969 98.007812 198.421875 C 101.117188 210.785156 97.734375 224.214844 92.261719 235.449219 C 90.484375 239.105469 88.089844 242.496094 86.597656 246.304688 C 83.007812 255.46875 86.46875 266.523438 92.226562 274.097656 C 93.765625 273.679688 95.273438 273.171875 96.75 272.578125 L 97.519531 272.261719 C 97.699219 271.542969 97.496094 271.164062 97.144531 270.519531 C 96.546875 269.425781 95.765625 268.445312 95.1875 267.332031 C 92.167969 261.59375 90.433594 254.71875 92.03125 248.292969 C 93.492188 242.394531 96.730469 237.011719 99.226562 231.53125 C 105.265625 218.261719 108.371094 202.8125 100.507812 189.644531 C 96.09375 182.257812 88.296875 175.816406 79.800781 173.863281 Z M 72.648438 173.433594 C 61.097656 170.441406 47.503906 174.90625 37.566406 180.785156 C 31.410156 184.429688 24.84375 189.601562 21.085938 195.808594 C 15.472656 205 13.886719 215.339844 16.394531 225.859375 C 16.921875 228.09375 17.636719 230.261719 18.539062 232.371094 C 24.972656 229.820312 31.976562 228.824219 38.472656 226.441406 C 35.671875 219.855469 33.859375 211.441406 36.582031 204.535156 C 38.820312 198.863281 44.441406 194.824219 49.890625 192.546875 C 55.441406 190.226562 61.894531 189.40625 67.582031 191.734375 C 72.351562 193.679688 76.199219 197.742188 78.136719 202.480469 C 84.230469 217.429688 74.730469 230.269531 70.84375 244.113281 C 68.535156 252.386719 68.28125 260.375 70.460938 268.6875 C 71.558594 272.550781 73.066406 276.082031 74.742188 279.726562 C 79.855469 278.351562 85.132812 276.785156 90.011719 274.742188 C 85.304688 266.769531 81.175781 258.015625 83.585938 248.570312 C 84.851562 243.582031 88.164062 239.625 90.449219 235.105469 C 97.46875 221.226562 100.488281 203.882812 92.382812 189.847656 C 88.019531 182.265625 81.304688 175.671875 72.648438 173.433594 Z M 72.648438 173.433594 " fill-opacity="1" fill-rule="nonzero"/><path fill="#1c2628" d="M 193.949219 259.492188 C 192.941406 258.484375 191.84375 257.589844 190.648438 256.808594 C 189.457031 256.03125 188.195312 255.382812 186.871094 254.863281 C 185.542969 254.34375 184.175781 253.96875 182.769531 253.730469 C 181.367188 253.496094 179.949219 253.40625 178.527344 253.464844 C 178.441406 253.464844 178.363281 253.464844 178.269531 253.476562 C 176.597656 253.699219 174.960938 254.082031 173.367188 254.632812 C 171.769531 255.183594 170.242188 255.882812 168.789062 256.738281 C 167.332031 257.59375 165.976562 258.582031 164.71875 259.710938 C 163.460938 260.835938 162.328125 262.078125 161.316406 263.429688 C 157.429688 268.558594 155.832031 275.621094 156.730469 281.972656 C 157.527344 287.613281 160.492188 292.160156 165.050781 295.519531 C 167.136719 297.074219 169.382812 298.335938 171.800781 299.304688 C 174.214844 300.269531 176.710938 300.910156 179.292969 301.222656 C 184.785156 301.171875 189.148438 299.601562 193.066406 295.65625 C 197.941406 290.75 200.761719 283.53125 200.703125 276.628906 C 200.652344 270.375 198.480469 263.917969 193.949219 259.492188 Z M 260.480469 77.84375 C 257.574219 74.539062 254.023438 71.964844 250.363281 69.570312 C 236.328125 60.371094 219.734375 55.5625 203.042969 54.609375 C 199.457031 54.40625 195.804688 54.25 192.222656 54.488281 C 170.875 55.511719 151.285156 61.332031 136.34375 77.644531 C 125.546875 89.4375 120.550781 104.722656 117.746094 120.140625 C 127.308594 122.960938 137.382812 124.722656 147.132812 126.851562 C 150.464844 127.582031 153.921875 128.199219 157.195312 129.171875 C 159.34375 115.125 162.28125 101.402344 174.488281 92.433594 C 183.179688 86.050781 193.929688 85.597656 204.210938 87.269531 C 212.765625 88.65625 221.78125 92.1875 227.015625 99.441406 C 231.914062 106.253906 233.066406 115.042969 231.65625 123.1875 C 227.578125 146.730469 203.652344 162.414062 188.390625 178.824219 C 185.4375 182.0625 182.5625 185.257812 180.261719 189.003906 C 173.101562 200.664062 170.839844 216.234375 171.367188 229.824219 C 171.382812 230.320312 171.4375 230.816406 171.496094 231.3125 L 171.515625 231.519531 C 179.769531 233.179688 188.261719 234.082031 196.605469 235.234375 C 198.070312 214.253906 201.164062 200.890625 217.769531 186.445312 C 225.460938 179.75 234.125 174.253906 242.148438 167.980469 C 257.164062 156.242188 272.960938 139.65625 274.316406 119.710938 C 275.335938 104.871094 270.394531 89.0625 260.480469 77.84375 Z M 260.480469 77.84375 " fill-opacity="1" fill-rule="nonzero"/></svg>