<svg xmlns="http://www.w3.org/2000/svg" xmlns:xlink="http://www.w3.org/1999/xlink" width="500" zoomAndPan="magnify" viewBox="0 0 375 374.999991" height="500" preserveAspectRatio="xMidYMid meet" version="1.0"><defs><clipPath id="007c3ec4b4"><path d="M 56 9 L 304 9 L 304 365.902344 L 56 365.902344 Z M 56 9 " clip-rule="nonzero"/></clipPath><clipPath id="1f2cd31bd2"><path d="M 55.660156 8.902344 L 304 8.902344 L 304 365.902344 L 55.660156 365.902344 Z M 55.660156 8.902344 " clip-rule="nonzero"/></clipPath><clipPath id="f4e8120e3d"><path d="M 161 186 L 319.660156 186 L 319.660156 356 L 161 356 Z M 161 186 " clip-rule="nonzero"/></clipPath><clipPath id="d3f44e9f11"><path d="M 161 186 L 319.660156 186 L 319.660156 356 L 161 356 Z M 161 186 " clip-rule="nonzero"/></clipPath></defs><g clip-path="url(#007c3ec4b4)"><path fill="#1c2628" d="M 75.257812 365.144531 C 74.375 365.144531 73.550781 364.929688 72.804688 364.503906 L 59.214844 356.664062 C 57.179688 355.488281 56.011719 352.832031 56.011719 349.378906 L 56.011719 151.40625 C 56.011719 150.585938 56.085938 149.695312 56.230469 148.765625 C 56.25 148.601562 56.277344 148.464844 56.304688 148.332031 L 56.410156 147.746094 C 57.328125 143.289062 59.785156 138.90625 62.828125 136.300781 L 62.953125 136.195312 C 63.171875 136.011719 63.394531 135.839844 63.621094 135.675781 L 63.796875 135.542969 C 64.070312 135.347656 64.34375 135.167969 64.625 135.007812 L 280.792969 10.203125 C 281.011719 10.078125 281.226562 9.972656 281.441406 9.867188 C 281.664062 9.761719 281.867188 9.679688 282.070312 9.601562 L 282.234375 9.539062 C 282.429688 9.464844 282.625 9.410156 282.820312 9.355469 L 282.984375 9.3125 C 283.179688 9.265625 283.371094 9.226562 283.558594 9.199219 L 283.722656 9.175781 C 283.910156 9.152344 284.09375 9.136719 284.273438 9.132812 L 284.40625 9.132812 C 284.625 9.132812 284.796875 9.140625 284.960938 9.15625 L 285.113281 9.179688 C 285.332031 9.210938 285.480469 9.230469 285.625 9.265625 C 285.714844 9.289062 285.800781 9.316406 285.890625 9.34375 L 286.070312 9.402344 C 286.132812 9.421875 286.199219 9.441406 286.265625 9.464844 C 286.476562 9.550781 286.683594 9.648438 286.882812 9.761719 L 300.460938 17.605469 C 302.5 18.78125 303.667969 21.4375 303.667969 24.894531 L 303.667969 222.859375 C 303.667969 223.308594 303.644531 223.761719 303.605469 224.21875 C 303.59375 224.347656 303.546875 224.785156 303.546875 224.785156 L 303.441406 225.550781 C 303.402344 225.808594 303.355469 226.070312 303.304688 226.328125 L 303.21875 226.726562 C 303.148438 227.050781 303.074219 227.351562 302.996094 227.648438 C 302.992188 227.652344 302.949219 227.828125 302.949219 227.828125 C 302.242188 230.421875 301.074219 232.886719 299.566406 234.976562 C 299.398438 235.210938 299.226562 235.441406 299.050781 235.664062 C 298.945312 235.800781 298.832031 235.925781 298.71875 236.054688 L 298.175781 236.675781 C 298.105469 236.757812 298.039062 236.839844 297.96875 236.914062 C 297.859375 237.027344 297.75 237.128906 297.640625 237.230469 L 297.007812 237.835938 L 296.8125 237.992188 C 296.550781 238.214844 296.289062 238.429688 296.019531 238.625 L 295.84375 238.75 C 295.585938 238.929688 295.332031 239.097656 295.074219 239.246094 L 78.890625 364.0625 C 78.570312 364.246094 78.226562 364.414062 77.84375 364.578125 C 76.945312 364.953125 76.074219 365.144531 75.257812 365.144531 Z M 75.257812 365.144531 " fill-opacity="1" fill-rule="nonzero"/></g><path fill="#d7907b" d="M 64.972656 135.605469 C 60.40625 138.242188 56.703125 145.316406 56.703125 151.40625 L 56.703125 349.378906 C 56.703125 352.707031 57.808594 355.054688 59.5625 356.066406 L 73.136719 363.898438 C 74.585938 364.734375 76.476562 364.65625 78.546875 363.460938 L 294.707031 238.660156 C 296.28125 237.75 297.753906 236.316406 299.007812 234.574219 C 301.386719 231.265625 302.976562 226.851562 302.976562 222.859375 L 302.976562 24.894531 C 302.976562 21.5625 301.871094 19.21875 300.121094 18.207031 L 286.550781 10.367188 C 285.097656 9.53125 283.207031 9.609375 281.136719 10.804688 Z M 64.972656 135.605469 " fill-opacity="1" fill-rule="nonzero"/><path fill="#fefae0" d="M 302.976562 24.894531 L 302.976562 222.859375 C 302.976562 226.851562 301.386719 231.265625 299.007812 234.574219 C 297.753906 236.316406 296.28125 237.75 294.707031 238.660156 L 269.089844 253.449219 L 253.597656 262.394531 L 56.914062 148.84375 C 57.746094 143.449219 61.035156 137.878906 64.972656 135.605469 L 281.136719 10.804688 C 281.34375 10.683594 281.542969 10.585938 281.742188 10.492188 C 283.574219 9.609375 285.242188 9.613281 286.550781 10.367188 L 300.121094 18.207031 C 301.871094 19.21875 302.976562 21.5625 302.976562 24.894531 Z M 302.976562 24.894531 " fill-opacity="1" fill-rule="nonzero"/><path fill="#ffffff" d="M 78.546875 143.445312 L 294.707031 18.640625 C 299.277344 16.003906 302.976562 18.804688 302.976562 24.894531 L 302.976562 222.859375 C 302.976562 228.949219 299.277344 236.023438 294.707031 238.660156 L 78.546875 363.460938 C 73.980469 366.097656 70.277344 363.300781 70.277344 357.210938 L 70.277344 159.242188 C 70.277344 153.152344 73.980469 146.082031 78.546875 143.445312 Z M 78.546875 143.445312 " fill-opacity="1" fill-rule="nonzero"/><g clip-path="url(#1f2cd31bd2)"><path fill="#1c2628" d="M 300.582031 17.40625 C 300.578125 17.40625 300.578125 17.40625 300.574219 17.40625 L 287.011719 9.570312 C 287.007812 9.566406 287.003906 9.5625 287 9.5625 C 286.789062 9.441406 286.570312 9.339844 286.351562 9.25 C 286.246094 9.210938 286.140625 9.183594 286.035156 9.148438 C 285.914062 9.113281 285.800781 9.070312 285.679688 9.042969 C 285.527344 9.007812 285.371094 8.984375 285.21875 8.960938 C 285.140625 8.949219 285.0625 8.933594 284.984375 8.925781 C 284.808594 8.910156 284.632812 8.902344 284.453125 8.902344 C 284.390625 8.902344 284.328125 8.902344 284.269531 8.902344 C 284.078125 8.90625 283.886719 8.925781 283.695312 8.949219 C 283.636719 8.953125 283.582031 8.960938 283.523438 8.972656 C 283.328125 9 283.132812 9.039062 282.933594 9.085938 C 282.875 9.101562 282.816406 9.117188 282.757812 9.132812 C 282.558594 9.1875 282.359375 9.246094 282.15625 9.320312 C 282.101562 9.339844 282.042969 9.363281 281.988281 9.386719 C 281.777344 9.46875 281.570312 9.550781 281.363281 9.652344 C 281.355469 9.65625 281.347656 9.65625 281.34375 9.660156 C 281.121094 9.765625 280.902344 9.875 280.675781 10.003906 L 64.511719 134.808594 C 64.226562 134.972656 63.945312 135.15625 63.664062 135.355469 C 63.605469 135.398438 63.542969 135.445312 63.484375 135.488281 C 63.253906 135.65625 63.027344 135.832031 62.804688 136.019531 C 62.761719 136.054688 62.722656 136.089844 62.679688 136.128906 C 59.617188 138.746094 57.125 143.132812 56.1875 147.699219 C 56.15625 147.835938 56.132812 147.976562 56.109375 148.117188 C 56.074219 148.3125 56.03125 148.507812 56.003906 148.703125 C 56 148.710938 56.003906 148.71875 56.003906 148.726562 C 55.863281 149.632812 55.78125 150.53125 55.78125 151.40625 L 55.78125 349.378906 C 55.78125 352.917969 56.992188 355.644531 59.101562 356.863281 L 72.671875 364.695312 C 72.671875 364.695312 72.671875 364.695312 72.675781 364.695312 C 72.679688 364.699219 72.6875 364.703125 72.691406 364.703125 C 73.472656 365.152344 74.339844 365.375 75.257812 365.375 C 76.113281 365.375 77.015625 365.175781 77.933594 364.789062 C 78.289062 364.640625 78.648438 364.46875 79.007812 364.261719 L 261.25 259.042969 L 269.550781 254.25 L 295.167969 239.457031 C 295.175781 239.453125 295.183594 239.449219 295.191406 239.445312 C 295.453125 239.292969 295.710938 239.121094 295.96875 238.941406 C 295.972656 238.941406 295.972656 238.941406 295.976562 238.941406 C 296.035156 238.898438 296.089844 238.859375 296.148438 238.816406 C 296.152344 238.816406 296.152344 238.8125 296.152344 238.8125 C 296.425781 238.613281 296.695312 238.394531 296.960938 238.167969 C 297.027344 238.113281 297.09375 238.066406 297.160156 238.007812 C 297.222656 237.953125 297.28125 237.886719 297.34375 237.832031 C 297.441406 237.742188 297.535156 237.648438 297.628906 237.558594 C 297.800781 237.394531 297.96875 237.246094 298.132812 237.074219 C 298.257812 236.941406 298.375 236.789062 298.5 236.652344 C 298.566406 236.574219 298.636719 236.496094 298.703125 236.417969 C 298.878906 236.214844 299.0625 236.023438 299.234375 235.804688 C 299.410156 235.582031 299.585938 235.351562 299.753906 235.113281 C 301.308594 232.953125 302.472656 230.449219 303.164062 227.914062 C 303.167969 227.90625 303.171875 227.898438 303.171875 227.890625 C 303.1875 227.832031 303.203125 227.769531 303.21875 227.707031 C 303.296875 227.40625 303.371094 227.105469 303.441406 226.800781 C 303.441406 226.792969 303.441406 226.785156 303.445312 226.777344 C 303.476562 226.640625 303.503906 226.507812 303.53125 226.371094 C 303.582031 226.109375 303.628906 225.847656 303.671875 225.585938 C 303.691406 225.441406 303.710938 225.292969 303.730469 225.148438 C 303.742188 225.035156 303.761719 224.921875 303.773438 224.808594 C 303.796875 224.617188 303.820312 224.429688 303.835938 224.238281 C 303.875 223.773438 303.898438 223.3125 303.898438 222.859375 L 303.898438 24.894531 C 303.898438 21.351562 302.691406 18.625 300.582031 17.40625 Z M 60.023438 355.265625 C 58.8125 354.570312 58.019531 353.0625 57.742188 351.042969 L 69.378906 357.757812 C 69.421875 358.933594 69.597656 360.019531 69.90625 360.972656 Z M 284.570312 10.746094 C 284.660156 10.75 284.746094 10.75 284.832031 10.761719 C 284.894531 10.769531 284.953125 10.78125 285.015625 10.789062 C 285.101562 10.804688 285.191406 10.820312 285.273438 10.839844 C 285.339844 10.855469 285.40625 10.878906 285.46875 10.902344 C 285.542969 10.925781 285.621094 10.945312 285.691406 10.972656 C 285.828125 11.027344 285.957031 11.089844 286.085938 11.164062 C 286.085938 11.164062 286.085938 11.164062 286.089844 11.164062 C 286.09375 11.167969 286.09375 11.167969 286.097656 11.171875 L 296.199219 17.003906 C 295.722656 17.144531 295.242188 17.335938 294.753906 17.582031 L 283.929688 10.777344 L 283.925781 10.773438 C 284.074219 10.753906 284.226562 10.742188 284.371094 10.742188 C 284.4375 10.738281 284.503906 10.742188 284.570312 10.746094 Z M 296.359375 236.242188 C 296.328125 236.273438 296.292969 236.304688 296.261719 236.332031 C 295.988281 236.589844 295.707031 236.828125 295.425781 237.050781 C 295.355469 237.105469 295.285156 237.160156 295.214844 237.214844 C 294.898438 237.449219 294.578125 237.671875 294.25 237.863281 L 269.089844 252.386719 L 267.246094 253.449219 L 257.566406 259.039062 L 252.675781 261.863281 L 251.753906 262.394531 L 78.085938 362.664062 C 76.449219 363.609375 74.902344 363.777344 73.714844 363.15625 C 73.675781 363.136719 73.632812 363.121094 73.597656 363.101562 C 73.59375 363.097656 73.59375 363.097656 73.59375 363.097656 C 72.070312 362.21875 71.199219 360.070312 71.199219 357.210938 L 71.199219 159.242188 C 71.199219 158.890625 71.210938 158.535156 71.238281 158.179688 C 71.261719 157.847656 71.296875 157.511719 71.34375 157.175781 C 71.386719 156.851562 71.441406 156.527344 71.5 156.203125 C 72.394531 151.472656 75.199219 146.722656 78.570312 144.523438 C 78.714844 144.429688 78.859375 144.328125 79.007812 144.242188 L 79.46875 143.976562 L 80.390625 143.441406 L 295.167969 19.441406 C 296.164062 18.867188 297.125 18.574219 297.992188 18.574219 C 298.601562 18.574219 299.164062 18.71875 299.660156 19.003906 C 300.914062 19.726562 301.71875 21.320312 301.964844 23.457031 C 302.019531 23.914062 302.054688 24.386719 302.054688 24.894531 L 302.054688 222.859375 C 302.054688 223.289062 302.03125 223.726562 301.992188 224.167969 C 301.984375 224.25 301.976562 224.332031 301.964844 224.414062 C 301.925781 224.816406 301.871094 225.222656 301.800781 225.628906 C 301.792969 225.660156 301.789062 225.691406 301.78125 225.722656 C 301.074219 229.699219 299 233.71875 296.359375 236.242188 Z M 57.625 348.84375 L 57.625 151.40625 C 57.625 151.054688 57.636719 150.699219 57.664062 150.34375 L 69.492188 157.171875 C 69.410156 157.871094 69.355469 158.5625 69.355469 159.242188 L 69.355469 355.613281 Z M 185.546875 67.058594 L 281.601562 11.601562 C 281.601562 11.601562 281.605469 11.597656 281.605469 11.597656 C 281.636719 11.582031 281.667969 11.570312 281.695312 11.550781 L 292.921875 18.609375 L 78.546875 142.378906 L 66.816406 135.605469 Z M 64.496094 137.03125 C 64.59375 136.957031 64.691406 136.886719 64.789062 136.820312 C 64.855469 136.773438 64.921875 136.722656 64.988281 136.679688 L 65 136.6875 L 76.820312 143.511719 C 73.554688 146.027344 70.875 150.601562 69.832031 155.238281 L 57.929688 148.367188 C 58.761719 143.988281 61.234375 139.652344 64.15625 137.296875 C 64.269531 137.207031 64.378906 137.113281 64.496094 137.03125 Z M 296.523438 26.640625 L 296.523438 222.859375 C 296.523438 226.972656 293.8125 231.726562 291.484375 233.070312 L 263.558594 249.195312 L 261.714844 250.257812 L 248.066406 258.140625 L 246.222656 259.203125 L 78.113281 356.261719 C 77.96875 356.34375 77.8125 356.382812 77.652344 356.382812 C 77.492188 356.382812 77.332031 356.34375 77.191406 356.261719 C 76.90625 356.097656 76.730469 355.792969 76.730469 355.460938 L 76.730469 159.242188 C 76.730469 159.234375 76.730469 159.226562 76.730469 159.222656 C 76.742188 155.113281 79.445312 150.375 81.773438 149.03125 L 84.078125 147.699219 L 85.921875 146.636719 L 295.140625 25.84375 C 295.425781 25.675781 295.78125 25.675781 296.0625 25.84375 C 296.347656 26.007812 296.523438 26.3125 296.523438 26.640625 Z M 62.742188 170.53125 C 62.695312 170.421875 62.667969 170.300781 62.667969 170.179688 C 62.667969 169.941406 62.769531 169.703125 62.945312 169.527344 C 63.203125 169.277344 63.609375 169.195312 63.949219 169.332031 C 64.058594 169.378906 64.160156 169.445312 64.242188 169.527344 C 64.417969 169.703125 64.511719 169.941406 64.511719 170.179688 C 64.511719 170.300781 64.492188 170.421875 64.445312 170.53125 C 64.390625 170.652344 64.328125 170.753906 64.242188 170.835938 C 64.160156 170.917969 64.058594 170.992188 63.949219 171.039062 C 63.828125 171.085938 63.710938 171.101562 63.589844 171.101562 C 63.347656 171.101562 63.109375 171.011719 62.945312 170.835938 C 62.851562 170.753906 62.789062 170.652344 62.742188 170.53125 Z M 62.742188 175.898438 C 62.695312 175.785156 62.667969 175.667969 62.667969 175.546875 C 62.667969 175.425781 62.695312 175.308594 62.742188 175.195312 C 62.789062 175.078125 62.851562 174.984375 62.945312 174.890625 C 63.191406 174.632812 63.609375 174.550781 63.949219 174.699219 C 64.058594 174.746094 64.160156 174.808594 64.242188 174.890625 C 64.328125 174.984375 64.390625 175.078125 64.445312 175.195312 C 64.492188 175.308594 64.511719 175.425781 64.511719 175.546875 C 64.511719 175.667969 64.492188 175.785156 64.445312 175.898438 C 64.390625 176.007812 64.328125 176.109375 64.242188 176.203125 C 64.160156 176.285156 64.058594 176.347656 63.949219 176.394531 C 63.828125 176.441406 63.710938 176.46875 63.589844 176.46875 C 63.347656 176.46875 63.109375 176.367188 62.945312 176.203125 C 62.851562 176.109375 62.789062 176.007812 62.742188 175.898438 Z M 62.6875 181.085938 C 62.675781 181.03125 62.667969 180.96875 62.667969 180.910156 C 62.667969 180.792969 62.695312 180.671875 62.742188 180.550781 C 62.789062 180.441406 62.851562 180.339844 62.945312 180.257812 C 63.191406 180 63.609375 179.917969 63.949219 180.054688 C 64.058594 180.101562 64.160156 180.175781 64.242188 180.257812 C 64.328125 180.339844 64.402344 180.441406 64.445312 180.550781 C 64.492188 180.671875 64.511719 180.792969 64.511719 180.910156 C 64.511719 181.152344 64.417969 181.390625 64.242188 181.558594 C 64.160156 181.648438 64.058594 181.714844 63.949219 181.761719 C 63.828125 181.804688 63.71875 181.832031 63.589844 181.832031 C 63.347656 181.832031 63.109375 181.734375 62.945312 181.558594 C 62.898438 181.519531 62.859375 181.472656 62.824219 181.417969 C 62.796875 181.371094 62.757812 181.316406 62.742188 181.261719 C 62.714844 181.207031 62.695312 181.152344 62.6875 181.085938 Z M 62.742188 186.628906 C 62.695312 186.507812 62.667969 186.398438 62.667969 186.269531 C 62.667969 186.027344 62.769531 185.789062 62.945312 185.621094 C 63.203125 185.363281 63.609375 185.28125 63.949219 185.417969 C 64.058594 185.464844 64.160156 185.53125 64.242188 185.621094 C 64.417969 185.789062 64.511719 186.027344 64.511719 186.269531 C 64.511719 186.398438 64.492188 186.507812 64.445312 186.628906 C 64.390625 186.738281 64.328125 186.839844 64.242188 186.921875 C 64.160156 187.003906 64.058594 187.078125 63.949219 187.125 C 63.828125 187.171875 63.710938 187.191406 63.589844 187.191406 C 63.347656 187.191406 63.109375 187.097656 62.945312 186.921875 C 62.851562 186.839844 62.789062 186.738281 62.742188 186.628906 Z M 62.742188 191.984375 C 62.695312 191.871094 62.667969 191.753906 62.667969 191.632812 C 62.667969 191.570312 62.675781 191.511719 62.6875 191.449219 C 62.695312 191.394531 62.714844 191.339844 62.742188 191.28125 C 62.757812 191.226562 62.796875 191.171875 62.824219 191.125 C 62.859375 191.070312 62.898438 191.023438 62.945312 190.976562 C 63.191406 190.71875 63.609375 190.636719 63.949219 190.785156 C 64.058594 190.832031 64.160156 190.894531 64.242188 190.976562 C 64.417969 191.152344 64.511719 191.382812 64.511719 191.632812 C 64.511719 191.753906 64.492188 191.871094 64.445312 191.984375 C 64.390625 192.09375 64.328125 192.195312 64.242188 192.289062 C 64.160156 192.371094 64.058594 192.433594 63.949219 192.480469 C 63.828125 192.527344 63.710938 192.554688 63.589844 192.554688 C 63.347656 192.554688 63.109375 192.453125 62.945312 192.289062 C 62.851562 192.195312 62.789062 192.09375 62.742188 191.984375 Z M 62.945312 197.652344 C 62.769531 197.476562 62.667969 197.238281 62.667969 197 C 62.667969 196.878906 62.695312 196.757812 62.742188 196.640625 C 62.789062 196.527344 62.851562 196.425781 62.945312 196.34375 C 63.191406 196.085938 63.609375 196.003906 63.949219 196.140625 C 64.058594 196.1875 64.160156 196.261719 64.242188 196.34375 C 64.328125 196.425781 64.390625 196.527344 64.445312 196.640625 C 64.492188 196.757812 64.511719 196.878906 64.511719 197 C 64.511719 197.238281 64.417969 197.476562 64.242188 197.652344 C 64.160156 197.734375 64.058594 197.800781 63.949219 197.847656 C 63.828125 197.890625 63.710938 197.921875 63.589844 197.921875 C 63.347656 197.921875 63.109375 197.820312 62.945312 197.652344 Z M 62.742188 202.714844 C 62.695312 202.601562 62.667969 202.484375 62.667969 202.363281 C 62.667969 202.234375 62.695312 202.113281 62.742188 202.003906 C 62.789062 201.894531 62.851562 201.792969 62.945312 201.710938 C 63.191406 201.449219 63.609375 201.367188 63.949219 201.507812 C 64.058594 201.550781 64.160156 201.617188 64.242188 201.710938 C 64.328125 201.792969 64.402344 201.894531 64.445312 202.003906 C 64.492188 202.113281 64.511719 202.234375 64.511719 202.363281 C 64.511719 202.484375 64.492188 202.601562 64.445312 202.714844 C 64.390625 202.824219 64.328125 202.925781 64.242188 203.007812 C 64.160156 203.089844 64.058594 203.164062 63.949219 203.210938 C 63.828125 203.257812 63.71875 203.277344 63.589844 203.277344 C 63.347656 203.277344 63.109375 203.183594 62.945312 203.007812 C 62.851562 202.925781 62.789062 202.824219 62.742188 202.714844 Z M 62.742188 208.070312 C 62.695312 207.957031 62.667969 207.839844 62.667969 207.71875 C 62.667969 207.664062 62.675781 207.601562 62.6875 207.542969 C 62.695312 207.480469 62.714844 207.425781 62.742188 207.371094 C 62.757812 207.3125 62.796875 207.257812 62.824219 207.210938 C 62.859375 207.15625 62.898438 207.109375 62.945312 207.066406 C 63.191406 206.808594 63.609375 206.722656 63.949219 206.871094 C 64.058594 206.917969 64.160156 206.980469 64.242188 207.066406 C 64.417969 207.238281 64.511719 207.480469 64.511719 207.71875 C 64.511719 207.839844 64.492188 207.957031 64.445312 208.070312 C 64.390625 208.1875 64.328125 208.292969 64.242188 208.375 C 64.160156 208.457031 64.058594 208.523438 63.949219 208.566406 C 63.828125 208.621094 63.710938 208.640625 63.589844 208.640625 C 63.347656 208.640625 63.109375 208.539062 62.945312 208.375 C 62.851562 208.292969 62.789062 208.1875 62.742188 208.070312 Z M 62.6875 213.257812 C 62.675781 213.203125 62.667969 213.140625 62.667969 213.085938 C 62.667969 212.964844 62.695312 212.84375 62.742188 212.734375 C 62.789062 212.613281 62.851562 212.511719 62.945312 212.429688 C 63.191406 212.171875 63.609375 212.089844 63.949219 212.226562 C 64.058594 212.28125 64.160156 212.347656 64.242188 212.429688 C 64.328125 212.511719 64.390625 212.613281 64.445312 212.734375 C 64.492188 212.84375 64.511719 212.964844 64.511719 213.085938 C 64.511719 213.324219 64.417969 213.5625 64.242188 213.730469 C 64.160156 213.824219 64.058594 213.886719 63.949219 213.933594 C 63.828125 213.980469 63.710938 214.007812 63.589844 214.007812 C 63.347656 214.007812 63.109375 213.90625 62.945312 213.730469 C 62.898438 213.691406 62.859375 213.648438 62.824219 213.59375 C 62.796875 213.546875 62.757812 213.488281 62.742188 213.433594 C 62.714844 213.378906 62.695312 213.324219 62.6875 213.257812 Z M 62.6875 218.625 C 62.675781 218.570312 62.667969 218.503906 62.667969 218.449219 C 62.667969 218.320312 62.695312 218.199219 62.742188 218.089844 C 62.789062 217.980469 62.851562 217.878906 62.945312 217.796875 C 63.191406 217.539062 63.609375 217.453125 63.949219 217.59375 C 64.058594 217.636719 64.160156 217.703125 64.242188 217.796875 C 64.328125 217.878906 64.402344 217.980469 64.445312 218.089844 C 64.492188 218.199219 64.511719 218.320312 64.511719 218.449219 C 64.511719 218.691406 64.417969 218.929688 64.242188 219.09375 C 64.160156 219.1875 64.058594 219.25 63.949219 219.296875 C 63.828125 219.34375 63.71875 219.363281 63.589844 219.363281 C 63.46875 219.363281 63.347656 219.34375 63.238281 219.296875 C 63.128906 219.25 63.027344 219.1875 62.945312 219.09375 C 62.898438 219.058594 62.859375 219.011719 62.824219 218.957031 C 62.796875 218.910156 62.757812 218.855469 62.742188 218.800781 C 62.714844 218.746094 62.695312 218.679688 62.6875 218.625 Z M 64.242188 291.183594 C 64.417969 291.359375 64.511719 291.589844 64.511719 291.839844 C 64.511719 291.957031 64.492188 292.078125 64.445312 292.1875 C 64.390625 292.300781 64.328125 292.402344 64.242188 292.492188 C 64.160156 292.578125 64.058594 292.640625 63.949219 292.6875 C 63.828125 292.734375 63.710938 292.761719 63.589844 292.761719 C 63.347656 292.761719 63.109375 292.660156 62.945312 292.492188 C 62.851562 292.402344 62.789062 292.300781 62.742188 292.1875 C 62.695312 292.078125 62.667969 291.957031 62.667969 291.839844 C 62.667969 291.589844 62.769531 291.359375 62.945312 291.183594 C 63.027344 291.101562 63.128906 291.035156 63.238281 290.992188 C 63.460938 290.890625 63.71875 290.890625 63.949219 290.992188 C 64.058594 291.035156 64.160156 291.101562 64.242188 291.183594 Z M 64.242188 296.550781 C 64.417969 296.714844 64.511719 296.953125 64.511719 297.203125 C 64.511719 297.324219 64.492188 297.445312 64.445312 297.554688 C 64.390625 297.664062 64.328125 297.765625 64.242188 297.847656 C 64.160156 297.941406 64.058594 298.007812 63.949219 298.050781 C 63.828125 298.097656 63.710938 298.125 63.589844 298.125 C 63.347656 298.125 63.109375 298.023438 62.945312 297.847656 C 62.851562 297.765625 62.789062 297.664062 62.742188 297.554688 C 62.695312 297.445312 62.667969 297.324219 62.667969 297.203125 C 62.667969 297.140625 62.675781 297.074219 62.6875 297.019531 C 62.695312 296.964844 62.714844 296.898438 62.742188 296.84375 C 62.757812 296.789062 62.796875 296.734375 62.824219 296.6875 C 62.859375 296.640625 62.898438 296.585938 62.945312 296.550781 C 63.191406 296.292969 63.609375 296.207031 63.949219 296.347656 C 64.058594 296.394531 64.160156 296.464844 64.242188 296.550781 Z M 64.445312 302.210938 C 64.492188 302.320312 64.511719 302.441406 64.511719 302.558594 C 64.511719 302.808594 64.417969 303.046875 64.242188 303.214844 C 64.160156 303.296875 64.058594 303.363281 63.949219 303.417969 C 63.828125 303.464844 63.710938 303.480469 63.589844 303.480469 C 63.347656 303.480469 63.109375 303.390625 62.945312 303.214844 C 62.898438 303.167969 62.859375 303.121094 62.824219 303.078125 C 62.796875 303.019531 62.757812 302.976562 62.742188 302.917969 C 62.714844 302.863281 62.695312 302.800781 62.6875 302.746094 C 62.675781 302.679688 62.667969 302.625 62.667969 302.558594 C 62.667969 302.441406 62.695312 302.320312 62.742188 302.210938 C 62.789062 302.097656 62.851562 301.996094 62.945312 301.914062 C 63.191406 301.65625 63.609375 301.5625 63.949219 301.710938 C 64.058594 301.757812 64.160156 301.824219 64.242188 301.914062 C 64.328125 301.996094 64.390625 302.097656 64.445312 302.210938 Z M 64.445312 307.574219 C 64.492188 307.6875 64.511719 307.804688 64.511719 307.925781 C 64.511719 308.164062 64.417969 308.40625 64.242188 308.578125 C 64.160156 308.664062 64.058594 308.726562 63.949219 308.773438 C 63.828125 308.820312 63.710938 308.847656 63.589844 308.847656 C 63.347656 308.847656 63.109375 308.746094 62.945312 308.578125 C 62.769531 308.40625 62.667969 308.164062 62.667969 307.925781 C 62.667969 307.804688 62.695312 307.6875 62.742188 307.574219 C 62.789062 307.457031 62.851562 307.355469 62.945312 307.269531 C 63.191406 307.011719 63.609375 306.929688 63.949219 307.078125 C 64.058594 307.125 64.160156 307.1875 64.242188 307.269531 C 64.328125 307.355469 64.390625 307.457031 64.445312 307.574219 Z M 64.242188 312.636719 C 64.417969 312.800781 64.511719 313.042969 64.511719 313.289062 C 64.511719 313.410156 64.492188 313.53125 64.445312 313.640625 C 64.390625 313.75 64.328125 313.851562 64.242188 313.9375 C 64.160156 314.027344 64.058594 314.09375 63.949219 314.136719 C 63.828125 314.183594 63.710938 314.210938 63.589844 314.210938 C 63.347656 314.210938 63.109375 314.109375 62.945312 313.9375 C 62.851562 313.851562 62.789062 313.75 62.742188 313.640625 C 62.695312 313.53125 62.667969 313.410156 62.667969 313.289062 C 62.667969 313.042969 62.769531 312.800781 62.945312 312.636719 C 63.203125 312.378906 63.609375 312.292969 63.949219 312.433594 C 64.058594 312.480469 64.160156 312.554688 64.242188 312.636719 Z M 64.445312 318.296875 C 64.492188 318.40625 64.511719 318.527344 64.511719 318.648438 C 64.511719 318.894531 64.417969 319.136719 64.242188 319.300781 C 64.160156 319.382812 64.058594 319.457031 63.949219 319.503906 C 63.828125 319.550781 63.710938 319.570312 63.589844 319.570312 C 63.347656 319.570312 63.109375 319.476562 62.945312 319.300781 C 62.898438 319.253906 62.859375 319.207031 62.824219 319.164062 C 62.796875 319.109375 62.757812 319.0625 62.742188 319.003906 C 62.714844 318.949219 62.695312 318.886719 62.6875 318.832031 C 62.675781 318.765625 62.667969 318.710938 62.667969 318.648438 C 62.667969 318.527344 62.695312 318.40625 62.742188 318.296875 C 62.789062 318.1875 62.851562 318.082031 62.945312 318 C 63.191406 317.742188 63.609375 317.652344 63.949219 317.796875 C 64.058594 317.84375 64.160156 317.910156 64.242188 318 C 64.328125 318.082031 64.402344 318.1875 64.445312 318.296875 Z M 64.445312 323.660156 C 64.492188 323.773438 64.511719 323.890625 64.511719 324.011719 C 64.511719 324.261719 64.417969 324.492188 64.242188 324.667969 C 64.160156 324.75 64.058594 324.8125 63.949219 324.859375 C 63.828125 324.90625 63.710938 324.933594 63.589844 324.933594 C 63.347656 324.933594 63.109375 324.832031 62.945312 324.667969 C 62.769531 324.492188 62.667969 324.25 62.667969 324.011719 C 62.667969 323.890625 62.695312 323.773438 62.742188 323.660156 C 62.789062 323.542969 62.851562 323.449219 62.945312 323.355469 C 63.191406 323.097656 63.609375 323.015625 63.949219 323.164062 C 64.058594 323.210938 64.160156 323.273438 64.242188 323.355469 C 64.328125 323.449219 64.390625 323.542969 64.445312 323.660156 Z M 64.242188 328.722656 C 64.417969 328.886719 64.511719 329.128906 64.511719 329.375 C 64.511719 329.496094 64.492188 329.617188 64.445312 329.726562 C 64.390625 329.835938 64.328125 329.9375 64.242188 330.023438 C 64.160156 330.113281 64.058594 330.179688 63.949219 330.226562 C 63.828125 330.269531 63.710938 330.296875 63.589844 330.296875 C 63.347656 330.296875 63.109375 330.195312 62.945312 330.023438 C 62.851562 329.9375 62.789062 329.835938 62.742188 329.726562 C 62.695312 329.617188 62.667969 329.496094 62.667969 329.375 C 62.667969 329.128906 62.769531 328.898438 62.945312 328.722656 C 63.191406 328.464844 63.609375 328.382812 63.949219 328.519531 C 64.058594 328.566406 64.160156 328.640625 64.242188 328.722656 Z M 64.242188 334.085938 C 64.417969 334.253906 64.511719 334.492188 64.511719 334.734375 C 64.511719 334.863281 64.492188 334.972656 64.445312 335.09375 C 64.390625 335.203125 64.328125 335.304688 64.242188 335.386719 C 64.160156 335.46875 64.058594 335.542969 63.949219 335.589844 C 63.828125 335.636719 63.710938 335.65625 63.589844 335.65625 C 63.347656 335.65625 63.109375 335.5625 62.945312 335.386719 C 62.851562 335.304688 62.789062 335.203125 62.742188 335.09375 C 62.695312 334.972656 62.667969 334.863281 62.667969 334.734375 C 62.667969 334.675781 62.675781 334.613281 62.6875 334.558594 C 62.695312 334.492188 62.714844 334.4375 62.742188 334.382812 C 62.757812 334.328125 62.796875 334.273438 62.824219 334.226562 C 62.859375 334.171875 62.898438 334.125 62.945312 334.085938 C 63.191406 333.828125 63.609375 333.746094 63.949219 333.882812 C 64.058594 333.929688 64.160156 334.003906 64.242188 334.085938 Z M 64.445312 339.746094 C 64.492188 339.859375 64.511719 339.976562 64.511719 340.097656 C 64.511719 340.347656 64.417969 340.578125 64.242188 340.753906 C 64.160156 340.835938 64.058594 340.898438 63.949219 340.945312 C 63.828125 341 63.710938 341.019531 63.589844 341.019531 C 63.347656 341.019531 63.109375 340.917969 62.945312 340.753906 C 62.769531 340.578125 62.667969 340.347656 62.667969 340.097656 C 62.667969 339.976562 62.695312 339.859375 62.742188 339.746094 C 62.789062 339.636719 62.851562 339.535156 62.945312 339.445312 C 63.191406 339.183594 63.609375 339.101562 63.949219 339.25 C 64.058594 339.296875 64.160156 339.359375 64.242188 339.445312 C 64.328125 339.535156 64.390625 339.636719 64.445312 339.746094 Z M 66.570312 232.203125 L 66.570312 279.84375 C 66.570312 280.171875 66.394531 280.476562 66.109375 280.640625 C 65.964844 280.722656 65.804688 280.765625 65.648438 280.765625 C 65.488281 280.765625 65.328125 280.722656 65.1875 280.640625 L 60.871094 278.152344 C 60.585938 277.988281 60.410156 277.683594 60.410156 277.355469 L 60.410156 229.75 C 60.410156 229.421875 60.585938 229.121094 60.867188 228.953125 C 61.152344 228.789062 61.503906 228.789062 61.789062 228.949219 L 66.101562 231.402344 C 66.390625 231.566406 66.570312 231.871094 66.570312 232.203125 Z M 66.570312 232.203125 " fill-opacity="1" fill-rule="nonzero"/></g><path fill="#ffffff" d="M 285.234375 102.144531 L 285.234375 106.425781 L 247.5625 128.175781 L 247.5625 123.894531 Z M 268.792969 128.355469 L 285.234375 118.863281 L 285.234375 114.585938 L 268.792969 124.078125 Z M 268.792969 128.355469 " fill-opacity="1" fill-rule="nonzero"/><path fill="#386641" d="M 164.367188 228.339844 C 164.621094 228.78125 164.472656 229.34375 164.03125 229.597656 C 160.710938 231.515625 158.007812 236.171875 158.007812 239.980469 C 158.007812 241.199219 158.289062 242.183594 158.824219 242.824219 C 159.003906 243.039062 159.210938 243.214844 159.441406 243.347656 C 159.882812 243.597656 160.039062 244.164062 159.785156 244.605469 C 159.613281 244.902344 159.304688 245.066406 158.984375 245.066406 C 158.828125 245.066406 158.671875 245.027344 158.527344 244.945312 C 158.105469 244.707031 157.730469 244.390625 157.410156 244.007812 C 156.59375 243.027344 156.164062 241.636719 156.164062 239.980469 C 156.164062 235.511719 159.214844 230.25 163.109375 228 C 163.546875 227.746094 164.113281 227.898438 164.367188 228.339844 Z M 229.457031 142.082031 C 219.355469 136.25 205.96875 137.554688 191.761719 145.757812 C 183.027344 150.800781 174.386719 158.300781 166.777344 167.445312 C 166.449219 167.835938 166.503906 168.417969 166.894531 168.742188 C 167.285156 169.070312 167.867188 169.015625 168.191406 168.625 C 175.667969 159.644531 184.136719 152.289062 192.683594 147.355469 C 206.296875 139.492188 219.03125 138.191406 228.535156 143.679688 C 237.957031 149.117188 243.144531 160.636719 243.144531 176.113281 C 243.144531 185.269531 241.3125 195.183594 237.867188 205.179688 L 239.488281 206.125 C 243.078125 195.816406 244.988281 185.574219 244.988281 176.113281 C 244.988281 159.949219 239.472656 147.863281 229.457031 142.082031 Z M 212.183594 190.199219 L 214.175781 191.359375 C 213.453125 183.683594 209.34375 178.640625 203.0625 178.007812 C 202.546875 177.960938 202.105469 178.328125 202.050781 178.832031 C 202.003906 179.339844 202.371094 179.792969 202.878906 179.84375 C 207.925781 180.351562 211.253906 184.148438 212.183594 190.199219 Z M 200.472656 165.582031 C 190.734375 168.066406 180.546875 176.148438 172.515625 187.746094 C 172.226562 188.164062 172.332031 188.738281 172.75 189.027344 C 173.167969 189.316406 173.742188 189.214844 174.03125 188.796875 C 181.8125 177.554688 191.617188 169.746094 200.929688 167.367188 C 207.347656 165.730469 212.804688 166.863281 216.734375 170.640625 C 222.019531 175.726562 223.890625 184.855469 221.972656 195.910156 L 223.660156 196.890625 C 225.875 184.925781 223.855469 174.933594 218.011719 169.3125 C 213.664062 165.128906 207.4375 163.804688 200.472656 165.582031 Z M 204.410156 255.628906 C 204.96875 255.953125 205.535156 256.277344 206.097656 256.605469 C 209.34375 253.75 212.492188 250.585938 215.519531 247.152344 C 214.984375 246.828125 214.453125 246.503906 213.925781 246.179688 C 210.867188 249.625 207.683594 252.785156 204.410156 255.628906 Z M 232.242188 169.75 C 232.726562 169.59375 232.992188 169.074219 232.835938 168.589844 C 230.378906 160.957031 225.691406 155.621094 219.285156 153.152344 C 211.550781 150.171875 201.773438 151.714844 191.761719 157.496094 C 168.558594 170.890625 149.683594 203.449219 149.683594 230.074219 C 149.683594 230.585938 150.097656 230.996094 150.605469 230.996094 C 151.117188 230.996094 151.527344 230.585938 151.527344 230.074219 C 151.527344 204.035156 169.988281 172.195312 192.683594 159.089844 C 202.203125 153.59375 211.414062 152.097656 218.621094 154.871094 C 224.492188 157.132812 228.800781 162.074219 231.082031 169.15625 C 231.238281 169.640625 231.761719 169.910156 232.242188 169.75 Z M 163.109375 242.878906 C 162.667969 243.132812 162.515625 243.699219 162.769531 244.140625 C 162.941406 244.433594 163.25 244.601562 163.570312 244.601562 C 163.726562 244.601562 163.886719 244.558594 164.03125 244.476562 C 165.191406 243.808594 166.273438 242.867188 167.222656 241.761719 C 166.644531 241.433594 166.101562 241.121094 165.585938 240.832031 C 164.828125 241.660156 163.992188 242.371094 163.109375 242.878906 Z M 173.515625 260.429688 C 178.964844 260.429688 184.96875 258.746094 191.144531 255.4375 C 190.511719 255.074219 189.882812 254.710938 189.257812 254.355469 C 178.476562 259.824219 168.414062 260.007812 161.351562 254.765625 C 160.945312 254.460938 160.367188 254.546875 160.0625 254.957031 C 159.761719 255.363281 159.84375 255.941406 160.253906 256.246094 C 164.019531 259.039062 168.535156 260.429688 173.515625 260.429688 Z M 176.589844 229.253906 C 176.589844 228.746094 176.175781 228.332031 175.667969 228.332031 C 175.15625 228.332031 174.746094 228.746094 174.746094 229.253906 C 174.746094 231.914062 174.054688 234.789062 172.878906 237.550781 C 173.394531 237.84375 173.929688 238.148438 174.476562 238.460938 C 175.808594 235.402344 176.589844 232.207031 176.589844 229.253906 Z M 191.761719 264.742188 C 178.148438 272.601562 165.414062 273.90625 155.90625 268.417969 C 146.488281 262.976562 141.296875 251.457031 141.296875 235.980469 C 141.296875 220.917969 146.257812 203.710938 155.269531 187.527344 C 155.515625 187.082031 155.355469 186.523438 154.910156 186.273438 C 154.464844 186.027344 153.90625 186.1875 153.65625 186.632812 C 144.5 203.085938 139.453125 220.609375 139.453125 235.980469 C 139.453125 252.144531 144.96875 264.230469 154.984375 270.015625 C 159.140625 272.414062 163.855469 273.605469 168.953125 273.605469 C 176.242188 273.605469 184.320312 271.167969 192.683594 266.339844 C 195.402344 264.769531 198.097656 262.96875 200.746094 260.972656 C 200.164062 260.636719 199.585938 260.300781 199.007812 259.96875 C 196.621094 261.734375 194.203125 263.332031 191.761719 264.742188 Z M 170.375 236.125 C 170.757812 234.90625 170.972656 233.675781 170.972656 232.496094 C 170.972656 229.363281 169.433594 227.261719 166.953125 227.011719 C 166.464844 226.960938 165.996094 227.332031 165.945312 227.835938 C 165.894531 228.34375 166.265625 228.792969 166.769531 228.84375 C 168.25 228.992188 169.128906 230.359375 169.128906 232.496094 C 169.128906 233.363281 168.984375 234.277344 168.726562 235.191406 C 169.242188 235.484375 169.792969 235.796875 170.375 236.125 Z M 191.761719 180.96875 C 180.625 187.402344 171.378906 202.304688 170.253906 215.640625 C 170.210938 216.148438 170.589844 216.59375 171.09375 216.636719 C 171.121094 216.640625 171.148438 216.640625 171.175781 216.640625 C 171.648438 216.640625 172.050781 216.277344 172.089844 215.796875 C 173.167969 203.007812 182.019531 188.722656 192.683594 182.566406 C 193.125 182.3125 193.277344 181.75 193.019531 181.308594 C 192.765625 180.867188 192.199219 180.714844 191.761719 180.96875 Z M 153.410156 247.992188 C 153.171875 247.539062 152.613281 247.367188 152.164062 247.605469 C 151.714844 247.84375 151.542969 248.402344 151.78125 248.851562 C 152.734375 250.65625 154.207031 251.886719 156.035156 252.414062 C 156.710938 252.609375 157.417969 252.707031 158.148438 252.707031 C 159.980469 252.707031 161.976562 252.101562 164.03125 250.917969 C 166.730469 249.359375 169.226562 246.925781 171.277344 244.070312 C 170.734375 243.757812 170.203125 243.457031 169.691406 243.167969 C 167.820312 245.730469 165.550781 247.910156 163.109375 249.320312 C 160.679688 250.722656 158.414062 251.183594 156.546875 250.644531 C 155.207031 250.257812 154.125 249.339844 153.410156 247.992188 Z M 233.839844 181.097656 C 233.328125 181.097656 232.917969 181.511719 232.917969 182.019531 C 232.917969 188.027344 231.921875 194.34375 230.132812 200.667969 L 231.761719 201.617188 C 233.6875 194.976562 234.761719 188.332031 234.761719 182.019531 C 234.761719 181.511719 234.347656 181.097656 233.839844 181.097656 Z M 163.109375 221.558594 C 156.183594 225.558594 150.550781 235.277344 150.550781 243.222656 C 150.550781 243.730469 150.964844 244.144531 151.472656 244.144531 C 151.980469 244.144531 152.394531 243.730469 152.394531 243.222656 C 152.394531 235.863281 157.613281 226.859375 164.03125 223.15625 C 166.625 221.660156 169.101562 221.238281 171.007812 221.972656 C 172.523438 222.558594 173.640625 223.851562 174.242188 225.714844 C 174.398438 226.199219 174.917969 226.46875 175.402344 226.3125 C 175.886719 226.15625 176.152344 225.636719 175.996094 225.152344 C 175.21875 222.738281 173.722656 221.042969 171.671875 220.253906 C 169.234375 219.316406 166.195312 219.777344 163.109375 221.558594 Z M 184.808594 244.359375 C 185.507812 244.757812 186.21875 245.164062 186.9375 245.578125 C 191.328125 243.949219 195.765625 241.222656 199.984375 237.648438 C 199.425781 237.304688 198.878906 236.96875 198.339844 236.640625 C 193.945312 240.28125 189.328125 242.960938 184.808594 244.359375 Z M 197.386719 251.578125 C 201.0625 248.984375 204.59375 245.921875 207.925781 242.507812 C 207.386719 242.179688 206.855469 241.855469 206.328125 241.53125 C 202.945312 244.953125 199.355469 248.003906 195.621094 250.5625 C 196.207031 250.898438 196.792969 251.234375 197.386719 251.578125 Z M 110.015625 298.171875 C 109.730469 298.007812 109.554688 297.703125 109.554688 297.375 L 109.554688 282.707031 L 100.96875 287.664062 L 100.96875 303.398438 C 100.96875 303.726562 100.792969 304.03125 100.507812 304.195312 L 86.792969 312.113281 L 86.792969 321.953125 L 99.585938 314.566406 C 99.726562 314.484375 99.886719 314.445312 100.046875 314.445312 C 100.203125 314.445312 100.363281 314.484375 100.507812 314.566406 C 100.792969 314.730469 100.96875 315.035156 100.96875 315.367188 L 100.96875 330.035156 L 109.554688 325.078125 L 109.554688 309.34375 C 109.554688 309.015625 109.730469 308.710938 110.015625 308.546875 L 123.726562 300.628906 L 123.726562 290.789062 L 110.9375 298.171875 C 110.652344 298.335938 110.300781 298.335938 110.015625 298.171875 Z M 93.8125 154.8125 C 93.492188 154.8125 93.183594 154.648438 93.011719 154.351562 C 92.757812 153.910156 92.910156 153.347656 93.351562 153.09375 L 108.824219 144.160156 C 109.261719 143.90625 109.828125 144.054688 110.082031 144.496094 C 110.335938 144.9375 110.1875 145.5 109.746094 145.757812 L 94.273438 154.6875 C 94.125 154.773438 93.96875 154.8125 93.8125 154.8125 Z M 87.210938 158.765625 L 91.179688 156.472656 C 91.621094 156.21875 91.773438 155.65625 91.519531 155.214844 C 91.261719 154.773438 90.699219 154.621094 90.257812 154.878906 L 86.289062 157.167969 C 85.847656 157.425781 85.695312 157.988281 85.949219 158.429688 C 86.121094 158.726562 86.429688 158.890625 86.75 158.890625 C 86.90625 158.890625 87.066406 158.851562 87.210938 158.765625 Z M 87.210938 164.511719 L 106.003906 153.660156 C 106.445312 153.40625 106.597656 152.839844 106.34375 152.402344 C 106.085938 151.957031 105.523438 151.808594 105.082031 152.0625 L 86.289062 162.914062 C 85.847656 163.167969 85.695312 163.730469 85.949219 164.171875 C 86.121094 164.46875 86.429688 164.632812 86.75 164.632812 C 86.90625 164.632812 87.066406 164.59375 87.210938 164.511719 Z M 102.96875 161.160156 L 109.746094 157.246094 C 110.1875 156.992188 110.335938 156.425781 110.082031 155.984375 C 109.828125 155.542969 109.261719 155.394531 108.824219 155.648438 L 102.046875 159.5625 C 101.605469 159.816406 101.453125 160.378906 101.707031 160.820312 C 101.878906 161.117188 102.1875 161.28125 102.507812 161.28125 C 102.664062 161.28125 102.824219 161.242188 102.96875 161.160156 Z M 87.210938 170.257812 L 99.523438 163.148438 C 99.964844 162.894531 100.113281 162.328125 99.859375 161.886719 C 99.605469 161.445312 99.039062 161.296875 98.601562 161.550781 L 86.289062 168.660156 C 85.847656 168.914062 85.695312 169.476562 85.949219 169.917969 C 86.121094 170.214844 86.429688 170.378906 86.75 170.378906 C 86.90625 170.378906 87.066406 170.339844 87.210938 170.257812 Z M 286.15625 55.378906 C 285.648438 55.378906 285.234375 54.96875 285.234375 54.457031 L 285.234375 42.429688 C 285.234375 41.921875 285.648438 41.507812 286.15625 41.507812 C 286.667969 41.507812 287.078125 41.921875 287.078125 42.429688 L 287.078125 54.457031 C 287.078125 54.96875 286.667969 55.378906 286.15625 55.378906 Z M 281.734375 57.90625 C 281.226562 57.90625 280.8125 57.492188 280.8125 56.984375 L 280.8125 49.648438 C 280.8125 49.140625 281.226562 48.726562 281.734375 48.726562 C 282.242188 48.726562 282.65625 49.140625 282.65625 49.648438 L 282.65625 56.984375 C 282.65625 57.492188 282.242188 57.90625 281.734375 57.90625 Z M 277.3125 60.429688 C 276.804688 60.429688 276.390625 60.015625 276.390625 59.507812 L 276.390625 55.835938 C 276.390625 55.328125 276.804688 54.914062 277.3125 54.914062 C 277.820312 54.914062 278.234375 55.328125 278.234375 55.835938 L 278.234375 59.507812 C 278.234375 60.015625 277.820312 60.429688 277.3125 60.429688 Z M 285.234375 64.820312 L 285.234375 69.101562 L 223.96875 104.472656 L 223.96875 100.191406 Z M 250.511719 101.589844 L 285.234375 81.542969 L 285.234375 77.261719 L 250.511719 97.308594 Z M 223.96875 129.355469 L 285.234375 93.984375 L 285.234375 89.703125 L 223.96875 125.074219 Z M 115.28125 163.386719 L 90.109375 177.917969 C 87.945312 179.167969 86.191406 182.519531 86.191406 185.40625 L 86.191406 214.007812 C 86.191406 216.894531 87.945312 218.21875 90.109375 216.972656 L 115.28125 202.4375 C 117.445312 201.1875 119.199219 197.835938 119.199219 194.953125 L 119.199219 166.347656 C 119.199219 163.464844 117.445312 162.136719 115.28125 163.386719 Z M 102.695312 175.53125 C 105.683594 173.808594 108.105469 175.1875 108.105469 178.617188 C 108.105469 182.042969 105.683594 186.222656 102.695312 187.949219 C 99.707031 189.671875 97.285156 188.292969 97.285156 184.863281 C 97.285156 181.433594 99.707031 177.257812 102.695312 175.53125 Z M 111.285156 200.414062 L 94.105469 210.328125 C 92.300781 211.371094 91.042969 210.082031 91.582031 207.796875 C 93.058594 201.511719 97.476562 195.023438 102.695312 192.011719 C 107.914062 188.996094 112.332031 190.386719 113.808594 194.960938 C 114.347656 196.628906 113.089844 199.371094 111.285156 200.414062 Z M 111.285156 200.414062 " fill-opacity="1" fill-rule="nonzero"/><g clip-path="url(#f4e8120e3d)"><path fill="#1c2628" d="M 281.65625 355.046875 C 269.382812 355.015625 268.984375 340.621094 268.601562 326.699219 C 268.289062 315.492188 267.9375 302.800781 261.757812 297.726562 C 251.980469 289.695312 177.773438 247.476562 162.996094 239.09375 C 161.5625 238.28125 161.054688 236.449219 161.867188 235.015625 C 162.261719 234.316406 162.90625 233.816406 163.675781 233.601562 C 163.941406 233.527344 164.210938 233.492188 164.480469 233.492188 C 164.992188 233.492188 165.5 233.625 165.953125 233.882812 C 180.777344 242.285156 255.261719 284.640625 265.5625 293.09375 C 273.851562 299.902344 274.246094 314.046875 274.589844 326.527344 C 274.976562 340.53125 275.644531 349.039062 281.667969 349.054688 C 288.707031 349.054688 293.644531 312.605469 297.25 285.996094 L 297.460938 284.460938 C 297.472656 284.359375 297.417969 284.261719 297.324219 284.21875 C 297.109375 284.125 296.894531 284.027344 296.6875 283.910156 C 294.128906 282.433594 292.722656 279.386719 292.722656 275.328125 C 292.722656 274.285156 292.824219 273.160156 293.03125 271.980469 C 293.046875 271.886719 293.003906 271.792969 292.921875 271.742188 L 292.246094 271.351562 C 291.71875 271.042969 291.273438 270.609375 290.925781 270.0625 C 290.882812 269.996094 290.808594 269.953125 290.730469 269.953125 C 290.722656 269.953125 290.714844 269.957031 290.710938 269.957031 C 290.503906 269.972656 290.285156 269.984375 290.058594 269.984375 C 288.296875 269.984375 286.082031 269.414062 283.484375 268.292969 C 279.625 266.632812 274.203125 264.511719 273.15625 264.101562 C 272.738281 264.058594 271.71875 263.96875 270.363281 263.839844 C 270.355469 263.839844 270.347656 263.839844 270.34375 263.839844 C 270.265625 263.839844 270.195312 263.875 270.152344 263.9375 C 268.144531 266.769531 266.019531 268.835938 263.832031 270.078125 C 262.175781 271.019531 260.484375 271.496094 258.804688 271.496094 C 257.011719 271.496094 255.191406 270.953125 253.394531 269.882812 C 236.394531 259.742188 185.96875 228.785156 183.828125 227.46875 C 183.824219 227.46875 183.75 227.417969 183.75 227.417969 C 180.5 225.582031 178.710938 221.738281 178.710938 216.585938 C 178.710938 206.296875 186.003906 193.714844 194.96875 188.539062 C 197.542969 187.054688 200.136719 186.269531 202.464844 186.269531 C 203.6875 186.269531 204.835938 186.480469 205.886719 186.902344 C 206.066406 186.921875 206.15625 186.949219 206.234375 186.996094 L 268.832031 223.507812 C 268.867188 223.527344 268.90625 223.539062 268.945312 223.539062 C 268.949219 223.539062 268.953125 223.539062 268.957031 223.539062 C 269.269531 223.527344 269.585938 223.515625 269.902344 223.515625 C 277.398438 223.542969 302.058594 223.96875 308.511719 228.152344 C 314.398438 231.96875 316.324219 237.882812 316.164062 242.152344 C 316.039062 245.550781 314.648438 248.308594 312.347656 249.714844 C 312.308594 249.738281 312.277344 249.777344 312.257812 249.816406 C 312.070312 250.242188 311.804688 250.679688 311.496094 251.082031 C 311.445312 251.152344 311.4375 251.242188 311.472656 251.320312 C 311.511719 251.398438 311.585938 251.449219 311.675781 251.453125 C 312.921875 251.484375 314.054688 251.792969 315.046875 252.363281 C 317.605469 253.84375 319.011719 256.890625 319.011719 260.949219 C 319.011719 269.046875 313.269531 278.953125 306.210938 283.027344 C 305.375 283.511719 304.519531 283.90625 303.667969 284.207031 C 303.585938 284.234375 303.527344 284.304688 303.515625 284.390625 L 303.242188 286.417969 C 298.457031 321.710938 293.9375 355.046875 281.6875 355.046875 Z M 284.558594 246.816406 C 284.523438 246.816406 284.492188 246.824219 284.460938 246.835938 L 284.222656 246.945312 C 284.171875 246.972656 284.128906 247.011719 284.109375 247.066406 C 283.441406 248.632812 283.238281 250.433594 283.503906 252.425781 C 283.515625 252.492188 283.546875 252.546875 283.601562 252.582031 C 284.953125 253.542969 289.546875 256.886719 291.96875 259.621094 C 292.015625 259.667969 292.078125 259.699219 292.144531 259.699219 C 292.148438 259.699219 292.15625 259.695312 292.164062 259.695312 C 292.234375 259.691406 292.300781 259.652344 292.335938 259.589844 C 293.46875 257.800781 294.878906 256.339844 296.414062 255.367188 C 296.472656 255.328125 296.515625 255.261719 296.519531 255.191406 C 296.523438 255.117188 296.496094 255.046875 296.441406 255 C 296.058594 254.664062 295.707031 254.28125 295.402344 253.863281 C 294.273438 252.503906 293.367188 250.808594 292.457031 248.355469 C 292.429688 248.28125 292.363281 248.222656 292.28125 248.207031 C 291.070312 247.976562 287.890625 247.382812 284.597656 246.820312 C 284.582031 246.816406 284.570312 246.816406 284.558594 246.816406 Z M 284.558594 246.816406 " fill-opacity="1" fill-rule="nonzero"/></g><path fill="#fefae0" d="M 302.855469 256.023438 C 298.449219 259.828125 294.976562 265.777344 293.832031 271.472656 C 293.53125 271.300781 292.59375 270.753906 292.59375 270.753906 C 292.011719 270.414062 291.546875 269.871094 291.230469 269.160156 C 290.929688 268.488281 290.761719 267.660156 290.761719 266.691406 C 290.761719 264.894531 291.332031 262.925781 292.269531 261.117188 C 293.433594 258.871094 295.167969 256.867188 297.109375 255.746094 C 297.429688 255.558594 297.746094 255.414062 298.054688 255.289062 C 298.699219 255.675781 299.355469 255.890625 299.992188 255.953125 C 300.753906 256.03125 301.484375 255.898438 302.136719 255.601562 C 302.273438 255.683594 302.4375 255.777344 302.621094 255.886719 C 302.699219 255.929688 302.773438 255.976562 302.855469 256.023438 Z M 302.855469 256.023438 " fill-opacity="1" fill-rule="nonzero"/><path fill="#d7907b" d="M 302.910156 283.710938 C 302.847656 284.164062 302.785156 284.625 302.726562 285.070312 C 298.167969 318.671875 293.480469 354.355469 281.6875 354.355469 C 281.675781 354.355469 281.667969 354.355469 281.65625 354.355469 C 270.054688 354.324219 269.667969 340.269531 269.289062 326.675781 C 268.976562 315.328125 268.621094 302.464844 262.195312 297.191406 C 252.320312 289.082031 176.683594 246.0625 163.335938 238.492188 C 162.230469 237.867188 161.84375 236.460938 162.46875 235.355469 C 163.097656 234.246094 164.503906 233.855469 165.609375 234.484375 C 179.300781 242.246094 254.824219 285.175781 265.121094 293.628906 C 273.171875 300.238281 273.558594 314.214844 273.898438 326.546875 C 274.296875 340.96875 275.019531 349.726562 281.667969 349.746094 C 281.671875 349.746094 281.675781 349.746094 281.679688 349.746094 C 289.457031 349.746094 294.226562 313.441406 298.160156 284.449219 C 298.1875 284.242188 298.214844 284.03125 298.246094 283.820312 C 299.605469 284.246094 301.1875 284.226562 302.910156 283.710938 Z M 308.136719 228.730469 C 302.6875 225.199219 282.851562 224.257812 269.988281 224.207031 C 269.5625 224.203125 269.140625 224.214844 268.71875 224.238281 C 255.734375 224.984375 244.757812 237.8125 250.054688 253.367188 C 252.835938 260.507812 259.785156 262.070312 265.589844 262.679688 C 267.101562 262.835938 268.609375 262.980469 269.890625 263.101562 C 271.863281 263.289062 273.28125 263.410156 273.28125 263.410156 C 273.28125 263.410156 279.453125 265.804688 283.757812 267.660156 C 287.128906 269.113281 289.574219 269.496094 291.230469 269.160156 C 290.929688 268.488281 290.761719 267.660156 290.761719 266.691406 C 290.761719 264.894531 291.332031 262.925781 292.269531 261.117188 C 290.207031 258.019531 282.878906 252.921875 282.878906 252.921875 C 282.417969 250.074219 282.914062 247.957031 283.628906 246.460938 L 284.429688 246.089844 C 288.761719 246.824219 292.925781 247.628906 292.925781 247.628906 C 293.722656 249.839844 294.671875 252.035156 296.164062 253.699219 C 296.625 254.28125 297.1875 254.78125 297.855469 255.175781 C 297.863281 255.179688 297.867188 255.183594 297.875 255.1875 C 297.878906 255.191406 297.886719 255.191406 297.890625 255.199219 C 297.90625 255.207031 297.917969 255.210938 297.929688 255.21875 C 297.972656 255.246094 298.011719 255.265625 298.054688 255.289062 C 298.699219 255.675781 299.355469 255.890625 299.992188 255.953125 C 300.753906 256.03125 301.484375 255.898438 302.136719 255.601562 C 302.273438 255.683594 302.4375 255.777344 302.621094 255.886719 C 302.867188 255.816406 303.097656 255.730469 303.308594 255.628906 C 303.804688 255.226562 304.308594 254.855469 304.820312 254.511719 C 305.648438 253.613281 305.980469 252.667969 305.980469 252.667969 C 310.238281 253.367188 311.734375 249.273438 311.734375 249.273438 C 317.398438 246.171875 316.988281 234.472656 308.136719 228.730469 Z M 308.136719 228.730469 " fill-opacity="1" fill-rule="nonzero"/><path fill="#ffffff" d="M 265.589844 262.679688 C 267.101562 262.835938 268.609375 262.980469 269.890625 263.101562 C 265.464844 269.5625 259.894531 272.953125 253.75 269.289062 C 236.253906 258.855469 184.175781 226.871094 184.175781 226.871094 L 184.179688 226.867188 C 181.230469 225.253906 179.402344 221.695312 179.402344 216.585938 C 179.402344 206.5 186.527344 194.210938 195.316406 189.140625 C 199.363281 186.804688 203.050781 186.40625 205.859375 187.640625 L 205.886719 187.589844 L 268.652344 224.207031 C 268.675781 224.21875 268.695312 224.226562 268.71875 224.238281 C 255.734375 224.984375 244.757812 237.8125 250.054688 253.367188 C 252.835938 260.507812 259.785156 262.070312 265.589844 262.679688 Z M 305.867188 253.847656 C 305.515625 254.050781 305.167969 254.277344 304.820312 254.511719 C 304.308594 254.855469 303.804688 255.226562 303.308594 255.628906 C 303.15625 255.753906 303.007812 255.890625 302.855469 256.023438 C 298.449219 259.828125 294.976562 265.777344 293.832031 271.472656 C 293.566406 272.78125 293.414062 274.078125 293.414062 275.328125 C 293.414062 279.921875 295.308594 282.902344 298.246094 283.820312 C 299.605469 284.246094 301.1875 284.226562 302.910156 283.710938 C 303.859375 283.429688 304.847656 283.015625 305.867188 282.425781 C 312.746094 278.457031 318.320312 268.839844 318.320312 260.949219 C 318.320312 253.054688 312.746094 249.875 305.867188 253.847656 Z M 305.867188 253.847656 " fill-opacity="1" fill-rule="nonzero"/><g clip-path="url(#d3f44e9f11)"><path fill="#1c2628" d="M 315.160156 252.164062 C 314.117188 251.5625 312.941406 251.253906 311.679688 251.222656 C 312.023438 250.773438 312.289062 250.316406 312.46875 249.910156 C 314.839844 248.460938 316.265625 245.65625 316.394531 242.160156 C 316.558594 237.828125 314.601562 231.824219 308.636719 227.957031 C 302.132812 223.738281 277.414062 223.3125 269.992188 223.285156 C 269.644531 223.28125 269.292969 223.292969 268.945312 223.308594 L 206.351562 186.796875 C 206.234375 186.726562 206.105469 186.695312 205.972656 186.6875 C 202.828125 185.429688 198.894531 186.007812 194.855469 188.339844 C 185.828125 193.554688 178.480469 206.222656 178.480469 216.585938 C 178.480469 221.828125 180.3125 225.742188 183.636719 227.617188 C 183.652344 227.632812 183.671875 227.644531 183.691406 227.65625 C 184.214844 227.976562 235.976562 259.761719 253.277344 270.082031 C 255.117188 271.179688 256.964844 271.726562 258.804688 271.726562 C 260.527344 271.726562 262.246094 271.246094 263.945312 270.28125 C 266.277344 268.957031 268.417969 266.785156 270.34375 264.070312 C 271.699219 264.195312 272.71875 264.285156 273.070312 264.316406 C 273.960938 264.664062 279.484375 266.820312 283.394531 268.503906 C 286.289062 269.753906 288.449219 270.214844 290.058594 270.214844 C 290.292969 270.214844 290.519531 270.203125 290.730469 270.183594 C 291.09375 270.753906 291.5625 271.21875 292.128906 271.550781 L 292.804688 271.941406 C 292.605469 273.089844 292.492188 274.226562 292.492188 275.328125 C 292.492188 279.472656 293.941406 282.589844 296.574219 284.109375 C 296.785156 284.230469 297.007812 284.332031 297.230469 284.429688 L 297.023438 285.960938 C 293.632812 310.992188 288.503906 348.824219 281.671875 348.824219 C 275.855469 348.808594 275.203125 340.386719 274.820312 326.519531 C 274.472656 313.992188 274.078125 299.792969 265.707031 292.917969 C 255.390625 284.445312 180.894531 242.085938 166.066406 233.679688 C 165.316406 233.257812 164.445312 233.148438 163.617188 233.378906 C 162.785156 233.609375 162.09375 234.148438 161.667969 234.902344 C 160.792969 236.449219 161.335938 238.417969 162.882812 239.296875 C 177.652344 247.675781 251.839844 289.878906 261.609375 297.902344 C 267.710938 302.910156 268.058594 315.550781 268.371094 326.707031 C 268.757812 340.734375 269.160156 355.242188 281.65625 355.277344 L 281.6875 355.277344 C 294.140625 355.277344 298.671875 321.84375 303.46875 286.449219 L 303.640625 285.195312 C 303.675781 284.941406 303.710938 284.679688 303.746094 284.421875 C 304.589844 284.125 305.453125 283.730469 306.328125 283.226562 C 313.449219 279.113281 319.242188 269.121094 319.242188 260.949219 C 319.242188 256.804688 317.792969 253.683594 315.160156 252.164062 Z M 304.03125 282.324219 C 303.699219 282.46875 303.371094 282.605469 303.046875 282.714844 C 302.71875 282.828125 302.394531 282.925781 302.078125 283 C 301.078125 283.234375 300.132812 283.277344 299.269531 283.132812 C 298.957031 283.082031 298.65625 283.007812 298.367188 282.90625 C 298.066406 282.800781 297.773438 282.671875 297.496094 282.511719 C 297.492188 282.511719 297.492188 282.511719 297.492188 282.511719 C 295.457031 281.332031 294.335938 278.78125 294.335938 275.328125 C 294.335938 274.546875 294.40625 273.746094 294.515625 272.941406 C 294.558594 272.617188 294.609375 272.289062 294.667969 271.964844 C 294.730469 271.644531 294.785156 271.328125 294.859375 271.007812 C 296.035156 265.914062 299.101562 260.675781 302.964844 257.148438 C 303.203125 256.929688 303.449219 256.714844 303.695312 256.511719 C 303.730469 256.480469 303.765625 256.445312 303.804688 256.414062 C 304.023438 256.234375 304.246094 256.070312 304.472656 255.898438 C 304.792969 255.65625 305.113281 255.425781 305.441406 255.207031 C 305.734375 255.015625 306.027344 254.816406 306.328125 254.644531 C 308.15625 253.589844 309.902344 253.054688 311.453125 253.054688 C 312.480469 253.054688 313.417969 253.289062 314.238281 253.761719 C 316.277344 254.9375 317.398438 257.492188 317.398438 260.949219 C 317.398438 268.535156 312.019531 277.8125 305.40625 281.628906 C 304.941406 281.898438 304.484375 282.121094 304.03125 282.324219 Z M 301.8125 284.945312 L 301.644531 286.203125 C 297.371094 317.714844 292.527344 353.433594 281.6875 353.433594 L 281.6875 354.355469 L 281.660156 353.433594 C 270.953125 353.40625 270.574219 339.804688 270.210938 326.648438 C 269.894531 315.105469 269.53125 302.019531 262.78125 296.476562 C 252.890625 288.359375 178.585938 246.085938 163.792969 237.691406 C 163.128906 237.316406 162.898438 236.472656 163.273438 235.808594 C 163.457031 235.484375 163.75 235.253906 164.109375 235.15625 C 164.230469 235.121094 164.355469 235.105469 164.476562 235.105469 C 164.710938 235.105469 164.945312 235.164062 165.15625 235.285156 C 179.960938 243.675781 254.335938 285.96875 264.535156 294.339844 C 272.261719 300.683594 272.640625 314.4375 272.976562 326.574219 C 273.390625 341.550781 274.183594 350.648438 281.679688 350.667969 C 289.511719 350.667969 293.734375 323.953125 298.851562 286.210938 L 299.019531 284.957031 C 299.429688 285.019531 299.84375 285.066406 300.273438 285.066406 C 300.777344 285.066406 301.289062 285.019531 301.816406 284.929688 C 301.8125 284.9375 301.8125 284.941406 301.8125 284.945312 Z M 293.058594 269.957031 C 292.917969 269.875 292.792969 269.769531 292.671875 269.65625 C 292.449219 269.449219 292.265625 269.1875 292.117188 268.878906 C 291.992188 268.625 291.894531 268.335938 291.824219 268.019531 C 291.734375 267.617188 291.683594 267.179688 291.683594 266.691406 C 291.683594 265.585938 291.921875 264.410156 292.332031 263.25 C 292.472656 262.859375 292.632812 262.46875 292.8125 262.085938 C 292.96875 261.742188 293.140625 261.402344 293.328125 261.070312 C 294.402344 259.171875 295.902344 257.503906 297.570312 256.542969 C 297.71875 256.457031 297.863281 256.390625 298.007812 256.316406 C 298.589844 256.605469 299.191406 256.78125 299.796875 256.855469 C 300.007812 256.882812 300.21875 256.902344 300.425781 256.902344 C 300.488281 256.902344 300.546875 256.894531 300.605469 256.894531 C 300.582031 256.917969 300.554688 256.941406 300.53125 256.96875 C 298.203125 259.40625 296.21875 262.398438 294.800781 265.558594 C 294.273438 266.734375 293.824219 267.929688 293.46875 269.128906 C 293.375 269.433594 293.296875 269.742188 293.21875 270.050781 Z M 284.121094 266.8125 C 279.851562 264.972656 273.675781 262.574219 273.613281 262.550781 C 273.535156 262.519531 273.449219 262.5 273.363281 262.492188 C 273.34375 262.492188 272.621094 262.429688 271.5 262.324219 C 271.183594 262.296875 270.839844 262.265625 270.46875 262.230469 C 270.140625 262.199219 269.796875 262.167969 269.4375 262.132812 C 268.765625 262.070312 268.046875 262 267.308594 261.925781 C 266.953125 261.890625 266.597656 261.855469 266.234375 261.816406 C 266.054688 261.800781 265.871094 261.78125 265.6875 261.761719 C 265.507812 261.742188 265.328125 261.71875 265.148438 261.699219 C 262.429688 261.390625 259.640625 260.859375 257.191406 259.699219 C 256.84375 259.53125 256.496094 259.355469 256.160156 259.160156 C 253.945312 257.882812 252.09375 255.984375 250.953125 253.121094 L 251.054688 253.09375 L 250.867188 252.890625 C 250.160156 250.761719 249.757812 248.644531 249.644531 246.574219 C 249.589844 245.585938 249.609375 244.605469 249.691406 243.636719 C 249.734375 243.15625 249.792969 242.679688 249.867188 242.207031 C 250.347656 239.136719 251.519531 236.238281 253.382812 233.644531 C 256.945312 228.6875 262.554688 225.617188 268.53125 225.1875 C 269.011719 225.152344 269.5 225.128906 269.984375 225.128906 C 270.269531 225.128906 270.554688 225.132812 270.835938 225.132812 C 272.3125 225.144531 273.8125 225.164062 275.320312 225.195312 C 276.75 225.226562 278.183594 225.269531 279.613281 225.320312 C 279.960938 225.332031 280.304688 225.347656 280.652344 225.359375 C 292.542969 225.839844 303.917969 227.09375 307.632812 229.503906 C 312.953125 232.953125 314.695312 238.265625 314.554688 242.089844 C 314.496094 243.703125 314.089844 245.136719 313.421875 246.289062 C 313.707031 243.78125 313.242188 241.203125 312.003906 238.789062 C 309.617188 234.121094 304.796875 230.609375 298.785156 229.160156 C 298.292969 229.042969 297.792969 229.34375 297.671875 229.839844 C 297.554688 230.332031 297.855469 230.832031 298.351562 230.953125 C 303.839844 232.277344 308.21875 235.4375 310.363281 239.628906 C 311.910156 242.648438 312.09375 245.953125 310.878906 248.925781 C 310.878906 248.929688 310.878906 248.933594 310.878906 248.941406 C 310.875 248.945312 310.871094 248.949219 310.871094 248.953125 C 310.824219 249.078125 309.789062 251.71875 307.050781 251.8125 C 307.804688 246.9375 308.476562 238.402344 298.160156 235.296875 C 297.453125 235.023438 296.660156 234.769531 295.742188 234.476562 C 294.964844 234.230469 294.082031 233.949219 293.074219 233.601562 C 292.589844 233.433594 292.066406 233.691406 291.898438 234.171875 C 291.78125 234.511719 291.882812 234.871094 292.121094 235.113281 C 292.21875 235.210938 292.332031 235.296875 292.46875 235.34375 C 293.496094 235.699219 294.390625 235.984375 295.183594 236.234375 C 297 236.8125 298.148438 237.191406 299.039062 237.804688 C 298.597656 238.035156 298.054688 238.339844 297.378906 238.769531 C 296.949219 239.042969 296.820312 239.613281 297.09375 240.042969 C 297.269531 240.316406 297.570312 240.46875 297.875 240.46875 C 298.042969 240.46875 298.214844 240.421875 298.367188 240.324219 C 299.324219 239.71875 299.984375 239.378906 300.398438 239.191406 C 300.582031 239.460938 300.761719 239.757812 300.949219 240.105469 C 302.308594 242.652344 303.679688 249.433594 303.671875 251.777344 C 303.671875 252.910156 303.089844 253.945312 302.152344 254.546875 C 302.085938 254.589844 302.019531 254.636719 301.945312 254.675781 C 301.621094 254.851562 301.277344 254.960938 300.925781 255.015625 C 300.6875 255.054688 300.445312 255.070312 300.199219 255.054688 C 299.949219 255.039062 299.699219 254.988281 299.449219 254.914062 C 299.085938 254.804688 298.726562 254.644531 298.378906 254.414062 C 298.355469 254.402344 298.335938 254.378906 298.3125 254.363281 C 298.261719 254.332031 298.21875 254.292969 298.167969 254.257812 C 297.65625 253.890625 297.1875 253.46875 296.773438 252.996094 C 295.742188 251.816406 294.992188 250.339844 294.363281 248.796875 C 294.164062 248.304688 293.972656 247.8125 293.792969 247.316406 C 293.683594 247.011719 293.421875 246.785156 293.101562 246.722656 C 293.066406 246.714844 291.171875 246.351562 288.632812 245.890625 C 288.261719 245.824219 287.886719 245.757812 287.496094 245.6875 C 286.980469 245.597656 286.445312 245.5 285.90625 245.40625 C 285.746094 245.378906 285.585938 245.351562 285.421875 245.324219 C 285.085938 245.265625 284.742188 245.207031 284.402344 245.148438 C 284.367188 245.144531 284.335938 245.140625 284.300781 245.132812 C 284 245.082031 283.699219 245.03125 283.398438 244.984375 C 283.027344 244.921875 282.664062 244.863281 282.300781 244.804688 C 282.113281 244.773438 281.921875 244.742188 281.734375 244.714844 C 281.699219 244.710938 281.664062 244.703125 281.628906 244.699219 C 281.332031 244.65625 281.058594 244.765625 280.859375 244.953125 C 280.71875 245.089844 280.609375 245.257812 280.574219 245.46875 C 280.5 245.960938 280.832031 246.421875 281.320312 246.511719 C 281.328125 246.511719 281.335938 246.519531 281.34375 246.519531 C 281.726562 246.578125 282.113281 246.640625 282.503906 246.707031 C 282.464844 246.808594 282.429688 246.925781 282.394531 247.03125 C 282.265625 247.398438 282.148438 247.785156 282.054688 248.203125 C 281.871094 249.035156 281.769531 249.976562 281.792969 251.03125 L 279.984375 249.757812 C 279.566406 249.464844 278.992188 249.5625 278.699219 249.980469 C 278.40625 250.394531 278.507812 250.972656 278.921875 251.265625 L 282.347656 253.675781 C 282.351562 253.675781 282.351562 253.675781 282.351562 253.679688 C 282.351562 253.679688 282.351562 253.679688 282.355469 253.679688 C 284.304688 255.035156 289.289062 258.761719 291.191406 261.195312 C 290.34375 262.988281 289.839844 264.902344 289.839844 266.691406 C 289.839844 267.289062 289.898438 267.84375 290.007812 268.359375 C 288.507812 268.351562 286.507812 267.839844 284.121094 266.8125 Z M 263.035156 268.675781 C 260.140625 270.320312 257.175781 270.257812 254.222656 268.496094 C 237.28125 258.390625 187.242188 227.675781 184.75 226.144531 C 184.710938 226.113281 184.667969 226.082031 184.621094 226.058594 C 181.851562 224.539062 180.324219 221.175781 180.324219 216.585938 C 180.324219 206.8125 187.257812 194.855469 195.777344 189.9375 C 199.402344 187.84375 202.855469 187.324219 205.488281 188.484375 C 205.554688 188.511719 205.621094 188.53125 205.6875 188.542969 L 265.882812 223.65625 C 260.332031 224.695312 255.265625 227.867188 251.886719 232.566406 C 248.890625 236.734375 247.511719 241.609375 247.804688 246.734375 C 247.863281 251.304688 249.097656 259.703125 253.425781 263.941406 C 255.164062 265.644531 257.21875 266.507812 259.535156 266.507812 C 259.601562 266.507812 259.667969 266.503906 259.734375 266.503906 C 261.972656 266.457031 264.074219 265.46875 265.882812 263.636719 C 266.675781 263.714844 267.460938 263.796875 268.210938 263.867188 C 266.621094 265.957031 264.886719 267.625 263.035156 268.675781 Z M 305.402344 250.171875 C 305.085938 247.371094 304.128906 242.769531 302.957031 240.050781 C 305.609375 242.761719 305.820312 246.472656 305.402344 250.171875 Z M 283.734375 252.394531 C 283.429688 250.132812 283.78125 248.417969 284.320312 247.15625 L 284.558594 247.046875 C 287.859375 247.609375 291.03125 248.207031 292.238281 248.433594 C 292.980469 250.429688 293.882812 252.394531 295.214844 254 C 295.535156 254.433594 295.894531 254.828125 296.289062 255.171875 C 294.6875 256.1875 293.253906 257.710938 292.144531 259.46875 C 289.695312 256.703125 285.027344 253.3125 283.734375 252.394531 Z M 309.101562 264.085938 C 309.101562 267.347656 306.875 271.1875 304.035156 272.828125 C 303.910156 272.898438 303.789062 272.953125 303.664062 273.015625 C 302.917969 273.386719 302.1875 273.585938 301.503906 273.585938 C 300.90625 273.585938 300.347656 273.441406 299.847656 273.152344 C 299.597656 273.007812 299.375 272.828125 299.175781 272.625 C 298.445312 271.886719 298.046875 270.777344 298.046875 269.402344 C 298.046875 266.140625 300.273438 262.300781 303.113281 260.660156 C 304.644531 259.777344 306.132812 259.660156 307.300781 260.335938 C 308.460938 261.003906 309.101562 262.335938 309.101562 264.085938 Z M 309.101562 264.085938 " fill-opacity="1" fill-rule="nonzero"/></g></svg>