<svg xmlns="http://www.w3.org/2000/svg" xmlns:xlink="http://www.w3.org/1999/xlink" width="500" zoomAndPan="magnify" viewBox="0 0 375 374.999991" height="500" preserveAspectRatio="xMidYMid meet" version="1.0"><defs><clipPath id="e60e646911"><path d="M 15 49 L 360.5625 49 L 360.5625 326 L 15 326 Z M 15 49 " clip-rule="nonzero"/></clipPath></defs><path fill="#1c2628" d="M 229.515625 325.132812 C 222.585938 325.132812 215.925781 323.175781 211.707031 319.902344 L 19.902344 171.121094 C 16.820312 168.730469 15.152344 165.753906 15.203125 162.738281 L 15.398438 143.78125 C 15.410156 143.453125 15.425781 143.183594 15.457031 142.910156 C 15.917969 139.113281 19.058594 135.652344 24.078125 133.417969 L 132.644531 85.082031 C 136.375 83.421875 140.835938 82.542969 145.554688 82.542969 C 152.484375 82.542969 159.140625 84.5 163.363281 87.773438 L 167.175781 90.730469 C 167.210938 90.757812 167.25 90.769531 167.289062 90.769531 C 167.34375 90.769531 167.398438 90.746094 167.433594 90.699219 C 168.875 88.890625 170.597656 86.980469 172.550781 85.03125 L 175.511719 82.058594 C 190.984375 66.542969 206.984375 50.496094 217.761719 49.417969 C 218.40625 49.355469 219.050781 49.320312 219.679688 49.320312 C 223.800781 49.320312 226.929688 50.710938 229.957031 52.054688 C 232.320312 53.101562 234.550781 54.09375 237.101562 54.328125 C 242.414062 54.820312 248.179688 55.773438 250.671875 59.109375 C 251.820312 60.644531 252.175781 62.5625 251.734375 64.8125 C 251.710938 64.9375 251.679688 65.058594 251.644531 65.175781 L 251.59375 65.375 C 251.582031 65.4375 251.597656 65.5 251.640625 65.542969 L 251.71875 65.636719 C 251.800781 65.726562 251.878906 65.816406 251.953125 65.910156 C 252.042969 66.015625 252.125 66.121094 252.203125 66.230469 C 252.277344 66.332031 252.351562 66.433594 252.421875 66.539062 C 252.492188 66.644531 252.554688 66.75 252.621094 66.855469 C 252.683594 66.964844 252.75 67.078125 252.808594 67.191406 C 252.863281 67.300781 252.914062 67.410156 252.964844 67.523438 C 253.023438 67.652344 253.070312 67.757812 253.109375 67.863281 C 253.152344 67.972656 253.183594 68.078125 253.21875 68.1875 L 253.261719 68.320312 C 253.285156 68.402344 253.3125 68.480469 253.335938 68.566406 C 253.367188 68.695312 253.390625 68.828125 253.414062 68.960938 L 253.441406 69.121094 C 253.453125 69.175781 253.464844 69.230469 253.472656 69.285156 C 253.503906 69.53125 253.519531 69.777344 253.519531 70.03125 L 253.519531 76.078125 C 253.519531 76.203125 253.507812 76.328125 253.496094 76.453125 L 253.488281 76.5625 C 253.484375 76.613281 253.503906 76.667969 253.539062 76.703125 C 255.15625 78.375 256.011719 80.34375 256.011719 82.402344 L 256.011719 96.226562 C 256.011719 96.289062 256.042969 96.347656 256.09375 96.382812 C 257.363281 97.210938 258.339844 98.410156 258.992188 99.949219 C 260.613281 103.765625 260.414062 109.972656 250.253906 117.855469 C 243.417969 123.160156 243.035156 125.527344 241.605469 134.328125 C 241.476562 135.136719 241.335938 135.996094 241.183594 136.914062 C 240.667969 139.992188 239.691406 142.945312 238.285156 145.699219 C 238.246094 145.78125 238.269531 145.875 238.339844 145.929688 L 355.164062 236.554688 C 358.238281 238.933594 359.90625 241.902344 359.863281 244.910156 L 359.667969 263.925781 C 359.597656 268.066406 356.433594 271.832031 350.992188 274.257812 L 242.425781 322.59375 C 238.695312 324.253906 234.230469 325.132812 229.515625 325.132812 Z M 225.449219 72.65625 C 225.367188 72.65625 225.296875 72.707031 225.269531 72.785156 L 223.6875 77.996094 C 223.660156 78.085938 223.707031 78.183594 223.792969 78.21875 C 226.679688 79.421875 228.96875 80.945312 230.796875 82.882812 C 230.832031 82.921875 230.878906 82.941406 230.929688 82.941406 C 230.953125 82.941406 230.976562 82.9375 230.996094 82.929688 C 231.070312 82.898438 231.113281 82.832031 231.113281 82.753906 L 231.113281 82.402344 C 231.113281 80.34375 231.96875 78.375 233.585938 76.703125 C 233.621094 76.667969 233.640625 76.613281 233.636719 76.5625 L 233.625 76.4375 C 233.617188 76.316406 233.605469 76.199219 233.605469 76.078125 L 233.605469 74.296875 C 233.605469 74.203125 233.53125 74.121094 233.4375 74.113281 C 229.789062 73.765625 226.667969 72.984375 225.496094 72.660156 C 225.480469 72.65625 225.464844 72.65625 225.449219 72.65625 Z M 225.449219 72.65625 " fill-opacity="1" fill-rule="nonzero"/><path fill="#d7907b" d="M 29.460938 147.675781 L 221.265625 296.457031 C 224.671875 299.101562 231.027344 299.652344 235.429688 297.695312 L 343.996094 249.355469 C 348.398438 247.394531 349.214844 243.652344 345.804688 241.007812 L 232.25 152.921875 C 231.929688 153.21875 231.726562 153.382812 231.726562 153.382812 L 232.003906 157.90625 L 232.039062 158.457031 L 234.699219 201.695312 C 235.941406 206.714844 233.238281 211.984375 226.578125 215.828125 C 215.304688 222.335938 196.972656 222.304688 185.628906 215.753906 C 179.980469 212.492188 177.132812 208.230469 177.085938 203.96875 C 177.085938 203.640625 177.101562 203.3125 177.128906 202.984375 L 178.9375 160.855469 L 179.335938 151.617188 C 179.335938 151.617188 159.535156 120.027344 162.09375 102.386719 C 162.242188 101.34375 162.546875 100.273438 162.964844 99.179688 L 154.003906 92.226562 C 150.601562 89.589844 144.246094 89.035156 139.84375 90.996094 L 111.65625 103.542969 L 113.003906 104.589844 C 115.023438 106.15625 114.542969 108.367188 111.933594 109.53125 L 69.191406 128.558594 C 66.578125 129.722656 62.828125 129.394531 60.808594 127.828125 L 59.460938 126.785156 L 31.277344 139.332031 C 26.871094 141.292969 26.058594 145.039062 29.460938 147.675781 Z M 29.460938 147.675781 " fill-opacity="1" fill-rule="nonzero"/><path fill="#ffffff" d="M 15.957031 143.757812 L 15.757812 162.746094 C 15.710938 165.5 17.171875 168.300781 20.242188 170.683594 L 212.046875 319.464844 L 212.242188 300.472656 L 20.441406 151.695312 C 17.371094 149.308594 15.90625 146.511719 15.957031 143.757812 Z M 72.238281 200.742188 C 72.246094 199.8125 73.316406 199.296875 74.050781 199.867188 L 83.886719 207.496094 C 84.4375 207.921875 84.757812 208.578125 84.757812 209.273438 L 84.757812 211.761719 C 84.757812 212.695312 83.683594 213.222656 82.945312 212.648438 L 73.082031 205 C 72.527344 204.570312 72.203125 203.902344 72.210938 203.199219 Z M 51.242188 184.496094 C 51.253906 183.566406 52.324219 183.046875 53.058594 183.617188 L 62.894531 191.246094 C 63.441406 191.675781 63.765625 192.332031 63.765625 193.027344 L 63.765625 195.511719 C 63.765625 196.449219 62.6875 196.976562 61.949219 196.402344 L 52.089844 188.753906 C 51.53125 188.320312 51.210938 187.65625 51.21875 186.953125 Z M 34.136719 171.234375 C 34.148438 170.304688 35.214844 169.789062 35.953125 170.359375 L 45.789062 177.988281 C 46.335938 178.414062 46.660156 179.070312 46.660156 179.765625 L 46.660156 182.253906 C 46.660156 183.1875 45.582031 183.714844 44.84375 183.140625 L 34.984375 175.492188 C 34.425781 175.0625 34.105469 174.394531 34.113281 173.691406 Z M 252.910156 76.839844 C 252.40625 80.417969 248.414062 83.207031 243.5625 83.207031 C 238.710938 83.207031 234.71875 80.417969 234.214844 76.839844 C 232.625 78.371094 231.671875 80.300781 231.671875 82.402344 L 231.671875 84.839844 C 232.882812 86.488281 233.851562 88.441406 234.507812 90.785156 C 236.183594 96.78125 235.675781 101.390625 234.453125 104.777344 C 234.234375 105.382812 233.996094 105.953125 233.738281 106.480469 C 235.882812 108.855469 239.480469 110.417969 243.5625 110.417969 C 250.128906 110.417969 255.453125 106.378906 255.453125 101.398438 L 255.453125 82.402344 C 255.453125 80.300781 254.5 78.371094 252.910156 76.839844 Z M 251.070312 101.398438 C 251.070312 103.589844 247.988281 106.035156 243.5625 106.035156 C 240.824219 106.035156 238.601562 105.097656 237.304688 103.863281 C 236.503906 103.105469 236.054688 102.234375 236.054688 101.398438 L 236.054688 92.476562 C 236.054688 90.285156 239.136719 87.84375 243.5625 87.84375 C 247.988281 87.84375 251.070312 90.285156 251.070312 92.476562 Z M 251.070312 101.398438 " fill-opacity="1" fill-rule="nonzero"/><path fill="#fefae0" d="M 359.3125 244.929688 L 359.113281 263.917969 C 359.046875 267.671875 356.179688 271.339844 350.765625 273.75 L 242.199219 322.085938 C 232.808594 326.269531 219.304688 325.09375 212.046875 319.464844 L 212.242188 300.472656 C 219.503906 306.101562 233.003906 307.277344 242.394531 303.097656 L 350.960938 254.761719 C 356.378906 252.347656 359.246094 248.683594 359.3125 244.929688 Z M 45.789062 177.988281 L 35.953125 170.359375 C 35.214844 169.789062 34.148438 170.304688 34.136719 171.234375 L 34.113281 173.691406 C 34.105469 174.394531 34.425781 175.0625 34.984375 175.492188 L 44.84375 183.140625 C 45.582031 183.714844 46.660156 183.1875 46.660156 182.253906 L 46.660156 179.765625 C 46.660156 179.070312 46.335938 178.414062 45.789062 177.988281 Z M 62.894531 191.246094 L 53.058594 183.617188 C 52.324219 183.046875 51.253906 183.566406 51.242188 184.496094 L 51.21875 186.953125 C 51.210938 187.65625 51.53125 188.320312 52.089844 188.753906 L 61.949219 196.402344 C 62.6875 196.976562 63.765625 196.449219 63.765625 195.511719 L 63.765625 193.027344 C 63.765625 192.332031 63.441406 191.675781 62.894531 191.246094 Z M 62.894531 191.246094 " fill-opacity="1" fill-rule="nonzero"/><path fill="#fefae0" d="M 258.480469 100.164062 C 257.777344 98.511719 256.726562 97.359375 255.453125 96.632812 L 255.453125 101.398438 C 255.453125 106.378906 250.128906 110.417969 243.5625 110.417969 C 239.480469 110.417969 235.882812 108.855469 233.738281 106.480469 C 233.996094 105.953125 234.234375 105.382812 234.453125 104.777344 C 235.675781 101.390625 236.183594 96.78125 234.507812 90.785156 C 233.851562 88.441406 232.882812 86.488281 231.671875 84.839844 C 229.445312 81.816406 226.402344 79.847656 222.953125 78.5 L 224.953125 71.929688 C 224.953125 71.929688 229.125 73.207031 234.160156 73.605469 C 234.601562 73.636719 235.050781 73.667969 235.5 73.6875 C 241.832031 73.960938 249.015625 72.605469 250.953125 65.632812 C 251.039062 65.328125 251.125 65.03125 251.1875 64.707031 C 252.707031 57.011719 244.066406 55.53125 237.050781 54.882812 C 230.636719 54.289062 226.257812 49.128906 217.816406 49.96875 C 206.546875 51.097656 189.007812 69.347656 172.949219 85.414062 C 168.25 90.113281 164.621094 94.835938 162.964844 99.179688 C 162.546875 100.273438 162.242188 101.34375 162.09375 102.386719 C 159.535156 120.027344 179.335938 151.617188 179.335938 151.617188 L 178.9375 160.855469 L 178.664062 167.195312 L 177.128906 202.984375 L 177.085938 203.96875 C 177.132812 208.230469 179.980469 212.492188 185.628906 215.753906 C 196.972656 222.304688 215.304688 222.335938 226.578125 215.828125 C 233.238281 211.984375 235.941406 206.714844 234.699219 201.695312 L 232.039062 158.457031 L 232.003906 157.90625 L 231.726562 153.382812 C 231.726562 153.382812 231.929688 153.21875 232.25 152.921875 C 233.90625 151.398438 239.101562 145.984375 240.632812 136.824219 C 242.464844 125.882812 242.261719 123.355469 249.914062 117.414062 C 258.929688 110.417969 260.367188 104.609375 258.480469 100.164062 Z M 258.480469 100.164062 " fill-opacity="1" fill-rule="nonzero"/><path fill="#ffffff" d="M 166.703125 144.175781 C 166.910156 144.335938 167.015625 144.597656 166.980469 144.859375 C 166.945312 145.125 166.773438 145.347656 166.527344 145.445312 L 149.480469 152.425781 L 164.144531 163.777344 C 164.355469 163.9375 164.460938 164.199219 164.425781 164.460938 C 164.390625 164.722656 164.214844 164.945312 163.972656 165.046875 L 148.527344 171.367188 C 148.433594 171.40625 148.339844 171.425781 148.246094 171.425781 C 148.082031 171.425781 147.921875 171.371094 147.792969 171.269531 L 132.449219 159.394531 L 114.609375 166.695312 C 114.363281 166.796875 114.085938 166.757812 113.875 166.59375 L 100.59375 156.316406 C 100.386719 156.152344 100.277344 155.890625 100.316406 155.628906 C 100.351562 155.367188 100.523438 155.144531 100.769531 155.042969 L 117.816406 148.066406 L 103.152344 136.714844 C 102.941406 136.554688 102.835938 136.292969 102.871094 136.03125 C 102.90625 135.765625 103.078125 135.542969 103.324219 135.445312 L 118.769531 129.121094 C 119.015625 129.023438 119.296875 129.058594 119.503906 129.222656 L 134.847656 141.097656 L 152.6875 133.796875 C 152.933594 133.695312 153.210938 133.734375 153.421875 133.894531 Z M 319.84375 247.742188 L 319.652344 247.605469 C 318.757812 246.953125 317.234375 246.84375 316.101562 247.347656 L 242.878906 279.960938 C 242.171875 280.277344 241.726562 280.800781 241.664062 281.402344 C 241.605469 281.941406 241.867188 282.460938 242.375 282.832031 L 242.566406 282.972656 C 243.082031 283.347656 243.8125 283.542969 244.554688 283.542969 C 245.09375 283.542969 245.640625 283.4375 246.117188 283.226562 L 319.339844 250.613281 C 320.050781 250.296875 320.492188 249.773438 320.554688 249.171875 C 320.613281 248.632812 320.351562 248.113281 319.84375 247.742188 Z M 319.84375 247.742188 " fill-opacity="1" fill-rule="nonzero"/><path fill="#386641" d="M 243.5625 87.84375 C 239.136719 87.84375 236.054688 90.285156 236.054688 92.476562 L 236.054688 101.398438 C 236.054688 102.234375 236.503906 103.105469 237.304688 103.863281 C 238.601562 105.097656 240.824219 106.035156 243.5625 106.035156 C 247.988281 106.035156 251.070312 103.589844 251.070312 101.398438 L 251.070312 92.476562 C 251.070312 90.285156 247.988281 87.84375 243.5625 87.84375 Z M 243.5625 83.207031 C 248.414062 83.207031 252.40625 80.417969 252.910156 76.839844 C 252.945312 76.589844 252.964844 76.335938 252.964844 76.078125 C 252.964844 76.078125 252.964844 70.03125 252.964844 70.03125 C 252.964844 69.792969 252.949219 69.558594 252.917969 69.328125 C 252.90625 69.25 252.890625 69.175781 252.875 69.101562 C 252.851562 68.949219 252.824219 68.796875 252.785156 68.644531 C 252.761719 68.558594 252.730469 68.472656 252.703125 68.382812 C 252.660156 68.25 252.621094 68.117188 252.566406 67.988281 C 252.53125 67.894531 252.488281 67.808594 252.449219 67.71875 C 252.394531 67.59375 252.335938 67.472656 252.273438 67.351562 C 252.226562 67.261719 252.171875 67.175781 252.121094 67.089844 C 252.050781 66.972656 251.980469 66.859375 251.902344 66.746094 C 251.84375 66.660156 251.78125 66.578125 251.71875 66.492188 C 251.636719 66.382812 251.550781 66.277344 251.464844 66.171875 C 251.394531 66.089844 251.324219 66.011719 251.25 65.933594 C 251.15625 65.832031 251.058594 65.730469 250.957031 65.632812 C 250.953125 65.632812 250.953125 65.632812 250.953125 65.632812 C 249.015625 72.605469 241.832031 73.960938 235.5 73.6875 C 235.050781 73.667969 234.601562 73.636719 234.160156 73.605469 C 234.160156 74.910156 234.160156 76.078125 234.160156 76.078125 C 234.160156 76.335938 234.179688 76.589844 234.214844 76.839844 C 234.71875 80.417969 238.710938 83.207031 243.5625 83.207031 Z M 84.757812 209.273438 L 84.757812 211.761719 C 84.757812 212.695312 83.683594 213.222656 82.945312 212.648438 L 73.082031 205 C 72.527344 204.570312 72.203125 203.902344 72.210938 203.199219 L 72.238281 200.742188 C 72.246094 199.8125 73.316406 199.296875 74.050781 199.867188 L 83.886719 207.496094 C 84.4375 207.921875 84.757812 208.578125 84.757812 209.273438 Z M 84.757812 209.273438 " fill-opacity="1" fill-rule="nonzero"/><g clip-path="url(#e60e646911)"><path fill="#1c2628" d="M 360.046875 244.914062 C 360.089844 241.839844 358.425781 238.847656 355.277344 236.40625 L 238.453125 145.785156 C 239.6875 143.367188 240.78125 140.429688 241.363281 136.945312 C 241.519531 136.027344 241.65625 135.164062 241.789062 134.355469 C 243.207031 125.613281 243.589844 123.261719 250.367188 118 C 260.621094 110.042969 260.808594 103.753906 259.164062 99.875 C 258.484375 98.285156 257.476562 97.0625 256.195312 96.226562 L 256.195312 82.402344 C 256.195312 80.21875 255.25 78.203125 253.671875 76.574219 C 253.6875 76.410156 253.707031 76.246094 253.707031 76.078125 L 253.707031 70.03125 C 253.707031 69.769531 253.6875 69.515625 253.65625 69.261719 C 253.644531 69.164062 253.621094 69.070312 253.601562 68.976562 C 253.578125 68.824219 253.550781 68.667969 253.511719 68.519531 C 253.484375 68.402344 253.445312 68.292969 253.410156 68.179688 C 253.371094 68.050781 253.332031 67.925781 253.285156 67.800781 C 253.238281 67.679688 253.1875 67.5625 253.132812 67.449219 C 253.082031 67.332031 253.03125 67.21875 252.972656 67.105469 C 252.910156 66.988281 252.84375 66.875 252.777344 66.761719 C 252.714844 66.652344 252.648438 66.542969 252.574219 66.4375 C 252.503906 66.328125 252.429688 66.222656 252.351562 66.117188 C 252.269531 66.007812 252.183594 65.898438 252.097656 65.792969 C 252.019531 65.699219 251.941406 65.605469 251.855469 65.511719 C 251.828125 65.480469 251.804688 65.449219 251.777344 65.417969 C 251.820312 65.226562 251.875 65.042969 251.914062 64.847656 C 252.371094 62.546875 252 60.578125 250.820312 58.996094 C 248.28125 55.601562 242.46875 54.640625 237.117188 54.144531 C 234.597656 53.910156 232.378906 52.925781 230.03125 51.882812 C 226.527344 50.328125 222.902344 48.71875 217.746094 49.234375 C 206.898438 50.316406 190.875 66.386719 175.378906 81.929688 L 172.425781 84.890625 C 172.421875 84.890625 172.421875 84.894531 172.417969 84.898438 C 170.453125 86.863281 168.742188 88.761719 167.289062 90.585938 L 163.476562 87.628906 C 156.035156 81.855469 142.171875 80.636719 132.570312 84.910156 L 24.003906 133.25 C 18.921875 135.511719 15.742188 139.023438 15.273438 142.890625 C 15.242188 143.167969 15.226562 143.441406 15.21875 143.71875 C 15.21875 143.726562 15.214844 143.734375 15.214844 143.742188 C 15.214844 143.78125 15.214844 143.816406 15.214844 143.855469 L 15.015625 162.734375 C 14.964844 165.808594 16.660156 168.839844 19.789062 171.269531 L 211.59375 320.046875 C 216.035156 323.496094 222.765625 325.316406 229.515625 325.316406 C 234.066406 325.316406 238.628906 324.484375 242.5 322.765625 L 351.066406 274.425781 C 356.578125 271.972656 359.78125 268.148438 359.855469 263.925781 L 360.050781 244.9375 C 360.050781 244.929688 360.046875 244.921875 360.046875 244.914062 Z M 358.375 263.90625 C 358.316406 267.257812 355.832031 270.375 351.519531 272.570312 L 351.699219 255.238281 C 351.765625 255.207031 351.828125 255.171875 351.898438 255.136719 C 352.117188 255.03125 352.335938 254.921875 352.550781 254.8125 C 352.691406 254.738281 352.832031 254.664062 352.96875 254.589844 C 353.132812 254.5 353.289062 254.40625 353.449219 254.3125 C 353.792969 254.113281 354.117188 253.90625 354.4375 253.695312 C 354.457031 253.679688 354.476562 253.667969 354.496094 253.652344 C 356.21875 252.5 357.582031 251.179688 358.519531 249.742188 Z M 350.027344 273.265625 L 242.953125 320.941406 L 243.082031 308.4375 L 243.132812 303.582031 L 255.171875 298.21875 L 350.210938 255.90625 L 350.078125 268.410156 Z M 212.792969 319.097656 C 212.789062 319.097656 212.789062 319.097656 212.789062 319.097656 L 212.875 311.179688 L 212.96875 301.902344 C 213.023438 301.9375 213.085938 301.96875 213.136719 302.003906 C 213.515625 302.246094 213.902344 302.480469 214.300781 302.699219 C 214.347656 302.726562 214.394531 302.757812 214.445312 302.785156 C 214.886719 303.027344 215.34375 303.253906 215.8125 303.472656 C 215.917969 303.519531 216.019531 303.566406 216.121094 303.609375 C 216.585938 303.816406 217.054688 304.015625 217.535156 304.199219 C 217.554688 304.207031 217.570312 304.214844 217.589844 304.222656 C 218.09375 304.414062 218.609375 304.585938 219.132812 304.753906 C 219.242188 304.785156 219.351562 304.820312 219.460938 304.851562 C 220.515625 305.171875 221.605469 305.441406 222.722656 305.660156 C 222.835938 305.679688 222.945312 305.703125 223.058594 305.722656 C 223.621094 305.828125 224.1875 305.917969 224.757812 305.996094 C 224.78125 306 224.804688 306.003906 224.828125 306.003906 C 225.378906 306.078125 225.929688 306.136719 226.484375 306.183594 C 226.601562 306.191406 226.71875 306.203125 226.835938 306.210938 C 227.40625 306.257812 227.980469 306.289062 228.558594 306.308594 C 228.621094 306.308594 228.6875 306.308594 228.75 306.3125 C 229.070312 306.320312 229.390625 306.328125 229.710938 306.328125 C 229.871094 306.328125 230.027344 306.316406 230.1875 306.316406 C 230.429688 306.3125 230.671875 306.308594 230.910156 306.300781 C 231.289062 306.289062 231.660156 306.269531 232.035156 306.246094 C 232.273438 306.230469 232.515625 306.214844 232.753906 306.195312 C 233.136719 306.164062 233.519531 306.121094 233.898438 306.078125 C 234.121094 306.054688 234.347656 306.03125 234.570312 306 C 234.988281 305.945312 235.40625 305.875 235.824219 305.804688 C 236 305.773438 236.179688 305.746094 236.355469 305.714844 C 236.945312 305.601562 237.53125 305.476562 238.105469 305.332031 C 238.160156 305.320312 238.210938 305.304688 238.261719 305.289062 C 238.78125 305.160156 239.296875 305.015625 239.800781 304.855469 C 239.988281 304.796875 240.171875 304.730469 240.359375 304.667969 C 240.722656 304.546875 241.085938 304.421875 241.441406 304.285156 C 241.507812 304.261719 241.578125 304.242188 241.644531 304.214844 L 241.460938 321.597656 C 232.457031 325.394531 219.800781 324.296875 212.792969 319.097656 Z M 168.472656 91.5 C 169.96875 89.621094 171.746094 87.65625 173.796875 85.621094 L 173.789062 85.621094 L 176.429688 82.972656 C 177.121094 82.28125 177.808594 81.589844 178.5 80.898438 C 178.988281 80.410156 179.476562 79.921875 179.964844 79.433594 C 194.140625 65.265625 208.367188 51.660156 217.890625 50.707031 C 222.660156 50.234375 226.101562 51.757812 229.429688 53.238281 C 231.890625 54.332031 234.21875 55.363281 236.980469 55.621094 C 242.007812 56.085938 247.445312 56.953125 249.632812 59.882812 C 250.519531 61.070312 250.800781 62.519531 250.503906 64.296875 C 250.503906 64.296875 250.503906 64.300781 250.503906 64.304688 C 250.488281 64.390625 250.480469 64.472656 250.460938 64.5625 C 250.425781 64.742188 250.375 64.914062 250.332031 65.089844 C 250.269531 65.355469 250.195312 65.613281 250.117188 65.863281 C 249.402344 68.066406 248.058594 69.777344 246.09375 70.953125 C 243.242188 72.660156 239.445312 73.078125 235.871094 72.953125 C 235.566406 72.945312 235.265625 72.929688 234.96875 72.914062 C 234.945312 72.910156 234.921875 72.910156 234.902344 72.910156 C 234.652344 72.894531 234.40625 72.875 234.160156 72.855469 C 234.140625 72.855469 234.125 72.851562 234.105469 72.851562 C 233.875 72.832031 233.648438 72.8125 233.421875 72.789062 C 228.898438 72.34375 225.238281 71.242188 225.167969 71.21875 C 219.425781 69.425781 216.867188 66.351562 216.828125 66.304688 C 216.570312 65.988281 216.109375 65.9375 215.789062 66.195312 C 215.46875 66.449219 215.417969 66.917969 215.675781 67.234375 C 215.785156 67.371094 218.3125 70.4375 224.03125 72.398438 L 222.480469 77.511719 C 217.820312 75.847656 212.527344 75.203125 207.535156 74.597656 C 206.03125 74.414062 204.554688 74.234375 203.136719 74.03125 C 202.734375 73.976562 202.355469 74.257812 202.296875 74.660156 C 202.242188 75.058594 202.511719 75.425781 202.90625 75.492188 C 202.914062 75.492188 202.917969 75.496094 202.925781 75.5 C 204.355469 75.703125 205.839844 75.882812 207.355469 76.066406 C 212.277344 76.664062 217.492188 77.300781 222.039062 78.957031 C 222.273438 79.042969 222.503906 79.128906 222.734375 79.222656 C 222.964844 79.3125 223.195312 79.402344 223.421875 79.5 C 226.371094 80.761719 228.972656 82.53125 230.929688 85.101562 C 231.1875 85.441406 231.433594 85.792969 231.671875 86.160156 C 231.933594 86.574219 232.179688 87.007812 232.410156 87.453125 C 232.964844 88.519531 233.433594 89.6875 233.792969 90.984375 C 235.355469 96.574219 234.984375 100.894531 233.929688 104.105469 C 233.84375 104.363281 233.753906 104.613281 233.664062 104.855469 C 233.636719 104.925781 233.609375 105 233.582031 105.066406 C 233.507812 105.257812 233.429688 105.441406 233.347656 105.621094 C 233.3125 105.703125 233.277344 105.789062 233.242188 105.867188 C 233.125 106.117188 233.007812 106.363281 232.886719 106.59375 C 231.871094 108.550781 230.664062 109.898438 229.796875 110.703125 C 229.777344 108.796875 229.710938 106.875 229.5625 104.996094 C 229.539062 104.722656 229.511719 104.449219 229.488281 104.175781 C 229.460938 103.894531 229.4375 103.613281 229.40625 103.332031 C 228.691406 96.664062 226.785156 90.746094 221.972656 88.121094 C 221.652344 87.945312 221.3125 87.777344 220.957031 87.609375 C 220.742188 87.507812 220.503906 87.414062 220.273438 87.3125 C 220.050781 87.21875 219.824219 87.121094 219.585938 87.027344 C 217.710938 86.289062 215.5 85.644531 213.09375 85.074219 C 212.703125 84.980469 212.296875 84.890625 211.894531 84.800781 C 211.484375 84.710938 211.070312 84.621094 210.652344 84.535156 C 207.753906 83.929688 204.671875 83.410156 201.628906 82.945312 C 200.566406 82.785156 199.507812 82.625 198.464844 82.476562 C 198.054688 82.417969 197.6875 82.695312 197.628906 83.101562 C 197.570312 83.507812 197.847656 83.882812 198.253906 83.941406 C 199.285156 84.089844 200.328125 84.246094 201.375 84.40625 C 205.089844 84.972656 208.855469 85.617188 212.246094 86.394531 C 212.625 86.484375 212.996094 86.570312 213.367188 86.664062 C 213.738281 86.753906 214.105469 86.847656 214.464844 86.941406 C 216.1875 87.394531 217.777344 87.894531 219.15625 88.445312 C 219.394531 88.539062 219.617188 88.640625 219.839844 88.738281 C 220.074219 88.839844 220.304688 88.945312 220.523438 89.050781 C 220.777344 89.171875 221.027344 89.292969 221.261719 89.421875 C 225.292969 91.621094 227.058594 96.613281 227.808594 102.402344 C 227.847656 102.722656 227.890625 103.042969 227.925781 103.367188 C 227.960938 103.667969 227.984375 103.972656 228.015625 104.277344 C 228.253906 106.878906 228.328125 109.589844 228.328125 112.253906 C 228.328125 112.253906 228.328125 112.257812 228.328125 112.257812 C 228.328125 112.261719 228.328125 112.265625 228.328125 112.269531 C 228.328125 112.3125 228.382812 116.621094 225.519531 119.230469 C 223.828125 120.773438 221.421875 121.429688 218.382812 121.210938 C 218.570312 118.8125 218.320312 116.117188 218.050781 113.28125 C 217.898438 111.65625 217.738281 109.976562 217.652344 108.25 C 217.320312 101.710938 216.949219 98.574219 212.289062 95.195312 C 211.816406 94.855469 211.320312 94.515625 210.757812 94.167969 C 208.554688 92.796875 204.65625 91.757812 200.238281 91.042969 C 197.511719 90.601562 194.59375 90.28125 191.738281 90.085938 C 190.351562 89.988281 188.980469 89.921875 187.65625 89.882812 C 187.25 89.871094 186.90625 90.191406 186.894531 90.601562 C 186.882812 91.011719 187.207031 91.351562 187.613281 91.363281 C 191.605469 91.476562 196.03125 91.851562 199.988281 92.488281 C 204.21875 93.167969 207.917969 94.144531 209.976562 95.425781 C 215.4375 98.816406 215.8125 101.226562 216.171875 108.328125 C 216.261719 110.082031 216.421875 111.777344 216.578125 113.417969 C 216.867188 116.480469 217.140625 119.375 216.839844 121.792969 C 216.839844 121.796875 216.839844 121.796875 216.839844 121.796875 C 216.8125 122.003906 216.40625 124.925781 214.527344 127.226562 C 214.375 127.417969 214.210938 127.601562 214.035156 127.78125 C 213.863281 127.960938 213.675781 128.128906 213.484375 128.292969 C 212.140625 129.421875 210.277344 130.183594 207.695312 129.984375 C 199.285156 129.335938 196.914062 120.597656 196.804688 115.761719 C 196.882812 115.6875 196.960938 115.613281 197.035156 115.53125 C 197.203125 115.359375 197.367188 115.171875 197.523438 114.976562 C 197.675781 114.789062 197.824219 114.589844 197.96875 114.382812 C 198.65625 113.386719 199.238281 112.160156 199.683594 110.625 C 199.796875 110.230469 199.570312 109.820312 199.175781 109.707031 C 198.78125 109.597656 198.371094 109.820312 198.257812 110.214844 C 197.875 111.546875 197.375 112.605469 196.789062 113.46875 C 196.648438 113.675781 196.503906 113.878906 196.351562 114.066406 C 196.328125 114.09375 196.300781 114.121094 196.273438 114.152344 C 196.136719 114.316406 195.992188 114.464844 195.84375 114.609375 C 195.769531 114.683594 195.695312 114.757812 195.621094 114.828125 C 195.585938 114.859375 195.546875 114.886719 195.511719 114.917969 C 193.257812 116.890625 190.234375 117.015625 187.253906 117.082031 C 187.183594 117.085938 187.113281 117.085938 187.042969 117.085938 C 186.71875 117.09375 186.398438 117.101562 186.082031 117.113281 C 186.074219 117.113281 186.0625 117.113281 186.050781 117.113281 C 185.769531 117.121094 185.535156 117.292969 185.417969 117.53125 C 185.367188 117.636719 185.332031 117.75 185.335938 117.875 C 185.347656 118.277344 185.675781 118.59375 186.074219 118.59375 C 186.082031 118.59375 186.089844 118.59375 186.097656 118.59375 C 186.316406 118.585938 186.539062 118.582031 186.761719 118.578125 C 186.867188 118.574219 186.972656 118.570312 187.078125 118.570312 C 187.359375 118.5625 187.644531 118.554688 187.933594 118.546875 C 188.3125 118.535156 188.695312 118.523438 189.082031 118.5 C 191.222656 118.386719 193.453125 118.054688 195.378906 116.867188 C 195.585938 119.421875 196.335938 122.640625 197.988281 125.410156 C 197.988281 125.410156 197.992188 125.410156 197.992188 125.410156 C 198.445312 126.171875 198.96875 126.902344 199.570312 127.574219 C 200.507812 128.621094 201.625 129.527344 202.960938 130.203125 C 202.960938 130.203125 202.960938 130.207031 202.960938 130.207031 C 203.679688 130.570312 204.457031 130.863281 205.300781 131.082031 C 205.984375 131.257812 206.707031 131.386719 207.476562 131.453125 C 210.035156 132.285156 212.996094 134.71875 214.636719 138.324219 C 214.835938 138.757812 215.015625 139.207031 215.171875 139.675781 C 215.300781 140.066406 215.414062 140.464844 215.511719 140.878906 C 215.511719 140.878906 215.511719 140.878906 215.515625 140.878906 C 215.667969 141.523438 215.777344 142.191406 215.839844 142.886719 C 215.859375 143.132812 215.878906 143.378906 215.886719 143.628906 C 215.898438 143.871094 215.898438 144.121094 215.898438 144.371094 C 215.886719 145.402344 215.773438 146.480469 215.527344 147.605469 C 215.441406 148.003906 215.695312 148.398438 216.097656 148.484375 C 216.148438 148.496094 216.203125 148.503906 216.253906 148.503906 C 216.59375 148.503906 216.902344 148.265625 216.976562 147.917969 C 217.242188 146.691406 217.367188 145.507812 217.378906 144.375 C 217.382812 144.128906 217.378906 143.878906 217.371094 143.636719 C 217.363281 143.386719 217.347656 143.140625 217.328125 142.894531 C 217.308594 142.671875 217.285156 142.449219 217.257812 142.230469 C 217.210938 141.867188 217.15625 141.511719 217.085938 141.160156 C 217.007812 140.769531 216.917969 140.386719 216.8125 140.011719 C 215.710938 136.03125 213.148438 133.011719 210.5 131.296875 C 212.230469 130.953125 213.597656 130.179688 214.660156 129.203125 C 214.84375 129.035156 215.023438 128.859375 215.191406 128.679688 C 215.359375 128.496094 215.515625 128.304688 215.667969 128.113281 C 217.242188 126.144531 217.921875 123.832031 218.175781 122.691406 C 221.695312 122.96875 224.5 122.167969 226.527344 120.316406 C 229.371094 117.714844 229.753906 113.871094 229.800781 112.628906 C 230.539062 112.054688 232.375 110.441406 233.910156 107.683594 C 236.230469 109.804688 239.695312 111.160156 243.5625 111.160156 C 250.527344 111.160156 256.195312 106.78125 256.195312 101.398438 L 256.195312 98.113281 C 256.855469 98.738281 257.398438 99.515625 257.800781 100.457031 C 259.898438 105.398438 257.09375 110.90625 249.460938 116.832031 C 242.21875 122.449219 241.78125 125.15625 240.328125 134.121094 C 240.195312 134.925781 240.058594 135.785156 239.902344 136.703125 C 239.371094 139.878906 238.375 142.59375 237.246094 144.847656 C 237.132812 145.078125 237.015625 145.296875 236.898438 145.515625 C 236.777344 145.738281 236.660156 145.960938 236.539062 146.175781 C 235.03125 148.828125 233.410156 150.707031 232.371094 151.769531 C 232.304688 151.835938 232.253906 151.882812 232.195312 151.941406 C 231.988281 152.148438 231.8125 152.316406 231.667969 152.449219 C 231.664062 152.453125 231.660156 152.457031 231.65625 152.460938 C 231.421875 152.675781 231.273438 152.796875 231.265625 152.804688 C 231.234375 152.828125 231.210938 152.855469 231.1875 152.886719 C 231.179688 152.890625 231.171875 152.894531 231.164062 152.902344 C 231.144531 152.925781 231.125 152.949219 231.105469 152.972656 C 231.058594 153.023438 231.015625 153.074219 230.96875 153.128906 C 228.273438 156.257812 226.035156 158.542969 226.011719 158.566406 C 225.769531 158.8125 225.75 159.175781 225.917969 159.460938 C 225.949219 159.511719 225.976562 159.570312 226.023438 159.613281 C 226.164062 159.757812 226.351562 159.828125 226.539062 159.828125 C 226.730469 159.828125 226.925781 159.753906 227.070312 159.605469 C 227.074219 159.597656 227.214844 159.457031 227.453125 159.207031 C 228.085938 158.546875 229.453125 157.101562 231.097656 155.234375 L 231.300781 158.503906 C 231.300781 158.53125 231.316406 158.550781 231.320312 158.574219 L 231.304688 158.578125 L 233.09375 187.667969 L 233.144531 188.519531 L 233.199219 189.394531 L 233.710938 197.6875 L 233.8125 199.335938 L 233.957031 201.722656 L 233.945312 201.722656 C 234.148438 202.496094 234.253906 203.285156 234.253906 204.078125 C 234.253906 208.246094 231.394531 212.191406 226.207031 215.1875 C 215.15625 221.570312 197.121094 221.535156 186 215.113281 C 180.765625 212.089844 177.867188 208.128906 177.828125 203.949219 L 177.828125 203.941406 L 177.871094 203.003906 L 178.011719 199.679688 L 178.089844 197.921875 L 178.460938 189.261719 L 178.496094 188.394531 L 178.535156 187.554688 L 179.40625 167.230469 C 179.40625 167.226562 179.40625 167.226562 179.40625 167.226562 L 179.414062 167.074219 L 179.863281 156.601562 L 179.960938 154.332031 L 181.53125 157.238281 C 181.664062 157.484375 181.917969 157.625 182.183594 157.625 C 182.300781 157.625 182.421875 157.597656 182.535156 157.539062 C 182.894531 157.34375 183.027344 156.894531 182.832031 156.535156 L 180.082031 151.441406 L 179.984375 151.261719 C 179.984375 151.257812 179.976562 151.253906 179.972656 151.25 C 179.96875 151.242188 179.96875 151.230469 179.960938 151.222656 C 179.941406 151.191406 179.738281 150.863281 179.390625 150.285156 C 179.203125 149.96875 178.96875 149.578125 178.699219 149.121094 C 174.402344 141.800781 160.710938 117.070312 162.824219 102.492188 C 162.921875 101.816406 163.085938 101.113281 163.316406 100.390625 C 163.394531 100.148438 163.488281 99.902344 163.578125 99.65625 C 163.667969 99.417969 163.757812 99.179688 163.859375 98.9375 C 164.671875 96.988281 165.914062 94.894531 167.570312 92.675781 C 167.714844 92.476562 167.859375 92.28125 168.011719 92.082031 C 168.160156 91.890625 168.316406 91.695312 168.472656 91.5 Z M 252.0625 68.816406 C 252.089844 68.925781 252.109375 69.035156 252.132812 69.144531 C 252.148438 69.234375 252.167969 69.320312 252.179688 69.410156 C 252.207031 69.613281 252.222656 69.820312 252.222656 70.03125 C 252.222656 71.585938 251.464844 73.011719 250.210938 74.121094 C 250.007812 74.296875 249.792969 74.464844 249.566406 74.625 C 249.328125 74.796875 249.074219 74.953125 248.808594 75.101562 C 247.351562 75.925781 245.535156 76.417969 243.5625 76.417969 C 241.589844 76.417969 239.773438 75.925781 238.316406 75.101562 C 238.050781 74.953125 237.796875 74.796875 237.558594 74.625 C 237.488281 74.574219 237.417969 74.523438 237.347656 74.46875 C 237.542969 74.464844 237.738281 74.464844 237.933594 74.457031 C 240.09375 74.390625 242.269531 74.085938 244.253906 73.410156 C 244.769531 73.234375 245.273438 73.03125 245.761719 72.800781 C 246.132812 72.625 246.5 72.4375 246.851562 72.226562 C 248.902344 71 250.375 69.28125 251.25 67.105469 C 251.25 67.105469 251.25 67.101562 251.253906 67.101562 C 251.269531 67.125 251.285156 67.148438 251.300781 67.171875 C 251.332031 67.222656 251.367188 67.273438 251.398438 67.320312 C 251.476562 67.445312 251.550781 67.570312 251.617188 67.695312 C 251.652344 67.757812 251.679688 67.820312 251.710938 67.882812 C 251.769531 68 251.824219 68.121094 251.875 68.242188 C 251.90625 68.324219 251.929688 68.402344 251.957031 68.484375 C 251.996094 68.59375 252.035156 68.703125 252.0625 68.816406 Z M 225.449219 72.839844 C 226.789062 73.207031 229.839844 73.957031 233.421875 74.296875 L 233.421875 76.078125 C 233.421875 76.246094 233.4375 76.410156 233.453125 76.574219 C 231.875 78.203125 230.929688 80.21875 230.929688 82.402344 L 230.929688 82.753906 C 228.953125 80.660156 226.535156 79.160156 223.863281 78.050781 Z M 250.328125 96.488281 L 250.328125 101.398438 C 250.328125 103.023438 247.753906 105.292969 243.5625 105.292969 C 241.453125 105.292969 239.753906 104.71875 238.585938 103.941406 C 238.363281 103.792969 238.160156 103.632812 237.976562 103.46875 C 237.773438 103.292969 237.597656 103.113281 237.445312 102.925781 C 237.023438 102.410156 236.792969 101.875 236.792969 101.398438 L 236.792969 95.480469 C 238.148438 96.777344 240.363281 97.742188 243.121094 97.839844 C 243.269531 97.84375 243.414062 97.855469 243.5625 97.855469 C 243.890625 97.855469 244.210938 97.839844 244.527344 97.816406 C 246.828125 97.640625 248.714844 96.851562 249.992188 95.789062 C 250.109375 95.6875 250.21875 95.585938 250.328125 95.480469 Z M 243.5625 96.371094 C 239.371094 96.371094 236.792969 94.105469 236.792969 92.476562 C 236.792969 90.851562 239.371094 88.582031 243.5625 88.582031 C 247.753906 88.582031 250.328125 90.851562 250.328125 92.476562 C 250.328125 94.105469 247.753906 96.371094 243.5625 96.371094 Z M 254.714844 95.480469 L 254.714844 101.398438 C 254.714844 105.964844 249.710938 109.679688 243.5625 109.679688 C 239.890625 109.679688 236.636719 108.347656 234.601562 106.304688 C 234.726562 106.03125 234.84375 105.742188 234.960938 105.445312 C 235.066406 105.179688 235.164062 104.902344 235.261719 104.621094 C 235.351562 104.355469 235.4375 104.082031 235.515625 103.800781 C 235.589844 103.539062 235.664062 103.273438 235.726562 103 C 235.832031 103.203125 235.953125 103.402344 236.09375 103.597656 C 236.242188 103.804688 236.402344 104.003906 236.585938 104.199219 C 236.765625 104.386719 236.964844 104.566406 237.175781 104.742188 C 238.628906 105.929688 240.847656 106.773438 243.5625 106.773438 C 248.496094 106.773438 251.808594 103.996094 251.808594 101.398438 L 251.808594 92.476562 C 251.808594 89.882812 248.496094 87.101562 243.5625 87.101562 C 239.234375 87.101562 236.152344 89.242188 235.460938 91.519531 C 235.386719 91.210938 235.308594 90.902344 235.222656 90.585938 C 234.5625 88.226562 233.601562 86.246094 232.410156 84.570312 L 232.410156 82.402344 C 232.410156 80.929688 232.9375 79.546875 233.855469 78.34375 C 235.113281 81.582031 238.984375 83.949219 243.5625 83.949219 C 248.140625 83.949219 252.011719 81.582031 253.273438 78.34375 C 254.1875 79.546875 254.714844 80.929688 254.714844 82.402344 Z M 252.222656 75.316406 L 252.222656 76.078125 C 252.222656 76.128906 252.214844 76.175781 252.214844 76.226562 C 252.203125 76.519531 252.164062 76.808594 252.105469 77.089844 C 251.441406 80.132812 247.871094 82.46875 243.5625 82.46875 C 239.253906 82.46875 235.683594 80.132812 235.019531 77.089844 C 234.960938 76.808594 234.921875 76.519531 234.910156 76.226562 C 234.910156 76.175781 234.902344 76.128906 234.902344 76.078125 L 234.902344 74.410156 C 234.984375 74.417969 235.070312 74.421875 235.152344 74.425781 C 235.28125 74.574219 235.425781 74.714844 235.566406 74.855469 C 235.746094 75.03125 235.933594 75.203125 236.128906 75.367188 C 236.332031 75.539062 236.542969 75.699219 236.765625 75.855469 C 238.566406 77.121094 240.945312 77.902344 243.5625 77.902344 C 246.179688 77.902344 248.558594 77.121094 250.359375 75.855469 C 250.582031 75.699219 250.792969 75.539062 250.996094 75.367188 C 251.191406 75.203125 251.378906 75.03125 251.558594 74.855469 C 251.800781 74.613281 252.019531 74.363281 252.222656 74.105469 Z M 178.585938 151.8125 L 178.332031 157.660156 L 177.015625 188.363281 C 176.875 188.441406 176.730469 188.515625 176.589844 188.597656 C 168.703125 193.148438 164.363281 199.257812 164.363281 205.796875 C 164.363281 212.390625 168.769531 218.566406 176.769531 223.183594 C 184.882812 227.867188 195.527344 230.210938 206.148438 230.210938 C 216.683594 230.210938 227.199219 227.90625 235.195312 223.289062 C 243.082031 218.738281 247.421875 212.628906 247.421875 206.089844 C 247.421875 199.496094 243.015625 193.320312 235.015625 188.703125 C 234.890625 188.628906 234.757812 188.5625 234.628906 188.488281 L 232.679688 156.839844 L 232.511719 154.0625 L 345.351562 241.59375 C 346.65625 242.605469 347.296875 243.820312 347.152344 245.015625 C 347.128906 245.195312 347.089844 245.371094 347.035156 245.546875 C 346.652344 246.769531 345.464844 247.890625 343.695312 248.679688 L 235.128906 297.015625 C 233.5625 297.714844 231.734375 298.078125 229.894531 298.128906 C 226.832031 298.214844 223.726562 297.429688 221.71875 295.871094 L 29.914062 147.09375 C 28.613281 146.082031 27.976562 144.867188 28.121094 143.675781 C 28.292969 142.246094 29.554688 140.910156 31.578125 140.007812 L 59.355469 127.640625 L 59.582031 127.8125 L 60.355469 128.414062 C 61.757812 129.503906 63.851562 130.050781 65.929688 130 C 67.175781 129.964844 68.414062 129.714844 69.492188 129.234375 L 112.234375 110.207031 C 113.820312 109.5 114.820312 108.367188 114.972656 107.101562 C 115.109375 105.96875 114.574219 104.867188 113.460938 104.003906 L 113.089844 103.71875 L 140.144531 91.671875 C 144.0625 89.925781 149.59375 90.269531 152.917969 92.371094 C 153.136719 92.507812 153.347656 92.65625 153.550781 92.8125 L 162.082031 99.429688 C 161.742188 100.410156 161.492188 101.363281 161.359375 102.28125 C 158.871094 119.453125 176.761719 148.871094 178.585938 151.8125 Z M 16.5 162.753906 L 16.644531 148.660156 C 17.011719 149.253906 17.445312 149.828125 17.945312 150.386719 C 17.964844 150.40625 17.984375 150.425781 18 150.445312 C 18.476562 150.972656 19.011719 151.480469 19.601562 151.964844 C 19.632812 151.992188 19.664062 152.019531 19.699219 152.046875 L 19.519531 169.085938 C 17.5 167.160156 16.460938 164.992188 16.5 162.757812 C 16.5 162.757812 16.5 162.753906 16.5 162.753906 Z M 60.734375 183.886719 L 211.5 300.832031 L 211.320312 317.964844 L 20.988281 170.324219 L 21.167969 153.191406 Z M 317.128906 279.398438 L 317.101562 281.914062 C 317.09375 282.789062 316.570312 283.585938 315.769531 283.945312 L 285.46875 297.433594 C 285.175781 297.566406 284.863281 297.628906 284.554688 297.628906 C 284.121094 297.628906 283.695312 297.503906 283.320312 297.257812 C 282.675781 296.835938 282.296875 296.125 282.304688 295.355469 L 282.332031 292.84375 C 282.339844 291.964844 282.863281 291.167969 283.667969 290.8125 L 313.964844 277.324219 C 314.667969 277.007812 315.472656 277.074219 316.113281 277.496094 C 316.757812 277.917969 317.136719 278.632812 317.128906 279.398438 Z M 34.527344 176.078125 L 44.390625 183.726562 C 44.726562 183.988281 45.125 184.121094 45.53125 184.121094 C 45.808594 184.121094 46.089844 184.058594 46.355469 183.929688 C 47 183.613281 47.398438 182.972656 47.398438 182.253906 L 47.398438 179.765625 C 47.398438 178.847656 46.964844 177.964844 46.242188 177.402344 L 36.40625 169.773438 C 35.84375 169.335938 35.09375 169.257812 34.449219 169.566406 C 33.808594 169.878906 33.402344 170.511719 33.398438 171.226562 L 33.371094 173.683594 C 33.363281 174.613281 33.792969 175.507812 34.527344 176.078125 Z M 45.917969 179.765625 L 45.917969 182.253906 C 45.917969 182.46875 45.765625 182.566406 45.703125 182.597656 C 45.636719 182.628906 45.46875 182.691406 45.296875 182.558594 L 35.4375 174.90625 C 35.066406 174.621094 34.847656 174.167969 34.851562 173.699219 L 34.878906 171.242188 C 34.878906 171.027344 35.03125 170.933594 35.09375 170.898438 C 35.160156 170.871094 35.328125 170.8125 35.496094 170.941406 L 45.332031 178.574219 C 45.699219 178.855469 45.917969 179.300781 45.917969 179.765625 Z M 51.636719 189.339844 L 61.496094 196.988281 C 61.832031 197.246094 62.234375 197.382812 62.636719 197.382812 C 62.917969 197.382812 63.199219 197.316406 63.460938 197.1875 C 64.105469 196.875 64.503906 196.230469 64.503906 195.511719 L 64.503906 193.027344 C 64.503906 192.09375 64.082031 191.234375 63.347656 190.664062 L 53.511719 183.03125 C 52.949219 182.597656 52.199219 182.519531 51.554688 182.828125 C 50.914062 183.136719 50.511719 183.773438 50.503906 184.488281 L 50.476562 186.945312 C 50.46875 187.875 50.902344 188.769531 51.636719 189.339844 Z M 63.023438 193.027344 L 63.023438 195.511719 C 63.023438 195.730469 62.875 195.828125 62.808594 195.859375 C 62.746094 195.890625 62.574219 195.949219 62.402344 195.816406 L 52.542969 188.167969 C 52.171875 187.878906 51.953125 187.429688 51.957031 186.960938 L 51.984375 184.503906 C 51.988281 184.289062 52.136719 184.191406 52.203125 184.160156 C 52.265625 184.128906 52.433594 184.070312 52.605469 184.203125 L 62.441406 191.832031 C 62.8125 192.121094 63.023438 192.554688 63.023438 193.027344 Z M 72.628906 205.585938 L 82.488281 213.234375 C 82.824219 213.496094 83.226562 213.628906 83.628906 213.628906 C 83.910156 213.628906 84.191406 213.566406 84.453125 213.4375 C 85.097656 213.121094 85.5 212.480469 85.5 211.761719 L 85.5 209.273438 C 85.5 208.355469 85.066406 207.472656 84.339844 206.910156 L 74.503906 199.28125 C 73.941406 198.84375 73.195312 198.765625 72.550781 199.074219 C 71.90625 199.386719 71.503906 200.023438 71.496094 200.734375 L 71.472656 203.191406 C 71.460938 204.121094 71.894531 205.015625 72.628906 205.585938 Z M 84.019531 209.273438 L 84.019531 211.761719 C 84.019531 211.976562 83.867188 212.074219 83.800781 212.105469 C 83.738281 212.136719 83.570312 212.199219 83.398438 212.066406 L 73.535156 204.414062 C 73.164062 204.128906 72.949219 203.675781 72.953125 203.207031 L 72.976562 200.75 C 72.980469 200.535156 73.128906 200.441406 73.195312 200.410156 C 73.257812 200.375 73.425781 200.320312 73.597656 200.449219 L 83.433594 208.082031 C 83.800781 208.363281 84.019531 208.808594 84.019531 209.273438 Z M 249.9375 308.605469 C 250.152344 308.8125 250.273438 309.101562 250.273438 309.390625 C 250.273438 309.679688 250.152344 309.96875 249.9375 310.175781 C 249.894531 310.226562 249.835938 310.269531 249.777344 310.316406 C 249.714844 310.351562 249.648438 310.390625 249.582031 310.410156 C 249.515625 310.441406 249.441406 310.464844 249.375 310.476562 C 249.300781 310.492188 249.226562 310.5 249.160156 310.5 C 249.085938 310.5 249.011719 310.492188 248.9375 310.476562 C 248.871094 310.464844 248.796875 310.441406 248.730469 310.410156 C 248.664062 310.390625 248.597656 310.351562 248.539062 310.316406 C 248.480469 310.269531 248.421875 310.226562 248.375 310.175781 C 248.167969 309.96875 248.042969 309.679688 248.042969 309.390625 C 248.042969 309.101562 248.167969 308.8125 248.375 308.605469 C 248.421875 308.554688 248.480469 308.507812 248.539062 308.464844 C 248.597656 308.425781 248.664062 308.390625 248.730469 308.359375 C 248.796875 308.339844 248.871094 308.316406 248.9375 308.300781 C 249.078125 308.269531 249.226562 308.269531 249.375 308.300781 C 249.441406 308.316406 249.515625 308.339844 249.582031 308.359375 C 249.648438 308.390625 249.714844 308.425781 249.777344 308.464844 C 249.835938 308.507812 249.894531 308.554688 249.9375 308.605469 Z M 254.183594 307.414062 C 254.195312 307.488281 254.203125 307.558594 254.203125 307.632812 C 254.203125 307.921875 254.085938 308.210938 253.878906 308.417969 C 253.828125 308.472656 253.765625 308.515625 253.707031 308.554688 C 253.648438 308.597656 253.582031 308.628906 253.515625 308.65625 C 253.449219 308.6875 253.382812 308.707031 253.308594 308.722656 C 253.234375 308.738281 253.160156 308.746094 253.09375 308.746094 C 252.796875 308.746094 252.507812 308.628906 252.308594 308.417969 C 252.101562 308.210938 251.984375 307.921875 251.984375 307.632812 C 251.984375 307.558594 251.992188 307.488281 252.003906 307.414062 C 252.019531 307.347656 252.035156 307.273438 252.0625 307.203125 C 252.09375 307.136719 252.128906 307.078125 252.167969 307.011719 C 252.207031 306.953125 252.257812 306.902344 252.308594 306.847656 C 252.714844 306.433594 253.464844 306.433594 253.878906 306.847656 C 253.929688 306.902344 253.976562 306.953125 254.011719 307.011719 C 254.058594 307.078125 254.085938 307.136719 254.117188 307.203125 C 254.144531 307.273438 254.167969 307.347656 254.183594 307.414062 Z M 258.113281 305.65625 C 258.128906 305.730469 258.136719 305.804688 258.136719 305.871094 C 258.136719 306.167969 258.019531 306.457031 257.8125 306.664062 C 257.761719 306.707031 257.699219 306.761719 257.640625 306.796875 C 257.582031 306.84375 257.515625 306.871094 257.449219 306.902344 C 257.382812 306.929688 257.316406 306.953125 257.242188 306.96875 C 257.167969 306.984375 257.101562 306.988281 257.027344 306.988281 C 256.953125 306.988281 256.878906 306.984375 256.804688 306.96875 C 256.738281 306.953125 256.664062 306.929688 256.597656 306.902344 C 256.53125 306.871094 256.472656 306.84375 256.410156 306.796875 C 256.34375 306.761719 256.292969 306.707031 256.242188 306.664062 C 256.035156 306.449219 255.914062 306.167969 255.914062 305.871094 C 255.914062 305.804688 255.921875 305.730469 255.9375 305.65625 C 255.953125 305.582031 255.96875 305.515625 255.996094 305.449219 C 256.027344 305.382812 256.0625 305.316406 256.101562 305.257812 C 256.144531 305.199219 256.191406 305.140625 256.242188 305.085938 C 256.292969 305.035156 256.34375 304.992188 256.410156 304.953125 C 256.472656 304.910156 256.53125 304.878906 256.597656 304.851562 C 256.664062 304.820312 256.738281 304.796875 256.804688 304.785156 C 256.953125 304.753906 257.101562 304.753906 257.242188 304.785156 C 257.316406 304.796875 257.382812 304.820312 257.449219 304.851562 C 257.515625 304.878906 257.582031 304.910156 257.640625 304.953125 C 257.699219 304.992188 257.761719 305.035156 257.8125 305.085938 C 257.863281 305.140625 257.90625 305.199219 257.945312 305.257812 C 257.988281 305.316406 258.027344 305.382812 258.046875 305.449219 C 258.078125 305.515625 258.101562 305.582031 258.113281 305.65625 Z M 261.746094 303.332031 C 261.953125 303.539062 262.070312 303.828125 262.070312 304.117188 C 262.070312 304.191406 262.0625 304.265625 262.046875 304.332031 C 262.03125 304.40625 262.011719 304.472656 261.980469 304.546875 C 261.960938 304.613281 261.921875 304.671875 261.882812 304.730469 C 261.839844 304.796875 261.796875 304.851562 261.746094 304.902344 C 261.691406 304.953125 261.632812 304.996094 261.574219 305.042969 C 261.515625 305.078125 261.449219 305.117188 261.382812 305.144531 C 261.316406 305.167969 261.25 305.191406 261.171875 305.207031 C 261.105469 305.21875 261.035156 305.226562 260.957031 305.226562 C 260.886719 305.226562 260.8125 305.21875 260.742188 305.207031 C 260.671875 305.191406 260.605469 305.167969 260.539062 305.144531 C 260.46875 305.117188 260.402344 305.078125 260.34375 305.042969 C 260.277344 304.996094 260.226562 304.953125 260.175781 304.902344 C 259.964844 304.703125 259.847656 304.414062 259.847656 304.117188 C 259.847656 304.042969 259.855469 303.96875 259.871094 303.902344 C 259.886719 303.828125 259.90625 303.761719 259.929688 303.695312 C 259.960938 303.628906 259.996094 303.5625 260.03125 303.503906 C 260.078125 303.441406 260.121094 303.382812 260.175781 303.332031 C 260.226562 303.28125 260.277344 303.234375 260.34375 303.191406 C 260.402344 303.152344 260.46875 303.117188 260.539062 303.09375 C 260.605469 303.066406 260.671875 303.042969 260.742188 303.027344 C 261.101562 302.953125 261.484375 303.074219 261.746094 303.332031 Z M 265.980469 302.148438 C 265.996094 302.214844 266.003906 302.289062 266.003906 302.363281 C 266.003906 302.433594 265.996094 302.503906 265.980469 302.578125 C 265.964844 302.648438 265.945312 302.71875 265.914062 302.785156 C 265.890625 302.851562 265.855469 302.917969 265.816406 302.976562 C 265.773438 303.035156 265.730469 303.09375 265.675781 303.148438 C 265.625 303.199219 265.566406 303.242188 265.507812 303.289062 C 265.449219 303.324219 265.378906 303.359375 265.3125 303.382812 C 265.246094 303.414062 265.179688 303.433594 265.105469 303.449219 C 265.039062 303.464844 264.964844 303.472656 264.890625 303.472656 C 264.816406 303.472656 264.742188 303.464844 264.675781 303.449219 C 264.601562 303.433594 264.535156 303.414062 264.46875 303.382812 C 264.394531 303.359375 264.335938 303.324219 264.277344 303.289062 C 264.21875 303.242188 264.160156 303.199219 264.105469 303.148438 C 264.054688 303.09375 264.011719 303.035156 263.964844 302.976562 C 263.929688 302.917969 263.890625 302.851562 263.863281 302.785156 C 263.839844 302.71875 263.816406 302.648438 263.804688 302.578125 C 263.789062 302.507812 263.78125 302.433594 263.78125 302.363281 C 263.78125 302.066406 263.898438 301.785156 264.105469 301.578125 C 264.160156 301.523438 264.21875 301.480469 264.277344 301.4375 C 264.335938 301.398438 264.394531 301.363281 264.46875 301.332031 C 264.535156 301.308594 264.601562 301.289062 264.675781 301.273438 C 264.816406 301.242188 264.964844 301.242188 265.105469 301.273438 C 265.179688 301.289062 265.246094 301.308594 265.3125 301.332031 C 265.378906 301.363281 265.449219 301.398438 265.507812 301.4375 C 265.566406 301.480469 265.625 301.523438 265.675781 301.578125 C 265.730469 301.628906 265.773438 301.679688 265.816406 301.746094 C 265.855469 301.804688 265.890625 301.867188 265.914062 301.9375 C 265.945312 302.007812 265.964844 302.074219 265.980469 302.148438 Z M 269.914062 300.382812 C 269.929688 300.457031 269.933594 300.53125 269.933594 300.605469 C 269.933594 300.671875 269.929688 300.746094 269.914062 300.820312 C 269.898438 300.886719 269.875 300.960938 269.855469 301.027344 C 269.824219 301.09375 269.785156 301.160156 269.75 301.222656 C 269.707031 301.28125 269.660156 301.339844 269.609375 301.390625 C 269.558594 301.441406 269.503906 301.488281 269.4375 301.523438 C 269.378906 301.570312 269.3125 301.597656 269.246094 301.628906 C 269.179688 301.65625 269.113281 301.679688 269.039062 301.695312 C 268.972656 301.710938 268.898438 301.71875 268.824219 301.71875 C 268.75 301.71875 268.675781 301.710938 268.609375 301.695312 C 268.535156 301.679688 268.46875 301.65625 268.402344 301.628906 C 268.335938 301.597656 268.269531 301.570312 268.210938 301.523438 C 268.148438 301.488281 268.089844 301.441406 268.039062 301.390625 C 267.988281 301.339844 267.941406 301.28125 267.898438 301.222656 C 267.863281 301.160156 267.824219 301.09375 267.800781 301.027344 C 267.773438 300.960938 267.75 300.894531 267.734375 300.820312 C 267.722656 300.746094 267.714844 300.671875 267.714844 300.605469 C 267.714844 300.53125 267.722656 300.457031 267.734375 300.382812 C 267.75 300.316406 267.773438 300.242188 267.800781 300.175781 C 267.824219 300.109375 267.863281 300.042969 267.898438 299.984375 C 267.941406 299.925781 267.988281 299.867188 268.039062 299.820312 C 268.089844 299.769531 268.148438 299.71875 268.210938 299.679688 C 268.269531 299.644531 268.335938 299.605469 268.402344 299.578125 C 268.46875 299.546875 268.535156 299.53125 268.609375 299.515625 C 268.75 299.488281 268.898438 299.488281 269.039062 299.515625 C 269.113281 299.53125 269.179688 299.546875 269.246094 299.578125 C 269.3125 299.605469 269.378906 299.644531 269.4375 299.679688 C 269.503906 299.71875 269.558594 299.769531 269.609375 299.820312 C 269.660156 299.867188 269.707031 299.925781 269.75 299.984375 C 269.785156 300.042969 269.824219 300.109375 269.855469 300.175781 C 269.875 300.242188 269.898438 300.316406 269.914062 300.382812 Z M 273.542969 298.058594 C 273.75 298.265625 273.867188 298.554688 273.867188 298.84375 C 273.867188 299.140625 273.75 299.421875 273.542969 299.628906 C 273.335938 299.835938 273.054688 299.953125 272.757812 299.953125 C 272.691406 299.953125 272.617188 299.945312 272.542969 299.941406 C 272.46875 299.925781 272.402344 299.902344 272.335938 299.871094 C 272.269531 299.84375 272.203125 299.804688 272.140625 299.769531 C 272.082031 299.730469 272.023438 299.679688 271.972656 299.628906 C 271.921875 299.585938 271.875 299.523438 271.832031 299.464844 C 271.792969 299.40625 271.757812 299.339844 271.734375 299.273438 C 271.707031 299.207031 271.683594 299.132812 271.667969 299.066406 C 271.652344 298.992188 271.644531 298.917969 271.644531 298.84375 C 271.644531 298.777344 271.652344 298.703125 271.667969 298.628906 C 271.683594 298.5625 271.707031 298.488281 271.734375 298.421875 C 271.757812 298.355469 271.792969 298.289062 271.832031 298.230469 C 271.875 298.167969 271.921875 298.109375 271.972656 298.058594 C 272.023438 298.007812 272.082031 297.960938 272.140625 297.925781 C 272.203125 297.878906 272.269531 297.851562 272.335938 297.820312 C 272.402344 297.792969 272.46875 297.769531 272.542969 297.753906 C 272.898438 297.6875 273.289062 297.800781 273.542969 298.058594 Z M 323.933594 275.601562 C 324.140625 275.808594 324.257812 276.089844 324.257812 276.386719 C 324.257812 276.460938 324.25 276.527344 324.238281 276.601562 C 324.222656 276.675781 324.199219 276.742188 324.179688 276.808594 C 324.148438 276.875 324.109375 276.941406 324.074219 277.003906 C 324.03125 277.0625 323.984375 277.121094 323.933594 277.171875 C 323.882812 277.226562 323.824219 277.269531 323.761719 277.304688 C 323.703125 277.351562 323.636719 277.378906 323.570312 277.410156 C 323.503906 277.441406 323.4375 277.460938 323.363281 277.476562 C 323.296875 277.492188 323.222656 277.5 323.148438 277.5 C 322.851562 277.5 322.570312 277.378906 322.363281 277.171875 C 322.3125 277.121094 322.265625 277.0625 322.222656 277.003906 C 322.183594 276.941406 322.148438 276.875 322.117188 276.808594 C 322.097656 276.742188 322.074219 276.675781 322.058594 276.601562 C 322.046875 276.527344 322.039062 276.460938 322.039062 276.386719 C 322.039062 276.089844 322.15625 275.808594 322.363281 275.601562 C 322.621094 275.34375 323 275.226562 323.363281 275.300781 C 323.4375 275.3125 323.503906 275.328125 323.570312 275.359375 C 323.636719 275.386719 323.703125 275.425781 323.761719 275.460938 C 323.824219 275.5 323.882812 275.550781 323.933594 275.601562 Z M 327.867188 273.839844 C 328.074219 274.046875 328.191406 274.335938 328.191406 274.625 C 328.191406 274.921875 328.074219 275.210938 327.867188 275.417969 C 327.660156 275.617188 327.371094 275.742188 327.082031 275.742188 C 326.792969 275.742188 326.503906 275.617188 326.296875 275.417969 C 326.089844 275.210938 325.96875 274.921875 325.96875 274.625 C 325.96875 274.335938 326.089844 274.046875 326.296875 273.839844 C 326.710938 273.433594 327.453125 273.425781 327.867188 273.839844 Z M 332.101562 272.65625 C 332.117188 272.730469 332.125 272.796875 332.125 272.871094 C 332.125 272.945312 332.117188 273.019531 332.101562 273.085938 C 332.085938 273.160156 332.074219 273.226562 332.042969 273.300781 C 332.011719 273.367188 331.976562 273.425781 331.941406 273.484375 C 331.894531 273.550781 331.851562 273.601562 331.796875 273.65625 C 331.589844 273.863281 331.308594 273.980469 331.015625 273.980469 C 330.726562 273.980469 330.4375 273.863281 330.230469 273.65625 C 330.019531 273.449219 329.902344 273.167969 329.902344 272.871094 C 329.902344 272.796875 329.910156 272.730469 329.925781 272.65625 C 329.941406 272.582031 329.960938 272.515625 329.992188 272.449219 C 330.019531 272.382812 330.050781 272.316406 330.09375 272.253906 C 330.132812 272.195312 330.175781 272.136719 330.230469 272.085938 C 330.644531 271.671875 331.382812 271.671875 331.796875 272.085938 C 331.851562 272.136719 331.902344 272.195312 331.941406 272.253906 C 331.976562 272.316406 332.011719 272.382812 332.042969 272.449219 C 332.074219 272.515625 332.085938 272.582031 332.101562 272.65625 Z M 336.035156 270.898438 C 336.050781 270.964844 336.058594 271.039062 336.058594 271.113281 C 336.058594 271.1875 336.050781 271.261719 336.035156 271.328125 C 336.019531 271.402344 336.003906 271.46875 335.976562 271.535156 C 335.945312 271.601562 335.910156 271.671875 335.871094 271.730469 C 335.828125 271.789062 335.78125 271.847656 335.730469 271.898438 C 335.523438 272.105469 335.242188 272.226562 334.945312 272.226562 C 334.878906 272.226562 334.804688 272.21875 334.730469 272.203125 C 334.65625 272.1875 334.589844 272.167969 334.523438 272.136719 C 334.457031 272.113281 334.390625 272.078125 334.332031 272.039062 C 334.273438 271.996094 334.214844 271.953125 334.160156 271.898438 C 334.109375 271.847656 334.066406 271.789062 334.027344 271.730469 C 333.984375 271.671875 333.953125 271.601562 333.925781 271.535156 C 333.894531 271.46875 333.871094 271.402344 333.859375 271.328125 C 333.84375 271.261719 333.835938 271.1875 333.835938 271.113281 C 333.835938 271.039062 333.84375 270.964844 333.859375 270.898438 C 333.871094 270.824219 333.894531 270.757812 333.925781 270.691406 C 333.953125 270.625 333.984375 270.558594 334.027344 270.5 C 334.066406 270.441406 334.109375 270.382812 334.160156 270.328125 C 334.214844 270.277344 334.273438 270.234375 334.332031 270.1875 C 334.390625 270.152344 334.457031 270.113281 334.523438 270.085938 C 334.589844 270.0625 334.65625 270.039062 334.730469 270.027344 C 335.085938 269.953125 335.472656 270.070312 335.730469 270.328125 C 335.78125 270.382812 335.828125 270.441406 335.871094 270.5 C 335.910156 270.558594 335.945312 270.625 335.976562 270.691406 C 336.003906 270.757812 336.019531 270.824219 336.035156 270.898438 Z M 339.96875 269.136719 C 339.980469 269.210938 339.988281 269.285156 339.988281 269.359375 C 339.988281 269.425781 339.980469 269.5 339.96875 269.574219 C 339.953125 269.648438 339.9375 269.714844 339.910156 269.78125 C 339.878906 269.847656 339.84375 269.914062 339.804688 269.972656 C 339.769531 270.035156 339.714844 270.09375 339.664062 270.144531 C 339.457031 270.351562 339.175781 270.46875 338.878906 270.46875 C 338.589844 270.46875 338.300781 270.351562 338.09375 270.144531 C 337.886719 269.9375 337.769531 269.648438 337.769531 269.359375 C 337.769531 269.0625 337.886719 268.773438 338.09375 268.566406 C 338.507812 268.160156 339.25 268.160156 339.664062 268.566406 C 339.714844 268.617188 339.769531 268.679688 339.804688 268.738281 C 339.84375 268.804688 339.878906 268.863281 339.910156 268.929688 C 339.9375 268.996094 339.953125 269.070312 339.96875 269.136719 Z M 343.90625 267.382812 C 343.921875 267.457031 343.929688 267.53125 343.929688 267.597656 C 343.929688 267.894531 343.8125 268.175781 343.597656 268.382812 C 343.390625 268.589844 343.109375 268.714844 342.820312 268.714844 C 342.523438 268.714844 342.242188 268.589844 342.035156 268.382812 C 341.980469 268.335938 341.929688 268.277344 341.894531 268.21875 C 341.847656 268.152344 341.820312 268.09375 341.789062 268.027344 C 341.761719 267.960938 341.738281 267.886719 341.722656 267.820312 C 341.714844 267.746094 341.707031 267.671875 341.707031 267.597656 C 341.707031 267.53125 341.714844 267.457031 341.722656 267.382812 C 341.738281 267.316406 341.761719 267.242188 341.789062 267.175781 C 341.820312 267.109375 341.847656 267.042969 341.894531 266.980469 C 341.929688 266.921875 341.980469 266.863281 342.035156 266.8125 C 342.441406 266.40625 343.1875 266.40625 343.597656 266.8125 C 343.648438 266.863281 343.699219 266.921875 343.738281 266.980469 C 343.78125 267.042969 343.8125 267.109375 343.839844 267.175781 C 343.871094 267.242188 343.894531 267.316406 343.90625 267.382812 Z M 347.839844 265.625 C 347.847656 265.699219 347.855469 265.765625 347.855469 265.839844 C 347.855469 265.914062 347.847656 265.988281 347.839844 266.054688 C 347.824219 266.128906 347.804688 266.195312 347.773438 266.269531 C 347.746094 266.335938 347.714844 266.398438 347.667969 266.457031 C 347.632812 266.523438 347.582031 266.574219 347.535156 266.625 C 347.328125 266.835938 347.039062 266.953125 346.753906 266.953125 C 346.457031 266.953125 346.175781 266.835938 345.964844 266.625 C 345.757812 266.417969 345.632812 266.128906 345.632812 265.839844 C 345.632812 265.554688 345.757812 265.265625 345.964844 265.054688 C 346.011719 265.003906 346.070312 264.960938 346.128906 264.914062 C 346.1875 264.878906 346.253906 264.84375 346.324219 264.820312 C 346.390625 264.789062 346.460938 264.769531 346.53125 264.753906 C 346.890625 264.679688 347.277344 264.796875 347.535156 265.054688 C 347.582031 265.109375 347.632812 265.167969 347.667969 265.226562 C 347.714844 265.285156 347.746094 265.351562 347.773438 265.417969 C 347.804688 265.484375 347.824219 265.554688 347.839844 265.625 Z M 347.839844 265.625 " fill-opacity="1" fill-rule="nonzero"/></g></svg>