<svg xmlns="http://www.w3.org/2000/svg" xmlns:xlink="http://www.w3.org/1999/xlink" width="500" zoomAndPan="magnify" viewBox="0 0 375 374.999991" height="500" preserveAspectRatio="xMidYMid meet" version="1.0"><defs><clipPath id="df15907728"><path d="M 18.75 83.183594 L 356.25 83.183594 L 356.25 291.683594 L 18.75 291.683594 Z M 18.75 83.183594 " clip-rule="nonzero"/></clipPath><clipPath id="189f2ea6e4"><path d="M 133 83.183594 L 312 83.183594 L 312 291.683594 L 133 291.683594 Z M 133 83.183594 " clip-rule="nonzero"/></clipPath><clipPath id="4bbfd23e40"><path d="M 19 83.183594 L 356 83.183594 L 356 280 L 19 280 Z M 19 83.183594 " clip-rule="nonzero"/></clipPath><clipPath id="58c8621007"><path d="M 18.75 83.183594 L 356.25 83.183594 L 356.25 291.683594 L 18.75 291.683594 Z M 18.75 83.183594 " clip-rule="nonzero"/></clipPath></defs><g clip-path="url(#df15907728)"><path fill="#1c2628" d="M 241.933594 291.539062 C 241.414062 291.539062 240.894531 291.488281 240.390625 291.390625 C 239.527344 291.222656 238.707031 290.917969 237.945312 290.480469 L 21.003906 166.050781 C 19.675781 165.289062 18.886719 163.917969 18.886719 162.386719 L 18.910156 150.984375 C 18.910156 150.925781 18.914062 150.871094 18.917969 150.8125 L 18.929688 150.628906 C 18.933594 150.5625 18.9375 150.496094 18.945312 150.429688 C 18.949219 150.390625 18.957031 150.355469 18.964844 150.320312 L 19.011719 150.09375 C 19.027344 149.992188 19.039062 149.9375 19.050781 149.886719 C 19.058594 149.863281 19.097656 149.753906 19.097656 149.753906 C 19.144531 149.601562 19.179688 149.480469 19.226562 149.367188 C 19.234375 149.359375 19.265625 149.289062 19.269531 149.277344 C 19.332031 149.140625 19.394531 149.007812 19.464844 148.882812 L 19.507812 148.820312 C 19.554688 148.738281 19.609375 148.664062 19.664062 148.585938 C 19.664062 148.585938 19.746094 148.460938 19.765625 148.433594 L 19.878906 148.304688 C 19.980469 148.183594 20.046875 148.101562 20.125 148.027344 L 20.214844 147.945312 C 20.46875 147.703125 20.726562 147.507812 21.003906 147.347656 L 129.042969 84.5625 C 129.210938 84.464844 129.382812 84.375 129.554688 84.289062 C 129.609375 84.265625 129.785156 84.183594 129.785156 84.183594 C 129.878906 84.144531 129.972656 84.101562 130.066406 84.0625 L 130.382812 83.945312 L 130.574219 83.878906 C 130.699219 83.835938 130.824219 83.800781 130.953125 83.765625 L 131.054688 83.738281 C 131.175781 83.707031 131.273438 83.691406 131.367188 83.675781 L 131.53125 83.644531 C 131.8125 83.589844 132.097656 83.550781 132.375 83.527344 L 132.515625 83.511719 C 132.664062 83.5 132.816406 83.484375 132.972656 83.484375 C 132.972656 83.484375 133.03125 83.480469 133.035156 83.480469 C 133.210938 83.480469 133.34375 83.488281 133.472656 83.492188 L 133.75 83.507812 C 133.792969 83.511719 133.839844 83.511719 133.886719 83.519531 L 134.007812 83.535156 C 134.214844 83.5625 134.421875 83.59375 134.625 83.632812 C 134.691406 83.644531 134.753906 83.660156 134.816406 83.675781 L 134.894531 83.691406 C 135.050781 83.730469 135.203125 83.769531 135.355469 83.816406 L 135.4375 83.839844 C 135.488281 83.855469 135.539062 83.867188 135.589844 83.886719 C 135.800781 83.957031 136.007812 84.035156 136.214844 84.121094 L 136.410156 84.210938 C 136.628906 84.3125 136.847656 84.417969 137.058594 84.539062 L 220.894531 132.625 C 220.914062 132.636719 220.9375 132.644531 220.960938 132.644531 C 220.984375 132.644531 221.007812 132.636719 221.03125 132.625 L 297.609375 88.414062 C 298.476562 87.910156 299.316406 87.65625 300.097656 87.65625 C 300.664062 87.65625 301.179688 87.792969 301.640625 88.058594 L 311.3125 93.679688 C 311.320312 93.683594 311.328125 93.691406 311.339844 93.695312 L 311.332031 93.691406 C 312.414062 94.324219 313.011719 95.605469 313.019531 97.304688 L 313.164062 177.691406 C 313.171875 179.695312 312.308594 182.074219 310.859375 184.050781 C 310.839844 184.085938 310.828125 184.125 310.839844 184.160156 C 310.847656 184.199219 310.871094 184.234375 310.902344 184.253906 L 353.996094 208.96875 C 354.824219 209.445312 355.449219 210.160156 355.800781 211.035156 C 355.851562 211.15625 355.894531 211.28125 355.933594 211.410156 C 355.933594 211.414062 355.960938 211.496094 355.972656 211.515625 L 355.964844 211.507812 C 355.988281 211.59375 356.003906 211.683594 356.019531 211.773438 L 356.054688 211.941406 C 356.0625 211.980469 356.070312 212.015625 356.074219 212.054688 C 356.082031 212.117188 356.085938 212.183594 356.089844 212.246094 L 356.101562 212.441406 C 356.105469 212.5 356.113281 212.554688 356.113281 212.613281 L 356.097656 224.035156 C 356.09375 225.550781 355.308594 226.910156 354 227.671875 L 245.960938 290.457031 C 245.039062 290.992188 244.035156 291.335938 242.976562 291.472656 C 242.628906 291.519531 242.277344 291.539062 241.933594 291.539062 Z M 241.933594 291.539062 " fill-opacity="1" fill-rule="nonzero"/></g><path fill="#386641" d="M 312.605469 97.308594 C 312.601562 95.699219 312.03125 94.570312 311.113281 94.042969 C 311.050781 94.007812 310.980469 93.980469 310.914062 93.949219 C 310.859375 93.921875 310.808594 93.894531 310.75 93.871094 C 310.683594 93.847656 310.609375 93.828125 310.535156 93.808594 C 310.476562 93.792969 310.417969 93.773438 310.359375 93.757812 C 310.28125 93.746094 310.203125 93.738281 310.125 93.730469 C 310.0625 93.722656 310 93.710938 309.9375 93.707031 C 309.855469 93.703125 309.773438 93.710938 309.6875 93.710938 C 309.625 93.714844 309.558594 93.710938 309.492188 93.71875 C 309.402344 93.726562 309.3125 93.742188 309.226562 93.757812 C 309.15625 93.769531 309.089844 93.773438 309.023438 93.789062 C 308.925781 93.808594 308.828125 93.84375 308.734375 93.871094 C 308.667969 93.890625 308.601562 93.902344 308.53125 93.925781 C 308.425781 93.964844 308.3125 94.011719 308.203125 94.058594 C 308.144531 94.082031 308.085938 94.101562 308.027344 94.128906 C 307.871094 94.203125 307.710938 94.285156 307.550781 94.375 C 307.535156 94.386719 307.519531 94.390625 307.503906 94.402344 L 286.511719 106.519531 L 230.714844 138.734375 L 224.023438 142.597656 L 213.792969 148.503906 C 213.089844 148.910156 212.421875 149.460938 211.816406 150.105469 C 211.796875 150.125 211.78125 150.148438 211.761719 150.167969 C 209.96875 152.105469 208.71875 154.886719 208.726562 157.28125 L 208.828125 212.964844 L 208.851562 226.558594 L 208.875 237.667969 C 208.875 237.671875 208.875 237.675781 208.875 237.675781 C 208.875 237.875 208.882812 238.066406 208.902344 238.246094 C 208.90625 238.3125 208.921875 238.371094 208.929688 238.4375 C 208.945312 238.550781 208.957031 238.671875 208.980469 238.78125 C 208.996094 238.851562 209.015625 238.917969 209.03125 238.988281 C 209.054688 239.082031 209.078125 239.179688 209.105469 239.265625 C 209.128906 239.335938 209.15625 239.398438 209.183594 239.464844 C 209.214844 239.546875 209.242188 239.628906 209.277344 239.703125 C 209.304688 239.765625 209.34375 239.820312 209.375 239.882812 C 209.414062 239.953125 209.449219 240.027344 209.492188 240.089844 C 209.527344 240.144531 209.570312 240.191406 209.609375 240.246094 C 209.652344 240.304688 209.695312 240.371094 209.746094 240.425781 C 209.789062 240.472656 209.835938 240.511719 209.878906 240.554688 C 209.933594 240.605469 209.980469 240.660156 210.039062 240.707031 C 210.085938 240.746094 210.140625 240.777344 210.1875 240.8125 C 211.125 241.464844 212.472656 241.441406 213.972656 240.574219 L 216.054688 239.371094 L 221.804688 236.050781 L 244.085938 223.1875 L 245.550781 222.34375 C 247.257812 221.359375 248.847656 221.242188 249.996094 221.929688 C 250.121094 222.003906 250.242188 222.085938 250.355469 222.179688 C 250.375 222.195312 250.390625 222.210938 250.410156 222.226562 C 250.503906 222.308594 250.59375 222.398438 250.679688 222.492188 C 250.714844 222.527344 250.746094 222.566406 250.777344 222.601562 C 250.847656 222.6875 250.914062 222.777344 250.980469 222.875 C 251.007812 222.914062 251.035156 222.953125 251.0625 222.996094 C 251.144531 223.132812 251.226562 223.277344 251.296875 223.433594 L 259.527344 241.332031 C 259.566406 241.414062 259.609375 241.480469 259.660156 241.539062 C 259.671875 241.554688 259.691406 241.570312 259.707031 241.585938 C 259.742188 241.621094 259.78125 241.65625 259.820312 241.683594 C 260.113281 241.871094 260.507812 241.824219 260.910156 241.59375 C 261.472656 241.269531 262.03125 240.59375 262.285156 239.742188 L 270.386719 212.410156 C 271.339844 209.191406 273.601562 206.148438 276.109375 204.699219 L 304.109375 188.53125 L 307.6875 186.46875 C 308.585938 185.949219 309.425781 185.191406 310.15625 184.300781 C 311.710938 182.402344 312.757812 179.886719 312.753906 177.691406 Z M 281.792969 168.03125 L 275.390625 171.730469 L 275.390625 172.058594 L 275.464844 197.703125 L 257.730469 207.941406 L 257.65625 181.96875 L 235.050781 195.019531 L 234.992188 174.640625 L 257.371094 161.722656 L 257.597656 161.589844 L 257.578125 154.140625 L 257.523438 135.617188 L 275.257812 125.378906 L 275.332031 151.351562 L 297.941406 138.296875 L 298 158.675781 Z M 281.792969 168.03125 " fill-opacity="1" fill-rule="nonzero"/><path fill="#d7907b" d="M 19.335938 150.734375 C 19.332031 150.820312 19.320312 150.910156 19.320312 151 L 19.320312 150.984375 C 19.320312 150.898438 19.332031 150.816406 19.335938 150.734375 Z M 19.703125 149.332031 C 19.664062 149.414062 19.621094 149.496094 19.585938 149.582031 C 19.605469 149.539062 19.628906 149.492188 19.648438 149.449219 C 19.667969 149.410156 19.6875 149.371094 19.703125 149.332031 Z M 19.800781 152.851562 C 19.5625 152.421875 19.414062 151.957031 19.351562 151.480469 C 19.332031 151.320312 19.320312 151.160156 19.320312 151 L 19.300781 162.386719 C 19.296875 163.671875 19.933594 164.960938 21.210938 165.691406 L 238.148438 290.125 L 238.167969 278.71875 L 21.230469 154.289062 C 20.597656 153.921875 20.121094 153.421875 19.800781 152.851562 Z M 259.820312 241.683594 C 259.78125 241.65625 259.742188 241.621094 259.707031 241.585938 C 259.691406 241.570312 259.671875 241.554688 259.660156 241.539062 C 259.609375 241.480469 259.566406 241.414062 259.527344 241.332031 L 251.296875 223.433594 C 251.226562 223.277344 251.144531 223.132812 251.0625 222.996094 C 251.035156 222.953125 251.007812 222.914062 250.980469 222.875 C 250.914062 222.777344 250.847656 222.6875 250.777344 222.601562 C 250.746094 222.566406 250.714844 222.527344 250.679688 222.492188 C 250.59375 222.398438 250.503906 222.308594 250.410156 222.226562 C 250.390625 222.210938 250.375 222.195312 250.355469 222.179688 C 250.242188 222.085938 250.121094 222.003906 249.996094 221.929688 C 248.847656 221.242188 247.257812 221.359375 245.550781 222.34375 L 244.085938 223.1875 L 249.839844 235.703125 C 249.921875 235.875 250.03125 236 250.160156 236.074219 L 259.851562 241.707031 C 259.839844 241.699219 259.832031 241.6875 259.820312 241.683594 Z M 199.144531 209.28125 L 199.183594 232.035156 C 199.191406 233.640625 199.753906 234.765625 200.667969 235.296875 L 210.355469 240.929688 C 210.296875 240.894531 210.246094 240.851562 210.1875 240.8125 C 210.140625 240.777344 210.085938 240.746094 210.039062 240.707031 C 209.980469 240.660156 209.933594 240.605469 209.878906 240.554688 C 209.835938 240.511719 209.789062 240.472656 209.746094 240.425781 C 209.695312 240.371094 209.652344 240.304688 209.609375 240.246094 C 209.570312 240.191406 209.527344 240.144531 209.492188 240.089844 C 209.449219 240.027344 209.414062 239.953125 209.375 239.882812 C 209.34375 239.820312 209.304688 239.765625 209.277344 239.703125 C 209.242188 239.628906 209.214844 239.546875 209.183594 239.464844 C 209.15625 239.398438 209.128906 239.335938 209.105469 239.265625 C 209.078125 239.179688 209.054688 239.082031 209.03125 238.988281 C 209.015625 238.917969 208.996094 238.851562 208.980469 238.78125 C 208.957031 238.671875 208.945312 238.550781 208.929688 238.4375 C 208.921875 238.371094 208.90625 238.3125 208.902344 238.246094 C 208.882812 238.066406 208.875 237.875 208.875 237.675781 C 208.875 237.675781 208.875 237.671875 208.875 237.667969 L 208.851562 226.558594 L 208.828125 212.964844 L 208.726562 157.28125 L 199.039062 151.652344 L 199.117188 195.6875 Z M 199.144531 209.28125 " fill-opacity="1" fill-rule="nonzero"/><g clip-path="url(#189f2ea6e4)"><path fill="#fefae0" d="M 133.84375 83.929688 C 133.863281 83.929688 133.882812 83.9375 133.90625 83.9375 C 133.84375 83.929688 133.785156 83.925781 133.726562 83.921875 C 133.765625 83.925781 133.804688 83.925781 133.84375 83.929688 Z M 242.613281 279.691406 C 242.546875 279.699219 242.480469 279.707031 242.414062 279.710938 C 241.179688 279.785156 239.9375 279.558594 238.789062 279.035156 C 238.578125 278.9375 238.371094 278.835938 238.167969 278.71875 L 238.148438 290.125 C 240.507812 291.476562 243.402344 291.464844 245.753906 290.101562 L 245.769531 278.695312 C 245.203125 279.027344 244.601562 279.277344 243.984375 279.445312 C 243.53125 279.570312 243.074219 279.652344 242.613281 279.691406 Z M 301.433594 88.417969 C 300.507812 87.878906 299.230469 87.953125 297.816406 88.769531 L 307.503906 94.402344 C 307.519531 94.390625 307.535156 94.386719 307.550781 94.375 C 307.710938 94.285156 307.871094 94.203125 308.027344 94.128906 C 308.085938 94.101562 308.144531 94.082031 308.203125 94.058594 C 308.3125 94.011719 308.425781 93.964844 308.53125 93.925781 C 308.601562 93.902344 308.667969 93.890625 308.734375 93.871094 C 308.828125 93.84375 308.925781 93.808594 309.023438 93.789062 C 309.089844 93.773438 309.15625 93.769531 309.226562 93.757812 C 309.3125 93.742188 309.402344 93.726562 309.492188 93.71875 C 309.558594 93.710938 309.625 93.714844 309.6875 93.710938 C 309.773438 93.710938 309.855469 93.703125 309.9375 93.707031 C 310 93.710938 310.0625 93.722656 310.125 93.730469 C 310.203125 93.738281 310.28125 93.746094 310.359375 93.757812 C 310.417969 93.773438 310.476562 93.792969 310.535156 93.808594 C 310.609375 93.828125 310.683594 93.847656 310.75 93.871094 C 310.808594 93.894531 310.859375 93.921875 310.914062 93.949219 C 310.980469 93.980469 311.050781 94.007812 311.113281 94.042969 C 311.117188 94.042969 311.117188 94.046875 311.121094 94.046875 Z M 199.039062 151.652344 L 208.726562 157.28125 C 208.722656 155.785156 209.207031 154.136719 210.011719 152.636719 C 210.496094 151.738281 211.089844 150.894531 211.761719 150.167969 C 211.78125 150.148438 211.796875 150.125 211.816406 150.105469 C 212.421875 149.460938 213.089844 148.910156 213.792969 148.503906 L 204.105469 142.875 C 201.296875 144.496094 199.027344 148.425781 199.039062 151.652344 Z M 199.039062 151.652344 " fill-opacity="1" fill-rule="nonzero"/></g><g clip-path="url(#4bbfd23e40)"><path fill="#ffffff" d="M 355.625 213.390625 C 355.582031 213.605469 355.519531 213.820312 355.4375 214.027344 C 355.140625 214.777344 354.597656 215.453125 353.808594 215.910156 L 245.769531 278.695312 C 245.203125 279.027344 244.601562 279.277344 243.984375 279.445312 C 243.53125 279.570312 243.074219 279.652344 242.613281 279.691406 C 242.546875 279.699219 242.480469 279.707031 242.414062 279.710938 C 241.179688 279.785156 239.9375 279.558594 238.789062 279.035156 C 238.578125 278.9375 238.371094 278.835938 238.167969 278.71875 L 21.230469 154.289062 C 20.597656 153.921875 20.121094 153.421875 19.800781 152.851562 C 19.5625 152.421875 19.414062 151.957031 19.351562 151.480469 C 19.332031 151.320312 19.320312 151.160156 19.320312 151 C 19.320312 150.910156 19.332031 150.820312 19.335938 150.734375 C 19.339844 150.660156 19.339844 150.585938 19.351562 150.515625 C 19.355469 150.480469 19.363281 150.445312 19.371094 150.410156 C 19.378906 150.355469 19.390625 150.304688 19.398438 150.25 C 19.410156 150.199219 19.417969 150.152344 19.425781 150.101562 C 19.429688 150.082031 19.433594 150.0625 19.4375 150.042969 C 19.453125 149.992188 19.46875 149.945312 19.484375 149.894531 C 19.5 149.859375 19.507812 149.820312 19.523438 149.785156 C 19.527344 149.769531 19.53125 149.753906 19.539062 149.734375 C 19.554688 149.683594 19.566406 149.632812 19.585938 149.582031 C 19.605469 149.539062 19.628906 149.492188 19.648438 149.449219 C 19.667969 149.410156 19.6875 149.371094 19.703125 149.332031 C 19.722656 149.292969 19.742188 149.257812 19.757812 149.21875 C 19.769531 149.195312 19.78125 149.167969 19.792969 149.144531 C 19.804688 149.125 19.820312 149.105469 19.832031 149.085938 C 19.867188 149.023438 19.910156 148.964844 19.949219 148.902344 C 19.984375 148.847656 20.015625 148.785156 20.058594 148.730469 C 20.117188 148.652344 20.1875 148.578125 20.25 148.503906 C 20.296875 148.453125 20.335938 148.398438 20.382812 148.347656 C 20.457031 148.273438 20.542969 148.203125 20.625 148.132812 C 20.671875 148.089844 20.714844 148.042969 20.769531 148.003906 C 20.90625 147.894531 21.054688 147.796875 21.210938 147.703125 L 129.25 84.917969 C 129.25 84.917969 129.25 84.917969 129.253906 84.917969 C 129.398438 84.832031 129.542969 84.757812 129.691406 84.683594 C 129.710938 84.675781 129.730469 84.664062 129.746094 84.65625 C 129.746094 84.65625 129.746094 84.65625 129.75 84.65625 C 129.800781 84.628906 129.859375 84.605469 129.914062 84.582031 C 129.929688 84.574219 129.949219 84.566406 129.964844 84.558594 C 130.0625 84.511719 130.164062 84.46875 130.261719 84.429688 C 130.304688 84.414062 130.347656 84.398438 130.390625 84.382812 C 130.414062 84.375 130.433594 84.363281 130.457031 84.355469 C 130.511719 84.335938 130.566406 84.3125 130.621094 84.292969 C 130.679688 84.273438 130.738281 84.257812 130.796875 84.242188 C 130.816406 84.234375 130.839844 84.226562 130.859375 84.222656 C 130.902344 84.207031 130.949219 84.195312 130.992188 84.183594 C 131.113281 84.148438 131.234375 84.117188 131.359375 84.089844 C 131.402344 84.078125 131.445312 84.066406 131.484375 84.058594 C 131.5 84.054688 131.515625 84.050781 131.527344 84.046875 C 131.617188 84.03125 131.707031 84.019531 131.800781 84.003906 C 131.890625 83.988281 131.980469 83.96875 132.070312 83.957031 C 132.078125 83.953125 132.085938 83.953125 132.089844 83.953125 C 132.265625 83.929688 132.441406 83.914062 132.617188 83.90625 C 132.671875 83.902344 132.730469 83.902344 132.789062 83.898438 C 132.914062 83.894531 133.039062 83.890625 133.167969 83.894531 C 133.222656 83.894531 133.28125 83.894531 133.335938 83.898438 C 133.347656 83.898438 133.359375 83.898438 133.367188 83.898438 C 133.421875 83.902344 133.480469 83.90625 133.535156 83.910156 C 133.597656 83.914062 133.660156 83.914062 133.726562 83.921875 C 133.785156 83.925781 133.84375 83.929688 133.90625 83.9375 C 134.132812 83.964844 134.359375 83.996094 134.582031 84.042969 C 134.617188 84.050781 134.648438 84.058594 134.679688 84.066406 C 134.6875 84.066406 134.691406 84.066406 134.699219 84.070312 C 134.800781 84.09375 134.902344 84.125 135.003906 84.148438 C 135.105469 84.175781 135.210938 84.199219 135.308594 84.230469 C 135.347656 84.242188 135.382812 84.25 135.417969 84.261719 C 135.511719 84.292969 135.601562 84.328125 135.691406 84.359375 C 135.820312 84.40625 135.945312 84.457031 136.070312 84.507812 C 136.074219 84.511719 136.082031 84.515625 136.089844 84.519531 C 136.128906 84.535156 136.167969 84.554688 136.210938 84.570312 C 136.425781 84.671875 136.644531 84.777344 136.851562 84.898438 L 220.964844 133.140625 L 297.816406 88.769531 L 307.503906 94.402344 L 286.511719 106.519531 L 230.714844 138.734375 L 224.023438 142.597656 L 213.792969 148.503906 L 204.105469 142.875 C 201.296875 144.496094 199.027344 148.425781 199.039062 151.652344 L 199.117188 195.6875 L 199.144531 209.28125 L 199.183594 232.035156 C 199.191406 233.640625 199.753906 234.765625 200.667969 235.296875 L 210.355469 240.929688 C 210.296875 240.894531 210.246094 240.851562 210.1875 240.8125 C 211.125 241.464844 212.472656 241.441406 213.972656 240.574219 L 216.054688 239.371094 L 221.804688 236.050781 L 244.085938 223.1875 L 249.839844 235.703125 C 249.921875 235.875 250.03125 236 250.160156 236.074219 L 259.851562 241.707031 C 259.839844 241.699219 259.832031 241.6875 259.820312 241.683594 C 260.113281 241.871094 260.507812 241.824219 260.910156 241.59375 C 261.472656 241.269531 262.03125 240.59375 262.285156 239.742188 L 270.386719 212.410156 C 271.339844 209.191406 273.601562 206.148438 276.109375 204.699219 L 304.109375 188.53125 L 307.6875 186.46875 C 308.585938 185.949219 309.425781 185.191406 310.15625 184.300781 L 353.789062 209.328125 C 355.316406 210.203125 355.929688 211.875 355.625 213.390625 Z M 281.792969 168.03125 L 298 158.675781 L 297.941406 138.296875 L 275.332031 151.351562 L 275.257812 125.378906 L 257.523438 135.617188 L 257.578125 154.140625 L 257.597656 161.589844 L 257.371094 161.722656 L 234.992188 174.640625 L 235.050781 195.019531 L 257.65625 181.96875 L 257.730469 207.941406 L 275.464844 197.703125 L 275.390625 172.058594 L 275.390625 171.730469 Z M 281.792969 168.03125 " fill-opacity="1" fill-rule="nonzero"/></g><g clip-path="url(#58c8621007)"><path fill="#1c2628" d="M 356.25 212.613281 C 356.25 212.515625 356.238281 212.425781 356.230469 212.332031 C 356.226562 212.234375 356.222656 212.132812 356.210938 212.035156 C 356.203125 211.96875 356.183594 211.898438 356.171875 211.832031 C 356.148438 211.710938 356.128906 211.589844 356.097656 211.472656 C 356.097656 211.472656 356.097656 211.472656 356.097656 211.46875 C 356.089844 211.4375 356.074219 211.40625 356.0625 211.371094 C 356.023438 211.238281 355.980469 211.109375 355.929688 210.984375 C 355.574219 210.097656 354.933594 209.347656 354.0625 208.851562 L 310.972656 184.132812 C 312.382812 182.207031 313.308594 179.804688 313.300781 177.691406 L 313.15625 97.304688 C 313.148438 95.554688 312.527344 94.230469 311.398438 93.574219 C 311.398438 93.574219 311.398438 93.570312 311.398438 93.570312 L 311.394531 93.570312 C 311.390625 93.566406 311.390625 93.566406 311.386719 93.566406 C 311.386719 93.5625 311.382812 93.5625 311.378906 93.5625 L 301.710938 87.941406 L 301.707031 87.941406 C 300.566406 87.277344 299.085938 87.402344 297.542969 88.292969 L 220.960938 132.507812 L 137.128906 84.421875 C 136.910156 84.296875 136.691406 84.1875 136.464844 84.085938 C 136.398438 84.054688 136.335938 84.023438 136.269531 83.996094 C 136.058594 83.90625 135.847656 83.828125 135.632812 83.753906 C 135.554688 83.730469 135.476562 83.707031 135.394531 83.683594 C 135.238281 83.636719 135.082031 83.597656 134.925781 83.558594 C 134.835938 83.539062 134.746094 83.515625 134.652344 83.496094 C 134.445312 83.457031 134.234375 83.425781 134.023438 83.402344 C 133.980469 83.394531 133.941406 83.386719 133.898438 83.382812 C 133.816406 83.375 133.738281 83.371094 133.65625 83.367188 C 133.605469 83.363281 133.550781 83.359375 133.5 83.355469 C 133.492188 83.355469 133.488281 83.355469 133.480469 83.355469 C 133.347656 83.347656 133.214844 83.34375 133.078125 83.34375 C 133.078125 83.34375 133.074219 83.34375 133.070312 83.34375 C 133.042969 83.34375 133.015625 83.34375 132.992188 83.34375 C 132.984375 83.34375 132.976562 83.34375 132.96875 83.34375 C 132.765625 83.347656 132.5625 83.371094 132.363281 83.390625 C 132.074219 83.414062 131.789062 83.453125 131.503906 83.511719 C 131.351562 83.539062 131.199219 83.558594 131.050781 83.597656 C 131.039062 83.601562 131.03125 83.601562 131.019531 83.605469 C 130.984375 83.613281 130.949219 83.621094 130.917969 83.632812 C 130.785156 83.667969 130.65625 83.707031 130.527344 83.75 C 130.464844 83.769531 130.402344 83.792969 130.335938 83.816406 C 130.265625 83.839844 130.191406 83.867188 130.121094 83.894531 C 130.089844 83.910156 130.058594 83.917969 130.027344 83.933594 C 130.023438 83.933594 130.019531 83.933594 130.015625 83.9375 C 129.917969 83.976562 129.824219 84.015625 129.730469 84.058594 C 129.652344 84.09375 129.574219 84.128906 129.496094 84.167969 C 129.320312 84.253906 129.144531 84.34375 128.972656 84.445312 L 20.9375 147.226562 C 20.632812 147.402344 20.363281 147.613281 20.117188 147.847656 C 20.089844 147.875 20.054688 147.898438 20.027344 147.929688 C 19.933594 148.019531 19.855469 148.117188 19.773438 148.214844 C 19.757812 148.234375 19.742188 148.25 19.730469 148.269531 C 19.703125 148.296875 19.679688 148.320312 19.65625 148.351562 C 19.628906 148.386719 19.601562 148.429688 19.574219 148.472656 C 19.511719 148.5625 19.449219 148.652344 19.390625 148.75 C 19.375 148.773438 19.359375 148.792969 19.347656 148.8125 C 19.273438 148.945312 19.207031 149.082031 19.148438 149.21875 C 19.144531 149.226562 19.140625 149.234375 19.136719 149.242188 C 19.136719 149.246094 19.132812 149.25 19.132812 149.25 C 19.121094 149.273438 19.109375 149.292969 19.101562 149.316406 C 19.050781 149.441406 19.011719 149.570312 18.96875 149.699219 C 18.96875 149.703125 18.964844 149.710938 18.964844 149.714844 C 18.953125 149.761719 18.933594 149.804688 18.917969 149.851562 C 18.902344 149.921875 18.890625 149.996094 18.875 150.070312 C 18.867188 150.109375 18.859375 150.152344 18.851562 150.191406 C 18.847656 150.214844 18.84375 150.234375 18.839844 150.257812 C 18.828125 150.308594 18.816406 150.359375 18.808594 150.410156 C 18.796875 150.507812 18.796875 150.609375 18.789062 150.710938 C 18.785156 150.800781 18.769531 150.890625 18.769531 150.984375 L 18.75 162.386719 C 18.746094 163.96875 19.566406 165.382812 20.9375 166.167969 L 237.875 290.601562 C 238.660156 291.050781 239.5 291.359375 240.363281 291.527344 C 240.882812 291.628906 241.40625 291.675781 241.933594 291.675781 C 242.285156 291.675781 242.640625 291.65625 242.992188 291.609375 C 244.046875 291.472656 245.082031 291.128906 246.027344 290.578125 L 354.070312 227.792969 C 355.421875 227.003906 356.230469 225.601562 356.234375 224.035156 L 356.25 212.628906 C 356.25 212.628906 356.25 212.625 356.25 212.621094 C 356.25 212.617188 356.25 212.613281 356.25 212.613281 Z M 222.066406 133.140625 L 297.816406 89.40625 L 305.164062 93.675781 L 306.40625 94.398438 L 230.714844 138.101562 L 230.164062 138.417969 L 229.613281 138.738281 L 224.023438 141.964844 L 222.921875 142.597656 L 213.792969 147.871094 L 206.445312 143.597656 L 205.203125 142.875 L 214.273438 137.636719 L 215.375 137.003906 L 220.964844 133.773438 Z M 301.15625 88.890625 L 308.730469 93.292969 C 308.675781 93.304688 308.625 93.328125 308.570312 93.34375 C 308.460938 93.378906 308.347656 93.414062 308.234375 93.453125 C 308.152344 93.484375 308.070312 93.519531 307.984375 93.554688 C 307.871094 93.601562 307.757812 93.652344 307.644531 93.710938 C 307.601562 93.730469 307.558594 93.746094 307.511719 93.769531 L 299 88.824219 C 299.828125 88.535156 300.574219 88.554688 301.15625 88.890625 Z M 353.878906 210.042969 C 353.949219 210.097656 354.015625 210.160156 354.082031 210.21875 C 354.121094 210.253906 354.164062 210.289062 354.203125 210.324219 C 354.269531 210.394531 354.332031 210.46875 354.394531 210.542969 C 354.421875 210.574219 354.453125 210.605469 354.480469 210.640625 C 354.539062 210.71875 354.589844 210.796875 354.640625 210.878906 C 354.664062 210.914062 354.691406 210.949219 354.714844 210.988281 C 354.757812 211.066406 354.796875 211.148438 354.832031 211.226562 C 354.855469 211.273438 354.882812 211.320312 354.902344 211.367188 C 354.933594 211.441406 354.953125 211.515625 354.980469 211.59375 C 354.996094 211.652344 355.023438 211.707031 355.039062 211.765625 C 355.054688 211.835938 355.066406 211.910156 355.082031 211.980469 C 355.09375 212.046875 355.113281 212.117188 355.121094 212.1875 C 355.128906 212.253906 355.128906 212.324219 355.136719 212.390625 C 355.140625 212.464844 355.148438 212.539062 355.148438 212.613281 C 355.148438 212.617188 355.148438 212.621094 355.148438 212.621094 C 355.148438 212.765625 355.140625 212.910156 355.125 213.050781 C 354.996094 214.046875 354.421875 214.917969 353.53125 215.4375 L 245.976562 277.941406 L 245.5 278.21875 L 245.496094 278.222656 C 245.335938 278.3125 245.171875 278.382812 245.007812 278.460938 C 242.96875 279.441406 240.5625 279.394531 238.5625 278.300781 C 238.523438 278.277344 238.480469 278.261719 238.441406 278.242188 L 237.640625 277.78125 L 236.710938 277.25 L 21.503906 153.8125 C 20.484375 153.226562 19.875 152.175781 19.871094 151 C 19.871094 150.921875 19.878906 150.847656 19.882812 150.773438 C 19.890625 150.703125 19.890625 150.628906 19.898438 150.558594 C 19.90625 150.496094 19.921875 150.4375 19.933594 150.375 C 19.949219 150.296875 19.960938 150.214844 19.980469 150.140625 C 19.996094 150.085938 20.015625 150.035156 20.035156 149.984375 C 20.058594 149.902344 20.082031 149.820312 20.117188 149.742188 C 20.136719 149.6875 20.164062 149.640625 20.1875 149.59375 C 20.226562 149.515625 20.257812 149.4375 20.300781 149.367188 C 20.300781 149.367188 20.300781 149.367188 20.300781 149.363281 C 20.3125 149.34375 20.328125 149.324219 20.339844 149.304688 C 20.367188 149.265625 20.394531 149.222656 20.421875 149.183594 C 20.457031 149.128906 20.492188 149.070312 20.53125 149.019531 C 20.5625 148.976562 20.601562 148.941406 20.636719 148.898438 C 20.679688 148.847656 20.722656 148.792969 20.773438 148.742188 C 20.785156 148.730469 20.796875 148.714844 20.808594 148.703125 C 20.859375 148.648438 20.917969 148.605469 20.976562 148.554688 C 21.027344 148.511719 21.074219 148.460938 21.128906 148.421875 C 21.242188 148.332031 21.363281 148.253906 21.488281 148.179688 L 116.40625 93.019531 L 129.042969 85.675781 L 129.519531 85.398438 L 129.527344 85.394531 C 129.667969 85.3125 129.820312 85.246094 129.96875 85.175781 C 129.980469 85.167969 129.996094 85.160156 130.011719 85.152344 C 130.121094 85.101562 130.226562 85.039062 130.339844 84.992188 C 130.355469 84.984375 130.367188 84.980469 130.382812 84.972656 C 130.417969 84.960938 130.449219 84.949219 130.484375 84.9375 C 130.691406 84.855469 130.898438 84.785156 131.109375 84.722656 C 131.234375 84.6875 131.359375 84.660156 131.484375 84.628906 C 131.621094 84.597656 131.761719 84.570312 131.902344 84.546875 C 132.03125 84.523438 132.164062 84.503906 132.292969 84.488281 C 132.464844 84.46875 132.640625 84.460938 132.8125 84.453125 C 132.898438 84.453125 132.984375 84.441406 133.070312 84.441406 C 133.355469 84.441406 133.640625 84.460938 133.925781 84.496094 C 133.929688 84.496094 133.929688 84.496094 133.929688 84.496094 C 133.980469 84.503906 134.023438 84.511719 134.070312 84.519531 C 134.078125 84.519531 134.085938 84.523438 134.09375 84.523438 C 134.320312 84.554688 134.542969 84.597656 134.765625 84.65625 C 134.769531 84.65625 134.773438 84.65625 134.777344 84.65625 C 134.832031 84.671875 134.890625 84.683594 134.949219 84.699219 C 134.960938 84.703125 134.96875 84.707031 134.980469 84.710938 C 135.191406 84.769531 135.398438 84.839844 135.605469 84.921875 C 135.632812 84.929688 135.65625 84.9375 135.683594 84.945312 C 135.707031 84.957031 135.734375 84.964844 135.761719 84.972656 C 135.777344 84.980469 135.789062 84.988281 135.804688 84.996094 C 136.027344 85.089844 136.242188 85.199219 136.457031 85.3125 C 136.496094 85.335938 136.539062 85.351562 136.578125 85.375 L 137.378906 85.832031 L 138.308594 86.367188 L 219.859375 133.140625 L 214.269531 136.371094 L 143.644531 95.859375 L 142.714844 95.328125 L 141.785156 94.792969 L 134.859375 90.820312 C 134.773438 90.769531 134.679688 90.746094 134.582031 90.746094 C 134.535156 90.746094 134.488281 90.753906 134.441406 90.765625 C 134.394531 90.777344 134.351562 90.796875 134.308594 90.820312 L 133.472656 91.308594 L 132.996094 91.585938 L 132.519531 91.859375 L 117.863281 100.378906 L 95.03125 113.648438 C 95.03125 113.648438 95.03125 113.648438 95.027344 113.648438 C 94.890625 113.730469 94.792969 113.871094 94.765625 114.03125 C 94.742188 114.160156 94.78125 114.28125 94.84375 114.390625 C 94.859375 114.421875 94.867188 114.457031 94.890625 114.484375 L 95.191406 114.828125 L 99.601562 119.90625 C 99.734375 120.058594 99.789062 120.210938 99.765625 120.355469 C 99.730469 120.566406 99.53125 120.792969 99.214844 120.976562 L 81.007812 131.554688 C 80.277344 131.980469 79.09375 132.089844 78.136719 131.816406 L 69.960938 129.488281 L 69.226562 129.277344 L 68.71875 129.132812 C 68.570312 129.09375 68.417969 129.113281 68.289062 129.1875 L 30.121094 151.367188 C 29.949219 151.46875 29.847656 151.648438 29.847656 151.847656 C 29.847656 152.042969 29.953125 152.222656 30.125 152.320312 L 231.375 267.753906 L 232.308594 268.289062 L 233.238281 268.824219 L 240.164062 272.792969 C 240.246094 272.84375 240.339844 272.867188 240.4375 272.867188 C 240.53125 272.867188 240.628906 272.84375 240.710938 272.792969 L 241.550781 272.308594 L 242.023438 272.03125 L 242.5 271.753906 L 344.898438 212.246094 C 345.070312 212.148438 345.175781 211.964844 345.175781 211.769531 C 345.171875 211.574219 345.070312 211.390625 344.898438 211.292969 L 305.210938 188.53125 L 307.960938 186.945312 C 308.789062 186.464844 309.570312 185.792969 310.269531 185 L 353.515625 209.804688 C 353.644531 209.878906 353.765625 209.957031 353.878906 210.042969 Z M 212.75 148.535156 C 212.683594 148.582031 212.621094 148.636719 212.558594 148.6875 C 212.5 148.734375 212.441406 148.777344 212.386719 148.824219 C 212.257812 148.929688 212.132812 149.042969 212.007812 149.15625 C 211.976562 149.183594 211.945312 149.210938 211.914062 149.238281 C 211.757812 149.382812 211.609375 149.535156 211.460938 149.691406 C 211.421875 149.734375 211.382812 149.78125 211.339844 149.824219 C 211.234375 149.941406 211.128906 150.058594 211.027344 150.179688 C 210.976562 150.238281 210.929688 150.300781 210.878906 150.359375 C 210.789062 150.472656 210.695312 150.589844 210.609375 150.707031 C 210.5625 150.769531 210.515625 150.832031 210.46875 150.898438 C 210.375 151.023438 210.289062 151.152344 210.199219 151.28125 C 210.164062 151.335938 210.125 151.390625 210.085938 151.449219 C 209.964844 151.636719 209.847656 151.828125 209.738281 152.019531 C 209.734375 152.027344 209.730469 152.03125 209.726562 152.035156 C 209.621094 152.222656 209.515625 152.414062 209.417969 152.609375 C 209.386719 152.671875 209.355469 152.734375 209.324219 152.796875 C 209.257812 152.933594 209.191406 153.074219 209.128906 153.210938 C 209.097656 153.285156 209.066406 153.359375 209.035156 153.433594 C 208.976562 153.566406 208.921875 153.703125 208.871094 153.835938 C 208.84375 153.910156 208.816406 153.984375 208.789062 154.054688 C 208.734375 154.207031 208.683594 154.355469 208.636719 154.507812 C 208.621094 154.5625 208.597656 154.621094 208.582031 154.675781 C 208.519531 154.878906 208.464844 155.085938 208.417969 155.289062 C 208.40625 155.335938 208.398438 155.382812 208.390625 155.433594 C 208.355469 155.589844 208.324219 155.746094 208.296875 155.90625 C 208.285156 155.976562 208.273438 156.046875 208.265625 156.121094 C 208.253906 156.199219 208.238281 156.277344 208.230469 156.355469 L 203.183594 153.425781 L 199.59375 151.339844 C 199.71875 148.460938 201.671875 145.078125 204.109375 143.515625 L 208.066406 145.8125 Z M 208.277344 213.109375 L 208.300781 224.449219 L 208.300781 225.578125 L 208.304688 226.703125 L 208.320312 236.710938 L 199.734375 231.71875 L 199.695312 211.386719 L 199.695312 210.261719 L 199.691406 209.136719 L 199.671875 197.792969 L 199.667969 196.667969 L 199.667969 195.542969 L 199.589844 152.605469 L 208.175781 157.597656 L 208.210938 175.34375 L 208.273438 210.855469 L 208.277344 211.980469 Z M 249.207031 222.167969 C 249.382812 222.226562 249.542969 222.296875 249.695312 222.386719 C 249.714844 222.394531 249.726562 222.410156 249.742188 222.417969 C 249.863281 222.492188 249.976562 222.578125 250.082031 222.671875 C 250.125 222.710938 250.164062 222.753906 250.203125 222.792969 C 250.285156 222.875 250.363281 222.964844 250.433594 223.058594 C 250.464844 223.101562 250.5 223.144531 250.53125 223.191406 C 250.628906 223.335938 250.71875 223.492188 250.800781 223.660156 L 258.421875 240.238281 L 250.4375 235.601562 C 250.394531 235.574219 250.359375 235.515625 250.339844 235.472656 L 244.796875 223.414062 L 245.824219 222.820312 C 247.066406 222.101562 248.269531 221.871094 249.207031 222.167969 Z M 208.519531 239.222656 L 200.945312 234.820312 C 200.378906 234.492188 199.996094 233.878906 199.832031 233.046875 L 208.332031 237.988281 C 208.335938 238.039062 208.34375 238.085938 208.347656 238.136719 C 208.355469 238.25 208.367188 238.363281 208.378906 238.476562 C 208.390625 238.570312 208.40625 238.664062 208.421875 238.753906 C 208.441406 238.863281 208.460938 238.96875 208.488281 239.074219 C 208.5 239.121094 208.503906 239.175781 208.519531 239.222656 Z M 309.679688 184.027344 C 309.558594 184.171875 309.433594 184.308594 309.308594 184.445312 C 308.726562 185.070312 308.085938 185.601562 307.410156 185.992188 L 304.109375 187.898438 L 303.558594 188.214844 L 303.007812 188.535156 L 275.835938 204.222656 C 273.199219 205.742188 270.851562 208.898438 269.859375 212.253906 L 261.757812 239.585938 C 261.566406 240.234375 261.125 240.832031 260.632812 241.117188 C 260.40625 241.25 260.234375 241.269531 260.15625 241.242188 C 260.148438 241.238281 260.136719 241.234375 260.121094 241.226562 C 260.097656 241.210938 260.0625 241.179688 260.027344 241.101562 L 251.796875 223.203125 C 251.71875 223.03125 251.628906 222.871094 251.535156 222.714844 C 251.507812 222.671875 251.480469 222.632812 251.453125 222.589844 C 251.359375 222.453125 251.265625 222.320312 251.160156 222.199219 C 251.144531 222.183594 251.132812 222.164062 251.117188 222.148438 C 251.007812 222.027344 250.890625 221.914062 250.769531 221.8125 C 250.734375 221.78125 250.699219 221.753906 250.667969 221.726562 C 250.53125 221.621094 250.394531 221.519531 250.246094 221.433594 L 250.238281 221.429688 C 250.019531 221.304688 249.789062 221.199219 249.542969 221.121094 C 249.167969 221.003906 248.769531 220.945312 248.351562 220.945312 C 248.339844 220.945312 248.328125 220.945312 248.316406 220.945312 C 248.019531 220.949219 247.710938 220.988281 247.398438 221.050781 C 246.710938 221.1875 245.992188 221.453125 245.273438 221.867188 L 244.332031 222.410156 L 243.855469 222.6875 L 243.378906 222.960938 L 222.011719 235.296875 L 221.535156 235.574219 L 221.058594 235.847656 L 216.261719 238.617188 L 215.785156 238.890625 L 215.308594 239.167969 L 213.699219 240.097656 C 212.511719 240.78125 211.425781 240.910156 210.640625 240.457031 C 210.59375 240.429688 210.550781 240.394531 210.503906 240.363281 C 210.457031 240.328125 210.40625 240.296875 210.359375 240.257812 C 210.335938 240.238281 210.316406 240.214844 210.292969 240.195312 C 210.234375 240.136719 210.171875 240.082031 210.117188 240.015625 C 210.113281 240.011719 210.109375 240.007812 210.109375 240.003906 C 209.667969 239.472656 209.425781 238.667969 209.421875 237.664062 L 209.40625 228.664062 L 209.40625 227.539062 L 209.402344 226.414062 L 209.382812 215.070312 L 209.378906 213.945312 L 209.378906 212.820312 L 209.277344 157.28125 C 209.273438 156.898438 209.308594 156.507812 209.371094 156.113281 C 209.398438 155.9375 209.433594 155.765625 209.472656 155.589844 C 209.476562 155.570312 209.480469 155.550781 209.484375 155.53125 C 210.085938 152.929688 211.910156 150.226562 214.066406 148.980469 L 224.027344 143.230469 L 225.128906 142.597656 L 230.71875 139.371094 L 231.269531 139.050781 L 231.820312 138.734375 L 307.78125 94.878906 C 308.632812 94.386719 309.429688 94.1875 310.105469 94.277344 C 310.132812 94.28125 310.167969 94.28125 310.195312 94.289062 C 310.257812 94.296875 310.3125 94.316406 310.371094 94.332031 C 310.425781 94.347656 310.480469 94.359375 310.53125 94.375 C 310.578125 94.394531 310.617188 94.417969 310.660156 94.4375 C 310.722656 94.464844 310.78125 94.484375 310.839844 94.519531 C 311.621094 94.96875 312.050781 95.960938 312.054688 97.308594 L 312.203125 177.695312 C 312.207031 179.632812 311.339844 181.84375 310.023438 183.589844 C 309.910156 183.738281 309.796875 183.882812 309.679688 184.027344 Z M 19.867188 153.871094 C 20.175781 154.214844 20.535156 154.523438 20.957031 154.765625 L 237.617188 279.035156 L 237.601562 289.175781 L 21.484375 165.214844 C 20.457031 164.628906 19.847656 163.570312 19.851562 162.386719 Z M 240.796875 290.476562 C 240.601562 290.441406 240.40625 290.410156 240.210938 290.363281 C 240.097656 290.332031 239.988281 290.292969 239.875 290.261719 C 239.707031 290.207031 239.535156 290.15625 239.367188 290.089844 C 239.253906 290.046875 239.136719 289.992188 239.023438 289.9375 C 238.917969 289.890625 238.804688 289.851562 238.699219 289.796875 L 238.699219 289.78125 L 238.714844 279.601562 C 239.746094 280.046875 240.847656 280.273438 241.949219 280.273438 C 243.066406 280.273438 244.179688 280.039062 245.21875 279.585938 L 245.203125 289.761719 L 245.203125 289.777344 C 245.097656 289.832031 244.984375 289.875 244.878906 289.921875 C 244.765625 289.976562 244.652344 290.03125 244.535156 290.074219 C 244.363281 290.144531 244.191406 290.199219 244.015625 290.253906 C 243.910156 290.285156 243.804688 290.324219 243.695312 290.351562 C 243.496094 290.402344 243.292969 290.4375 243.089844 290.472656 C 243.003906 290.488281 242.917969 290.507812 242.832031 290.519531 C 242.25 290.59375 241.660156 290.59375 241.074219 290.523438 C 240.980469 290.511719 240.890625 290.488281 240.796875 290.476562 Z M 61.40625 183.589844 C 61.554688 183.328125 61.890625 183.234375 62.15625 183.386719 L 77.222656 192.03125 C 77.488281 192.179688 77.578125 192.515625 77.425781 192.78125 C 77.324219 192.957031 77.140625 193.054688 76.949219 193.054688 C 76.855469 193.054688 76.761719 193.03125 76.675781 192.984375 L 61.609375 184.339844 C 61.34375 184.191406 61.253906 183.851562 61.40625 183.589844 Z M 37.363281 169.566406 C 37.515625 169.300781 37.851562 169.210938 38.113281 169.359375 L 53.183594 178.003906 C 53.445312 178.15625 53.539062 178.492188 53.386719 178.753906 C 53.285156 178.929688 53.101562 179.03125 52.910156 179.03125 C 52.816406 179.03125 52.722656 179.007812 52.636719 178.957031 L 37.570312 170.316406 C 37.304688 170.164062 37.214844 169.828125 37.363281 169.566406 Z M 298.332031 137.910156 C 298.296875 137.875 298.257812 137.847656 298.214844 137.820312 L 293.742188 135.238281 C 293.574219 135.140625 293.363281 135.140625 293.191406 135.238281 L 275.863281 145.242188 L 275.808594 125.375 C 275.808594 125.230469 275.75 125.089844 275.648438 124.988281 C 275.613281 124.957031 275.574219 124.925781 275.53125 124.902344 L 271.058594 122.316406 C 270.890625 122.21875 270.679688 122.21875 270.507812 122.316406 L 252.773438 132.554688 C 252.605469 132.65625 252.5 132.835938 252.5 133.035156 L 252.550781 150.625 L 252.550781 151.257812 L 252.554688 151.894531 L 252.570312 158.335938 L 252.574219 158.691406 L 252.328125 158.832031 L 251.777344 159.148438 L 230.242188 171.582031 C 230.074219 171.679688 229.96875 171.863281 229.96875 172.058594 L 230.027344 192.4375 C 230.027344 192.632812 230.132812 192.8125 230.300781 192.914062 L 234.777344 195.496094 C 234.902344 195.570312 235.050781 195.585938 235.1875 195.550781 C 235.1875 195.550781 235.191406 195.550781 235.191406 195.550781 C 235.238281 195.539062 235.285156 195.519531 235.328125 195.496094 L 252.648438 185.496094 L 252.707031 205.363281 C 252.707031 205.558594 252.8125 205.738281 252.980469 205.835938 L 257.453125 208.417969 C 257.453125 208.417969 257.457031 208.421875 257.457031 208.421875 C 257.539062 208.46875 257.636719 208.492188 257.730469 208.492188 C 257.824219 208.492188 257.921875 208.46875 258.003906 208.417969 L 275.738281 198.179688 C 275.910156 198.082031 276.015625 197.898438 276.011719 197.703125 L 275.941406 173.011719 L 275.941406 172.046875 L 276.207031 171.894531 L 281.796875 168.667969 L 282.347656 168.347656 L 282.898438 168.03125 L 298.273438 159.152344 C 298.445312 159.054688 298.550781 158.871094 298.550781 158.675781 L 298.492188 138.296875 C 298.492188 138.148438 298.433594 138.011719 298.332031 137.910156 Z M 281.242188 167.714844 L 280.691406 168.035156 L 275.113281 171.253906 C 275.109375 171.253906 275.109375 171.257812 275.105469 171.261719 C 274.941406 171.363281 274.839844 171.539062 274.839844 171.730469 L 274.839844 172.378906 L 274.914062 197.386719 L 258.277344 206.992188 L 258.207031 181.964844 C 258.207031 181.769531 258.101562 181.589844 257.929688 181.492188 C 257.847656 181.441406 257.75 181.417969 257.65625 181.417969 C 257.5625 181.417969 257.464844 181.441406 257.382812 181.492188 L 235.597656 194.066406 L 235.542969 174.960938 L 257.371094 162.359375 L 257.875 162.066406 C 257.890625 162.058594 257.902344 162.046875 257.914062 162.035156 C 258.058594 161.933594 258.148438 161.769531 258.148438 161.589844 L 258.148438 161.535156 L 258.128906 155.09375 L 258.128906 154.457031 L 258.125 153.824219 L 258.078125 135.933594 L 274.710938 126.328125 L 274.78125 151.355469 C 274.78125 151.550781 274.886719 151.730469 275.058594 151.828125 C 275.226562 151.929688 275.4375 151.925781 275.605469 151.828125 L 297.394531 139.25 L 297.449219 158.359375 L 281.792969 167.398438 Z M 281.242188 167.714844 " fill-opacity="1" fill-rule="nonzero"/></g><path fill="#ffffff" d="M 104.277344 157.773438 L 95.980469 152.984375 C 94.355469 152.046875 92.632812 151.574219 90.804688 151.570312 C 88.976562 151.570312 87.167969 152.085938 85.371094 153.121094 C 83.582031 154.15625 82.691406 155.203125 82.695312 156.261719 C 82.703125 157.320312 83.511719 158.316406 85.128906 159.25 L 93.425781 164.039062 C 95.015625 164.957031 96.730469 165.425781 98.570312 165.441406 C 100.410156 165.457031 102.230469 164.941406 104.035156 163.898438 C 105.824219 162.867188 106.714844 161.820312 106.710938 160.761719 C 106.703125 159.703125 105.894531 158.707031 104.277344 157.773438 Z M 100.722656 161.988281 C 100.015625 162.394531 99.257812 162.546875 98.453125 162.449219 C 97.648438 162.347656 96.820312 162.050781 95.964844 161.558594 L 89.425781 157.78125 C 88.5625 157.285156 88.046875 156.804688 87.878906 156.34375 C 87.707031 155.878906 87.976562 155.445312 88.683594 155.035156 C 89.398438 154.625 90.15625 154.46875 90.953125 154.566406 C 91.75 154.667969 92.578125 154.964844 93.441406 155.464844 L 99.980469 159.238281 C 100.835938 159.734375 101.351562 160.210938 101.527344 160.671875 C 101.707031 161.136719 101.4375 161.574219 100.722656 161.988281 Z M 117.375 149.761719 L 117.363281 149.757812 C 115.628906 148.757812 113.875 148.21875 112.101562 148.144531 C 110.332031 148.074219 108.691406 148.472656 107.1875 149.339844 C 106.949219 149.476562 106.75 149.617188 106.582031 149.757812 L 102.699219 143.378906 L 98.832031 145.613281 L 103.007812 152.273438 C 103.457031 152.984375 104.003906 153.652344 104.652344 154.289062 C 105.304688 154.921875 106.023438 155.46875 106.808594 155.921875 L 106.820312 155.929688 C 108.570312 156.9375 110.390625 157.453125 112.277344 157.472656 C 114.167969 157.496094 115.953125 157.019531 117.632812 156.050781 C 119.320312 155.074219 120.140625 154.039062 120.09375 152.941406 C 120.046875 151.84375 119.140625 150.78125 117.375 149.761719 Z M 114.320312 154.136719 C 113.722656 154.480469 113.082031 154.648438 112.402344 154.636719 C 111.722656 154.621094 111.054688 154.425781 110.402344 154.050781 L 110.390625 154.042969 C 109.644531 153.613281 109.230469 153.183594 109.144531 152.753906 C 109.058594 152.324219 109.316406 151.9375 109.914062 151.59375 C 110.527344 151.238281 111.203125 151.085938 111.9375 151.132812 C 112.671875 151.183594 113.414062 151.421875 114.15625 151.851562 L 114.167969 151.859375 C 114.824219 152.238281 115.164062 152.621094 115.195312 153.015625 C 115.226562 153.40625 114.933594 153.78125 114.320312 154.136719 Z M 119.144531 144.03125 L 115.726562 146.003906 L 112.289062 144.019531 L 115.707031 142.042969 Z M 125.171875 147.507812 L 128.609375 149.496094 L 125.191406 151.46875 L 121.753906 149.484375 Z M 138.558594 139.925781 L 141.871094 141.839844 L 131.140625 148.03125 L 128.042969 146.242188 L 126.03125 137.894531 C 125.945312 137.519531 125.785156 137.175781 125.550781 136.859375 C 125.316406 136.546875 125.03125 136.292969 124.695312 136.101562 L 124.671875 136.085938 C 124.175781 135.800781 123.636719 135.671875 123.054688 135.699219 C 122.472656 135.726562 121.886719 135.910156 121.304688 136.246094 C 120.75 136.566406 120.480469 136.9375 120.496094 137.355469 C 120.515625 137.777344 120.832031 138.207031 121.445312 138.644531 L 121.457031 138.652344 L 117.949219 140.675781 L 117.9375 140.667969 C 116.324219 139.601562 115.53125 138.507812 115.5625 137.386719 C 115.59375 136.269531 116.394531 135.253906 117.964844 134.347656 C 119.671875 133.363281 121.40625 132.839844 123.171875 132.777344 C 124.933594 132.714844 126.574219 133.121094 128.089844 133.996094 L 128.101562 134.003906 C 128.929688 134.480469 129.609375 135.039062 130.136719 135.675781 C 130.667969 136.3125 131.003906 136.972656 131.148438 137.652344 L 132.355469 143.503906 Z M 151.046875 130.902344 L 150.746094 130.730469 C 149.832031 130.203125 148.722656 129.851562 147.410156 129.683594 C 146.101562 129.511719 144.820312 129.550781 143.570312 129.796875 C 143.949219 129.183594 144.035156 128.558594 143.828125 127.929688 C 143.621094 127.300781 143.140625 126.769531 142.386719 126.335938 L 141.910156 126.058594 C 140.460938 125.222656 138.808594 124.835938 136.953125 124.898438 C 135.097656 124.960938 133.359375 125.460938 131.738281 126.394531 C 130.117188 127.332031 129.253906 128.335938 129.144531 129.40625 C 129.039062 130.480469 129.710938 131.433594 131.15625 132.269531 L 131.632812 132.542969 C 132.371094 132.96875 133.285156 133.242188 134.371094 133.367188 C 135.460938 133.492188 136.535156 133.453125 137.59375 133.246094 C 137.171875 133.964844 137.113281 134.699219 137.417969 135.449219 C 137.722656 136.203125 138.332031 136.84375 139.242188 137.371094 L 139.542969 137.542969 C 140.566406 138.132812 141.695312 138.507812 142.9375 138.671875 C 144.175781 138.835938 145.433594 138.789062 146.714844 138.535156 C 147.992188 138.28125 149.210938 137.816406 150.367188 137.152344 C 151.523438 136.484375 152.324219 135.78125 152.765625 135.042969 C 153.207031 134.304688 153.285156 133.578125 153.003906 132.859375 C 152.71875 132.144531 152.066406 131.492188 151.046875 130.902344 Z M 139.21875 130.714844 C 138.636719 131.050781 137.976562 131.214844 137.238281 131.207031 C 136.5 131.199219 135.828125 131.015625 135.214844 130.664062 L 135.027344 130.554688 C 134.441406 130.21875 134.152344 129.84375 134.164062 129.429688 C 134.175781 129.019531 134.46875 128.644531 135.050781 128.308594 C 135.644531 127.96875 136.292969 127.796875 137 127.792969 C 137.710938 127.789062 138.355469 127.953125 138.933594 128.289062 L 139.109375 128.386719 C 139.734375 128.75 140.058594 129.144531 140.078125 129.566406 C 140.097656 129.992188 139.808594 130.375 139.21875 130.714844 Z M 147.054688 135.238281 C 146.355469 135.640625 145.585938 135.847656 144.746094 135.859375 C 143.910156 135.867188 143.15625 135.679688 142.484375 135.292969 L 142.296875 135.1875 C 141.671875 134.824219 141.382812 134.410156 141.433594 133.945312 C 141.484375 133.480469 141.859375 133.046875 142.558594 132.644531 C 143.257812 132.238281 144.007812 132.023438 144.8125 131.992188 C 145.621094 131.964844 146.332031 132.128906 146.949219 132.484375 L 147.125 132.585938 C 147.804688 132.976562 148.136719 133.417969 148.121094 133.902344 C 148.109375 134.390625 147.75 134.835938 147.054688 135.238281 Z M 146.683594 125.546875 L 146.167969 124.929688 L 147.964844 123.894531 L 149.03125 124.191406 L 150.027344 123.617188 L 143.214844 121.847656 L 142.625 122.1875 L 145.6875 126.121094 Z M 146.757812 123.554688 L 145.582031 124.234375 L 144.484375 122.921875 Z M 150.003906 117.929688 L 154.941406 120.777344 L 154.101562 121.265625 L 150.59375 119.238281 L 152.648438 121.46875 L 151.832031 121.941406 L 148.035156 120.792969 L 151.476562 122.78125 L 150.636719 123.265625 L 145.699219 120.414062 L 146.917969 119.710938 L 151.179688 121.09375 L 148.785156 118.632812 Z M 52.199219 147.507812 L 44.152344 152.152344 C 44.066406 152.203125 43.972656 152.226562 43.878906 152.226562 C 43.6875 152.226562 43.503906 152.125 43.402344 151.949219 C 43.25 151.6875 43.339844 151.351562 43.605469 151.199219 L 51.648438 146.554688 C 51.910156 146.402344 52.246094 146.492188 52.398438 146.753906 C 52.550781 147.019531 52.460938 147.355469 52.199219 147.507812 Z M 51.207031 151.164062 L 46.824219 153.695312 C 46.738281 153.746094 46.644531 153.769531 46.550781 153.769531 C 46.363281 153.769531 46.175781 153.667969 46.074219 153.492188 C 45.921875 153.230469 46.011719 152.894531 46.277344 152.742188 L 50.65625 150.210938 C 50.917969 150.058594 51.257812 150.148438 51.410156 150.414062 C 51.5625 150.675781 51.472656 151.011719 51.207031 151.164062 Z M 56.957031 150.296875 C 57.105469 150.5625 57.015625 150.898438 56.753906 151.050781 L 49.5 155.238281 C 49.414062 155.289062 49.316406 155.3125 49.222656 155.3125 C 49.035156 155.3125 48.847656 155.210938 48.746094 155.035156 C 48.59375 154.773438 48.6875 154.4375 48.949219 154.285156 L 56.203125 150.097656 C 56.464844 149.945312 56.800781 150.035156 56.957031 150.296875 Z M 135.3125 101.089844 C 135.464844 100.828125 135.800781 100.734375 136.0625 100.886719 L 139.023438 102.597656 C 139.285156 102.75 139.378906 103.085938 139.226562 103.347656 C 139.121094 103.523438 138.9375 103.625 138.75 103.625 C 138.65625 103.625 138.558594 103.601562 138.472656 103.550781 L 135.511719 101.839844 C 135.25 101.6875 135.160156 101.351562 135.3125 101.089844 Z M 133.738281 103.246094 C 133.890625 102.984375 134.226562 102.894531 134.488281 103.046875 L 136.367188 104.128906 C 136.632812 104.28125 136.722656 104.617188 136.570312 104.882812 C 136.46875 105.058594 136.28125 105.15625 136.09375 105.15625 C 136 105.15625 135.90625 105.132812 135.816406 105.082031 L 133.941406 104 C 133.675781 103.847656 133.585938 103.511719 133.738281 103.246094 Z M 135.582031 98.179688 C 135.734375 97.914062 136.070312 97.828125 136.335938 97.976562 L 141.679688 101.0625 C 141.941406 101.214844 142.03125 101.550781 141.882812 101.816406 C 141.777344 101.992188 141.59375 102.089844 141.402344 102.089844 C 141.3125 102.089844 141.214844 102.066406 141.128906 102.015625 L 135.785156 98.929688 C 135.523438 98.777344 135.429688 98.441406 135.582031 98.179688 Z M 255.535156 255.011719 L 250.335938 252.007812 C 249.855469 251.730469 249.082031 251.730469 248.605469 252.003906 L 246.464844 253.238281 C 246.089844 253.457031 245.511719 253.507812 245.039062 253.363281 L 243.34375 252.855469 C 242.871094 252.710938 242.292969 252.761719 241.917969 252.976562 L 238.835938 254.757812 C 238.460938 254.972656 238.375 255.308594 238.621094 255.582031 L 239.503906 256.558594 C 239.753906 256.832031 239.664062 257.167969 239.289062 257.382812 L 237.148438 258.617188 C 236.675781 258.894531 236.675781 259.339844 237.15625 259.617188 L 242.355469 262.617188 C 242.832031 262.894531 243.609375 262.894531 244.082031 262.621094 L 255.539062 256.007812 C 256.015625 255.734375 256.011719 255.285156 255.535156 255.011719 Z M 247.8125 258.160156 C 246.519531 258.910156 244.414062 258.90625 243.109375 258.152344 C 241.804688 257.402344 241.796875 256.183594 243.09375 255.4375 C 244.390625 254.6875 246.496094 254.691406 247.800781 255.445312 C 249.101562 256.195312 249.109375 257.414062 247.8125 258.160156 Z M 329.703125 209.605469 L 325.664062 211.933594 L 327.195312 214.207031 C 327.449219 214.582031 326.839844 214.957031 326.175781 214.835938 L 321.964844 214.070312 L 321.015625 214.617188 L 318.246094 216.21875 C 317.769531 216.492188 316.996094 216.492188 316.515625 216.214844 L 311.921875 213.5625 C 311.445312 213.285156 311.441406 212.839844 311.917969 212.566406 L 323.375 205.949219 C 323.847656 205.675781 324.621094 205.675781 325.101562 205.953125 L 329.695312 208.605469 C 330.175781 208.882812 330.175781 209.328125 329.703125 209.605469 Z M 329.703125 209.605469 " fill-opacity="1" fill-rule="nonzero"/><path fill="#386641" d="M 194.761719 187.136719 C 194.914062 187.398438 194.824219 187.734375 194.5625 187.886719 L 170.269531 201.914062 C 170.179688 201.960938 170.085938 201.984375 169.992188 201.984375 C 169.804688 201.984375 169.617188 201.886719 169.515625 201.710938 C 169.363281 201.449219 169.453125 201.113281 169.71875 200.960938 L 194.011719 186.933594 C 194.273438 186.78125 194.609375 186.871094 194.761719 187.136719 Z M 184.511719 167.277344 L 147.945312 188.386719 C 147.679688 188.539062 147.589844 188.875 147.742188 189.140625 C 147.84375 189.316406 148.03125 189.414062 148.21875 189.414062 C 148.3125 189.414062 148.40625 189.390625 148.492188 189.339844 L 185.0625 168.230469 C 185.324219 168.078125 185.414062 167.742188 185.261719 167.476562 C 185.109375 167.214844 184.773438 167.125 184.511719 167.277344 Z M 186.800781 210.570312 C 186.535156 210.722656 186.445312 211.058594 186.597656 211.324219 C 186.699219 211.5 186.886719 211.597656 187.074219 211.597656 C 187.167969 211.597656 187.261719 211.574219 187.347656 211.523438 L 198.585938 205.035156 L 198.582031 203.769531 Z M 192.589844 157.578125 C 192.4375 157.316406 192.101562 157.226562 191.839844 157.378906 L 143.25 185.429688 C 142.988281 185.582031 142.898438 185.917969 143.050781 186.179688 C 143.152344 186.355469 143.335938 186.453125 143.527344 186.453125 C 143.621094 186.453125 143.714844 186.429688 143.800781 186.382812 L 192.386719 158.328125 C 192.652344 158.179688 192.742188 157.84375 192.589844 157.578125 Z M 150.464844 161.792969 L 126.171875 175.816406 C 125.90625 175.96875 125.816406 176.304688 125.96875 176.570312 C 126.070312 176.746094 126.253906 176.84375 126.445312 176.84375 C 126.539062 176.84375 126.632812 176.820312 126.71875 176.769531 L 151.011719 162.742188 C 151.277344 162.59375 151.367188 162.257812 151.214844 161.992188 C 151.0625 161.730469 150.726562 161.640625 150.464844 161.792969 Z M 194.945312 148.746094 L 133.285156 184.347656 C 131.632812 185.300781 130.6875 186.601562 130.6875 187.917969 C 130.6875 189.042969 131.367188 190.058594 132.601562 190.769531 L 141.285156 195.785156 C 142.484375 196.472656 144.050781 196.8125 145.6875 196.8125 C 147.636719 196.8125 149.679688 196.332031 151.3125 195.390625 L 198.519531 168.136719 L 198.515625 166.867188 L 150.761719 194.4375 C 148.113281 195.96875 144.109375 196.144531 141.835938 194.832031 L 133.152344 189.816406 C 132.261719 189.300781 131.789062 188.644531 131.789062 187.917969 C 131.789062 187.003906 132.535156 186.050781 133.832031 185.300781 L 195.496094 149.699219 C 196.539062 149.097656 197.789062 148.707031 199.0625 148.535156 C 199.199219 148.140625 199.363281 147.753906 199.542969 147.371094 C 197.917969 147.507812 196.292969 147.96875 194.945312 148.746094 Z M 191.289062 214.28125 C 191.394531 214.460938 191.578125 214.558594 191.769531 214.558594 C 191.859375 214.558594 191.957031 214.535156 192.042969 214.484375 L 198.597656 210.699219 L 198.59375 209.429688 L 191.492188 213.53125 C 191.230469 213.683594 191.140625 214.019531 191.289062 214.28125 Z M 198.5625 191.984375 L 172.535156 207.007812 C 169.890625 208.539062 165.882812 208.714844 163.609375 207.402344 L 154.925781 202.390625 C 154.035156 201.875 153.5625 201.214844 153.5625 200.488281 C 153.5625 199.574219 154.308594 198.621094 155.605469 197.871094 L 198.527344 173.089844 L 198.523438 171.820312 L 155.058594 196.917969 C 153.40625 197.871094 152.460938 199.171875 152.460938 200.488281 C 152.460938 201.617188 153.140625 202.628906 154.378906 203.339844 L 163.0625 208.355469 C 164.257812 209.046875 165.824219 209.382812 167.460938 209.382812 C 169.410156 209.382812 171.457031 208.902344 173.085938 207.960938 L 198.5625 193.253906 Z M 191.199219 147.21875 L 129.539062 182.820312 C 127.90625 183.761719 125.859375 184.242188 123.914062 184.242188 C 122.277344 184.242188 120.707031 183.902344 119.511719 183.210938 L 110.828125 178.199219 C 109.59375 177.484375 108.914062 176.472656 108.914062 175.347656 C 108.914062 174.027344 109.859375 172.726562 111.507812 171.773438 L 173.171875 136.175781 C 176.171875 134.441406 180.578125 134.269531 183.199219 135.78125 L 191.882812 140.792969 C 193.117188 141.507812 193.796875 142.519531 193.796875 143.648438 C 193.796875 144.964844 192.851562 146.265625 191.199219 147.21875 Z M 190.652344 146.265625 C 191.949219 145.515625 192.695312 144.5625 192.695312 143.648438 C 192.695312 142.917969 192.226562 142.261719 191.332031 141.746094 L 182.648438 136.734375 C 181.625 136.144531 180.25 135.855469 178.808594 135.855469 C 177.042969 135.855469 175.179688 136.285156 173.722656 137.125 L 112.058594 172.726562 C 110.757812 173.476562 110.015625 174.433594 110.015625 175.347656 C 110.015625 176.074219 110.484375 176.730469 111.378906 177.246094 L 120.0625 182.257812 C 122.335938 183.574219 126.339844 183.394531 128.988281 181.867188 Z M 194.3125 219.582031 C 191.664062 221.109375 187.65625 221.285156 185.382812 219.972656 L 176.699219 214.960938 C 175.808594 214.445312 175.335938 213.789062 175.335938 213.058594 C 175.335938 212.144531 176.082031 211.191406 177.382812 210.441406 L 198.574219 198.207031 L 198.570312 196.9375 L 176.832031 209.488281 C 175.183594 210.441406 174.234375 211.742188 174.234375 213.058594 C 174.234375 214.1875 174.917969 215.199219 176.152344 215.914062 L 184.835938 220.925781 C 186.03125 221.617188 187.597656 221.957031 189.234375 221.957031 C 191.183594 221.957031 193.230469 221.476562 194.859375 220.53125 L 198.609375 218.367188 L 198.609375 217.097656 Z M 170.0625 144.804688 L 121.476562 172.859375 C 121.214844 173.007812 121.125 173.34375 121.277344 173.609375 C 121.378906 173.785156 121.5625 173.882812 121.753906 173.882812 C 121.847656 173.882812 121.941406 173.859375 122.027344 173.808594 L 170.613281 145.757812 C 170.875 145.605469 170.96875 145.269531 170.816406 145.007812 C 170.664062 144.742188 170.324219 144.652344 170.0625 144.804688 Z M 198.539062 178.652344 L 165.027344 198 C 164.761719 198.152344 164.671875 198.488281 164.824219 198.75 C 164.925781 198.929688 165.109375 199.027344 165.300781 199.027344 C 165.394531 199.027344 165.488281 199.003906 165.574219 198.953125 L 198.539062 179.921875 Z M 198.539062 178.652344 " fill-opacity="1" fill-rule="nonzero"/></svg>