<svg xmlns="http://www.w3.org/2000/svg" xmlns:xlink="http://www.w3.org/1999/xlink" width="500" zoomAndPan="magnify" viewBox="0 0 375 374.999991" height="500" preserveAspectRatio="xMidYMid meet" version="1.0"><defs><clipPath id="81515c00a1"><path d="M 58.078125 10.429688 L 316.828125 10.429688 L 316.828125 364.429688 L 58.078125 364.429688 Z M 58.078125 10.429688 " clip-rule="nonzero"/></clipPath><clipPath id="145461d7cb"><path d="M 58.078125 69 L 298 69 L 298 320 L 58.078125 320 Z M 58.078125 69 " clip-rule="nonzero"/></clipPath><clipPath id="470050f320"><path d="M 65 15 L 316.828125 15 L 316.828125 362 L 65 362 Z M 65 15 " clip-rule="nonzero"/></clipPath><clipPath id="a8b29477d3"><path d="M 58.078125 10.429688 L 316.828125 10.429688 L 316.828125 364.429688 L 58.078125 364.429688 Z M 58.078125 10.429688 " clip-rule="nonzero"/></clipPath></defs><g clip-path="url(#81515c00a1)"><path fill="#1c2628" d="M 117.984375 364.421875 L 107.617188 363.261719 C 107.429688 363.242188 107.277344 363.101562 107.242188 362.917969 L 106.671875 360.171875 C 106.664062 360.132812 106.664062 360.09375 106.667969 360.042969 L 109.820312 333.117188 C 109.828125 333.070312 109.808594 333.027344 109.773438 332.996094 C 109.75 332.96875 109.714844 332.957031 109.679688 332.957031 C 109.667969 332.957031 109.65625 332.957031 109.648438 332.960938 L 104.925781 334.015625 L 69.597656 354.402344 C 68.96875 354.765625 68.347656 354.953125 67.757812 354.953125 C 67.328125 354.953125 66.921875 354.847656 66.550781 354.644531 C 66.546875 354.644531 66.476562 354.609375 66.46875 354.605469 L 60.007812 350.839844 C 58.980469 350.238281 58.386719 348.898438 58.386719 347.164062 L 58.386719 159.648438 C 58.386719 156.449219 60.277344 152.855469 62.691406 151.464844 L 113.636719 122.050781 C 113.679688 122.023438 113.707031 121.976562 113.707031 121.925781 L 113.707031 117.214844 C 113.707031 117.175781 113.710938 117.136719 113.722656 117.101562 C 113.742188 117.046875 113.753906 117.019531 113.765625 116.996094 C 113.808594 116.925781 113.863281 116.875 113.921875 116.839844 L 158.019531 91.378906 C 158.085938 91.34375 158.160156 91.320312 158.234375 91.320312 C 158.3125 91.320312 158.386719 91.34375 158.453125 91.378906 C 158.453125 91.378906 162.4375 93.703125 162.4375 93.707031 C 162.453125 93.714844 162.464844 93.726562 162.464844 93.726562 C 162.496094 93.753906 162.542969 93.769531 162.585938 93.769531 C 162.605469 93.769531 162.628906 93.765625 162.644531 93.753906 L 305.402344 11.332031 C 306.035156 10.96875 306.652344 10.785156 307.246094 10.785156 C 307.703125 10.785156 308.132812 10.898438 308.519531 11.125 C 308.519531 11.125 314.996094 14.902344 314.996094 14.90625 L 314.992188 14.902344 C 315.023438 14.921875 315.054688 14.941406 315.082031 14.964844 C 315.085938 14.964844 315.132812 15 315.132812 15.003906 L 315.1875 15.039062 C 315.246094 15.078125 315.300781 15.113281 315.351562 15.15625 C 315.371094 15.175781 315.390625 15.195312 315.410156 15.214844 L 315.460938 15.269531 C 315.558594 15.359375 315.617188 15.414062 315.671875 15.476562 C 315.683594 15.492188 315.75 15.585938 315.75 15.585938 C 315.832031 15.691406 315.894531 15.769531 315.949219 15.859375 C 315.949219 15.863281 316.003906 15.960938 316.003906 15.964844 C 316.066406 16.074219 316.128906 16.179688 316.179688 16.300781 C 316.179688 16.300781 316.21875 16.402344 316.21875 16.40625 C 316.273438 16.53125 316.324219 16.660156 316.367188 16.796875 L 316.398438 16.929688 C 316.4375 17.0625 316.472656 17.199219 316.5 17.34375 C 316.507812 17.378906 316.511719 17.417969 316.515625 17.457031 L 316.527344 17.542969 C 316.554688 17.703125 316.574219 17.816406 316.582031 17.9375 C 316.601562 18.144531 316.613281 18.359375 316.613281 18.578125 L 316.613281 206.089844 C 316.613281 206.324219 316.597656 206.5625 316.578125 206.796875 L 316.558594 206.976562 C 316.539062 207.167969 316.515625 207.359375 316.480469 207.554688 L 316.457031 207.707031 C 316.414062 207.941406 316.359375 208.171875 316.300781 208.40625 C 316.277344 208.488281 316.253906 208.566406 316.234375 208.648438 C 316.183594 208.824219 316.140625 208.964844 316.09375 209.109375 C 316.054688 209.230469 316.023438 209.320312 315.992188 209.410156 C 315.929688 209.578125 315.863281 209.746094 315.796875 209.910156 C 315.734375 210.066406 315.664062 210.214844 315.59375 210.363281 C 315.542969 210.476562 315.496094 210.574219 315.449219 210.667969 C 315.390625 210.789062 315.324219 210.910156 315.257812 211.03125 C 315.210938 211.121094 315.160156 211.207031 315.105469 211.296875 C 315.027344 211.433594 314.964844 211.542969 314.898438 211.644531 C 314.792969 211.8125 314.679688 211.972656 314.566406 212.132812 C 314.222656 212.609375 313.859375 213.027344 313.488281 213.378906 L 313.429688 213.429688 C 313.277344 213.570312 313.121094 213.703125 312.964844 213.824219 L 312.847656 213.914062 C 312.667969 214.046875 312.488281 214.167969 312.308594 214.273438 L 278.488281 233.800781 C 278.441406 233.828125 278.414062 233.875 278.414062 233.925781 L 278.414062 247.675781 C 278.414062 247.832031 278.332031 247.976562 278.199219 248.050781 L 205.117188 290.246094 C 205.074219 290.269531 205.046875 290.320312 205.046875 290.371094 C 205.046875 290.421875 205.074219 290.46875 205.117188 290.496094 L 218.988281 298.585938 C 219.007812 298.597656 219.023438 298.613281 219.039062 298.625 L 219.085938 298.660156 C 219.085938 298.664062 219.117188 298.710938 219.121094 298.710938 C 219.15625 298.761719 219.160156 298.78125 219.167969 298.800781 C 219.191406 298.863281 219.195312 298.886719 219.195312 298.902344 L 219.203125 298.964844 L 219.203125 305.878906 C 219.203125 306.035156 219.121094 306.175781 218.988281 306.253906 C 218.988281 306.253906 183.503906 326.738281 183.5 326.742188 C 183.4375 326.777344 183.367188 326.796875 183.292969 326.796875 C 183.21875 326.796875 183.140625 326.773438 183.074219 326.738281 C 183.074219 326.738281 158.746094 312.546875 158.746094 312.546875 C 156.964844 311.503906 156.128906 309.394531 156.714844 307.414062 L 157.796875 303.769531 C 157.8125 303.710938 157.792969 303.652344 157.746094 303.617188 C 157.71875 303.59375 157.6875 303.585938 157.65625 303.585938 C 157.632812 303.585938 157.609375 303.589844 157.585938 303.601562 L 131.402344 318.71875 C 131.347656 318.753906 131.320312 318.816406 131.332031 318.875 L 135.347656 337.066406 C 135.351562 337.070312 135.351562 337.078125 135.355469 337.089844 L 135.917969 339.820312 C 135.949219 339.980469 135.890625 340.144531 135.761719 340.246094 C 135.6875 340.308594 135.589844 340.339844 135.496094 340.339844 C 135.429688 340.339844 135.367188 340.324219 135.308594 340.296875 L 122.171875 334.054688 C 122.152344 334.042969 122.128906 334.039062 122.109375 334.039062 C 122.085938 334.039062 122.0625 334.046875 122.039062 334.058594 C 122 334.082031 121.96875 334.121094 121.964844 334.167969 L 118.464844 364.042969 C 118.449219 364.101562 118.4375 364.140625 118.421875 364.175781 C 118.398438 364.230469 118.375 364.257812 118.351562 364.285156 C 118.308594 364.324219 118.269531 364.355469 118.222656 364.375 C 118.15625 364.410156 118.105469 364.421875 118.050781 364.425781 L 118.035156 364.425781 Z M 117.984375 364.421875 " fill-opacity="1" fill-rule="nonzero"/></g><path fill="#386641" d="M 162.21875 109.578125 L 162.21875 134.898438 L 103.792969 168.632812 L 99.808594 166.308594 L 114.140625 144.253906 L 114.140625 137.335938 L 71.617188 161.886719 L 71.617188 341.320312 L 99.226562 325.378906 L 121.9375 278.300781 L 128.585938 308.429688 L 189.15625 273.457031 L 189.15625 256.355469 L 138.816406 285.421875 L 138.816406 167.980469 L 158.566406 156.578125 L 158.566406 149.394531 L 297.769531 69.023438 L 297.769531 186.46875 L 278.019531 197.871094 L 278.019531 205.054688 L 277.984375 205.074219 L 277.984375 222.171875 L 306.535156 205.6875 L 309.859375 207.628906 L 309.859375 24.335938 Z M 95.375 272.039062 C 95.375 274.523438 93.863281 277.410156 91.996094 278.488281 L 83.648438 283.308594 C 81.785156 284.382812 80.273438 283.242188 80.273438 280.753906 L 80.273438 272.429688 C 80.273438 269.945312 81.785156 267.058594 83.648438 265.980469 L 91.996094 261.160156 C 93.863281 260.085938 95.375 261.226562 95.375 263.710938 Z M 95.375 248.644531 C 95.375 251.128906 93.863281 254.015625 91.996094 255.09375 L 83.648438 259.914062 C 81.785156 260.988281 80.273438 259.847656 80.273438 257.363281 L 80.273438 249.035156 C 80.273438 246.550781 81.785156 243.664062 83.648438 242.585938 L 91.996094 237.765625 C 93.863281 236.691406 95.375 237.832031 95.375 240.320312 Z M 95.375 201.855469 C 95.375 204.339844 93.863281 207.230469 91.996094 208.304688 L 83.648438 213.125 C 81.785156 214.203125 80.273438 213.058594 80.273438 210.574219 L 80.273438 202.25 C 80.273438 199.761719 81.785156 196.875 83.648438 195.796875 L 91.996094 190.976562 C 93.863281 189.902344 95.375 191.042969 95.375 193.53125 Z M 95.375 178.460938 C 95.375 180.945312 93.863281 183.835938 91.996094 184.910156 L 83.648438 189.730469 C 81.785156 190.808594 80.273438 189.664062 80.273438 187.179688 L 80.273438 178.855469 C 80.273438 176.367188 81.785156 173.480469 83.648438 172.402344 L 91.996094 167.585938 C 93.863281 166.507812 95.375 167.652344 95.375 170.136719 Z M 71.617188 345.175781 L 96.644531 330.726562 Z M 277.984375 226.03125 L 309.859375 207.628906 Z M 167.832031 289.625 L 189.15625 277.3125 L 167.832031 289.625 L 129.339844 311.851562 Z M 263.316406 126.871094 L 269.777344 123.140625 L 269.777344 128.957031 L 263.316406 132.6875 L 263.316406 140.101562 L 258.25 143.027344 L 258.25 135.613281 L 251.789062 139.34375 L 251.789062 133.527344 L 258.25 129.796875 L 258.25 122.382812 L 263.316406 119.457031 Z M 135.9375 133.933594 L 126.445312 139.414062 L 126.445312 130.871094 L 135.9375 125.394531 L 135.9375 114.503906 L 143.378906 110.207031 L 143.378906 121.09375 L 152.871094 115.617188 L 152.871094 124.15625 L 143.378906 129.636719 L 143.378906 140.527344 L 135.9375 144.824219 Z M 135.9375 133.933594 " fill-opacity="1" fill-rule="nonzero"/><g clip-path="url(#145461d7cb)"><path fill="#fefae0" d="M 204.042969 290.367188 L 218.773438 298.960938 L 183.292969 319.445312 L 162.703125 307.433594 L 189.15625 292.160156 L 189.15625 298.960938 Z M 58.820312 159.648438 L 65.296875 163.425781 C 65.296875 162.671875 65.410156 161.890625 65.617188 161.117188 C 65.71875 160.730469 65.847656 160.347656 65.992188 159.972656 C 66.726562 158.101562 67.972656 156.429688 69.382812 155.613281 L 62.90625 151.839844 C 60.652344 153.140625 58.820312 156.636719 58.820312 159.648438 Z M 297.769531 69.023438 L 297.769531 83.792969 L 278.019531 95.195312 L 247.667969 112.714844 L 163.753906 161.167969 L 158.566406 164.160156 L 158.566406 171.34375 L 138.816406 182.746094 L 138.816406 167.980469 L 158.566406 156.578125 L 158.566406 149.394531 Z M 267.417969 93.730469 L 267.417969 90.515625 L 183.503906 138.964844 L 183.503906 145.792969 L 267.417969 97.34375 Z M 158.234375 91.753906 L 114.140625 117.214844 L 114.140625 144.253906 L 118.125 146.578125 L 118.125 119.539062 L 162.21875 94.078125 Z M 91.996094 261.160156 L 83.648438 265.980469 C 81.785156 267.058594 80.273438 269.945312 80.273438 272.429688 L 80.273438 280.753906 C 80.273438 283.242188 81.785156 284.382812 83.648438 283.308594 L 91.996094 278.488281 C 93.863281 277.410156 95.375 274.523438 95.375 272.039062 L 95.375 263.710938 C 95.375 261.226562 93.863281 260.085938 91.996094 261.160156 Z M 91.996094 261.160156 " fill-opacity="1" fill-rule="nonzero"/></g><g clip-path="url(#470050f320)"><path fill="#ffffff" d="M 183.292969 319.445312 L 218.773438 298.960938 L 218.773438 305.878906 L 183.292969 326.363281 Z M 316.179688 18.578125 L 316.179688 206.089844 C 316.179688 209.101562 314.347656 212.597656 312.09375 213.898438 L 277.984375 233.59375 L 277.984375 247.675781 L 204.042969 290.367188 L 189.15625 298.960938 L 189.15625 284.875 L 165.21875 298.695312 L 130.820312 318.558594 L 134.925781 337.160156 L 121.0625 330.570312 L 117.464844 361.242188 L 107.097656 360.082031 L 110.347656 332.363281 L 110.59375 330.234375 L 110.691406 329.410156 L 95.664062 332.765625 L 96.230469 335.511719 L 104.742188 333.613281 L 69.382812 354.027344 C 67.125 355.332031 65.296875 353.949219 65.296875 350.9375 L 65.296875 163.425781 C 65.296875 162.671875 65.410156 161.890625 65.617188 161.117188 C 65.71875 160.730469 65.847656 160.347656 65.992188 159.972656 C 66.726562 158.101562 67.972656 156.429688 69.382812 155.613281 L 114.140625 129.773438 L 114.140625 137.335938 L 71.617188 161.886719 L 71.617188 345.175781 L 96.644531 330.726562 L 99.226562 325.378906 L 121.9375 278.300781 L 128.585938 308.429688 L 129.339844 311.851562 L 167.832031 289.625 L 189.15625 277.3125 L 189.15625 256.355469 L 138.816406 285.421875 L 138.816406 182.746094 L 158.566406 171.34375 L 158.566406 266.835938 L 189.15625 249.171875 L 189.15625 154.984375 L 277.984375 103.699219 L 277.984375 197.890625 L 278.019531 197.871094 L 278.019531 205.054688 L 277.984375 205.074219 L 277.984375 226.03125 L 309.859375 207.628906 L 309.859375 24.335938 L 162.21875 109.578125 L 162.21875 134.898438 L 103.792969 168.632812 L 113.851562 153.148438 L 118.125 146.578125 L 118.125 119.539062 L 162.21875 94.078125 L 162.21875 102.015625 L 312.09375 15.488281 C 312.230469 15.40625 312.363281 15.339844 312.496094 15.28125 C 312.558594 15.253906 312.617188 15.234375 312.675781 15.210938 C 312.746094 15.183594 312.816406 15.15625 312.886719 15.132812 C 312.96875 15.105469 313.046875 15.089844 313.125 15.074219 C 313.171875 15.0625 313.21875 15.050781 313.261719 15.039062 C 313.355469 15.023438 313.445312 15.015625 313.535156 15.011719 C 313.5625 15.007812 313.589844 15.003906 313.617188 15.003906 C 313.71875 15 313.816406 15.003906 313.914062 15.011719 C 313.925781 15.011719 313.941406 15.011719 313.957031 15.015625 C 314.058594 15.027344 314.160156 15.046875 314.261719 15.070312 C 314.265625 15.074219 314.269531 15.074219 314.277344 15.074219 C 314.378906 15.101562 314.480469 15.136719 314.578125 15.183594 C 314.675781 15.226562 314.769531 15.277344 314.859375 15.339844 C 315.667969 15.867188 316.179688 16.992188 316.179688 18.578125 Z M 143.378906 121.09375 L 143.378906 110.207031 L 135.9375 114.503906 L 135.9375 125.394531 L 126.445312 130.871094 L 126.445312 139.414062 L 135.9375 133.933594 L 135.9375 144.824219 L 143.378906 140.527344 L 143.378906 129.636719 L 152.871094 124.15625 L 152.871094 115.617188 Z M 251.789062 139.34375 L 258.25 135.613281 L 258.25 143.027344 L 263.316406 140.101562 L 263.316406 132.6875 L 269.777344 128.957031 L 269.777344 123.140625 L 263.316406 126.871094 L 263.316406 119.457031 L 258.25 122.382812 L 258.25 129.796875 L 251.789062 133.527344 Z M 267.417969 93.730469 L 267.417969 90.515625 L 183.503906 138.964844 L 183.503906 145.792969 L 267.417969 97.34375 Z M 91.996094 167.585938 L 83.648438 172.402344 C 81.785156 173.480469 80.273438 176.367188 80.273438 178.855469 L 80.273438 187.179688 C 80.273438 189.664062 81.785156 190.808594 83.648438 189.730469 L 91.996094 184.910156 C 93.863281 183.835938 95.375 180.945312 95.375 178.460938 L 95.375 170.136719 C 95.375 167.652344 93.863281 166.507812 91.996094 167.585938 Z M 91.996094 167.585938 " fill-opacity="1" fill-rule="nonzero"/></g><path fill="#d7907b" d="M 165.21875 298.695312 L 189.15625 284.875 L 189.15625 292.160156 L 162.703125 307.433594 Z M 314.773438 15.277344 L 308.304688 11.5 C 308.304688 11.5 308.300781 11.496094 308.300781 11.496094 C 307.585938 11.078125 306.644531 11.117188 305.621094 11.707031 L 162.21875 94.5 L 162.21875 102.015625 L 312.09375 15.488281 C 312.230469 15.40625 312.363281 15.339844 312.496094 15.28125 C 312.558594 15.253906 312.617188 15.234375 312.675781 15.210938 C 312.746094 15.183594 312.816406 15.152344 312.886719 15.132812 C 312.96875 15.105469 313.046875 15.089844 313.125 15.074219 C 313.171875 15.0625 313.21875 15.046875 313.261719 15.039062 C 313.355469 15.023438 313.445312 15.015625 313.535156 15.011719 C 313.5625 15.007812 313.589844 15.003906 313.617188 15.003906 C 313.71875 15 313.816406 15.003906 313.914062 15.011719 C 313.925781 15.011719 313.941406 15.011719 313.957031 15.015625 C 314.0625 15.027344 314.160156 15.046875 314.261719 15.070312 C 314.265625 15.074219 314.269531 15.074219 314.277344 15.074219 C 314.378906 15.101562 314.480469 15.140625 314.578125 15.183594 C 314.675781 15.226562 314.769531 15.277344 314.859375 15.339844 C 314.832031 15.320312 314.804688 15.292969 314.773438 15.277344 Z M 114.140625 122.257812 L 62.90625 151.839844 L 69.382812 155.613281 L 114.140625 129.773438 Z M 277.984375 222.171875 L 277.984375 226.03125 L 309.859375 207.628906 L 306.535156 205.6875 Z M 99.226562 325.378906 L 71.617188 341.320312 L 71.617188 345.175781 L 96.644531 330.726562 Z M 129.339844 311.851562 L 167.832031 289.625 L 189.15625 277.3125 L 189.15625 273.457031 L 128.585938 308.429688 Z M 277.984375 197.890625 L 278.019531 197.871094 L 297.769531 186.46875 L 297.769531 83.792969 L 278.019531 95.195312 L 247.667969 112.714844 L 163.753906 161.167969 L 158.566406 164.160156 L 158.566406 266.835938 L 189.15625 249.171875 L 189.15625 154.984375 L 277.984375 103.699219 Z M 95.375 193.53125 C 95.375 191.042969 93.863281 189.902344 91.996094 190.976562 L 83.648438 195.796875 C 81.785156 196.875 80.273438 199.761719 80.273438 202.25 L 80.273438 210.574219 C 80.273438 213.058594 81.785156 214.203125 83.648438 213.125 L 91.996094 208.304688 C 93.863281 207.230469 95.375 204.339844 95.375 201.855469 Z M 91.996094 237.765625 L 83.648438 242.585938 C 81.785156 243.664062 80.273438 246.550781 80.273438 249.035156 L 80.273438 257.363281 C 80.273438 259.847656 81.785156 260.988281 83.648438 259.914062 L 91.996094 255.09375 C 93.863281 254.015625 95.375 251.128906 95.375 248.644531 L 95.375 240.320312 C 95.375 237.832031 93.863281 236.691406 91.996094 237.765625 Z M 110.59375 330.234375 L 110.691406 329.410156 L 95.664062 332.765625 L 96.230469 335.511719 L 104.742188 333.613281 L 110.347656 332.363281 Z M 121.0625 330.570312 L 121.628906 333.320312 L 135.496094 339.90625 L 134.925781 337.160156 Z M 107.097656 360.082031 L 107.664062 362.832031 L 118.035156 363.992188 L 117.464844 361.242188 Z M 99.808594 166.308594 L 103.792969 168.632812 L 113.851562 153.148438 L 118.125 146.578125 L 114.140625 144.253906 Z M 99.808594 166.308594 " fill-opacity="1" fill-rule="nonzero"/><g clip-path="url(#a8b29477d3)"><path fill="#1c2628" d="M 316.726562 17.925781 C 316.714844 17.785156 316.691406 17.65625 316.671875 17.523438 C 316.660156 17.453125 316.65625 17.382812 316.640625 17.316406 C 316.613281 17.167969 316.574219 17.027344 316.535156 16.890625 C 316.523438 16.84375 316.515625 16.796875 316.503906 16.753906 C 316.460938 16.613281 316.40625 16.480469 316.351562 16.351562 C 316.339844 16.316406 316.328125 16.277344 316.3125 16.242188 C 316.257812 16.117188 316.195312 16.003906 316.128906 15.894531 C 316.109375 15.859375 316.09375 15.816406 316.070312 15.785156 C 316.007812 15.679688 315.9375 15.589844 315.863281 15.496094 C 315.835938 15.460938 315.8125 15.417969 315.78125 15.382812 C 315.710938 15.304688 315.636719 15.234375 315.5625 15.164062 C 315.523438 15.125 315.484375 15.082031 315.441406 15.046875 C 315.371094 14.984375 315.289062 14.933594 315.210938 14.882812 C 315.203125 14.875 315.195312 14.871094 315.1875 14.867188 C 315.183594 14.863281 315.183594 14.859375 315.179688 14.855469 C 315.175781 14.855469 315.171875 14.851562 315.171875 14.851562 C 315.136719 14.824219 315.101562 14.800781 315.066406 14.777344 C 315.066406 14.777344 315.066406 14.777344 315.0625 14.777344 L 315.058594 14.773438 C 315.054688 14.773438 315.054688 14.773438 315.054688 14.773438 C 315.054688 14.773438 315.054688 14.769531 315.050781 14.769531 L 313.269531 13.730469 L 308.609375 11.011719 C 308.605469 11.007812 308.597656 11.003906 308.59375 11 C 307.664062 10.457031 306.503906 10.53125 305.332031 11.207031 L 162.574219 93.628906 C 162.554688 93.617188 162.539062 93.601562 162.519531 93.589844 C 162.515625 93.585938 162.511719 93.582031 162.511719 93.582031 C 162.507812 93.582031 162.507812 93.578125 162.507812 93.578125 C 162.507812 93.578125 162.507812 93.578125 162.503906 93.578125 L 158.527344 91.257812 C 158.347656 91.152344 158.125 91.152344 157.949219 91.253906 L 113.851562 116.714844 C 113.765625 116.761719 113.695312 116.832031 113.648438 116.914062 C 113.644531 116.917969 113.640625 116.921875 113.640625 116.925781 C 113.621094 116.957031 113.609375 116.996094 113.59375 117.03125 C 113.59375 117.042969 113.585938 117.050781 113.582031 117.0625 C 113.570312 117.109375 113.5625 117.160156 113.5625 117.214844 L 113.5625 121.925781 L 62.617188 151.339844 C 60.164062 152.753906 58.242188 156.402344 58.242188 159.648438 L 58.242188 347.164062 C 58.242188 348.953125 58.859375 350.335938 59.933594 350.964844 L 66.410156 354.738281 C 66.414062 354.738281 66.417969 354.742188 66.417969 354.742188 C 66.417969 354.742188 66.421875 354.742188 66.421875 354.742188 C 66.441406 354.753906 66.460938 354.761719 66.480469 354.773438 C 66.875 354.984375 67.304688 355.097656 67.757812 355.097656 C 68.367188 355.097656 69.015625 354.90625 69.671875 354.527344 L 104.957031 334.15625 L 109.679688 333.101562 L 106.523438 360.015625 C 106.523438 360.019531 106.523438 360.027344 106.523438 360.03125 C 106.519531 360.085938 106.519531 360.144531 106.53125 360.199219 L 107.101562 362.949219 C 107.152344 363.191406 107.351562 363.375 107.601562 363.40625 L 117.96875 364.566406 C 117.992188 364.566406 118.011719 364.570312 118.035156 364.570312 C 118.042969 364.570312 118.050781 364.570312 118.058594 364.566406 C 118.132812 364.566406 118.199219 364.546875 118.261719 364.519531 C 118.273438 364.515625 118.277344 364.507812 118.285156 364.503906 C 118.34375 364.476562 118.398438 364.441406 118.441406 364.394531 C 118.449219 364.386719 118.457031 364.386719 118.460938 364.378906 C 118.492188 364.34375 118.519531 364.304688 118.542969 364.261719 C 118.546875 364.253906 118.550781 364.246094 118.550781 364.238281 C 118.574219 364.1875 118.589844 364.136719 118.597656 364.082031 C 118.601562 364.074219 118.605469 364.066406 118.605469 364.058594 L 122.109375 334.183594 L 135.246094 340.429688 C 135.324219 340.464844 135.410156 340.484375 135.496094 340.484375 C 135.621094 340.484375 135.746094 340.441406 135.851562 340.359375 C 136.023438 340.226562 136.101562 340.003906 136.058594 339.789062 L 135.492188 337.042969 C 135.488281 337.042969 135.488281 337.039062 135.488281 337.039062 C 135.488281 337.039062 135.488281 337.035156 135.488281 337.035156 L 131.472656 318.84375 L 157.65625 303.726562 L 156.574219 307.375 C 155.96875 309.417969 156.832031 311.597656 158.675781 312.671875 L 183.003906 326.859375 C 183.003906 326.859375 183.003906 326.859375 183.003906 326.863281 C 183.09375 326.914062 183.191406 326.9375 183.292969 326.9375 C 183.390625 326.9375 183.492188 326.914062 183.578125 326.863281 C 183.582031 326.863281 183.582031 326.863281 183.582031 326.863281 L 219.058594 306.378906 C 219.238281 306.277344 219.347656 306.085938 219.347656 305.878906 L 219.347656 298.960938 C 219.347656 298.941406 219.34375 298.925781 219.339844 298.90625 C 219.335938 298.875 219.335938 298.84375 219.328125 298.8125 C 219.324219 298.792969 219.316406 298.78125 219.308594 298.765625 C 219.296875 298.734375 219.289062 298.703125 219.269531 298.671875 C 219.261719 298.65625 219.246094 298.644531 219.234375 298.628906 C 219.21875 298.601562 219.203125 298.578125 219.179688 298.554688 C 219.167969 298.542969 219.15625 298.535156 219.144531 298.527344 C 219.117188 298.503906 219.09375 298.480469 219.0625 298.460938 L 205.191406 290.371094 L 278.273438 248.175781 C 278.449219 248.074219 278.558594 247.882812 278.558594 247.675781 L 278.558594 233.925781 L 312.378906 214.398438 C 312.566406 214.292969 312.75 214.167969 312.933594 214.03125 C 312.972656 214 313.015625 213.96875 313.054688 213.9375 C 313.214844 213.8125 313.371094 213.679688 313.527344 213.535156 C 313.546875 213.519531 313.566406 213.5 313.585938 213.480469 C 313.980469 213.113281 314.347656 212.683594 314.683594 212.21875 C 314.800781 212.054688 314.910156 211.890625 315.019531 211.722656 C 315.09375 211.605469 315.160156 211.488281 315.230469 211.367188 C 315.285156 211.28125 315.335938 211.191406 315.386719 211.097656 C 315.453125 210.976562 315.515625 210.855469 315.578125 210.730469 C 315.628906 210.632812 315.679688 210.527344 315.726562 210.425781 C 315.796875 210.273438 315.863281 210.121094 315.929688 209.964844 C 316 209.796875 316.066406 209.628906 316.128906 209.457031 C 316.164062 209.355469 316.195312 209.253906 316.230469 209.152344 C 316.277344 209.007812 316.320312 208.863281 316.363281 208.71875 C 316.390625 208.625 316.414062 208.535156 316.4375 208.441406 C 316.5 208.207031 316.554688 207.96875 316.597656 207.734375 C 316.605469 207.679688 316.617188 207.628906 316.625 207.578125 C 316.65625 207.382812 316.683594 207.1875 316.703125 206.992188 C 316.710938 206.933594 316.71875 206.871094 316.722656 206.808594 C 316.742188 206.566406 316.753906 206.328125 316.753906 206.089844 L 316.753906 18.578125 C 316.753906 18.351562 316.746094 18.136719 316.726562 17.925781 Z M 312.777344 212.664062 C 312.640625 212.789062 312.503906 212.90625 312.363281 213.015625 C 312.332031 213.039062 312.300781 213.066406 312.269531 213.089844 C 312.117188 213.203125 311.960938 213.308594 311.804688 213.402344 L 278.558594 232.59375 L 278.558594 226.363281 L 310.148438 208.128906 C 310.191406 208.101562 310.230469 208.070312 310.265625 208.035156 C 310.273438 208.027344 310.277344 208.019531 310.28125 208.015625 C 310.285156 208.011719 310.285156 208.011719 310.285156 208.007812 C 310.320312 207.96875 310.347656 207.925781 310.371094 207.878906 C 310.375 207.871094 310.378906 207.859375 310.382812 207.851562 C 310.402344 207.804688 310.414062 207.757812 310.421875 207.710938 C 310.421875 207.703125 310.425781 207.699219 310.425781 207.691406 C 310.429688 207.679688 310.429688 207.667969 310.433594 207.65625 C 310.433594 207.644531 310.4375 207.636719 310.4375 207.628906 L 310.4375 24.335938 C 310.4375 24.132812 310.324219 23.941406 310.148438 23.839844 C 309.96875 23.734375 309.75 23.734375 309.570312 23.839844 L 306.246094 25.757812 L 162.796875 108.578125 L 162.796875 102.347656 L 312.378906 15.988281 C 312.460938 15.9375 312.554688 15.890625 312.644531 15.847656 C 312.675781 15.832031 312.707031 15.820312 312.738281 15.808594 C 312.800781 15.777344 312.867188 15.75 312.9375 15.726562 C 312.976562 15.710938 313.019531 15.695312 313.058594 15.683594 C 313.121094 15.664062 313.183594 15.648438 313.25 15.632812 C 313.296875 15.621094 313.339844 15.609375 313.386719 15.601562 C 313.457031 15.589844 313.527344 15.585938 313.59375 15.582031 C 313.636719 15.578125 313.671875 15.570312 313.714844 15.570312 C 313.753906 15.570312 313.792969 15.582031 313.832031 15.585938 C 313.894531 15.589844 313.957031 15.597656 314.019531 15.609375 C 314.082031 15.621094 314.140625 15.636719 314.199219 15.65625 C 314.25 15.671875 314.296875 15.695312 314.347656 15.71875 C 314.390625 15.738281 314.4375 15.746094 314.476562 15.769531 C 314.503906 15.785156 314.527344 15.808594 314.554688 15.824219 C 314.585938 15.847656 314.617188 15.871094 314.648438 15.894531 C 314.675781 15.917969 314.707031 15.933594 314.734375 15.957031 C 314.785156 16 314.828125 16.054688 314.875 16.105469 C 314.902344 16.136719 314.929688 16.160156 314.957031 16.191406 C 314.996094 16.246094 315.03125 16.304688 315.070312 16.363281 C 315.09375 16.402344 315.125 16.4375 315.148438 16.480469 C 315.179688 16.535156 315.203125 16.59375 315.230469 16.652344 C 315.257812 16.707031 315.285156 16.757812 315.308594 16.816406 C 315.328125 16.867188 315.34375 16.925781 315.363281 16.980469 C 315.386719 17.050781 315.414062 17.121094 315.4375 17.199219 C 315.449219 17.253906 315.460938 17.316406 315.472656 17.375 C 315.492188 17.457031 315.511719 17.535156 315.527344 17.621094 C 315.539062 17.699219 315.546875 17.78125 315.558594 17.863281 C 315.566406 17.9375 315.578125 18.003906 315.582031 18.082031 C 315.597656 18.242188 315.601562 18.40625 315.601562 18.578125 L 315.601562 206.089844 C 315.601562 206.300781 315.589844 206.515625 315.570312 206.734375 C 315.566406 206.773438 315.5625 206.8125 315.558594 206.851562 C 315.539062 207.054688 315.511719 207.253906 315.476562 207.457031 C 315.472656 207.46875 315.472656 207.480469 315.46875 207.492188 C 315.121094 209.441406 314.101562 211.40625 312.808594 212.632812 C 312.796875 212.644531 312.785156 212.652344 312.777344 212.664062 Z M 277.40625 234.589844 L 277.40625 247.34375 L 204.042969 289.703125 L 202.894531 290.367188 L 189.734375 297.960938 L 189.734375 155.316406 L 277.40625 104.699219 Z M 204.941406 306.28125 L 183.292969 318.777344 L 163.851562 307.4375 L 176.859375 299.925781 L 188.582031 293.15625 L 188.582031 298.960938 C 188.582031 299.167969 188.691406 299.355469 188.871094 299.460938 C 188.960938 299.511719 189.058594 299.539062 189.160156 299.539062 C 189.257812 299.539062 189.359375 299.511719 189.445312 299.460938 L 204.039062 291.035156 L 217.621094 298.957031 Z M 218.195312 299.960938 L 218.195312 305.546875 L 183.871094 325.363281 L 183.871094 319.777344 L 207.304688 306.246094 Z M 134.109375 336.132812 L 121.308594 330.050781 C 121.300781 330.046875 121.292969 330.046875 121.28125 330.042969 C 121.214844 330.015625 121.140625 330 121.070312 330 C 121.066406 330 121.0625 329.996094 121.058594 329.996094 C 121.050781 329.996094 121.046875 329.992188 121.039062 329.996094 C 121.035156 329.996094 121.03125 329.996094 121.027344 329.996094 C 120.949219 330.003906 120.875 330.023438 120.804688 330.058594 C 120.796875 330.0625 120.789062 330.0625 120.78125 330.066406 C 120.765625 330.074219 120.75 330.089844 120.734375 330.101562 C 120.71875 330.109375 120.707031 330.117188 120.691406 330.128906 C 120.6875 330.136719 120.675781 330.140625 120.671875 330.148438 C 120.667969 330.148438 120.667969 330.152344 120.664062 330.152344 C 120.644531 330.171875 120.632812 330.191406 120.617188 330.210938 C 120.609375 330.21875 120.597656 330.230469 120.589844 330.238281 C 120.578125 330.253906 120.570312 330.269531 120.5625 330.289062 C 120.554688 330.300781 120.546875 330.316406 120.542969 330.328125 C 120.535156 330.34375 120.527344 330.355469 120.519531 330.371094 C 120.519531 330.375 120.519531 330.375 120.519531 330.378906 C 120.503906 330.417969 120.492188 330.460938 120.488281 330.503906 L 116.960938 360.605469 L 107.738281 359.574219 L 110.871094 332.835938 L 110.941406 332.230469 L 111.0625 331.199219 L 111.132812 330.589844 L 111.21875 329.875 L 111.265625 329.476562 C 111.273438 329.40625 111.265625 329.339844 111.246094 329.273438 C 111.242188 329.25 111.238281 329.222656 111.230469 329.203125 C 111.214844 329.160156 111.195312 329.121094 111.167969 329.085938 C 111.167969 329.082031 111.167969 329.082031 111.164062 329.082031 C 111.140625 329.046875 111.113281 329.011719 111.078125 328.980469 C 111.0625 328.964844 111.039062 328.953125 111.023438 328.941406 C 111.011719 328.933594 111 328.925781 110.992188 328.917969 C 110.933594 328.886719 110.871094 328.859375 110.808594 328.847656 C 110.796875 328.84375 110.785156 328.84375 110.773438 328.84375 C 110.703125 328.832031 110.636719 328.832031 110.566406 328.847656 L 96.699219 331.941406 L 97.085938 331.136719 L 97.976562 329.292969 L 99.667969 325.789062 L 100.558594 323.945312 L 121.730469 280.050781 L 127.929688 308.140625 L 128.0625 308.730469 L 128.191406 309.320312 L 128.6875 311.5625 L 128.945312 312.742188 L 130.167969 318.269531 L 130.425781 319.449219 Z M 117.308594 363.332031 L 108.144531 362.304688 L 107.820312 360.746094 L 116.984375 361.769531 L 117.25 363.042969 Z M 121.859375 331.589844 L 129.4375 335.1875 L 134.417969 337.554688 L 134.695312 338.890625 L 122.136719 332.921875 L 121.925781 331.910156 Z M 158.234375 92.421875 L 161.070312 94.074219 L 118.125 118.871094 L 115.289062 117.214844 Z M 188.582031 291.824219 L 163.652344 306.21875 L 165.707031 299.078125 L 188.582031 285.875 Z M 59.402344 159.320312 C 59.40625 159.28125 59.410156 159.242188 59.414062 159.207031 C 59.417969 159.132812 59.421875 159.058594 59.429688 158.984375 C 59.4375 158.886719 59.449219 158.785156 59.460938 158.683594 C 59.472656 158.609375 59.480469 158.535156 59.492188 158.464844 C 59.507812 158.359375 59.527344 158.257812 59.546875 158.15625 C 59.558594 158.085938 59.574219 158.011719 59.589844 157.9375 C 59.613281 157.835938 59.636719 157.730469 59.664062 157.628906 C 59.679688 157.558594 59.695312 157.488281 59.714844 157.417969 C 59.746094 157.308594 59.777344 157.203125 59.8125 157.09375 C 59.832031 157.027344 59.851562 156.964844 59.871094 156.898438 C 59.910156 156.78125 59.953125 156.667969 59.996094 156.550781 C 60.015625 156.496094 60.035156 156.441406 60.058594 156.386719 C 60.117188 156.238281 60.179688 156.089844 60.242188 155.945312 C 60.25 155.925781 60.257812 155.90625 60.265625 155.890625 C 60.34375 155.722656 60.421875 155.558594 60.507812 155.394531 C 60.519531 155.367188 60.535156 155.34375 60.550781 155.316406 C 60.621094 155.183594 60.691406 155.054688 60.765625 154.925781 C 60.792969 154.878906 60.824219 154.835938 60.851562 154.789062 C 60.917969 154.683594 60.980469 154.578125 61.046875 154.480469 C 61.082031 154.425781 61.117188 154.378906 61.152344 154.324219 C 61.21875 154.234375 61.28125 154.144531 61.347656 154.054688 C 61.386719 154.003906 61.425781 153.953125 61.464844 153.902344 C 61.53125 153.820312 61.597656 153.738281 61.664062 153.660156 C 61.707031 153.609375 61.75 153.5625 61.792969 153.511719 C 61.863281 153.4375 61.929688 153.363281 62 153.292969 C 62.042969 153.246094 62.089844 153.203125 62.132812 153.15625 C 62.207031 153.089844 62.277344 153.023438 62.351562 152.957031 C 62.394531 152.917969 62.441406 152.878906 62.488281 152.839844 C 62.5625 152.777344 62.640625 152.71875 62.714844 152.660156 C 62.761719 152.625 62.808594 152.589844 62.855469 152.558594 C 62.875 152.542969 62.894531 152.527344 62.917969 152.511719 L 62.921875 152.515625 L 68.3125 155.65625 C 68.296875 155.667969 68.289062 155.679688 68.273438 155.691406 C 68.074219 155.855469 67.878906 156.035156 67.6875 156.226562 C 67.652344 156.265625 67.613281 156.304688 67.578125 156.34375 C 67.398438 156.53125 67.226562 156.730469 67.058594 156.9375 C 67.042969 156.957031 67.027344 156.972656 67.015625 156.992188 C 66.839844 157.214844 66.675781 157.449219 66.515625 157.695312 C 66.480469 157.746094 66.445312 157.800781 66.414062 157.855469 C 66.257812 158.101562 66.109375 158.355469 65.972656 158.617188 C 65.960938 158.640625 65.949219 158.664062 65.9375 158.6875 C 65.808594 158.933594 65.695312 159.1875 65.585938 159.441406 C 65.558594 159.5 65.535156 159.558594 65.511719 159.617188 C 65.402344 159.886719 65.300781 160.160156 65.210938 160.441406 C 65.195312 160.496094 65.179688 160.554688 65.160156 160.609375 C 65.085938 160.859375 65.019531 161.113281 64.960938 161.367188 C 64.953125 161.414062 64.9375 161.464844 64.925781 161.515625 C 64.867188 161.792969 64.824219 162.074219 64.789062 162.355469 C 64.785156 162.386719 64.777344 162.421875 64.773438 162.453125 L 59.410156 159.324219 Z M 307.289062 11.796875 C 307.382812 11.800781 307.476562 11.8125 307.570312 11.832031 C 307.601562 11.839844 307.632812 11.84375 307.664062 11.851562 C 307.777344 11.882812 307.886719 11.925781 307.996094 11.988281 C 308 11.988281 308.007812 11.992188 308.011719 11.996094 L 308.015625 11.996094 L 312.539062 14.640625 C 312.472656 14.664062 312.40625 14.695312 312.335938 14.726562 C 312.296875 14.742188 312.253906 14.757812 312.210938 14.777344 C 312.074219 14.839844 311.941406 14.910156 311.804688 14.988281 L 162.796875 101.015625 L 162.796875 94.832031 L 305.90625 12.207031 C 305.992188 12.160156 306.082031 12.113281 306.171875 12.070312 C 306.199219 12.054688 306.226562 12.046875 306.253906 12.03125 C 306.324219 12 306.398438 11.972656 306.472656 11.945312 C 306.503906 11.933594 306.535156 11.921875 306.566406 11.910156 C 306.65625 11.878906 306.753906 11.855469 306.847656 11.835938 C 306.859375 11.832031 306.871094 11.828125 306.882812 11.828125 C 306.992188 11.808594 307.101562 11.796875 307.210938 11.796875 C 307.238281 11.792969 307.265625 11.796875 307.289062 11.796875 Z M 161.644531 102.347656 L 161.644531 134.566406 L 105.585938 166.929688 L 111.074219 158.484375 L 118.609375 146.890625 C 118.609375 146.886719 118.613281 146.882812 118.613281 146.875 C 118.628906 146.851562 118.640625 146.824219 118.652344 146.796875 C 118.660156 146.773438 118.671875 146.753906 118.679688 146.734375 C 118.683594 146.71875 118.683594 146.707031 118.683594 146.695312 C 118.6875 146.679688 118.6875 146.664062 118.691406 146.648438 C 118.691406 146.640625 118.691406 146.632812 118.695312 146.625 C 118.695312 146.609375 118.699219 146.59375 118.699219 146.578125 L 118.699219 119.871094 L 161.644531 95.078125 Z M 278.558594 222.507812 L 306.535156 206.355469 L 308.710938 207.625 L 278.558594 225.03125 Z M 188.582031 154.984375 L 188.582031 248.839844 L 159.140625 265.835938 L 159.140625 164.492188 L 163.175781 162.164062 L 163.753906 161.832031 L 164.328125 161.5 L 247.09375 113.714844 L 247.667969 113.382812 L 248.246094 113.050781 L 260.8125 105.796875 L 261.964844 105.128906 L 265.113281 103.3125 L 266.265625 102.644531 L 269.292969 100.898438 L 271.226562 99.78125 L 271.296875 99.742188 L 272.382812 99.113281 L 277.441406 96.195312 L 278.019531 95.859375 L 278.59375 95.527344 L 297.191406 84.792969 L 297.191406 186.132812 L 278.59375 196.871094 L 278.558594 196.890625 L 278.558594 103.699219 C 278.558594 103.496094 278.449219 103.304688 278.273438 103.203125 C 278.191406 103.15625 278.105469 103.132812 278.019531 103.128906 C 277.960938 103.125 277.90625 103.128906 277.851562 103.140625 C 277.796875 103.15625 277.742188 103.171875 277.695312 103.203125 L 277.441406 103.347656 L 188.871094 154.484375 C 188.820312 154.511719 188.777344 154.550781 188.738281 154.589844 C 188.640625 154.695312 188.582031 154.835938 188.582031 154.984375 Z M 188.582031 256.023438 L 139.394531 284.421875 L 139.394531 183.082031 L 157.988281 172.34375 L 157.988281 266.835938 C 157.988281 267.042969 158.097656 267.230469 158.277344 267.335938 C 158.367188 267.386719 158.464844 267.414062 158.566406 267.414062 C 158.664062 267.414062 158.765625 267.386719 158.855469 267.335938 L 188.582031 250.171875 Z M 159.140625 156.246094 L 159.140625 149.726562 L 297.191406 70.023438 L 297.191406 83.460938 L 278.59375 94.195312 L 278.019531 94.53125 L 277.441406 94.863281 L 272.457031 97.738281 L 271.222656 98.453125 L 270.453125 98.894531 L 270.066406 99.121094 L 266.265625 101.316406 L 265.113281 101.980469 L 261.964844 103.796875 L 260.8125 104.464844 L 258.332031 105.894531 L 253.316406 108.789062 L 248.246094 111.71875 L 247.667969 112.050781 L 247.09375 112.382812 L 164.328125 160.167969 L 163.753906 160.5 L 163.175781 160.832031 L 159.140625 163.164062 Z M 157.988281 164.160156 L 157.988281 171.011719 L 139.394531 181.75 L 139.394531 168.3125 L 157.988281 157.574219 Z M 305.960938 205.355469 L 278.558594 221.175781 L 278.558594 205.238281 C 278.582031 205.179688 278.59375 205.117188 278.59375 205.054688 L 278.59375 198.203125 L 298.054688 186.964844 C 298.234375 186.863281 298.34375 186.671875 298.34375 186.46875 L 298.34375 69.023438 C 298.34375 68.820312 298.234375 68.628906 298.054688 68.527344 C 297.878906 68.421875 297.65625 68.421875 297.480469 68.527344 L 158.277344 148.894531 C 158.097656 148.996094 157.988281 149.1875 157.988281 149.394531 L 157.988281 156.246094 L 138.527344 167.480469 C 138.347656 167.582031 138.238281 167.773438 138.238281 167.980469 L 138.238281 285.421875 C 138.238281 285.628906 138.347656 285.816406 138.527344 285.921875 C 138.617188 285.972656 138.714844 286 138.816406 286 C 138.914062 286 139.015625 285.972656 139.105469 285.921875 L 188.582031 257.355469 L 188.582031 273.125 L 128.980469 307.535156 L 122.5 278.175781 C 122.445312 277.9375 122.246094 277.757812 122.003906 277.730469 C 121.753906 277.695312 121.523438 277.828125 121.417969 278.050781 L 98.78125 324.96875 L 72.191406 340.320312 L 72.191406 162.222656 L 113.5625 138.335938 L 113.5625 144.082031 L 99.324219 165.996094 C 99.238281 166.128906 99.210938 166.289062 99.246094 166.441406 C 99.285156 166.59375 99.378906 166.726562 99.515625 166.808594 L 103.5 169.128906 C 103.515625 169.140625 103.53125 169.144531 103.546875 169.148438 C 103.550781 169.152344 103.558594 169.152344 103.5625 169.15625 C 103.574219 169.160156 103.582031 169.164062 103.59375 169.167969 C 103.609375 169.175781 103.625 169.183594 103.644531 169.191406 C 103.691406 169.203125 103.742188 169.207031 103.792969 169.207031 C 103.796875 169.207031 103.796875 169.207031 103.800781 169.207031 C 103.847656 169.207031 103.890625 169.203125 103.933594 169.191406 C 103.9375 169.191406 103.9375 169.191406 103.941406 169.191406 C 103.953125 169.1875 103.964844 169.179688 103.980469 169.171875 C 104.011719 169.164062 104.042969 169.152344 104.070312 169.136719 C 104.074219 169.132812 104.078125 169.132812 104.082031 169.132812 L 162.507812 135.398438 C 162.6875 135.296875 162.796875 135.105469 162.796875 134.898438 L 162.796875 109.910156 L 305.960938 27.253906 Z M 188.582031 274.679688 L 188.582031 276.980469 L 168.78125 288.410156 L 168.78125 288.414062 L 167.34375 289.242188 L 162.292969 292.15625 L 161.566406 292.578125 L 160.84375 292.996094 L 129.734375 310.957031 L 129.238281 308.714844 L 188.582031 274.453125 Z M 96.203125 330.316406 L 72.191406 344.179688 L 72.191406 341.652344 L 97.894531 326.8125 Z M 103.609375 167.859375 L 100.621094 166.117188 L 114.324219 145.03125 L 117.308594 146.769531 L 109.570312 158.679688 Z M 113.5625 123.257812 L 113.5625 129.441406 L 69.386719 154.949219 L 69.382812 154.949219 L 64.054688 151.839844 Z M 69.09375 353.527344 C 68.601562 353.8125 67.910156 354.082031 67.265625 353.863281 C 67.238281 353.855469 67.214844 353.839844 67.1875 353.832031 C 67.125 353.804688 67.058594 353.78125 66.996094 353.742188 C 66.996094 353.742188 66.996094 353.742188 66.992188 353.742188 C 66.28125 353.328125 65.871094 352.308594 65.871094 350.9375 L 65.871094 163.425781 C 65.871094 160.601562 67.578125 157.324219 69.671875 156.113281 L 113.5625 130.773438 L 113.5625 137.003906 L 71.328125 161.386719 C 71.148438 161.492188 71.039062 161.683594 71.039062 161.886719 L 71.039062 345.175781 C 71.039062 345.382812 71.148438 345.574219 71.328125 345.675781 C 71.417969 345.726562 71.515625 345.753906 71.617188 345.753906 C 71.714844 345.753906 71.816406 345.726562 71.902344 345.675781 L 95.3125 332.160156 L 95.144531 332.515625 C 95.125 332.550781 95.117188 332.589844 95.105469 332.628906 C 95.101562 332.640625 95.097656 332.652344 95.097656 332.660156 C 95.085938 332.726562 95.085938 332.792969 95.097656 332.859375 C 95.097656 332.867188 95.097656 332.875 95.097656 332.882812 L 95.667969 335.628906 C 95.699219 335.78125 95.789062 335.914062 95.917969 335.996094 C 96.011719 336.058594 96.121094 336.089844 96.230469 336.089844 C 96.273438 336.089844 96.316406 336.085938 96.355469 336.074219 L 101.195312 334.996094 Z M 104.53125 333.070312 L 96.675781 334.824219 L 96.339844 333.203125 L 105.839844 331.082031 L 109.3125 330.308594 L 110.023438 330.148438 L 109.972656 330.59375 L 109.890625 331.308594 L 109.820312 331.886719 L 108.292969 332.230469 L 106.410156 332.648438 Z M 129.996094 312.136719 L 160.367188 294.601562 L 161.089844 294.183594 L 161.816406 293.765625 L 166.882812 290.839844 L 167.601562 290.425781 L 168.320312 290.007812 L 168.324219 290.007812 L 188.582031 278.3125 L 188.582031 284.542969 L 166.167969 297.484375 L 164.730469 298.3125 L 159.585938 301.285156 L 158.132812 302.121094 L 131.214844 317.664062 Z M 152.683594 164.582031 C 152.839844 164.304688 153.195312 164.210938 153.46875 164.367188 L 155.621094 165.59375 C 155.753906 165.667969 155.851562 165.796875 155.890625 165.945312 C 155.933594 166.09375 155.910156 166.25 155.835938 166.382812 L 153.683594 170.09375 C 153.578125 170.277344 153.382812 170.378906 153.183594 170.378906 C 153.085938 170.378906 152.988281 170.355469 152.894531 170.304688 C 152.621094 170.144531 152.527344 169.789062 152.6875 169.515625 L 154.546875 166.308594 L 152.898438 165.371094 C 152.621094 165.210938 152.527344 164.859375 152.683594 164.582031 Z M 144.414062 172.226562 C 144.375 172.078125 144.394531 171.921875 144.472656 171.789062 L 146.621094 168.078125 C 146.78125 167.804688 147.136719 167.707031 147.410156 167.871094 C 147.6875 168.03125 147.78125 168.382812 147.621094 168.65625 L 145.761719 171.863281 L 147.40625 172.804688 C 147.683594 172.960938 147.78125 173.3125 147.621094 173.589844 C 147.515625 173.777344 147.320312 173.882812 147.121094 173.882812 C 147.023438 173.882812 146.925781 173.855469 146.835938 173.804688 L 144.6875 172.578125 C 144.550781 172.503906 144.453125 172.375 144.414062 172.226562 Z M 288.148438 78.921875 C 288.304688 78.644531 288.65625 78.546875 288.933594 78.703125 L 290.589844 79.648438 L 292.453125 76.433594 C 292.613281 76.15625 292.964844 76.0625 293.242188 76.222656 C 293.515625 76.382812 293.609375 76.734375 293.449219 77.011719 L 291.589844 80.21875 L 293.238281 81.15625 C 293.511719 81.3125 293.609375 81.667969 293.453125 81.941406 C 293.347656 82.128906 293.152344 82.234375 292.949219 82.234375 C 292.855469 82.234375 292.753906 82.210938 292.664062 82.160156 L 291.011719 81.214844 L 289.148438 84.429688 C 289.042969 84.613281 288.847656 84.71875 288.648438 84.71875 C 288.550781 84.71875 288.453125 84.691406 288.359375 84.640625 C 288.085938 84.480469 287.992188 84.128906 288.152344 83.851562 L 290.011719 80.644531 L 288.363281 79.707031 C 288.085938 79.550781 287.992188 79.195312 288.148438 78.921875 Z M 280.847656 88.976562 C 280.9375 89.027344 281.039062 89.054688 281.136719 89.054688 C 281.238281 89.054688 281.335938 89.027344 281.425781 88.976562 L 285.726562 86.496094 C 285.90625 86.390625 286.015625 86.199219 286.015625 85.996094 L 286.015625 81.058594 C 286.015625 80.851562 285.90625 80.664062 285.726562 80.558594 C 285.550781 80.457031 285.328125 80.457031 285.152344 80.558594 L 280.847656 83.042969 C 280.671875 83.144531 280.5625 83.335938 280.5625 83.542969 L 280.5625 88.476562 C 280.5625 88.683594 280.671875 88.875 280.847656 88.976562 Z M 281.714844 83.875 L 284.863281 82.058594 L 284.863281 85.664062 L 281.714844 87.480469 Z M 273.070312 90.46875 C 273.015625 90.230469 273.113281 89.976562 273.335938 89.847656 L 277.636719 87.363281 C 277.914062 87.207031 278.265625 87.300781 278.425781 87.574219 C 278.585938 87.851562 278.492188 88.203125 278.214844 88.363281 L 278.019531 88.476562 L 277.441406 88.808594 L 273.914062 90.847656 C 273.824219 90.898438 273.722656 90.925781 273.625 90.925781 C 273.574219 90.925781 273.523438 90.917969 273.472656 90.902344 C 273.332031 90.863281 273.203125 90.773438 273.125 90.636719 C 273.09375 90.582031 273.082031 90.527344 273.070312 90.46875 Z M 172.433594 145.996094 C 172.589844 145.71875 172.941406 145.621094 173.21875 145.78125 L 174.675781 146.609375 L 175.253906 146.941406 L 175.371094 147.007812 C 175.503906 147.082031 175.601562 147.210938 175.640625 147.359375 C 175.644531 147.367188 175.640625 147.375 175.644531 147.382812 C 175.675781 147.523438 175.65625 147.671875 175.585938 147.796875 L 173.617188 151.191406 L 173.433594 151.507812 C 173.328125 151.691406 173.132812 151.792969 172.933594 151.792969 C 172.847656 151.792969 172.761719 151.769531 172.679688 151.730469 C 172.667969 151.726562 172.65625 151.722656 172.644531 151.714844 C 172.371094 151.558594 172.277344 151.203125 172.4375 150.929688 L 173.910156 148.382812 L 174.296875 147.722656 L 174.097656 147.609375 L 173.519531 147.277344 L 172.648438 146.78125 C 172.371094 146.625 172.277344 146.273438 172.433594 145.996094 Z M 164.164062 153.640625 C 164.136719 153.539062 164.148438 153.4375 164.175781 153.339844 C 164.1875 153.292969 164.199219 153.246094 164.222656 153.203125 L 164.707031 152.367188 L 166.371094 149.492188 C 166.53125 149.21875 166.882812 149.121094 167.160156 149.285156 C 167.4375 149.441406 167.53125 149.796875 167.371094 150.070312 L 166.710938 151.207031 L 166.128906 152.210938 L 165.550781 153.210938 L 165.511719 153.277344 L 167.15625 154.21875 C 167.355469 154.332031 167.457031 154.542969 167.441406 154.753906 C 167.4375 154.839844 167.417969 154.925781 167.371094 155.003906 C 167.265625 155.191406 167.070312 155.292969 166.871094 155.292969 C 166.785156 155.292969 166.699219 155.273438 166.617188 155.230469 C 166.605469 155.226562 166.597656 155.226562 166.585938 155.21875 L 164.4375 153.992188 C 164.398438 153.972656 164.371094 153.9375 164.339844 153.910156 C 164.257812 153.835938 164.191406 153.75 164.164062 153.640625 Z M 183.214844 146.292969 C 183.21875 146.296875 183.226562 146.300781 183.234375 146.304688 C 183.320312 146.347656 183.410156 146.371094 183.5 146.371094 C 183.601562 146.371094 183.699219 146.34375 183.789062 146.292969 L 247.667969 109.414062 L 248.242188 109.082031 L 260.96875 101.734375 L 265.554688 99.085938 L 267.707031 97.84375 C 267.886719 97.742188 267.996094 97.550781 267.996094 97.34375 L 267.996094 90.515625 C 267.996094 90.308594 267.886719 90.121094 267.707031 90.015625 C 267.53125 89.914062 267.308594 89.914062 267.132812 90.015625 L 183.214844 138.464844 C 183.035156 138.570312 182.925781 138.761719 182.925781 138.964844 L 182.925781 145.792969 C 182.925781 145.800781 182.925781 145.808594 182.929688 145.816406 C 182.933594 146.011719 183.039062 146.195312 183.214844 146.292969 Z M 184.078125 142.511719 L 184.078125 139.296875 L 266.84375 91.515625 L 266.84375 97.011719 L 184.078125 144.796875 Z M 195.113281 184.402344 C 194.953125 184.125 195.046875 183.773438 195.324219 183.613281 L 248.136719 153.125 C 248.410156 152.964844 248.765625 153.058594 248.921875 153.335938 C 249.082031 153.609375 248.988281 153.964844 248.710938 154.121094 L 195.898438 184.613281 C 195.808594 184.667969 195.710938 184.691406 195.613281 184.691406 C 195.414062 184.691406 195.21875 184.585938 195.113281 184.402344 Z M 239.011719 175.871094 L 210.632812 192.257812 C 210.542969 192.308594 210.445312 192.332031 210.347656 192.332031 C 210.148438 192.332031 209.953125 192.230469 209.847656 192.046875 C 209.6875 191.769531 209.78125 191.417969 210.058594 191.257812 L 238.433594 174.875 C 238.710938 174.714844 239.0625 174.808594 239.222656 175.085938 C 239.382812 175.359375 239.289062 175.714844 239.011719 175.871094 Z M 236.523438 168.015625 C 236.683594 168.292969 236.589844 168.644531 236.3125 168.804688 L 210.632812 183.632812 C 210.542969 183.683594 210.445312 183.707031 210.347656 183.707031 C 210.148438 183.707031 209.953125 183.605469 209.847656 183.421875 C 209.6875 183.144531 209.78125 182.792969 210.058594 182.632812 L 235.738281 167.804688 C 236.011719 167.644531 236.363281 167.742188 236.523438 168.015625 Z M 263.867188 161.523438 L 242.953125 173.597656 C 242.863281 173.648438 242.761719 173.675781 242.664062 173.675781 C 242.464844 173.675781 242.273438 173.570312 242.164062 173.386719 C 242.003906 173.109375 242.101562 172.757812 242.375 172.597656 L 263.289062 160.523438 C 263.566406 160.363281 263.917969 160.457031 264.078125 160.734375 C 264.238281 161.007812 264.144531 161.363281 263.867188 161.523438 Z M 270.277344 152.84375 C 270.4375 153.117188 270.34375 153.46875 270.066406 153.628906 L 247.832031 166.46875 C 247.742188 166.519531 247.640625 166.542969 247.542969 166.542969 C 247.34375 166.542969 247.152344 166.441406 247.042969 166.257812 C 246.886719 165.980469 246.980469 165.628906 247.253906 165.46875 L 269.492188 152.632812 C 269.765625 152.472656 270.117188 152.566406 270.277344 152.84375 Z M 270.277344 148.53125 C 270.4375 148.804688 270.34375 149.15625 270.066406 149.316406 L 240.253906 166.53125 C 240.164062 166.582031 240.066406 166.605469 239.964844 166.605469 C 239.765625 166.605469 239.574219 166.503906 239.464844 166.320312 C 239.308594 166.042969 239.402344 165.691406 239.679688 165.53125 L 269.492188 148.316406 C 269.765625 148.160156 270.117188 148.253906 270.277344 148.53125 Z M 244.101562 167.957031 C 244.261719 168.230469 244.167969 168.582031 243.890625 168.742188 L 225.328125 179.460938 C 225.238281 179.511719 225.140625 179.535156 225.042969 179.535156 C 224.84375 179.535156 224.648438 179.433594 224.542969 179.25 C 224.382812 178.972656 224.476562 178.621094 224.753906 178.460938 L 243.3125 167.742188 C 243.589844 167.585938 243.941406 167.679688 244.101562 167.957031 Z M 195.113281 196.238281 C 194.953125 195.964844 195.046875 195.609375 195.324219 195.453125 L 220.8125 180.734375 C 221.085938 180.574219 221.441406 180.671875 221.597656 180.945312 C 221.757812 181.222656 221.664062 181.574219 221.386719 181.734375 L 195.898438 196.449219 C 195.808594 196.503906 195.710938 196.527344 195.613281 196.527344 C 195.414062 196.527344 195.21875 196.425781 195.113281 196.238281 Z M 195.113281 191.925781 C 194.953125 191.648438 195.046875 191.296875 195.324219 191.136719 L 206.117188 184.90625 C 206.390625 184.75 206.742188 184.84375 206.902344 185.117188 C 207.0625 185.394531 206.96875 185.746094 206.691406 185.90625 L 195.898438 192.136719 C 195.808594 192.191406 195.710938 192.214844 195.613281 192.214844 C 195.414062 192.214844 195.21875 192.113281 195.113281 191.925781 Z M 195.113281 200.550781 C 194.953125 200.277344 195.046875 199.921875 195.324219 199.765625 L 206.117188 193.53125 C 206.390625 193.375 206.742188 193.46875 206.902344 193.742188 C 207.0625 194.019531 206.96875 194.371094 206.691406 194.53125 L 195.898438 200.761719 C 195.808594 200.816406 195.710938 200.839844 195.613281 200.839844 C 195.414062 200.839844 195.21875 200.738281 195.113281 200.550781 Z M 195.113281 165.839844 C 194.953125 165.5625 195.046875 165.210938 195.324219 165.050781 L 202.8125 160.726562 C 203.089844 160.566406 203.441406 160.660156 203.601562 160.9375 C 203.761719 161.214844 203.667969 161.566406 203.390625 161.726562 L 195.898438 166.050781 C 195.808594 166.101562 195.710938 166.128906 195.613281 166.128906 C 195.414062 166.128906 195.21875 166.023438 195.113281 165.839844 Z M 195.113281 161.527344 C 194.953125 161.25 195.046875 160.898438 195.324219 160.738281 L 206.117188 154.507812 C 206.390625 154.347656 206.742188 154.441406 206.902344 154.71875 C 207.0625 154.996094 206.96875 155.347656 206.691406 155.507812 L 195.898438 161.738281 C 195.808594 161.789062 195.710938 161.816406 195.613281 161.816406 C 195.414062 161.816406 195.21875 161.710938 195.113281 161.527344 Z M 195.113281 170.152344 C 194.953125 169.875 195.046875 169.523438 195.324219 169.363281 L 206.117188 163.132812 C 206.390625 162.976562 206.742188 163.070312 206.902344 163.34375 C 207.0625 163.621094 206.96875 163.972656 206.691406 164.132812 L 195.898438 170.363281 C 195.808594 170.414062 195.710938 170.441406 195.613281 170.441406 C 195.414062 170.441406 195.21875 170.335938 195.113281 170.152344 Z M 195.113281 211.898438 C 194.953125 211.621094 195.046875 211.269531 195.324219 211.109375 L 223.363281 194.917969 C 223.636719 194.761719 223.992188 194.855469 224.152344 195.128906 C 224.3125 195.40625 224.214844 195.757812 223.941406 195.917969 L 195.898438 212.109375 C 195.808594 212.160156 195.710938 212.183594 195.613281 212.183594 C 195.414062 212.183594 195.21875 212.082031 195.113281 211.898438 Z M 206.902344 213.714844 C 207.0625 213.992188 206.96875 214.34375 206.691406 214.503906 L 195.898438 220.734375 C 195.808594 220.785156 195.710938 220.808594 195.613281 220.808594 C 195.414062 220.808594 195.21875 220.707031 195.113281 220.523438 C 194.953125 220.246094 195.046875 219.894531 195.324219 219.734375 L 206.117188 213.503906 C 206.390625 213.34375 206.742188 213.4375 206.902344 213.714844 Z M 195.113281 216.210938 C 194.953125 215.933594 195.046875 215.582031 195.324219 215.421875 L 220.8125 200.707031 C 221.085938 200.546875 221.441406 200.640625 221.597656 200.917969 C 221.757812 201.195312 221.664062 201.546875 221.386719 201.707031 L 195.898438 216.421875 C 195.808594 216.472656 195.710938 216.496094 195.613281 216.496094 C 195.414062 216.496094 195.21875 216.394531 195.113281 216.210938 Z M 254.304688 178.390625 L 227.730469 193.730469 C 227.640625 193.78125 227.542969 193.808594 227.445312 193.808594 C 227.246094 193.808594 227.050781 193.703125 226.945312 193.519531 C 226.785156 193.242188 226.878906 192.890625 227.15625 192.730469 L 253.726562 177.390625 C 254 177.230469 254.355469 177.324219 254.515625 177.601562 C 254.675781 177.878906 254.578125 178.230469 254.304688 178.390625 Z M 270.277344 168.5 C 270.4375 168.777344 270.34375 169.128906 270.066406 169.289062 L 258.335938 176.0625 C 258.242188 176.113281 258.144531 176.136719 258.046875 176.136719 C 257.847656 176.136719 257.652344 176.035156 257.546875 175.851562 C 257.386719 175.574219 257.480469 175.222656 257.757812 175.0625 L 269.492188 168.289062 C 269.765625 168.128906 270.117188 168.222656 270.277344 168.5 Z M 239.222656 195.054688 C 239.382812 195.332031 239.289062 195.683594 239.011719 195.84375 L 209.921875 212.636719 C 209.828125 212.691406 209.730469 212.714844 209.632812 212.714844 C 209.433594 212.714844 209.238281 212.613281 209.132812 212.425781 C 208.972656 212.152344 209.066406 211.800781 209.34375 211.640625 L 238.433594 194.84375 C 238.710938 194.683594 239.0625 194.777344 239.222656 195.054688 Z M 244.101562 187.925781 C 244.261719 188.203125 244.167969 188.554688 243.890625 188.714844 L 224.617188 199.839844 C 224.527344 199.894531 224.425781 199.917969 224.328125 199.917969 C 224.128906 199.917969 223.933594 199.816406 223.828125 199.628906 C 223.667969 199.355469 223.761719 199 224.039062 198.84375 L 243.3125 187.714844 C 243.589844 187.554688 243.941406 187.648438 244.101562 187.925781 Z M 270.277344 172.8125 C 270.4375 173.089844 270.34375 173.441406 270.066406 173.601562 L 247.117188 186.847656 C 247.027344 186.902344 246.929688 186.925781 246.832031 186.925781 C 246.632812 186.925781 246.4375 186.824219 246.332031 186.636719 C 246.171875 186.363281 246.265625 186.011719 246.542969 185.851562 L 269.492188 172.601562 C 269.765625 172.441406 270.117188 172.535156 270.277344 172.8125 Z M 241.664062 192.980469 L 263.289062 180.492188 C 263.566406 180.332031 263.917969 180.425781 264.078125 180.703125 C 264.238281 180.980469 264.144531 181.332031 263.867188 181.492188 L 242.238281 193.980469 C 242.148438 194.03125 242.050781 194.054688 241.953125 194.054688 C 241.753906 194.054688 241.558594 193.953125 241.453125 193.769531 C 241.292969 193.492188 241.386719 193.140625 241.664062 192.980469 Z M 203.179688 225.210938 C 202.1875 224.636719 200.910156 224.746094 199.582031 225.511719 C 197.03125 226.984375 195.035156 230.429688 195.035156 233.359375 C 195.035156 234.875 195.578125 236.019531 196.5625 236.589844 C 196.980469 236.832031 197.453125 236.953125 197.957031 236.953125 C 198.644531 236.953125 199.394531 236.726562 200.160156 236.285156 C 202.710938 234.8125 204.707031 231.367188 204.707031 228.441406 C 204.707031 226.925781 204.164062 225.777344 203.179688 225.210938 Z M 199.582031 235.289062 C 198.625 235.839844 197.757812 235.945312 197.136719 235.589844 C 196.527344 235.234375 196.1875 234.445312 196.1875 233.359375 C 196.1875 230.847656 197.96875 227.773438 200.160156 226.511719 C 200.746094 226.171875 201.296875 226 201.78125 226 C 202.085938 226 202.363281 226.070312 202.605469 226.207031 C 203.21875 226.5625 203.554688 227.355469 203.554688 228.441406 C 203.554688 230.953125 201.773438 234.023438 199.582031 235.289062 Z M 204.082031 240.558594 C 203.972656 240.390625 203.839844 240.246094 203.703125 240.109375 C 203.542969 239.957031 203.375 239.816406 203.179688 239.703125 C 202.1875 239.132812 200.910156 239.238281 199.582031 240.007812 C 197.914062 240.96875 196.488281 242.777344 195.695312 244.730469 C 195.585938 245.011719 195.480469 245.289062 195.394531 245.570312 C 195.316406 245.832031 195.253906 246.089844 195.199219 246.351562 C 195.09375 246.859375 195.035156 247.363281 195.035156 247.851562 C 195.035156 249.367188 195.578125 250.515625 196.5625 251.082031 C 196.664062 251.140625 196.769531 251.191406 196.875 251.234375 C 197.132812 251.34375 197.40625 251.402344 197.695312 251.429688 C 197.78125 251.4375 197.867188 251.445312 197.957031 251.445312 C 198.371094 251.445312 198.804688 251.355469 199.25 251.195312 C 199.546875 251.089844 199.851562 250.957031 200.160156 250.78125 C 200.484375 250.59375 200.800781 250.371094 201.105469 250.125 C 201.632812 249.695312 202.125 249.183594 202.566406 248.617188 C 202.839844 248.265625 203.09375 247.898438 203.320312 247.515625 C 204.179688 246.074219 204.707031 244.4375 204.707031 242.933594 C 204.707031 242.222656 204.582031 241.59375 204.351562 241.066406 C 204.273438 240.882812 204.1875 240.714844 204.082031 240.558594 Z M 200.4375 249.179688 C 200.164062 249.40625 199.875 249.613281 199.582031 249.78125 C 199.296875 249.949219 199.015625 250.066406 198.75 250.152344 C 198.128906 250.351562 197.570312 250.332031 197.136719 250.082031 C 196.527344 249.730469 196.1875 248.9375 196.1875 247.851562 C 196.1875 247.105469 196.347656 246.308594 196.628906 245.527344 C 196.734375 245.230469 196.855469 244.9375 196.992188 244.648438 C 197.152344 244.316406 197.332031 243.988281 197.53125 243.675781 C 198.230469 242.554688 199.152344 241.585938 200.160156 241.003906 C 200.746094 240.667969 201.296875 240.496094 201.78125 240.496094 C 202.085938 240.496094 202.363281 240.5625 202.605469 240.703125 C 202.617188 240.710938 202.625 240.71875 202.636719 240.726562 C 202.804688 240.828125 202.949219 240.96875 203.074219 241.136719 C 203.183594 241.285156 203.273438 241.457031 203.34375 241.648438 C 203.480469 242.007812 203.554688 242.4375 203.554688 242.933594 C 203.554688 245.109375 202.21875 247.703125 200.4375 249.179688 Z M 203.179688 254.199219 C 202.1875 253.625 200.910156 253.734375 199.582031 254.5 C 197.03125 255.972656 195.035156 259.417969 195.035156 262.347656 C 195.035156 263.859375 195.578125 265.007812 196.5625 265.574219 C 196.980469 265.816406 197.453125 265.9375 197.957031 265.9375 C 198.644531 265.9375 199.394531 265.714844 200.160156 265.273438 C 202.710938 263.800781 204.707031 260.355469 204.707031 257.425781 C 204.707031 255.914062 204.164062 254.765625 203.179688 254.199219 Z M 199.582031 264.273438 C 198.625 264.828125 197.757812 264.933594 197.136719 264.578125 C 196.527344 264.222656 196.1875 263.429688 196.1875 262.347656 C 196.1875 259.835938 197.96875 256.761719 200.160156 255.5 C 200.746094 255.160156 201.296875 254.988281 201.78125 254.988281 C 202.085938 254.988281 202.363281 255.058594 202.605469 255.195312 C 203.21875 255.550781 203.554688 256.34375 203.554688 257.425781 C 203.554688 259.9375 201.773438 263.011719 199.582031 264.273438 Z M 232.3125 209.175781 C 232.472656 209.453125 232.375 209.804688 232.101562 209.964844 L 208.644531 223.507812 C 208.554688 223.558594 208.453125 223.585938 208.355469 223.585938 C 208.15625 223.585938 207.964844 223.480469 207.855469 223.296875 C 207.695312 223.019531 207.792969 222.667969 208.066406 222.507812 L 231.523438 208.964844 C 231.800781 208.808594 232.152344 208.902344 232.3125 209.175781 Z M 207.855469 226.703125 C 207.695312 226.425781 207.792969 226.074219 208.066406 225.914062 L 220.246094 218.882812 C 220.519531 218.726562 220.875 218.820312 221.03125 219.09375 C 221.191406 219.371094 221.097656 219.722656 220.820312 219.882812 L 208.644531 226.914062 C 208.554688 226.964844 208.453125 226.992188 208.355469 226.992188 C 208.15625 226.992188 207.964844 226.886719 207.855469 226.703125 Z M 232.3125 225.375 C 232.472656 225.648438 232.375 226.003906 232.101562 226.164062 L 208.644531 239.703125 C 208.554688 239.757812 208.453125 239.78125 208.355469 239.78125 C 208.15625 239.78125 207.964844 239.679688 207.855469 239.492188 C 207.78125 239.363281 207.765625 239.214844 207.796875 239.078125 C 207.832031 238.925781 207.921875 238.789062 208.066406 238.707031 L 231.523438 225.164062 C 231.667969 225.078125 231.832031 225.070312 231.980469 225.113281 C 232.113281 225.15625 232.234375 225.242188 232.3125 225.375 Z M 207.855469 242.898438 C 207.695312 242.625 207.792969 242.273438 208.066406 242.113281 L 220.246094 235.082031 C 220.519531 234.921875 220.875 235.015625 221.03125 235.292969 C 221.191406 235.570312 221.097656 235.921875 220.820312 236.082031 L 208.644531 243.109375 C 208.554688 243.164062 208.453125 243.1875 208.355469 243.1875 C 208.15625 243.1875 207.964844 243.085938 207.855469 242.898438 Z M 232.3125 239.453125 C 232.472656 239.730469 232.375 240.082031 232.101562 240.242188 L 208.644531 253.785156 C 208.554688 253.835938 208.453125 253.863281 208.355469 253.863281 C 208.15625 253.863281 207.964844 253.757812 207.855469 253.574219 C 207.695312 253.296875 207.792969 252.945312 208.066406 252.785156 L 231.523438 239.242188 C 231.800781 239.082031 232.152344 239.179688 232.3125 239.453125 Z M 221.03125 249.371094 C 221.191406 249.648438 221.097656 250 220.820312 250.160156 L 208.644531 257.191406 C 208.554688 257.242188 208.453125 257.269531 208.355469 257.269531 C 208.15625 257.269531 207.964844 257.164062 207.855469 256.980469 C 207.695312 256.703125 207.792969 256.351562 208.066406 256.191406 L 220.246094 249.160156 C 220.519531 249 220.875 249.097656 221.03125 249.371094 Z M 269.707031 235.070312 C 269.867188 235.347656 269.773438 235.699219 269.496094 235.859375 L 257.210938 242.953125 C 256.757812 243.214844 256.246094 243.113281 255.992188 242.710938 L 255.714844 242.273438 C 255.707031 242.285156 255.699219 242.296875 255.695312 242.3125 L 254.84375 244.027344 C 254.535156 244.652344 253.964844 244.980469 253.457031 244.824219 C 253.132812 244.726562 252.789062 244.386719 252.871094 243.753906 L 253.027344 242.625 L 250.917969 246.488281 C 250.777344 246.746094 250.464844 246.855469 250.195312 246.746094 C 249.921875 246.636719 249.777344 246.339844 249.855469 246.054688 C 250.082031 245.25 249.941406 245.050781 249.941406 245.046875 C 249.664062 244.804688 247.878906 245.582031 246.195312 246.820312 C 245.957031 247 245.625 246.964844 245.425781 246.746094 C 245.230469 246.523438 245.230469 246.191406 245.425781 245.972656 C 245.714844 245.652344 246 245.328125 246.285156 244.996094 C 246.65625 244.570312 247.023438 244.136719 247.378906 243.699219 C 247.71875 243.289062 248.042969 242.875 248.359375 242.46875 C 249.546875 240.933594 250.558594 239.464844 251.171875 238.316406 C 251.351562 237.980469 251.496094 237.675781 251.601562 237.40625 C 251.722656 237.097656 251.789062 236.832031 251.800781 236.625 C 251.808594 236.488281 251.800781 236.367188 251.757812 236.277344 C 251.695312 236.152344 251.421875 236.09375 251.027344 236.128906 C 249.90625 236.222656 248.71875 237.375 247.566406 239.066406 C 247.339844 239.398438 247.117188 239.75 246.894531 240.121094 C 246.703125 240.441406 246.507812 240.773438 246.320312 241.121094 C 245.71875 242.214844 245.136719 243.417969 244.589844 244.644531 C 244.457031 244.941406 244.328125 245.238281 244.203125 245.535156 C 244.078125 245.828125 243.957031 246.121094 243.835938 246.410156 C 243.835938 246.410156 243.835938 246.414062 243.835938 246.414062 C 242.703125 249.164062 241.792969 251.839844 241.28125 253.535156 C 241.207031 253.785156 240.976562 253.945312 240.730469 253.945312 C 240.675781 253.945312 240.617188 253.9375 240.5625 253.921875 C 240.257812 253.832031 240.085938 253.507812 240.175781 253.203125 C 240.367188 252.566406 241.101562 250.191406 242.199219 247.355469 C 242.308594 247.074219 242.421875 246.785156 242.539062 246.496094 C 242.65625 246.207031 242.773438 245.917969 242.894531 245.625 C 242.894531 245.621094 242.894531 245.621094 242.894531 245.621094 C 243.367188 244.488281 243.886719 243.324219 244.445312 242.199219 C 244.605469 241.882812 244.765625 241.566406 244.929688 241.257812 C 245.105469 240.925781 245.285156 240.597656 245.46875 240.28125 C 247.113281 237.398438 249.003906 235.136719 250.933594 234.980469 C 252.105469 234.882812 252.585938 235.355469 252.792969 235.765625 C 252.828125 235.839844 252.847656 235.921875 252.871094 236.007812 C 252.921875 236.195312 252.9375 236.410156 252.917969 236.644531 C 252.898438 236.875 252.855469 237.125 252.777344 237.390625 C 252.472656 238.441406 251.742188 239.726562 250.859375 241.023438 C 250.605469 241.402344 250.339844 241.777344 250.0625 242.148438 C 250.0625 242.148438 250.0625 242.152344 250.0625 242.152344 C 249.765625 242.554688 249.460938 242.953125 249.160156 243.335938 C 249.160156 243.339844 249.160156 243.339844 249.160156 243.339844 C 248.9375 243.617188 248.71875 243.894531 248.503906 244.15625 C 249.3125 243.851562 250.082031 243.746094 250.59375 244.097656 C 250.675781 244.15625 250.746094 244.21875 250.804688 244.285156 L 252.316406 241.515625 L 252.367188 241.425781 C 252.683594 240.839844 253.246094 240.542969 253.730469 240.699219 C 253.734375 240.699219 253.734375 240.699219 253.734375 240.699219 C 254.050781 240.804688 254.390625 241.144531 254.304688 241.761719 L 254.164062 242.800781 L 254.660156 241.800781 C 254.898438 241.316406 255.328125 240.988281 255.75 240.96875 C 256.054688 240.953125 256.335938 241.09375 256.5 241.351562 L 256.8125 241.851562 L 268.921875 234.859375 C 269.195312 234.699219 269.546875 234.792969 269.707031 235.070312 Z M 267.429688 239.390625 C 267.476562 239.472656 267.496094 239.558594 267.5 239.644531 C 267.511719 239.855469 267.414062 240.066406 267.21875 240.179688 L 245.574219 252.679688 C 245.480469 252.730469 245.382812 252.753906 245.285156 252.753906 C 245.171875 252.753906 245.0625 252.71875 244.964844 252.65625 C 244.894531 252.605469 244.832031 252.546875 244.785156 252.46875 C 244.722656 252.359375 244.710938 252.246094 244.71875 252.132812 C 244.734375 251.949219 244.828125 251.777344 244.996094 251.679688 L 266.640625 239.179688 C 266.8125 239.082031 267.007812 239.089844 267.171875 239.167969 C 267.273438 239.21875 267.367188 239.285156 267.429688 239.390625 Z M 270.066406 122.640625 C 269.890625 122.539062 269.667969 122.539062 269.492188 122.640625 L 263.894531 125.871094 L 263.894531 119.457031 C 263.894531 119.25 263.785156 119.058594 263.605469 118.957031 C 263.425781 118.855469 263.207031 118.855469 263.027344 118.957031 L 257.960938 121.882812 C 257.78125 121.984375 257.671875 122.175781 257.671875 122.382812 L 257.671875 129.464844 L 251.5 133.027344 C 251.320312 133.132812 251.210938 133.320312 251.210938 133.527344 L 251.210938 139.34375 C 251.210938 139.550781 251.320312 139.738281 251.5 139.84375 C 251.675781 139.945312 251.898438 139.945312 252.074219 139.84375 L 257.671875 136.613281 L 257.671875 143.027344 C 257.671875 143.234375 257.78125 143.425781 257.960938 143.527344 C 258.050781 143.578125 258.148438 143.605469 258.25 143.605469 C 258.347656 143.605469 258.449219 143.578125 258.539062 143.527344 L 263.605469 140.601562 C 263.785156 140.496094 263.894531 140.308594 263.894531 140.101562 L 263.894531 133.019531 L 270.066406 129.457031 C 270.246094 129.351562 270.355469 129.160156 270.355469 128.957031 L 270.355469 123.140625 C 270.355469 122.933594 270.246094 122.746094 270.066406 122.640625 Z M 269.203125 128.625 L 263.027344 132.1875 C 262.851562 132.289062 262.742188 132.480469 262.742188 132.6875 L 262.742188 139.769531 L 258.824219 142.027344 L 258.824219 135.613281 C 258.824219 135.40625 258.714844 135.214844 258.539062 135.113281 C 258.449219 135.0625 258.347656 135.035156 258.25 135.035156 C 258.148438 135.035156 258.050781 135.0625 257.960938 135.113281 L 252.363281 138.34375 L 252.363281 133.859375 L 258.539062 130.296875 C 258.714844 130.195312 258.824219 130.003906 258.824219 129.796875 L 258.824219 122.714844 L 262.742188 120.453125 L 262.742188 126.871094 C 262.742188 127.078125 262.851562 127.265625 263.027344 127.371094 C 263.207031 127.472656 263.425781 127.472656 263.605469 127.371094 L 269.203125 124.140625 Z M 153.160156 115.117188 C 153.027344 115.039062 152.871094 115.023438 152.726562 115.058594 C 152.675781 115.070312 152.628906 115.089844 152.582031 115.117188 L 143.957031 120.097656 L 143.957031 110.207031 C 143.957031 110 143.847656 109.808594 143.667969 109.707031 C 143.488281 109.601562 143.269531 109.601562 143.089844 109.707031 L 135.648438 114.003906 C 135.46875 114.105469 135.359375 114.296875 135.359375 114.503906 L 135.359375 125.058594 L 126.15625 130.375 C 126.113281 130.398438 126.070312 130.433594 126.035156 130.46875 C 125.929688 130.574219 125.867188 130.71875 125.867188 130.871094 L 125.867188 139.414062 C 125.867188 139.621094 125.980469 139.808594 126.15625 139.914062 C 126.335938 140.015625 126.554688 140.015625 126.734375 139.914062 L 135.359375 134.933594 L 135.359375 144.824219 C 135.359375 145.03125 135.46875 145.222656 135.648438 145.324219 C 135.738281 145.375 135.835938 145.402344 135.9375 145.402344 C 136.035156 145.402344 136.136719 145.375 136.222656 145.324219 L 143.667969 141.027344 C 143.847656 140.921875 143.957031 140.734375 143.957031 140.527344 L 143.957031 129.96875 L 153.160156 124.65625 C 153.335938 124.554688 153.445312 124.363281 153.445312 124.15625 L 153.445312 115.617188 C 153.445312 115.519531 153.421875 115.429688 153.378906 115.347656 C 153.328125 115.253906 153.253906 115.171875 153.160156 115.117188 Z M 143.089844 121.59375 C 143.269531 121.699219 143.488281 121.699219 143.667969 121.59375 L 152.292969 116.613281 L 152.292969 123.824219 L 143.089844 129.136719 C 142.914062 129.242188 142.804688 129.429688 142.804688 129.636719 L 142.804688 140.195312 L 136.511719 143.824219 L 136.511719 133.933594 C 136.511719 133.726562 136.402344 133.539062 136.222656 133.433594 C 136.136719 133.382812 136.035156 133.359375 135.9375 133.359375 C 135.835938 133.359375 135.738281 133.382812 135.648438 133.433594 L 127.023438 138.414062 L 127.023438 131.207031 L 136.222656 125.894531 C 136.402344 125.789062 136.511719 125.597656 136.511719 125.394531 L 136.511719 114.835938 L 142.804688 111.203125 L 142.804688 121.097656 C 142.804688 121.207031 142.835938 121.3125 142.894531 121.402344 C 142.941406 121.480469 143.007812 121.546875 143.089844 121.59375 Z M 94.496094 166.90625 C 93.695312 166.445312 92.707031 166.507812 91.710938 167.085938 L 83.363281 171.90625 C 81.308594 173.089844 79.699219 176.144531 79.699219 178.855469 L 79.699219 187.179688 C 79.699219 188.699219 80.226562 189.875 81.152344 190.410156 C 81.503906 190.613281 81.894531 190.714844 82.308594 190.714844 C 82.828125 190.714844 83.382812 190.550781 83.9375 190.230469 L 92.285156 185.410156 C 94.339844 184.226562 95.949219 181.171875 95.949219 178.460938 L 95.949219 170.136719 C 95.949219 168.617188 95.417969 167.441406 94.496094 166.90625 Z M 94.796875 178.460938 C 94.796875 180.722656 93.382812 183.445312 91.710938 184.414062 L 83.363281 189.230469 C 82.917969 189.488281 82.277344 189.726562 81.730469 189.410156 C 81.171875 189.089844 80.851562 188.273438 80.851562 187.179688 L 80.851562 178.855469 C 80.851562 176.59375 82.265625 173.871094 83.9375 172.902344 L 92.285156 168.085938 C 92.578125 167.914062 92.957031 167.753906 93.335938 167.753906 C 93.535156 167.753906 93.730469 167.796875 93.917969 167.90625 C 94.476562 168.226562 94.796875 169.042969 94.796875 170.136719 Z M 94.496094 190.300781 C 93.695312 189.839844 92.707031 189.902344 91.710938 190.480469 L 83.363281 195.300781 C 81.308594 196.484375 79.699219 199.535156 79.699219 202.25 L 79.699219 210.574219 C 79.699219 212.089844 80.226562 213.269531 81.152344 213.804688 C 81.503906 214.007812 81.894531 214.109375 82.308594 214.109375 C 82.828125 214.109375 83.382812 213.945312 83.9375 213.625 L 92.285156 208.804688 C 94.339844 207.617188 95.949219 204.566406 95.949219 201.855469 L 95.949219 193.53125 C 95.949219 192.011719 95.417969 190.835938 94.496094 190.300781 Z M 94.796875 201.855469 C 94.796875 204.113281 93.382812 206.839844 91.710938 207.804688 L 83.363281 212.625 C 82.917969 212.882812 82.277344 213.121094 81.730469 212.804688 C 81.171875 212.480469 80.851562 211.667969 80.851562 210.574219 L 80.851562 202.25 C 80.851562 199.988281 82.265625 197.261719 83.9375 196.296875 L 92.285156 191.476562 C 92.578125 191.308594 92.957031 191.148438 93.335938 191.148438 C 93.535156 191.148438 93.730469 191.191406 93.917969 191.300781 C 94.476562 191.621094 94.796875 192.433594 94.796875 193.53125 Z M 95.949219 216.925781 L 95.949219 225.25 C 95.949219 227.960938 94.339844 231.011719 92.285156 232.199219 L 83.9375 237.019531 C 83.382812 237.339844 82.828125 237.5 82.308594 237.5 C 81.894531 237.5 81.503906 237.402344 81.152344 237.195312 C 80.226562 236.664062 79.699219 235.484375 79.699219 233.96875 L 79.699219 225.640625 C 79.699219 222.933594 81.308594 219.878906 83.363281 218.691406 L 91.710938 213.875 C 92.707031 213.296875 93.695312 213.234375 94.496094 213.695312 C 95.417969 214.230469 95.949219 215.40625 95.949219 216.925781 Z M 94.496094 237.089844 C 93.695312 236.628906 92.707031 236.691406 91.710938 237.265625 L 83.363281 242.085938 C 81.308594 243.273438 79.699219 246.324219 79.699219 249.035156 L 79.699219 257.359375 C 79.699219 258.878906 80.226562 260.058594 81.152344 260.589844 C 81.503906 260.792969 81.894531 260.894531 82.308594 260.894531 C 82.828125 260.894531 83.382812 260.734375 83.9375 260.414062 L 92.285156 255.59375 C 94.339844 254.40625 95.949219 251.355469 95.949219 248.644531 L 95.949219 240.320312 C 95.949219 238.800781 95.417969 237.621094 94.496094 237.089844 Z M 94.796875 248.644531 C 94.796875 250.902344 93.382812 253.628906 91.710938 254.59375 L 83.363281 259.414062 C 82.917969 259.667969 82.277344 259.910156 81.730469 259.59375 C 81.171875 259.269531 80.851562 258.457031 80.851562 257.359375 L 80.851562 249.035156 C 80.851562 246.777344 82.265625 244.050781 83.9375 243.085938 L 92.285156 238.265625 C 92.578125 238.097656 92.957031 237.9375 93.335938 237.9375 C 93.535156 237.9375 93.730469 237.980469 93.917969 238.089844 C 94.476562 238.410156 94.796875 239.222656 94.796875 240.320312 Z M 94.496094 260.484375 C 93.695312 260.023438 92.707031 260.085938 91.710938 260.660156 L 83.363281 265.480469 C 81.308594 266.667969 79.699219 269.71875 79.699219 272.429688 L 79.699219 280.753906 C 79.699219 282.273438 80.226562 283.453125 81.152344 283.984375 C 81.503906 284.1875 81.894531 284.289062 82.308594 284.289062 C 82.828125 284.289062 83.382812 284.128906 83.9375 283.808594 L 92.285156 278.988281 C 94.339844 277.800781 95.949219 274.75 95.949219 272.039062 L 95.949219 263.714844 C 95.949219 262.195312 95.417969 261.015625 94.496094 260.484375 Z M 94.796875 272.039062 C 94.796875 274.296875 93.382812 277.023438 91.710938 277.988281 L 83.363281 282.808594 C 82.917969 283.0625 82.277344 283.304688 81.730469 282.988281 C 81.171875 282.664062 80.851562 281.851562 80.851562 280.753906 L 80.851562 272.429688 C 80.851562 270.171875 82.265625 267.445312 83.9375 266.480469 L 92.285156 261.660156 C 92.578125 261.492188 92.957031 261.332031 93.335938 261.332031 C 93.535156 261.332031 93.730469 261.375 93.917969 261.480469 C 94.476562 261.804688 94.796875 262.617188 94.796875 263.714844 Z M 94.796875 272.039062 " fill-opacity="1" fill-rule="nonzero"/></g></svg>