<svg xmlns="http://www.w3.org/2000/svg" xmlns:xlink="http://www.w3.org/1999/xlink" width="500" zoomAndPan="magnify" viewBox="0 0 375 374.999991" height="500" preserveAspectRatio="xMidYMid meet" version="1.0"><defs><clipPath id="ccde7f385d"><path d="M 18 14 L 356.816406 14 L 356.816406 360.960938 L 18 360.960938 Z M 18 14 " clip-rule="nonzero"/></clipPath><clipPath id="88bd35109e"><path d="M 28 21 L 356.816406 21 L 356.816406 360.960938 L 28 360.960938 Z M 28 21 " clip-rule="nonzero"/></clipPath><clipPath id="7fce5acda2"><path d="M 17.816406 14 L 356.816406 14 L 356.816406 360.960938 L 17.816406 360.960938 Z M 17.816406 14 " clip-rule="nonzero"/></clipPath></defs><g clip-path="url(#ccde7f385d)"><path fill="#1c2628" d="M 258.015625 361.082031 C 257.90625 361.082031 257.800781 361.054688 257.707031 361 C 257.515625 360.890625 257.398438 360.683594 257.398438 360.464844 L 257.398438 276.75 C 257.398438 257.386719 248.027344 239.027344 232.332031 227.628906 C 232.296875 227.601562 232.253906 227.589844 232.210938 227.589844 C 232.175781 227.589844 232.140625 227.597656 232.109375 227.617188 L 47.769531 334.046875 C 47.394531 334.265625 47.015625 334.46875 46.644531 334.660156 C 44.042969 335.984375 41.542969 336.660156 39.210938 336.660156 C 37.335938 336.660156 35.617188 336.21875 34.105469 335.34375 L 24.214844 329.597656 C 20.574219 327.484375 18.558594 323.105469 18.542969 317.273438 L 18.144531 177.484375 C 18.113281 165.636719 26.472656 151.15625 36.78125 145.203125 L 258.214844 17.359375 C 261.21875 15.625 264.097656 14.746094 266.769531 14.746094 C 268.660156 14.746094 270.386719 15.195312 271.910156 16.082031 L 281.757812 21.804688 C 285.410156 23.933594 287.417969 28.308594 287.433594 34.136719 L 287.78125 156.667969 C 287.78125 156.75 287.832031 156.820312 287.902344 156.855469 C 290.496094 158.039062 293.035156 159.226562 295.453125 160.386719 C 299.320312 162.160156 302.230469 163.609375 304.351562 164.816406 C 308.734375 167.085938 312.769531 169.320312 316.359375 171.46875 C 316.390625 171.488281 316.425781 171.496094 316.464844 171.496094 C 316.5 171.496094 316.535156 171.488281 316.566406 171.46875 L 326.785156 165.570312 C 326.878906 165.515625 326.988281 165.488281 327.09375 165.488281 C 327.210938 165.488281 327.328125 165.519531 327.425781 165.585938 C 345.84375 177.316406 356.835938 197.359375 356.835938 219.195312 L 356.835938 303.765625 C 356.835938 303.988281 356.71875 304.191406 356.527344 304.300781 L 258.324219 361 C 258.230469 361.054688 258.125 361.082031 258.015625 361.082031 Z M 258.015625 361.082031 " fill-opacity="1" fill-rule="nonzero"/></g><g clip-path="url(#88bd35109e)"><path fill="#ffffff" d="M 33.253906 334.015625 C 32.6875 333.554688 32.171875 333.023438 31.707031 332.417969 C 32.171875 333.023438 32.6875 333.554688 33.253906 334.015625 Z M 34.445312 334.828125 C 36.269531 335.871094 38.476562 336.25 40.929688 335.90625 C 38.476562 336.25 36.269531 335.871094 34.445312 334.828125 Z M 43.988281 335.136719 C 43.105469 335.453125 42.242188 335.679688 41.40625 335.828125 C 42.242188 335.679688 43.105469 335.453125 43.988281 335.136719 Z M 34.445312 334.828125 C 34.027344 334.589844 33.628906 334.320312 33.253906 334.015625 C 33.628906 334.320312 34.027344 334.589844 34.445312 334.828125 Z M 195.609375 188.953125 C 192.679688 187.242188 190.488281 184.277344 189.308594 180.234375 C 188.675781 178.0625 188.328125 175.589844 188.328125 172.820312 C 188.328125 156.84375 199.613281 137.378906 213.535156 129.339844 C 220.550781 125.289062 226.894531 124.914062 231.464844 127.582031 C 231.464844 127.582031 237.605469 131.1875 244.710938 135.363281 C 244.40625 113.839844 228.992188 105.253906 210.011719 116.214844 C 190.839844 127.285156 175.296875 154.089844 175.296875 176.089844 C 175.296875 180.359375 175.886719 184.125 176.972656 187.355469 L 148.8125 203.613281 L 148.808594 201.730469 C 148.804688 200.484375 148.363281 199.609375 147.652344 199.199219 C 147.652344 199.199219 147.65625 199.203125 147.660156 199.203125 L 144.992188 197.652344 C 144.273438 197.234375 143.28125 197.292969 142.183594 197.929688 L 105.046875 219.367188 C 102.867188 220.628906 101.109375 223.671875 101.113281 226.175781 L 103.78125 227.726562 L 103.789062 229.609375 L 97.992188 232.953125 L 97.988281 231.082031 C 97.984375 229.835938 97.542969 228.960938 96.832031 228.550781 C 96.832031 228.550781 96.835938 228.550781 96.839844 228.554688 L 94.171875 227.003906 C 93.453125 226.585938 92.457031 226.644531 91.359375 227.277344 L 54.226562 248.71875 C 52.046875 249.976562 50.285156 253.023438 50.292969 255.527344 L 52.960938 257.078125 L 52.96875 258.949219 L 28.871094 272.859375 L 28.617188 183.210938 C 28.585938 171.539062 36.792969 157.328125 46.945312 151.464844 L 268.378906 23.621094 C 268.695312 23.4375 269.011719 23.265625 269.328125 23.101562 C 269.429688 23.046875 269.53125 23.003906 269.636719 22.953125 C 269.84375 22.847656 270.054688 22.738281 270.261719 22.644531 C 270.390625 22.585938 270.515625 22.535156 270.640625 22.480469 C 270.824219 22.402344 271.007812 22.320312 271.1875 22.246094 C 271.320312 22.191406 271.449219 22.148438 271.582031 22.101562 C 271.753906 22.035156 271.925781 21.96875 272.09375 21.910156 C 272.230469 21.863281 272.359375 21.828125 272.492188 21.785156 C 272.65625 21.734375 272.824219 21.675781 272.988281 21.632812 C 273.125 21.59375 273.257812 21.5625 273.394531 21.53125 C 273.550781 21.488281 273.707031 21.445312 273.863281 21.414062 C 274.003906 21.382812 274.140625 21.359375 274.277344 21.335938 C 274.425781 21.308594 274.574219 21.277344 274.71875 21.253906 C 274.855469 21.230469 274.988281 21.21875 275.121094 21.203125 C 275.265625 21.183594 275.414062 21.164062 275.558594 21.148438 C 275.6875 21.136719 275.816406 21.136719 275.945312 21.128906 C 276.089844 21.121094 276.234375 21.109375 276.375 21.105469 C 276.503906 21.101562 276.628906 21.109375 276.757812 21.109375 C 276.894531 21.109375 277.035156 21.109375 277.171875 21.117188 C 277.296875 21.121094 277.417969 21.136719 277.539062 21.144531 C 277.675781 21.15625 277.8125 21.164062 277.945312 21.183594 C 278.066406 21.195312 278.183594 21.21875 278.304688 21.238281 C 278.433594 21.261719 278.566406 21.277344 278.691406 21.304688 C 278.8125 21.328125 278.925781 21.359375 279.042969 21.386719 C 279.167969 21.417969 279.292969 21.445312 279.414062 21.480469 C 279.53125 21.511719 279.640625 21.550781 279.75 21.585938 C 279.871094 21.628906 279.996094 21.664062 280.113281 21.707031 C 280.222656 21.75 280.328125 21.796875 280.4375 21.84375 C 280.550781 21.890625 280.667969 21.9375 280.78125 21.988281 C 280.886719 22.039062 280.988281 22.097656 281.09375 22.152344 C 281.203125 22.207031 281.316406 22.261719 281.421875 22.324219 C 284.742188 24.234375 286.800781 28.320312 286.820312 34.136719 L 287.167969 157.207031 C 287.140625 157.191406 287.109375 157.179688 287.082031 157.167969 L 286.820312 123.933594 L 255.773438 141.859375 C 261.527344 145.242188 266.03125 147.886719 266.03125 147.886719 C 266.160156 147.960938 266.28125 148.046875 266.40625 148.128906 C 266.085938 147.921875 265.753906 147.738281 265.414062 147.566406 C 260.898438 145.273438 254.808594 145.777344 248.105469 149.648438 C 245.847656 150.953125 243.65625 152.5625 241.574219 154.402344 C 233.941406 161.15625 227.734375 171.089844 224.777344 181.074219 C 224.433594 182.238281 224.136719 183.398438 223.882812 184.554688 C 223.246094 187.464844 222.898438 190.347656 222.898438 193.125 C 222.898438 201.082031 225.699219 206.667969 230.230469 209.28125 C 230.214844 209.273438 230.195312 209.265625 230.179688 209.253906 C 230.179688 209.253906 218.460938 202.371094 208.667969 196.621094 C 201.644531 192.496094 195.609375 188.953125 195.609375 188.953125 Z M 65.570312 158.898438 C 65.570312 155.996094 63.523438 154.828125 60.992188 156.289062 C 58.464844 157.75 56.414062 161.285156 56.414062 164.1875 C 56.414062 167.089844 58.464844 168.257812 60.992188 166.796875 C 63.523438 165.335938 65.570312 161.800781 65.570312 158.898438 Z M 80.28125 150.335938 C 80.28125 147.433594 78.230469 146.265625 75.703125 147.722656 C 73.171875 149.183594 71.121094 152.71875 71.121094 155.621094 C 71.121094 158.523438 73.171875 159.695312 75.703125 158.234375 C 78.230469 156.773438 80.28125 153.238281 80.28125 150.335938 Z M 246.757812 81.636719 L 246.757812 94.046875 L 259.175781 86.875 L 259.175781 74.46875 L 269.988281 68.226562 L 269.988281 53.976562 L 259.175781 60.21875 L 259.175781 47.808594 L 246.757812 54.980469 L 246.757812 67.386719 L 235.945312 73.628906 L 235.945312 87.882812 Z M 327.09375 166.105469 L 316.4375 172.253906 L 311.355469 175.191406 C 311.710938 178.125 311.285156 181.375 311.121094 185.039062 C 310.511719 198.476562 308.960938 203.023438 303.707031 203.457031 C 298.078125 203.917969 293.574219 200.703125 291.179688 191.832031 C 290.761719 190.289062 290.402344 188.820312 290.085938 187.464844 L 281.664062 192.328125 L 256.949219 206.59375 L 227.367188 223.667969 C 229.058594 224.644531 230.691406 225.699219 232.265625 226.816406 C 248.320312 238.242188 258.015625 256.804688 258.015625 276.75 L 258.015625 360.464844 L 356.222656 303.765625 C 356.222656 303.765625 356.222656 240.339844 356.222656 219.195312 C 356.222656 197.6875 345.238281 177.664062 327.09375 166.105469 Z M 327.09375 166.105469 " fill-opacity="1" fill-rule="nonzero"/></g><path fill="#d7907b" d="M 37.089844 145.738281 L 46.945312 151.464844 C 36.792969 157.328125 28.585938 171.539062 28.617188 183.210938 L 18.761719 177.480469 C 18.730469 165.8125 26.9375 151.601562 37.089844 145.738281 Z M 91.359375 227.277344 L 54.226562 248.71875 C 52.046875 249.976562 50.285156 253.023438 50.292969 255.527344 L 52.960938 257.078125 C 52.953125 254.574219 54.714844 251.527344 56.894531 250.269531 L 94.027344 228.828125 C 94.164062 228.75 94.300781 228.679688 94.433594 228.621094 C 94.484375 228.59375 94.535156 228.578125 94.585938 228.558594 C 94.667969 228.523438 94.75 228.488281 94.828125 228.460938 C 94.878906 228.445312 94.929688 228.433594 94.980469 228.417969 C 95.054688 228.394531 95.132812 228.371094 95.207031 228.355469 C 95.261719 228.34375 95.3125 228.339844 95.367188 228.328125 C 95.433594 228.320312 95.503906 228.304688 95.570312 228.296875 C 95.625 228.292969 95.675781 228.296875 95.726562 228.292969 C 95.792969 228.292969 95.855469 228.289062 95.917969 228.289062 C 95.96875 228.292969 96.015625 228.304688 96.066406 228.308594 C 96.125 228.316406 96.1875 228.320312 96.242188 228.332031 C 96.292969 228.339844 96.339844 228.355469 96.386719 228.371094 C 96.441406 228.386719 96.496094 228.398438 96.546875 228.417969 C 96.59375 228.433594 96.636719 228.457031 96.683594 228.480469 C 96.730469 228.503906 96.78125 228.523438 96.832031 228.550781 C 96.832031 228.550781 96.835938 228.550781 96.839844 228.554688 L 94.171875 227.003906 C 93.453125 226.585938 92.457031 226.644531 91.359375 227.277344 Z M 144.992188 197.652344 C 144.273438 197.234375 143.28125 197.292969 142.183594 197.929688 L 105.046875 219.367188 C 102.867188 220.628906 101.109375 223.671875 101.113281 226.175781 L 103.78125 227.726562 C 103.777344 225.222656 105.535156 222.175781 107.714844 220.917969 L 144.851562 199.476562 C 144.988281 199.398438 145.121094 199.328125 145.253906 199.269531 C 145.308594 199.242188 145.359375 199.226562 145.414062 199.203125 C 145.492188 199.171875 145.570312 199.136719 145.648438 199.109375 C 145.703125 199.09375 145.753906 199.082031 145.804688 199.066406 C 145.878906 199.042969 145.957031 199.019531 146.027344 199.003906 C 146.082031 198.992188 146.136719 198.988281 146.1875 198.976562 C 146.257812 198.96875 146.324219 198.953125 146.390625 198.949219 C 146.445312 198.941406 146.496094 198.945312 146.550781 198.945312 C 146.613281 198.941406 146.675781 198.9375 146.738281 198.941406 C 146.789062 198.941406 146.835938 198.953125 146.886719 198.957031 C 146.945312 198.964844 147.007812 198.96875 147.066406 198.980469 C 147.113281 198.988281 147.160156 199.007812 147.207031 199.019531 C 147.261719 199.035156 147.316406 199.046875 147.371094 199.066406 C 147.414062 199.085938 147.457031 199.109375 147.503906 199.128906 C 147.554688 199.152344 147.605469 199.171875 147.652344 199.199219 C 147.652344 199.199219 147.65625 199.203125 147.660156 199.203125 Z M 144.992188 197.652344 " fill-opacity="1" fill-rule="nonzero"/><path fill="#fefae0" d="M 46.945312 151.464844 L 37.089844 145.738281 L 258.523438 17.894531 C 263.628906 14.945312 268.257812 14.671875 271.601562 16.613281 L 281.457031 22.339844 C 281.445312 22.335938 281.433594 22.332031 281.421875 22.324219 C 281.316406 22.261719 281.203125 22.207031 281.09375 22.152344 C 280.988281 22.097656 280.886719 22.039062 280.78125 21.988281 C 280.667969 21.9375 280.550781 21.890625 280.4375 21.84375 C 280.328125 21.796875 280.222656 21.75 280.113281 21.707031 C 279.996094 21.664062 279.871094 21.628906 279.75 21.585938 C 279.640625 21.550781 279.53125 21.511719 279.414062 21.480469 C 279.292969 21.445312 279.167969 21.417969 279.042969 21.386719 C 278.925781 21.359375 278.8125 21.328125 278.691406 21.304688 C 278.566406 21.277344 278.433594 21.261719 278.304688 21.238281 C 278.183594 21.21875 278.066406 21.195312 277.945312 21.183594 C 277.8125 21.164062 277.675781 21.15625 277.539062 21.144531 C 277.417969 21.136719 277.296875 21.121094 277.171875 21.117188 C 277.035156 21.109375 276.894531 21.109375 276.757812 21.109375 C 276.628906 21.109375 276.503906 21.101562 276.375 21.105469 C 276.234375 21.109375 276.089844 21.121094 275.945312 21.128906 C 275.816406 21.136719 275.6875 21.136719 275.558594 21.148438 C 275.414062 21.164062 275.265625 21.183594 275.121094 21.203125 C 274.988281 21.21875 274.855469 21.230469 274.71875 21.253906 C 274.574219 21.277344 274.425781 21.308594 274.277344 21.335938 C 274.140625 21.359375 274.003906 21.382812 273.863281 21.414062 C 273.707031 21.445312 273.550781 21.488281 273.394531 21.53125 C 273.257812 21.5625 273.125 21.59375 272.988281 21.632812 C 272.824219 21.675781 272.65625 21.734375 272.492188 21.785156 C 272.359375 21.828125 272.230469 21.863281 272.09375 21.910156 C 271.925781 21.96875 271.753906 22.035156 271.582031 22.101562 C 271.449219 22.148438 271.320312 22.191406 271.1875 22.246094 C 271.007812 22.320312 270.824219 22.402344 270.640625 22.480469 C 270.515625 22.535156 270.390625 22.585938 270.261719 22.644531 C 270.054688 22.738281 269.84375 22.847656 269.636719 22.953125 C 269.53125 23.003906 269.429688 23.046875 269.328125 23.101562 C 269.011719 23.265625 268.695312 23.4375 268.378906 23.621094 Z M 286.820312 123.933594 L 255.773438 141.859375 C 261.527344 145.242188 266.03125 147.886719 266.03125 147.886719 C 266.160156 147.960938 266.28125 148.046875 266.40625 148.128906 C 266.847656 148.339844 267.300781 148.558594 267.761719 148.777344 C 274.761719 151.6875 281.1875 154.480469 287.082031 157.167969 Z M 266.402344 148.144531 L 266.40625 148.128906 C 266.085938 147.921875 265.753906 147.738281 265.414062 147.566406 Z M 239.617188 188.960938 L 226.265625 181.863281 C 225.488281 182.785156 224.691406 183.683594 223.882812 184.554688 C 223.246094 187.464844 222.898438 190.347656 222.898438 193.125 C 222.898438 201.082031 225.699219 206.667969 230.230469 209.28125 C 230.214844 209.273438 230.195312 209.265625 230.179688 209.253906 C 230.179688 209.253906 218.460938 202.371094 208.667969 196.621094 C 193.804688 204.550781 181.339844 200.382812 176.972656 187.355469 L 148.8125 203.613281 L 148.808594 201.730469 C 148.804688 200.484375 148.363281 199.609375 147.652344 199.199219 C 147.605469 199.171875 147.554688 199.152344 147.503906 199.128906 C 147.457031 199.109375 147.414062 199.085938 147.371094 199.066406 C 147.316406 199.046875 147.261719 199.035156 147.207031 199.019531 C 147.160156 199.007812 147.113281 198.988281 147.066406 198.980469 C 147.007812 198.96875 146.945312 198.964844 146.886719 198.957031 C 146.835938 198.953125 146.789062 198.941406 146.738281 198.941406 C 146.675781 198.9375 146.613281 198.941406 146.550781 198.945312 C 146.496094 198.945312 146.445312 198.941406 146.390625 198.949219 C 146.324219 198.953125 146.257812 198.96875 146.1875 198.976562 C 146.136719 198.988281 146.082031 198.992188 146.027344 199.003906 C 145.957031 199.019531 145.878906 199.042969 145.804688 199.066406 C 145.753906 199.082031 145.703125 199.09375 145.648438 199.109375 C 145.570312 199.136719 145.492188 199.171875 145.414062 199.203125 C 145.359375 199.226562 145.308594 199.242188 145.253906 199.269531 C 145.121094 199.328125 144.988281 199.398438 144.851562 199.476562 L 107.714844 220.917969 C 105.535156 222.175781 103.777344 225.222656 103.78125 227.726562 L 103.789062 229.609375 L 97.992188 232.953125 L 98.027344 244.980469 C 98.035156 247.484375 96.273438 250.53125 94.09375 251.789062 L 56.960938 273.230469 C 54.777344 274.488281 53.007812 273.480469 53 270.976562 L 52.96875 258.949219 L 28.871094 272.859375 L 28.617188 273.007812 L 29.015625 323 C 29.015625 323.730469 29.050781 324.433594 29.117188 325.105469 C 29.179688 325.78125 29.277344 326.425781 29.402344 327.042969 C 29.648438 328.277344 30.015625 329.394531 30.484375 330.386719 C 30.71875 330.886719 30.976562 331.351562 31.261719 331.789062 C 31.40625 332.007812 31.554688 332.214844 31.707031 332.417969 C 32.171875 333.023438 32.6875 333.554688 33.253906 334.015625 C 33.628906 334.320312 34.027344 334.589844 34.445312 334.828125 C 36.269531 335.871094 38.476562 336.25 40.929688 335.90625 C 41.085938 335.882812 41.246094 335.855469 41.40625 335.828125 C 42.242188 335.679688 43.105469 335.453125 43.988281 335.136719 C 44.46875 334.964844 44.960938 334.765625 45.453125 334.542969 C 45.503906 334.519531 45.550781 334.5 45.601562 334.480469 C 45.90625 334.335938 46.214844 334.1875 46.523438 334.027344 C 46.835938 333.863281 47.148438 333.695312 47.460938 333.511719 L 195.082031 248.28125 L 232.265625 226.816406 C 230.691406 225.699219 229.058594 224.644531 227.367188 223.667969 L 256.949219 206.59375 C 252.316406 202.921875 248.214844 198.363281 239.617188 188.960938 Z M 75.703125 147.722656 C 73.171875 149.183594 71.121094 152.71875 71.121094 155.621094 C 71.121094 158.523438 73.171875 159.695312 75.703125 158.234375 C 78.230469 156.773438 80.28125 153.238281 80.28125 150.335938 C 80.28125 147.433594 78.230469 146.265625 75.703125 147.722656 Z M 75.703125 147.722656 " fill-opacity="1" fill-rule="nonzero"/><path fill="#386641" d="M 56.414062 164.1875 C 56.414062 161.285156 58.464844 157.75 60.992188 156.289062 C 63.523438 154.828125 65.570312 155.996094 65.570312 158.898438 C 65.570312 161.800781 63.523438 165.335938 60.992188 166.796875 C 58.464844 168.257812 56.414062 167.089844 56.414062 164.1875 Z M 213.535156 129.339844 C 220.550781 125.289062 226.894531 124.914062 231.464844 127.582031 C 231.464844 127.582031 237.605469 131.1875 244.710938 135.363281 C 244.40625 113.839844 228.992188 105.253906 210.011719 116.214844 C 190.839844 127.285156 175.296875 154.089844 175.296875 176.089844 C 175.296875 180.359375 175.886719 184.125 176.972656 187.355469 C 181.339844 200.382812 193.804688 204.550781 208.667969 196.621094 C 201.644531 192.496094 195.609375 188.953125 195.609375 188.953125 C 192.679688 187.242188 190.488281 184.277344 189.308594 180.234375 C 188.675781 178.0625 188.328125 175.589844 188.328125 172.820312 C 188.328125 156.84375 199.613281 137.378906 213.535156 129.339844 Z M 316.4375 172.253906 C 312.832031 170.085938 308.832031 167.855469 304.40625 165.558594 C 304.398438 165.554688 304.386719 165.546875 304.375 165.539062 C 301.9375 164.125 298.566406 162.488281 294.742188 160.746094 C 292.320312 159.582031 289.796875 158.40625 287.167969 157.207031 C 287.140625 157.191406 287.109375 157.179688 287.082031 157.167969 C 281.1875 154.480469 274.761719 151.6875 267.761719 148.777344 C 267.300781 148.558594 266.847656 148.339844 266.40625 148.128906 L 266.402344 148.144531 L 265.414062 147.566406 C 260.898438 145.273438 254.808594 145.777344 248.105469 149.648438 C 245.847656 150.953125 243.65625 152.5625 241.574219 154.402344 C 233.941406 161.15625 227.734375 171.089844 224.777344 181.074219 C 224.433594 182.238281 224.136719 183.398438 223.882812 184.554688 C 224.691406 183.683594 225.488281 182.785156 226.265625 181.863281 L 239.617188 188.960938 C 248.214844 198.363281 252.316406 202.921875 256.949219 206.59375 L 281.664062 192.328125 L 290.085938 187.464844 C 290.402344 188.820312 290.761719 190.289062 291.179688 191.832031 C 293.574219 200.703125 298.078125 203.917969 303.707031 203.457031 C 308.960938 203.023438 310.511719 198.476562 311.121094 185.039062 C 311.285156 181.375 311.710938 178.125 311.355469 175.191406 Z M 97.988281 231.082031 C 97.984375 229.835938 97.542969 228.960938 96.832031 228.550781 C 96.78125 228.523438 96.730469 228.503906 96.683594 228.480469 C 96.636719 228.457031 96.59375 228.433594 96.546875 228.417969 C 96.496094 228.398438 96.441406 228.386719 96.386719 228.371094 C 96.339844 228.355469 96.292969 228.339844 96.242188 228.332031 C 96.1875 228.320312 96.125 228.316406 96.066406 228.308594 C 96.015625 228.304688 95.96875 228.292969 95.917969 228.289062 C 95.855469 228.289062 95.792969 228.292969 95.726562 228.292969 C 95.675781 228.296875 95.625 228.292969 95.570312 228.296875 C 95.503906 228.304688 95.433594 228.320312 95.367188 228.328125 C 95.3125 228.339844 95.261719 228.34375 95.207031 228.355469 C 95.132812 228.371094 95.054688 228.394531 94.980469 228.417969 C 94.929688 228.433594 94.878906 228.445312 94.828125 228.460938 C 94.75 228.488281 94.667969 228.523438 94.585938 228.558594 C 94.535156 228.578125 94.484375 228.59375 94.433594 228.621094 C 94.300781 228.679688 94.164062 228.75 94.027344 228.828125 L 56.894531 250.269531 C 54.714844 251.527344 52.953125 254.574219 52.960938 257.078125 L 52.96875 258.949219 L 53 270.976562 C 53.007812 273.480469 54.777344 274.488281 56.960938 273.230469 L 94.09375 251.789062 C 96.273438 250.53125 98.035156 247.484375 98.027344 244.980469 L 97.992188 232.953125 Z M 246.757812 94.046875 L 259.175781 86.875 L 259.175781 74.46875 L 269.988281 68.226562 L 269.988281 53.976562 L 259.175781 60.21875 L 259.175781 47.808594 L 246.757812 54.980469 L 246.757812 67.386719 L 235.945312 73.628906 L 235.945312 87.882812 L 246.757812 81.636719 Z M 246.757812 94.046875 " fill-opacity="1" fill-rule="nonzero"/><path fill="#386641" d="M 334.628906 301.160156 C 334.171875 301.160156 333.804688 300.792969 333.804688 300.339844 L 333.804688 280.347656 C 333.804688 280.347656 333.804688 280.347656 333.804688 280.34375 C 333.804688 280.140625 333.882812 279.953125 334.003906 279.8125 C 334.035156 279.777344 334.066406 279.746094 334.101562 279.714844 C 334.140625 279.683594 334.183594 279.652344 334.230469 279.628906 L 340.375 276.078125 C 341.339844 275.523438 342.308594 275.46875 343.101562 275.925781 C 344 276.445312 344.519531 277.5625 344.519531 278.992188 C 344.519531 281.429688 343.058594 284.183594 341.199219 285.261719 L 338.972656 286.546875 L 342.433594 289.878906 L 344.226562 286.082031 C 344.417969 285.671875 344.910156 285.492188 345.320312 285.6875 C 345.730469 285.882812 345.90625 286.371094 345.714844 286.785156 L 343.683594 291.082031 L 344.265625 291.640625 C 344.324219 291.699219 344.375 291.761719 344.414062 291.832031 L 345.84375 293.21875 C 346.167969 293.535156 346.175781 294.058594 345.859375 294.382812 C 345.542969 294.710938 345.023438 294.71875 344.699219 294.402344 L 342.925781 292.683594 L 340.792969 297.199219 C 340.597656 297.609375 340.109375 297.785156 339.699219 297.589844 C 339.289062 297.398438 339.113281 296.90625 339.304688 296.496094 L 341.679688 291.472656 L 337.484375 287.402344 L 335.449219 288.578125 L 335.449219 300.339844 C 335.449219 300.792969 335.082031 301.160156 334.628906 301.160156 Z M 335.449219 280.820312 L 335.449219 286.679688 L 337.191406 285.675781 C 337.199219 285.667969 337.207031 285.664062 337.214844 285.660156 L 340.375 283.835938 C 341.730469 283.054688 342.871094 280.835938 342.871094 278.992188 C 342.871094 278.191406 342.644531 277.5625 342.277344 277.351562 C 341.925781 277.148438 341.449219 277.359375 341.199219 277.503906 Z M 335.449219 280.820312 " fill-opacity="1" fill-rule="nonzero"/><g clip-path="url(#7fce5acda2)"><path fill="#1c2628" d="M 49.941406 163.960938 C 48.8125 163.308594 47.367188 163.421875 45.871094 164.285156 C 43.074219 165.902344 40.882812 169.683594 40.882812 172.894531 C 40.882812 174.601562 41.5 175.894531 42.625 176.542969 C 43.105469 176.824219 43.648438 176.960938 44.226562 176.960938 C 45 176.960938 45.839844 176.714844 46.695312 176.21875 C 49.492188 174.605469 51.683594 170.820312 51.683594 167.609375 C 51.683594 165.90625 51.066406 164.609375 49.941406 163.960938 Z M 43.445312 175.121094 C 42.851562 174.777344 42.527344 173.988281 42.527344 172.894531 C 42.527344 170.304688 44.433594 167.015625 46.695312 165.710938 C 47.289062 165.367188 47.855469 165.191406 48.339844 165.191406 C 48.632812 165.191406 48.898438 165.257812 49.121094 165.386719 C 49.714844 165.726562 50.039062 166.515625 50.039062 167.609375 C 50.039062 170.199219 48.132812 173.492188 45.871094 174.792969 C 44.925781 175.34375 44.039062 175.460938 43.445312 175.121094 Z M 57.332031 167.835938 C 57.816406 168.113281 58.355469 168.253906 58.9375 168.253906 C 59.710938 168.253906 60.546875 168.003906 61.402344 167.511719 C 64.203125 165.894531 66.394531 162.113281 66.394531 158.898438 C 66.394531 157.195312 65.777344 155.898438 64.652344 155.25 C 63.519531 154.597656 62.074219 154.714844 60.582031 155.574219 C 57.78125 157.191406 55.589844 160.972656 55.589844 164.1875 C 55.589844 165.890625 56.210938 167.1875 57.332031 167.835938 Z M 63.050781 156.484375 C 63.34375 156.484375 63.605469 156.546875 63.828125 156.675781 C 64.421875 157.019531 64.75 157.808594 64.75 158.898438 C 64.75 161.488281 62.839844 164.78125 60.582031 166.085938 C 59.632812 166.632812 58.746094 166.753906 58.15625 166.410156 C 57.5625 166.066406 57.234375 165.277344 57.234375 164.1875 C 57.234375 161.597656 59.144531 158.304688 61.402344 157 C 61.996094 156.660156 62.5625 156.484375 63.050781 156.484375 Z M 72.042969 159.269531 C 72.523438 159.550781 73.066406 159.6875 73.644531 159.6875 C 74.417969 159.6875 75.257812 159.441406 76.113281 158.945312 C 78.910156 157.332031 81.101562 153.546875 81.101562 150.335938 C 81.101562 148.632812 80.484375 147.335938 79.359375 146.6875 C 78.230469 146.035156 76.785156 146.148438 75.289062 147.011719 C 72.492188 148.628906 70.300781 152.410156 70.300781 155.621094 C 70.300781 157.328125 70.917969 158.621094 72.042969 159.269531 Z M 77.757812 147.917969 C 78.050781 147.917969 78.316406 147.984375 78.539062 148.113281 C 79.132812 148.453125 79.457031 149.242188 79.457031 150.335938 C 79.457031 152.925781 77.550781 156.214844 75.289062 157.519531 C 74.34375 158.070312 73.457031 158.1875 72.863281 157.847656 C 72.273438 157.503906 71.945312 156.714844 71.945312 155.621094 C 71.945312 153.03125 73.851562 149.742188 76.113281 148.4375 C 76.707031 148.09375 77.273438 147.917969 77.757812 147.917969 Z M 327.535156 165.410156 C 327.277344 165.246094 326.949219 165.238281 326.683594 165.390625 L 316.464844 171.289062 C 312.855469 169.132812 308.859375 166.917969 304.453125 164.640625 C 302.109375 163.304688 299.042969 161.804688 295.542969 160.203125 C 293.128906 159.042969 290.613281 157.867188 287.988281 156.667969 L 287.640625 34.132812 C 287.625 28.230469 285.578125 23.796875 281.878906 21.640625 C 281.875 21.636719 281.875 21.632812 281.871094 21.628906 L 281.867188 21.628906 C 281.867188 21.628906 281.863281 21.628906 281.863281 21.625 L 272.015625 15.902344 C 272.015625 15.902344 272.015625 15.902344 272.011719 15.902344 C 268.257812 13.71875 263.320312 14.175781 258.109375 17.183594 L 36.679688 145.027344 C 26.3125 151.011719 17.90625 165.570312 17.941406 177.484375 L 18.335938 317.277344 C 18.355469 323.183594 20.402344 327.621094 24.109375 329.777344 L 33.964844 335.5 C 33.964844 335.503906 33.964844 335.503906 33.964844 335.503906 C 33.96875 335.503906 33.972656 335.503906 33.976562 335.507812 C 33.984375 335.511719 33.992188 335.519531 34 335.523438 C 35.558594 336.417969 37.316406 336.863281 39.214844 336.863281 C 41.554688 336.863281 44.101562 336.1875 46.738281 334.84375 C 47.113281 334.648438 47.492188 334.445312 47.871094 334.226562 L 232.210938 227.796875 C 247.757812 239.082031 257.195312 257.316406 257.195312 276.75 L 257.195312 360.464844 C 257.195312 360.757812 257.351562 361.03125 257.605469 361.179688 C 257.730469 361.25 257.875 361.289062 258.015625 361.289062 C 258.160156 361.289062 258.300781 361.25 258.425781 361.179688 L 356.632812 304.480469 C 356.886719 304.332031 357.042969 304.0625 357.042969 303.765625 L 357.042969 219.195312 C 357.042969 197.289062 346.011719 177.183594 327.535156 165.410156 Z M 355.398438 303.292969 L 258.839844 359.039062 L 258.839844 276.75 C 258.839844 257.035156 249.382812 238.523438 233.769531 226.898438 C 233.527344 226.71875 233.28125 226.542969 233.039062 226.367188 C 232.796875 226.191406 232.554688 226.011719 232.308594 225.839844 C 231.230469 225.085938 230.128906 224.363281 228.996094 223.675781 L 256.878906 207.582031 L 257.648438 207.140625 L 258.410156 206.699219 L 279.160156 194.722656 L 280.757812 193.800781 L 282.226562 192.953125 L 282.226562 192.949219 L 289.539062 188.730469 C 289.792969 189.789062 290.074219 190.898438 290.382812 192.046875 C 292.589844 200.199219 296.714844 204.324219 302.660156 204.324219 C 303.023438 204.324219 303.394531 204.304688 303.773438 204.277344 C 310.039062 203.761719 311.359375 197.9375 311.941406 185.074219 C 311.984375 184.074219 312.050781 183.105469 312.113281 182.164062 C 312.265625 179.882812 312.410156 177.703125 312.222656 175.640625 L 316.410156 173.222656 L 317.242188 172.742188 L 318.070312 172.261719 L 327.070312 167.066406 C 344.816406 178.570312 355.398438 198.019531 355.398438 219.195312 Z M 271.1875 17.324219 L 276.261719 20.273438 C 276.144531 20.277344 276.027344 20.292969 275.910156 20.296875 C 275.738281 20.308594 275.566406 20.316406 275.394531 20.332031 C 275.253906 20.347656 275.113281 20.367188 274.972656 20.386719 C 274.808594 20.40625 274.640625 20.425781 274.472656 20.453125 C 274.328125 20.476562 274.183594 20.507812 274.039062 20.535156 C 273.871094 20.570312 273.703125 20.601562 273.535156 20.640625 C 273.386719 20.675781 273.242188 20.714844 273.097656 20.753906 C 272.925781 20.796875 272.753906 20.839844 272.578125 20.890625 C 272.433594 20.933594 272.285156 20.984375 272.140625 21.03125 C 271.964844 21.085938 271.789062 21.144531 271.609375 21.207031 C 271.464844 21.261719 271.316406 21.316406 271.167969 21.375 C 270.988281 21.441406 270.808594 21.511719 270.628906 21.589844 C 270.480469 21.648438 270.335938 21.714844 270.1875 21.78125 C 270.003906 21.863281 269.820312 21.945312 269.636719 22.035156 C 269.488281 22.105469 269.339844 22.175781 269.195312 22.25 C 269.007812 22.34375 268.820312 22.441406 268.632812 22.542969 C 268.550781 22.589844 268.46875 22.628906 268.382812 22.675781 L 260.207031 17.921875 C 264.398438 15.84375 268.257812 15.625 271.1875 17.324219 Z M 314.792969 172.253906 L 311.96875 173.886719 C 311.667969 172.410156 311.132812 170.992188 310.230469 169.644531 C 311.8125 170.523438 313.335938 171.394531 314.792969 172.253906 Z M 97.207031 244.984375 C 97.210938 247.179688 95.597656 249.972656 93.683594 251.078125 L 56.550781 272.519531 C 55.765625 272.96875 55.042969 273.070312 54.566406 272.796875 C 54.511719 272.765625 54.46875 272.710938 54.421875 272.671875 C 54.363281 272.621094 54.300781 272.582031 54.25 272.519531 C 54.207031 272.464844 54.175781 272.386719 54.136719 272.320312 C 54.097656 272.25 54.050781 272.195312 54.019531 272.117188 C 53.980469 272.023438 53.960938 271.914062 53.933594 271.808594 C 53.914062 271.738281 53.886719 271.671875 53.875 271.59375 C 53.839844 271.402344 53.824219 271.195312 53.824219 270.976562 L 53.789062 259.425781 L 53.789062 258.476562 L 53.785156 257.527344 L 53.785156 257.074219 C 53.777344 254.878906 55.390625 252.085938 57.304688 250.980469 L 94.441406 229.542969 C 94.613281 229.441406 94.785156 229.363281 94.953125 229.296875 C 94.988281 229.285156 95.023438 229.269531 95.0625 229.257812 C 95.222656 229.199219 95.378906 229.15625 95.523438 229.136719 C 95.550781 229.132812 95.570312 229.132812 95.597656 229.128906 C 95.664062 229.121094 95.734375 229.109375 95.800781 229.109375 C 95.851562 229.109375 95.898438 229.121094 95.945312 229.128906 C 95.984375 229.132812 96.027344 229.132812 96.0625 229.140625 C 96.191406 229.164062 96.316406 229.203125 96.421875 229.261719 C 96.421875 229.261719 96.421875 229.265625 96.421875 229.265625 C 96.890625 229.535156 97.164062 230.199219 97.164062 231.082031 L 97.167969 232.480469 L 97.171875 233.425781 L 97.175781 234.375 Z M 91.359375 228.230469 L 92.386719 228.828125 L 56.898438 249.316406 L 56.132812 248.875 L 55.867188 248.71875 Z M 94.054688 227.886719 C 94.054688 227.886719 94.050781 227.890625 94.050781 227.890625 L 93.675781 227.671875 C 93.703125 227.6875 93.730469 227.699219 93.757812 227.714844 Z M 54.246094 249.683594 L 55.386719 250.34375 C 55.183594 250.519531 54.984375 250.710938 54.796875 250.910156 C 54.761719 250.945312 54.734375 250.980469 54.703125 251.015625 C 54.5 251.234375 54.308594 251.464844 54.125 251.707031 C 54.070312 251.777344 54.015625 251.847656 53.964844 251.921875 C 53.761719 252.203125 53.566406 252.492188 53.394531 252.792969 C 53.390625 252.796875 53.386719 252.800781 53.386719 252.804688 C 53.214844 253.101562 53.066406 253.410156 52.925781 253.71875 C 52.886719 253.804688 52.851562 253.886719 52.816406 253.96875 C 52.699219 254.253906 52.589844 254.542969 52.503906 254.832031 C 52.492188 254.867188 52.476562 254.902344 52.464844 254.941406 C 52.390625 255.203125 52.324219 255.464844 52.273438 255.726562 L 51.136719 255.066406 C 51.320312 253.109375 52.636719 250.828125 54.246094 249.683594 Z M 148.027344 215.632812 C 148.03125 217.832031 146.417969 220.621094 144.503906 221.726562 L 107.371094 243.167969 C 106.585938 243.617188 105.863281 243.71875 105.386719 243.445312 C 105.324219 243.410156 105.273438 243.347656 105.21875 243.296875 C 105.167969 243.253906 105.117188 243.222656 105.074219 243.171875 C 105.027344 243.117188 105 243.039062 104.960938 242.976562 C 104.921875 242.90625 104.871094 242.84375 104.839844 242.765625 C 104.832031 242.746094 104.828125 242.71875 104.820312 242.699219 C 104.710938 242.398438 104.644531 242.039062 104.644531 241.625 L 104.613281 230.082031 L 104.609375 229.132812 L 104.605469 228.1875 L 104.605469 227.722656 C 104.597656 225.527344 106.210938 222.734375 108.128906 221.628906 L 145.261719 200.191406 C 145.265625 200.1875 145.269531 200.1875 145.273438 200.1875 C 145.441406 200.085938 145.609375 200.011719 145.769531 199.949219 C 145.808594 199.933594 145.847656 199.917969 145.882812 199.90625 C 146.042969 199.847656 146.199219 199.808594 146.34375 199.785156 C 146.371094 199.78125 146.394531 199.78125 146.417969 199.777344 C 146.488281 199.769531 146.558594 199.761719 146.621094 199.761719 C 146.671875 199.761719 146.71875 199.773438 146.765625 199.777344 C 146.804688 199.78125 146.847656 199.78125 146.886719 199.789062 C 147.015625 199.816406 147.136719 199.851562 147.242188 199.910156 C 147.242188 199.914062 147.242188 199.914062 147.242188 199.914062 C 147.710938 200.183594 147.984375 200.847656 147.984375 201.734375 L 147.992188 203.136719 L 147.992188 204.085938 L 147.996094 205.035156 Z M 105.070312 220.332031 L 106.207031 220.992188 C 106.003906 221.167969 105.808594 221.359375 105.617188 221.558594 C 105.582031 221.59375 105.550781 221.636719 105.519531 221.671875 C 105.320312 221.886719 105.128906 222.117188 104.949219 222.351562 C 104.890625 222.425781 104.835938 222.5 104.78125 222.574219 C 104.582031 222.851562 104.386719 223.140625 104.214844 223.441406 C 104.210938 223.445312 104.207031 223.453125 104.203125 223.460938 C 104.035156 223.753906 103.886719 224.058594 103.746094 224.367188 C 103.710938 224.453125 103.671875 224.535156 103.640625 224.617188 C 103.519531 224.902344 103.410156 225.191406 103.324219 225.484375 C 103.3125 225.519531 103.296875 225.554688 103.285156 225.589844 C 103.210938 225.851562 103.144531 226.113281 103.09375 226.375 L 101.957031 225.714844 C 102.140625 223.757812 103.457031 221.476562 105.070312 220.332031 Z M 142.179688 198.878906 L 142.941406 199.320312 L 143.210938 199.476562 L 107.71875 219.96875 L 106.691406 219.371094 Z M 144.871094 198.539062 L 144.496094 198.320312 C 144.523438 198.335938 144.550781 198.347656 144.578125 198.363281 L 144.875 198.539062 C 144.875 198.539062 144.871094 198.539062 144.871094 198.539062 Z M 304.1875 166.390625 C 308.355469 168.875 309.945312 171.585938 310.457031 174.757812 C 310.503906 175.050781 310.542969 175.34375 310.570312 175.640625 C 310.601562 175.941406 310.625 176.246094 310.640625 176.550781 C 310.722656 178.246094 310.605469 180.066406 310.472656 182.054688 C 310.410156 183.007812 310.34375 183.988281 310.296875 185 C 309.695312 198.304688 308.203125 202.261719 303.636719 202.636719 C 297.914062 203.109375 294.101562 199.5 291.972656 191.617188 C 291.621094 190.3125 291.304688 189.054688 291.027344 187.871094 C 290.960938 187.589844 290.894531 187.308594 290.832031 187.035156 C 290.765625 186.75 290.703125 186.472656 290.640625 186.195312 C 289.78125 182.328125 289.363281 179.640625 289.355469 179.601562 C 289.320312 179.347656 289.164062 179.128906 288.9375 179.003906 C 288.714844 178.882812 288.445312 178.871094 288.210938 178.976562 C 288.191406 178.984375 287.953125 179.085938 287.535156 179.242188 C 287.296875 179.332031 287 179.4375 286.648438 179.558594 C 286.378906 179.648438 286.074219 179.746094 285.746094 179.84375 L 285.746094 179.847656 C 282.640625 180.796875 276.921875 182.070312 270.484375 181.226562 C 270.214844 181.191406 269.941406 181.15625 269.667969 181.113281 C 269.390625 181.070312 269.117188 181.015625 268.839844 180.964844 C 265.765625 180.390625 262.570312 179.308594 259.449219 177.449219 C 259.378906 177.40625 259.300781 177.386719 259.222656 177.367188 C 258.878906 177.285156 258.511719 177.414062 258.320312 177.734375 C 258.089844 178.125 258.21875 178.628906 258.609375 178.859375 C 261.804688 180.765625 265.046875 181.910156 268.164062 182.542969 C 268.441406 182.601562 268.71875 182.65625 268.992188 182.703125 C 269.269531 182.753906 269.539062 182.792969 269.8125 182.832031 C 276.148438 183.78125 281.820312 182.710938 285.300781 181.71875 C 285.625 181.628906 285.933594 181.535156 286.21875 181.445312 C 286.546875 181.34375 286.855469 181.242188 287.128906 181.148438 C 287.421875 181.046875 287.679688 180.953125 287.902344 180.871094 C 288.113281 182.085938 288.527344 184.308594 289.148438 187.058594 L 283.769531 190.164062 L 282.464844 190.914062 L 281.078125 191.714844 L 257.011719 205.605469 C 256.269531 205.003906 255.535156 204.371094 254.789062 203.691406 C 254.585938 203.511719 254.382812 203.324219 254.179688 203.136719 C 253.980469 202.949219 253.78125 202.761719 253.578125 202.570312 C 250.464844 199.609375 246.929688 195.742188 241.492188 189.792969 L 240.226562 188.40625 C 240.164062 188.335938 240.085938 188.277344 240.003906 188.234375 L 227.523438 181.601562 L 226.800781 181.21875 L 226.0625 180.824219 L 225.761719 180.664062 C 228.375 172.230469 233.328125 163.878906 239.464844 157.5625 C 239.539062 157.484375 239.609375 157.40625 239.683594 157.332031 C 240.128906 156.878906 240.578125 156.433594 241.035156 156.007812 C 241.441406 155.625 241.851562 155.25 242.265625 154.886719 C 243.867188 153.480469 245.53125 152.21875 247.242188 151.132812 C 247.664062 150.863281 248.089844 150.605469 248.515625 150.359375 C 248.972656 150.097656 249.425781 149.851562 249.875 149.617188 C 250.011719 149.550781 250.144531 149.488281 250.28125 149.421875 C 250.597656 149.261719 250.914062 149.109375 251.230469 148.964844 C 251.378906 148.898438 251.527344 148.835938 251.675781 148.773438 C 251.980469 148.640625 252.285156 148.515625 252.585938 148.398438 C 252.726562 148.34375 252.871094 148.289062 253.011719 148.238281 C 253.324219 148.125 253.632812 148.019531 253.941406 147.917969 C 254.066406 147.878906 254.191406 147.839844 254.316406 147.800781 C 254.65625 147.699219 254.992188 147.609375 255.332031 147.527344 C 255.417969 147.503906 255.507812 147.480469 255.59375 147.460938 C 256.460938 147.257812 257.3125 147.121094 258.140625 147.050781 C 258.167969 147.050781 258.195312 147.050781 258.21875 147.046875 C 258.589844 147.019531 258.957031 147.003906 259.316406 147.003906 C 259.566406 147 259.816406 147.003906 260.0625 147.015625 C 260.121094 147.019531 260.179688 147.019531 260.238281 147.023438 C 260.5625 147.039062 260.878906 147.074219 261.195312 147.113281 C 261.261719 147.125 261.328125 147.136719 261.394531 147.144531 C 261.65625 147.183594 261.917969 147.230469 262.175781 147.285156 C 262.234375 147.296875 262.289062 147.308594 262.347656 147.324219 C 263.273438 147.535156 264.15625 147.851562 264.992188 148.273438 L 266.199219 148.980469 L 266.199219 148.972656 L 266.207031 148.941406 C 266.613281 149.140625 267.035156 149.339844 267.457031 149.539062 C 267.925781 149.761719 268.40625 149.988281 268.894531 150.214844 C 269.449219 150.472656 270.011719 150.730469 270.585938 150.996094 C 274.382812 152.726562 278.574219 154.546875 282.671875 156.324219 C 283.867188 156.84375 285.070312 157.363281 286.265625 157.886719 C 286.292969 157.898438 286.320312 157.910156 286.347656 157.921875 C 286.59375 158.027344 286.84375 158.136719 287.089844 158.246094 C 287.117188 158.257812 287.144531 158.269531 287.171875 158.28125 C 287.417969 158.386719 287.667969 158.496094 287.914062 158.605469 C 287.941406 158.617188 287.96875 158.628906 287.996094 158.640625 C 290.027344 159.53125 292.015625 160.410156 293.910156 161.269531 C 297.90625 163.085938 301.460938 164.796875 303.960938 166.25 C 304.042969 166.296875 304.109375 166.34375 304.1875 166.390625 Z M 225.039062 205.28125 C 221.816406 203.386719 217.5625 200.890625 213.3125 198.394531 C 212.253906 197.773438 211.265625 197.191406 210.332031 196.644531 C 210.050781 196.476562 209.78125 196.320312 209.507812 196.160156 C 209.226562 195.996094 208.949219 195.832031 208.683594 195.675781 C 196.503906 188.523438 196.023438 188.242188 196.023438 188.238281 C 196.023438 188.238281 196.023438 188.242188 196.023438 188.242188 C 193.351562 186.679688 191.40625 184.0625 190.28125 180.621094 C 190.195312 180.355469 190.113281 180.085938 190.039062 179.8125 C 189.960938 179.539062 189.886719 179.265625 189.820312 178.988281 C 189.382812 177.125 189.152344 175.058594 189.152344 172.820312 C 189.152344 157.132812 200.273438 137.945312 213.949219 130.050781 C 220.46875 126.289062 226.542969 125.660156 231.050781 128.289062 L 231.058594 128.277344 C 231.589844 128.601562 233.847656 129.933594 243.898438 135.839844 C 244.164062 135.996094 244.441406 136.15625 244.71875 136.320312 C 244.988281 136.476562 245.25 136.632812 245.53125 136.796875 C 246.796875 137.542969 248.1875 138.359375 249.683594 139.238281 C 249.992188 139.417969 250.304688 139.601562 250.621094 139.789062 C 251.730469 140.441406 252.898438 141.125 254.136719 141.855469 C 254.402344 142.011719 254.679688 142.171875 254.953125 142.332031 C 255.226562 142.492188 255.488281 142.648438 255.769531 142.8125 C 257.140625 143.617188 258.585938 144.46875 260.113281 145.363281 C 260.082031 145.363281 260.046875 145.363281 260.015625 145.363281 C 259.941406 145.359375 259.863281 145.367188 259.789062 145.363281 C 259.476562 145.355469 259.167969 145.355469 258.851562 145.363281 C 258.652344 145.371094 258.445312 145.386719 258.242188 145.402344 C 258.003906 145.417969 257.761719 145.4375 257.519531 145.464844 C 257.300781 145.488281 257.082031 145.515625 256.863281 145.550781 C 256.621094 145.585938 256.378906 145.628906 256.132812 145.671875 C 255.917969 145.714844 255.703125 145.75 255.484375 145.796875 C 255.171875 145.867188 254.855469 145.949219 254.539062 146.035156 C 254.285156 146.101562 254.03125 146.171875 253.773438 146.25 C 253.429688 146.355469 253.085938 146.464844 252.738281 146.585938 C 252.542969 146.65625 252.347656 146.730469 252.152344 146.804688 C 251.855469 146.917969 251.554688 147.035156 251.253906 147.164062 C 251.058594 147.246094 250.863281 147.328125 250.667969 147.417969 C 250.34375 147.5625 250.015625 147.71875 249.691406 147.878906 C 249.523438 147.960938 249.355469 148.039062 249.1875 148.125 C 248.691406 148.378906 248.195312 148.644531 247.695312 148.933594 C 246.140625 149.832031 244.617188 150.878906 243.136719 152.039062 C 242.769531 152.328125 242.40625 152.625 242.042969 152.925781 C 241.644531 153.261719 241.246094 153.605469 240.855469 153.957031 C 233.449219 160.589844 227.386719 170.171875 224.296875 179.890625 C 224.214844 180.15625 224.128906 180.421875 224.046875 180.6875 C 223.964844 180.957031 223.890625 181.226562 223.816406 181.496094 C 223.5625 182.382812 223.335938 183.269531 223.136719 184.152344 C 223.023438 184.660156 222.917969 185.167969 222.820312 185.675781 C 222.730469 186.148438 222.644531 186.621094 222.570312 187.09375 C 222.25 189.136719 222.078125 191.15625 222.078125 193.125 C 222.078125 193.6875 222.09375 194.234375 222.121094 194.777344 C 222.128906 194.949219 222.144531 195.113281 222.15625 195.285156 C 222.179688 195.65625 222.207031 196.023438 222.246094 196.386719 C 222.265625 196.570312 222.289062 196.753906 222.308594 196.9375 C 222.351562 197.285156 222.402344 197.625 222.457031 197.964844 C 222.484375 198.132812 222.511719 198.300781 222.539062 198.46875 C 222.613281 198.855469 222.691406 199.230469 222.777344 199.605469 C 222.800781 199.707031 222.820312 199.8125 222.847656 199.910156 C 222.964844 200.386719 223.09375 200.847656 223.238281 201.296875 C 223.265625 201.382812 223.296875 201.460938 223.324219 201.546875 C 223.445312 201.90625 223.570312 202.257812 223.707031 202.601562 C 223.757812 202.730469 223.8125 202.855469 223.867188 202.984375 C 223.992188 203.277344 224.121094 203.566406 224.261719 203.847656 C 224.320312 203.972656 224.382812 204.097656 224.445312 204.222656 C 224.597656 204.511719 224.757812 204.796875 224.921875 205.070312 C 224.960938 205.140625 224.996094 205.214844 225.039062 205.28125 Z M 177.691406 186.9375 C 177.605469 186.671875 177.519531 186.40625 177.441406 186.132812 C 176.574219 183.171875 176.121094 179.808594 176.121094 176.089844 C 176.121094 154.386719 191.507812 127.847656 210.421875 116.925781 C 215.796875 113.824219 220.960938 112.257812 225.585938 112.257812 C 228.75 112.257812 231.664062 112.988281 234.222656 114.464844 C 240.03125 117.820312 243.40625 124.679688 243.847656 133.902344 C 237.339844 130.078125 231.941406 126.90625 231.878906 126.871094 C 226.839844 123.929688 220.179688 124.554688 213.125 128.628906 C 199 136.78125 187.507812 156.609375 187.507812 172.820312 C 187.507812 175.378906 187.792969 177.730469 188.339844 179.84375 C 188.410156 180.121094 188.488281 180.390625 188.570312 180.660156 C 188.648438 180.929688 188.738281 181.195312 188.832031 181.457031 C 190.097656 185.125 192.25 187.941406 195.195312 189.660156 C 199.671875 192.289062 203.5625 194.578125 206.957031 196.570312 C 198.917969 200.511719 191.480469 200.910156 185.796875 197.632812 C 182.226562 195.570312 179.578125 192.179688 177.960938 187.734375 C 177.867188 187.472656 177.78125 187.207031 177.691406 186.9375 Z M 268.132812 148.039062 C 267.683594 147.828125 267.238281 147.617188 266.808594 147.40625 L 266.726562 147.355469 C 266.632812 147.292969 266.539062 147.230469 266.449219 147.179688 C 266.449219 147.179688 262.566406 144.898438 257.40625 141.867188 L 286.007812 125.351562 L 286.25 155.878906 C 280.6875 153.363281 274.660156 150.757812 268.132812 148.039062 Z M 286.25 123.3125 L 255.773438 140.90625 C 252.535156 139.003906 248.929688 136.886719 245.523438 134.886719 C 245.273438 124.550781 241.582031 116.816406 235.046875 113.042969 C 228.214844 109.097656 219.179688 109.972656 209.601562 115.503906 C 190.230469 126.683594 174.472656 153.863281 174.472656 176.089844 C 174.472656 180.125 174.988281 183.777344 175.972656 186.980469 L 149.632812 202.191406 L 149.632812 201.726562 C 149.628906 200.226562 149.074219 199.078125 148.078125 198.496094 C 148.078125 198.496094 148.074219 198.492188 148.074219 198.492188 L 148.070312 198.492188 C 148.070312 198.492188 148.070312 198.492188 148.070312 198.488281 L 148.066406 198.488281 C 148.0625 198.488281 148.0625 198.484375 148.0625 198.484375 L 145.40625 196.941406 C 144.390625 196.351562 143.101562 196.449219 141.773438 197.214844 C 141.773438 197.214844 141.773438 197.214844 141.769531 197.214844 L 104.636719 218.65625 C 102.191406 220.066406 100.285156 223.371094 100.292969 226.179688 L 100.304688 230.667969 L 98.8125 231.53125 L 98.8125 231.078125 C 98.808594 229.574219 98.253906 228.425781 97.253906 227.84375 C 97.253906 227.84375 97.253906 227.84375 97.25 227.84375 L 97.242188 227.835938 L 94.585938 226.292969 C 93.570312 225.703125 92.277344 225.800781 90.949219 226.566406 L 53.816406 248.003906 C 51.371094 249.417969 49.464844 252.722656 49.472656 255.53125 L 49.484375 260.011719 L 29.691406 271.4375 L 29.441406 183.207031 C 29.410156 171.820312 37.445312 157.902344 47.355469 152.179688 L 268.789062 24.335938 C 269.082031 24.167969 269.371094 24.007812 269.660156 23.855469 C 269.675781 23.847656 269.695312 23.839844 269.710938 23.832031 C 269.984375 23.6875 270.253906 23.554688 270.523438 23.429688 C 270.582031 23.402344 270.636719 23.378906 270.695312 23.351562 C 270.921875 23.25 271.152344 23.148438 271.375 23.054688 C 271.492188 23.007812 271.601562 22.96875 271.714844 22.925781 C 271.882812 22.859375 272.050781 22.792969 272.21875 22.734375 C 272.335938 22.691406 272.453125 22.660156 272.566406 22.621094 C 272.726562 22.566406 272.890625 22.511719 273.046875 22.464844 C 273.167969 22.429688 273.289062 22.402344 273.410156 22.371094 C 273.5625 22.328125 273.714844 22.285156 273.863281 22.25 C 273.984375 22.222656 274.105469 22.199219 274.230469 22.175781 C 274.375 22.144531 274.519531 22.113281 274.664062 22.089844 C 274.785156 22.066406 274.902344 22.054688 275.019531 22.039062 C 275.164062 22.019531 275.308594 21.996094 275.449219 21.980469 C 275.570312 21.96875 275.683594 21.964844 275.800781 21.953125 C 275.941406 21.945312 276.082031 21.929688 276.21875 21.925781 C 276.332031 21.921875 276.4375 21.925781 276.550781 21.921875 C 276.691406 21.921875 276.832031 21.917969 276.972656 21.921875 C 277.074219 21.925781 277.171875 21.9375 277.273438 21.945312 C 277.417969 21.953125 277.5625 21.960938 277.703125 21.976562 C 277.800781 21.984375 277.898438 22.003906 277.996094 22.019531 C 278.136719 22.039062 278.277344 22.054688 278.414062 22.082031 C 278.511719 22.097656 278.601562 22.125 278.699219 22.148438 C 278.832031 22.175781 278.96875 22.203125 279.101562 22.242188 C 279.199219 22.269531 279.296875 22.304688 279.390625 22.332031 C 279.519531 22.375 279.644531 22.410156 279.769531 22.453125 C 279.871094 22.492188 279.972656 22.539062 280.074219 22.582031 C 280.1875 22.628906 280.300781 22.671875 280.410156 22.722656 C 280.523438 22.777344 280.632812 22.839844 280.746094 22.898438 C 280.835938 22.945312 280.925781 22.984375 281.011719 23.035156 C 281.015625 23.039062 281.019531 23.042969 281.023438 23.042969 C 284.214844 24.886719 285.980469 28.824219 285.996094 34.140625 Z M 258.519531 18.84375 L 266.738281 23.621094 L 266.734375 23.621094 L 46.945312 150.515625 L 38.730469 145.742188 Z M 37.09375 146.691406 L 45.339844 151.484375 C 45.296875 151.515625 45.253906 151.550781 45.210938 151.578125 C 44.675781 151.929688 44.148438 152.296875 43.628906 152.691406 C 43.59375 152.71875 43.558594 152.746094 43.527344 152.773438 C 43.003906 153.171875 42.484375 153.589844 41.976562 154.03125 C 41.949219 154.058594 41.917969 154.082031 41.886719 154.109375 C 41.382812 154.546875 40.890625 155.007812 40.402344 155.480469 C 40.339844 155.542969 40.277344 155.605469 40.210938 155.667969 C 39.746094 156.128906 39.292969 156.605469 38.84375 157.097656 C 38.769531 157.179688 38.691406 157.261719 38.617188 157.347656 C 38.179688 157.835938 37.75 158.335938 37.332031 158.851562 C 37.257812 158.941406 37.183594 159.035156 37.113281 159.125 C 36.695312 159.648438 36.285156 160.179688 35.890625 160.722656 C 35.828125 160.808594 35.765625 160.894531 35.707031 160.980469 C 35.304688 161.542969 34.910156 162.113281 34.53125 162.695312 C 34.492188 162.753906 34.457031 162.816406 34.414062 162.878906 C 34.027344 163.488281 33.644531 164.101562 33.285156 164.726562 C 33.277344 164.738281 33.273438 164.746094 33.265625 164.757812 C 32.902344 165.386719 32.558594 166.027344 32.226562 166.671875 C 32.191406 166.738281 32.152344 166.808594 32.117188 166.875 C 31.804688 167.492188 31.507812 168.117188 31.222656 168.742188 C 31.179688 168.839844 31.132812 168.9375 31.089844 169.035156 C 30.816406 169.648438 30.558594 170.265625 30.316406 170.890625 C 30.277344 170.996094 30.234375 171.105469 30.191406 171.210938 C 29.957031 171.832031 29.734375 172.457031 29.53125 173.082031 C 29.496094 173.183594 29.464844 173.285156 29.433594 173.386719 C 29.230469 174.023438 29.042969 174.660156 28.875 175.300781 C 28.855469 175.378906 28.835938 175.457031 28.816406 175.535156 C 28.648438 176.199219 28.496094 176.859375 28.367188 177.519531 C 28.359375 177.550781 28.355469 177.578125 28.351562 177.609375 C 28.222656 178.269531 28.117188 178.929688 28.035156 179.585938 C 28.027344 179.632812 28.019531 179.679688 28.015625 179.726562 C 27.933594 180.367188 27.882812 181.003906 27.84375 181.636719 C 27.839844 181.691406 27.832031 181.746094 27.832031 181.800781 L 19.589844 177.011719 C 19.769531 165.871094 27.503906 152.476562 37.09375 146.691406 Z M 47.050781 332.800781 C 46.757812 332.96875 46.46875 333.128906 46.179688 333.277344 C 43.582031 334.636719 41.101562 335.285156 38.878906 335.210938 C 37.398438 335.164062 36.03125 334.792969 34.820312 334.097656 C 34.722656 334.042969 34.632812 333.976562 34.535156 333.917969 C 34.429688 333.851562 34.324219 333.785156 34.222656 333.714844 C 34.144531 333.664062 34.074219 333.601562 34.003906 333.546875 C 33.890625 333.464844 33.78125 333.382812 33.671875 333.296875 C 33.613281 333.246094 33.554688 333.1875 33.496094 333.136719 C 33.382812 333.035156 33.269531 332.933594 33.160156 332.828125 C 33.113281 332.78125 33.070312 332.730469 33.023438 332.683594 C 32.90625 332.5625 32.789062 332.445312 32.679688 332.316406 C 32.644531 332.273438 32.613281 332.230469 32.578125 332.191406 C 32.464844 332.050781 32.347656 331.90625 32.238281 331.757812 C 32.214844 331.726562 32.191406 331.6875 32.167969 331.652344 C 32.050781 331.492188 31.9375 331.328125 31.832031 331.15625 C 31.8125 331.128906 31.796875 331.097656 31.78125 331.070312 C 31.667969 330.890625 31.5625 330.707031 31.460938 330.515625 C 31.449219 330.492188 31.4375 330.464844 31.425781 330.441406 C 31.320312 330.242188 31.222656 330.039062 31.128906 329.832031 C 31.117188 329.8125 31.109375 329.789062 31.101562 329.765625 C 31.007812 329.550781 30.914062 329.332031 30.832031 329.109375 C 30.820312 329.082031 30.8125 329.054688 30.804688 329.027344 C 30.722656 328.804688 30.644531 328.578125 30.574219 328.34375 C 30.570312 328.332031 30.566406 328.324219 30.566406 328.3125 C 30.488281 328.0625 30.417969 327.804688 30.351562 327.542969 C 30.347656 327.527344 30.347656 327.515625 30.34375 327.5 C 30.015625 326.144531 29.84375 324.640625 29.835938 323.003906 C 29.835938 323 29.835938 322.996094 29.835938 322.996094 L 29.835938 322.992188 L 29.445312 273.480469 L 29.695312 273.335938 L 49.488281 261.90625 L 49.511719 269.429688 C 49.515625 270.9375 50.070312 272.085938 51.070312 272.667969 L 53.738281 274.21875 C 53.738281 274.21875 53.742188 274.21875 53.742188 274.21875 C 53.742188 274.222656 53.746094 274.222656 53.746094 274.222656 C 54.183594 274.472656 54.667969 274.597656 55.183594 274.597656 C 55.871094 274.597656 56.617188 274.378906 57.371094 273.941406 L 94.503906 252.503906 C 96.949219 251.089844 98.859375 247.785156 98.851562 244.980469 L 98.816406 233.425781 L 100.308594 232.566406 L 100.332031 240.078125 C 100.335938 241.585938 100.890625 242.734375 101.890625 243.316406 L 104.558594 244.867188 C 104.558594 244.867188 104.5625 244.867188 104.566406 244.871094 C 105.003906 245.125 105.488281 245.246094 106.003906 245.246094 C 106.691406 245.246094 107.4375 245.027344 108.191406 244.59375 L 145.328125 223.152344 C 147.769531 221.742188 149.679688 218.4375 149.671875 215.628906 L 149.636719 204.085938 L 176.515625 188.570312 C 178.273438 193.246094 181.132812 196.835938 184.976562 199.054688 C 187.789062 200.679688 190.980469 201.488281 194.429688 201.488281 C 198.828125 201.488281 203.648438 200.164062 208.644531 197.5625 C 227.203125 208.460938 229.476562 209.792969 229.773438 209.96875 C 229.789062 209.976562 229.800781 209.984375 229.816406 209.992188 C 231.894531 211.195312 234.246094 211.789062 236.792969 211.789062 C 240.402344 211.789062 244.390625 210.589844 248.515625 208.207031 C 250.230469 207.21875 251.902344 206.054688 253.519531 204.75 C 254.183594 205.355469 254.839844 205.929688 255.5 206.476562 L 226.957031 222.953125 C 226.703125 223.101562 226.546875 223.375 226.546875 223.667969 C 226.546875 223.960938 226.703125 224.234375 226.957031 224.378906 C 228.25 225.125 229.503906 225.921875 230.726562 226.753906 Z M 270.625 309.960938 L 286.195312 300.972656 C 286.585938 300.742188 287.09375 300.878906 287.320312 301.273438 C 287.546875 301.664062 287.410156 302.167969 287.019531 302.394531 L 271.449219 311.386719 C 271.316406 311.460938 271.175781 311.496094 271.035156 311.496094 C 270.753906 311.496094 270.476562 311.347656 270.324219 311.085938 C 270.097656 310.691406 270.230469 310.1875 270.625 309.960938 Z M 270.324219 277.691406 C 270.097656 277.296875 270.230469 276.792969 270.625 276.566406 L 295.078125 262.449219 C 295.46875 262.222656 295.972656 262.355469 296.199219 262.75 C 296.425781 263.144531 296.292969 263.648438 295.898438 263.875 L 271.449219 277.992188 C 271.316406 278.066406 271.175781 278.101562 271.035156 278.101562 C 270.753906 278.101562 270.476562 277.953125 270.324219 277.691406 Z M 305.921875 265.496094 C 306.152344 265.890625 306.015625 266.394531 305.621094 266.621094 L 271.558594 286.285156 C 271.429688 286.359375 271.289062 286.398438 271.148438 286.398438 C 270.863281 286.398438 270.585938 286.25 270.433594 285.984375 C 270.207031 285.589844 270.34375 285.089844 270.734375 284.863281 L 304.800781 265.195312 C 305.191406 264.96875 305.695312 265.101562 305.921875 265.496094 Z M 334.398438 232.339844 C 334.625 232.730469 334.492188 233.234375 334.097656 233.460938 L 322.992188 239.875 C 322.859375 239.949219 322.71875 239.984375 322.578125 239.984375 C 322.296875 239.984375 322.019531 239.835938 321.867188 239.574219 C 321.640625 239.179688 321.773438 238.675781 322.167969 238.449219 L 333.273438 232.039062 C 333.667969 231.808594 334.171875 231.945312 334.398438 232.339844 Z M 318.269531 241.648438 C 318.496094 242.042969 318.363281 242.546875 317.96875 242.773438 L 288.84375 259.589844 C 288.714844 259.664062 288.574219 259.699219 288.433594 259.699219 C 288.148438 259.699219 287.871094 259.550781 287.71875 259.289062 C 287.492188 258.894531 287.628906 258.390625 288.019531 258.164062 L 317.144531 241.347656 C 317.539062 241.121094 318.042969 241.253906 318.269531 241.648438 Z M 279.957031 231.285156 L 266.769531 238.898438 C 266.640625 238.972656 266.5 239.007812 266.359375 239.007812 C 266.074219 239.007812 265.800781 238.859375 265.648438 238.597656 C 265.574219 238.464844 265.535156 238.324219 265.535156 238.183594 C 265.535156 237.902344 265.683594 237.625 265.949219 237.472656 L 279.132812 229.859375 C 279.527344 229.632812 280.03125 229.765625 280.257812 230.160156 C 280.332031 230.289062 280.367188 230.433594 280.367188 230.574219 C 280.367188 230.855469 280.21875 231.132812 279.957031 231.285156 Z M 281.644531 221.953125 L 264.015625 232.128906 C 263.882812 232.203125 263.742188 232.242188 263.605469 232.242188 C 263.320312 232.242188 263.042969 232.09375 262.890625 231.828125 C 262.816406 231.699219 262.78125 231.558594 262.78125 231.417969 C 262.78125 231.132812 262.929688 230.859375 263.191406 230.707031 L 280.070312 220.960938 L 280.820312 220.527344 C 280.867188 220.5 280.917969 220.492188 280.96875 220.476562 C 281.332031 220.351562 281.742188 220.484375 281.945312 220.828125 C 281.96875 220.871094 281.980469 220.917969 282 220.960938 C 282.03125 221.050781 282.054688 221.144531 282.054688 221.242188 C 282.054688 221.445312 281.976562 221.640625 281.835938 221.796875 C 281.777344 221.855469 281.71875 221.910156 281.644531 221.953125 Z M 293.125 306.257812 C 293.351562 306.652344 293.21875 307.15625 292.824219 307.382812 L 270.992188 319.988281 C 270.863281 320.0625 270.722656 320.097656 270.582031 320.097656 C 270.300781 320.097656 270.023438 319.949219 269.871094 319.683594 C 269.644531 319.292969 269.777344 318.789062 270.171875 318.5625 L 292 305.957031 C 292.390625 305.730469 292.898438 305.867188 293.125 306.257812 Z M 270.324219 294.410156 C 270.097656 294.015625 270.230469 293.511719 270.625 293.285156 L 292 280.941406 C 292.390625 280.714844 292.898438 280.851562 293.125 281.246094 C 293.351562 281.636719 293.21875 282.140625 292.824219 282.367188 L 271.449219 294.710938 C 271.316406 294.785156 271.175781 294.820312 271.035156 294.820312 C 270.753906 294.820312 270.476562 294.671875 270.324219 294.410156 Z M 293.234375 289.519531 C 293.460938 289.914062 293.328125 290.414062 292.933594 290.644531 L 271.558594 302.984375 C 271.429688 303.058594 271.289062 303.09375 271.148438 303.09375 C 270.863281 303.09375 270.585938 302.945312 270.433594 302.683594 C 270.207031 302.289062 270.34375 301.785156 270.734375 301.558594 L 292.113281 289.21875 C 292.503906 288.992188 293.007812 289.125 293.234375 289.519531 Z M 283.160156 261.917969 C 283.390625 262.3125 283.253906 262.816406 282.859375 263.042969 L 271.980469 269.324219 C 271.851562 269.398438 271.710938 269.433594 271.570312 269.433594 C 271.285156 269.433594 271.007812 269.289062 270.855469 269.023438 C 270.628906 268.632812 270.765625 268.128906 271.15625 267.902344 L 282.039062 261.617188 C 282.429688 261.390625 282.933594 261.527344 283.160156 261.917969 Z M 339.324219 221.136719 C 339.550781 221.53125 339.417969 222.03125 339.023438 222.257812 L 303.925781 242.523438 C 303.796875 242.597656 303.65625 242.632812 303.515625 242.632812 C 303.230469 242.632812 302.953125 242.484375 302.800781 242.222656 C 302.574219 241.828125 302.710938 241.324219 303.101562 241.097656 L 320.929688 230.804688 L 329.988281 225.574219 L 338.199219 220.835938 C 338.59375 220.605469 339.097656 220.742188 339.324219 221.136719 Z M 295.898438 247.15625 L 271.871094 261.03125 C 271.738281 261.105469 271.597656 261.140625 271.457031 261.140625 C 271.175781 261.140625 270.898438 260.992188 270.746094 260.730469 C 270.519531 260.335938 270.652344 259.832031 271.046875 259.605469 L 295.078125 245.730469 C 295.46875 245.503906 295.972656 245.640625 296.199219 246.03125 C 296.425781 246.425781 296.292969 246.929688 295.898438 247.15625 Z M 337.371094 212.953125 L 338.574219 212.257812 L 339.179688 211.910156 C 339.320312 211.828125 339.472656 211.808594 339.621094 211.8125 C 339.894531 211.824219 340.15625 211.957031 340.304688 212.210938 C 340.378906 212.339844 340.414062 212.480469 340.414062 212.621094 C 340.414062 212.90625 340.265625 213.183594 340.003906 213.335938 L 338.660156 214.109375 L 337.398438 214.839844 L 336.046875 215.617188 L 310.496094 230.371094 L 309.296875 231.0625 L 308.1875 231.703125 L 272.828125 252.117188 C 272.699219 252.191406 272.558594 252.226562 272.417969 252.226562 C 272.132812 252.226562 271.855469 252.082031 271.703125 251.816406 C 271.628906 251.6875 271.59375 251.546875 271.59375 251.40625 C 271.59375 251.121094 271.742188 250.84375 272.003906 250.691406 L 305.863281 231.144531 L 306.871094 230.5625 L 307.910156 229.964844 Z M 274.078125 217.960938 L 258.617188 226.886719 C 258.488281 226.960938 258.347656 226.996094 258.207031 226.996094 C 257.921875 226.996094 257.648438 226.851562 257.492188 226.585938 C 257.265625 226.191406 257.402344 225.6875 257.796875 225.460938 L 272.367188 217.046875 L 273.207031 216.566406 L 274.042969 216.082031 L 279.132812 213.140625 C 279.527344 212.914062 280.03125 213.050781 280.257812 213.445312 C 280.484375 213.835938 280.351562 214.339844 279.957031 214.566406 L 275.765625 216.988281 L 274.921875 217.472656 Z M 270.398438 53.261719 C 270.144531 53.117188 269.832031 53.117188 269.578125 53.261719 L 260 58.792969 L 260 47.808594 C 260 47.515625 259.84375 47.246094 259.585938 47.097656 C 259.332031 46.949219 259.019531 46.949219 258.765625 47.097656 L 246.347656 54.265625 C 246.089844 54.414062 245.933594 54.6875 245.933594 54.980469 L 245.933594 66.914062 L 235.53125 72.917969 C 235.277344 73.066406 235.121094 73.335938 235.121094 73.628906 L 235.121094 87.882812 C 235.121094 88.175781 235.277344 88.445312 235.53125 88.59375 C 235.785156 88.742188 236.101562 88.742188 236.355469 88.59375 L 245.933594 83.0625 L 245.933594 94.046875 C 245.933594 94.339844 246.089844 94.613281 246.347656 94.757812 C 246.472656 94.832031 246.613281 94.867188 246.757812 94.867188 C 246.898438 94.867188 247.042969 94.832031 247.167969 94.757812 L 259.585938 87.589844 C 259.84375 87.441406 260 87.171875 260 86.875 L 260 74.941406 L 270.398438 68.9375 C 270.65625 68.792969 270.8125 68.519531 270.8125 68.226562 L 270.8125 53.976562 C 270.8125 53.679688 270.65625 53.410156 270.398438 53.261719 Z M 269.167969 67.75 L 258.765625 73.753906 C 258.511719 73.902344 258.351562 74.175781 258.351562 74.46875 L 258.351562 86.402344 L 247.578125 92.621094 L 247.578125 81.636719 C 247.578125 81.34375 247.421875 81.074219 247.167969 80.925781 C 247.042969 80.851562 246.898438 80.816406 246.757812 80.816406 C 246.613281 80.816406 246.472656 80.851562 246.347656 80.925781 L 236.765625 86.457031 L 236.765625 74.105469 L 247.167969 68.101562 C 247.421875 67.953125 247.578125 67.683594 247.578125 67.386719 L 247.578125 55.453125 L 258.351562 49.234375 L 258.351562 60.21875 C 258.351562 60.511719 258.511719 60.785156 258.765625 60.929688 C 259.019531 61.078125 259.332031 61.078125 259.585938 60.929688 L 269.167969 55.398438 Z M 49.816406 287.378906 C 49.589844 286.988281 49.722656 286.484375 50.117188 286.257812 L 70.0625 274.742188 C 70.457031 274.511719 70.960938 274.648438 71.1875 275.042969 C 71.414062 275.433594 71.28125 275.9375 70.886719 276.164062 L 50.941406 287.683594 C 50.808594 287.757812 50.667969 287.792969 50.53125 287.792969 C 50.246094 287.792969 49.96875 287.644531 49.816406 287.378906 Z M 80.746094 269.523438 C 80.519531 269.128906 80.65625 268.625 81.050781 268.398438 L 107.304688 253.238281 C 107.695312 253.011719 108.199219 253.148438 108.429688 253.539062 C 108.65625 253.933594 108.519531 254.4375 108.128906 254.664062 L 81.871094 269.824219 C 81.742188 269.898438 81.601562 269.933594 81.460938 269.933594 C 81.175781 269.933594 80.898438 269.785156 80.746094 269.523438 Z M 49.816406 295.144531 C 49.589844 294.75 49.722656 294.246094 50.117188 294.019531 L 88.835938 271.667969 C 89.226562 271.441406 89.730469 271.574219 89.957031 271.96875 C 90.1875 272.363281 90.050781 272.863281 89.65625 273.089844 L 50.941406 295.445312 C 50.808594 295.519531 50.667969 295.554688 50.53125 295.554688 C 50.246094 295.554688 49.96875 295.40625 49.816406 295.144531 Z M 113.753906 258.230469 C 113.984375 258.621094 113.847656 259.125 113.453125 259.351562 L 96.105469 269.371094 C 95.976562 269.445312 95.835938 269.480469 95.695312 269.480469 C 95.410156 269.480469 95.132812 269.332031 94.980469 269.066406 C 94.753906 268.675781 94.890625 268.171875 95.28125 267.945312 L 112.632812 257.929688 C 113.023438 257.699219 113.527344 257.835938 113.753906 258.230469 Z M 72.144531 209.195312 C 72.371094 209.589844 72.238281 210.09375 71.84375 210.320312 L 50.941406 222.390625 C 50.808594 222.464844 50.667969 222.5 50.53125 222.5 C 50.246094 222.5 49.96875 222.351562 49.816406 222.089844 C 49.589844 221.695312 49.722656 221.191406 50.117188 220.964844 L 71.019531 208.894531 C 71.410156 208.667969 71.917969 208.804688 72.144531 209.195312 Z M 110.871094 187.789062 L 83.355469 203.675781 C 83.226562 203.75 83.085938 203.785156 82.945312 203.785156 C 82.660156 203.785156 82.382812 203.636719 82.230469 203.375 C 82.003906 202.980469 82.140625 202.476562 82.535156 202.25 L 110.046875 186.363281 C 110.441406 186.136719 110.945312 186.269531 111.171875 186.664062 C 111.398438 187.058594 111.265625 187.5625 110.871094 187.789062 Z M 91.816406 205.976562 C 92.042969 206.367188 91.910156 206.871094 91.515625 207.097656 L 50.941406 230.527344 C 50.808594 230.601562 50.667969 230.636719 50.53125 230.636719 C 50.246094 230.636719 49.96875 230.488281 49.816406 230.222656 C 49.589844 229.832031 49.722656 229.328125 50.117188 229.101562 L 90.691406 205.675781 C 91.085938 205.445312 91.589844 205.582031 91.816406 205.976562 Z M 116.757812 191.578125 C 116.984375 191.972656 116.847656 192.472656 116.453125 192.699219 L 98.273438 203.199219 C 98.144531 203.273438 98 203.308594 97.863281 203.308594 C 97.578125 203.308594 97.300781 203.160156 97.148438 202.898438 C 96.921875 202.503906 97.054688 202 97.449219 201.773438 L 115.632812 191.277344 C 116.023438 191.050781 116.527344 191.183594 116.757812 191.578125 Z M 49.816406 302.910156 C 49.589844 302.515625 49.722656 302.011719 50.117188 301.785156 L 73.714844 288.160156 C 74.109375 287.929688 74.613281 288.066406 74.839844 288.460938 C 75.066406 288.855469 74.933594 289.355469 74.539062 289.585938 L 50.941406 303.210938 C 50.808594 303.285156 50.667969 303.320312 50.53125 303.320312 C 50.246094 303.320312 49.96875 303.171875 49.816406 302.910156 Z M 98.738281 274.660156 C 98.96875 275.054688 98.832031 275.558594 98.4375 275.785156 L 80.394531 286.203125 C 80.265625 286.277344 80.125 286.3125 79.984375 286.3125 C 79.699219 286.3125 79.425781 286.164062 79.269531 285.902344 C 79.042969 285.507812 79.179688 285.003906 79.574219 284.777344 L 97.617188 274.359375 C 98.007812 274.132812 98.511719 274.269531 98.738281 274.660156 Z M 97.191406 283.320312 C 97.417969 283.714844 97.285156 284.214844 96.890625 284.445312 L 50.941406 310.972656 C 50.808594 311.046875 50.667969 311.082031 50.53125 311.082031 C 50.246094 311.082031 49.96875 310.9375 49.816406 310.671875 C 49.589844 310.277344 49.722656 309.777344 50.117188 309.546875 L 96.070312 283.019531 C 96.460938 282.792969 96.964844 282.925781 97.191406 283.320312 Z M 97.191406 283.320312 " fill-opacity="1" fill-rule="nonzero"/></g></svg>