<svg xmlns="http://www.w3.org/2000/svg" xmlns:xlink="http://www.w3.org/1999/xlink" width="500" zoomAndPan="magnify" viewBox="0 0 375 374.999991" height="500" preserveAspectRatio="xMidYMid meet" version="1.0"><defs><filter x="0%" y="0%" width="100%" height="100%" id="8cff1fff39"><feColorMatrix values="0 0 0 0 1 0 0 0 0 1 0 0 0 0 1 0 0 0 1 0" color-interpolation-filters="sRGB"/></filter><clipPath id="a113b520d5"><path d="M 32.164062 97 L 342.664062 97 L 342.664062 287.957031 L 32.164062 287.957031 Z M 32.164062 97 " clip-rule="nonzero"/></clipPath><clipPath id="6f0277a2c2"><path d="M 32.164062 97 L 342.664062 97 L 342.664062 279 L 32.164062 279 Z M 32.164062 97 " clip-rule="nonzero"/></clipPath><clipPath id="5de75d2899"><path d="M 43 104 L 342.664062 104 L 342.664062 287 L 43 287 Z M 43 104 " clip-rule="nonzero"/></clipPath><clipPath id="6d0f63f172"><path d="M 32.164062 97 L 342.664062 97 L 342.664062 287.957031 L 32.164062 287.957031 Z M 32.164062 97 " clip-rule="nonzero"/></clipPath><mask id="ff1961e69b"><g filter="url(#8cff1fff39)"><rect x="-37.5" width="450" fill="#000000" y="-37.499999" height="449.999989" fill-opacity="0.2"/></g></mask><clipPath id="d895241fff"><path d="M 0.078125 1 L 79.761719 1 L 79.761719 118.921875 L 0.078125 118.921875 Z M 0.078125 1 " clip-rule="nonzero"/></clipPath><clipPath id="7b67ed15a0"><rect x="0" width="80" y="0" height="119"/></clipPath><mask id="182f19e6c6"><g filter="url(#8cff1fff39)"><rect x="-37.5" width="450" fill="#000000" y="-37.499999" height="449.999989" fill-opacity="0.2"/></g></mask><clipPath id="51a6600ed7"><path d="M 1 1 L 80.441406 1 L 80.441406 118.558594 L 1 118.558594 Z M 1 1 " clip-rule="nonzero"/></clipPath><clipPath id="a08ea4fb59"><rect x="0" width="81" y="0" height="119"/></clipPath><mask id="7c45c5ab56"><g filter="url(#8cff1fff39)"><rect x="-37.5" width="450" fill="#000000" y="-37.499999" height="449.999989" fill-opacity="0.2"/></g></mask><clipPath id="9b1c41b5ab"><path d="M 0.441406 0.121094 L 80 0.121094 L 80 118 L 0.441406 118 Z M 0.441406 0.121094 " clip-rule="nonzero"/></clipPath><clipPath id="8ff2a6f17c"><rect x="0" width="81" y="0" height="119"/></clipPath><mask id="b7cfaaa88d"><g filter="url(#8cff1fff39)"><rect x="-37.5" width="450" fill="#000000" y="-37.499999" height="449.999989" fill-opacity="0.2"/></g></mask><clipPath id="6f0b1194c9"><path d="M 0.121094 1 L 79.800781 1 L 79.800781 119 L 0.121094 119 Z M 0.121094 1 " clip-rule="nonzero"/></clipPath><clipPath id="bbb003b019"><rect x="0" width="80" y="0" height="120"/></clipPath></defs><g clip-path="url(#a113b520d5)"><path fill="#1c2628" d="M 216.214844 287.914062 C 215.679688 287.914062 215.125 287.863281 214.570312 287.761719 C 213.519531 287.570312 212.527344 287.203125 211.617188 286.675781 L 34.703125 183.472656 C 33.21875 182.609375 32.335938 181.070312 32.335938 179.355469 L 32.339844 170.265625 C 32.339844 170.175781 32.34375 170.113281 32.351562 170.054688 L 32.367188 169.835938 C 32.371094 169.757812 32.375 169.683594 32.382812 169.609375 C 32.390625 169.554688 32.402344 169.5 32.414062 169.449219 L 32.453125 169.246094 C 32.46875 169.160156 32.484375 169.074219 32.507812 168.988281 C 32.519531 168.949219 32.53125 168.914062 32.546875 168.878906 L 32.59375 168.738281 C 32.628906 168.625 32.664062 168.511719 32.710938 168.398438 C 32.71875 168.378906 32.773438 168.273438 32.773438 168.273438 C 32.839844 168.128906 32.90625 167.984375 32.988281 167.847656 L 33.039062 167.769531 C 33.132812 167.621094 33.226562 167.476562 33.335938 167.339844 L 33.390625 167.273438 C 33.503906 167.136719 33.621094 167.003906 33.746094 166.875 C 33.773438 166.851562 33.894531 166.75 33.894531 166.75 C 34.027344 166.628906 34.121094 166.542969 34.222656 166.46875 C 34.394531 166.339844 34.574219 166.222656 34.761719 166.117188 L 154.289062 98.535156 C 154.5 98.417969 154.734375 98.300781 155.027344 98.167969 C 155.097656 98.136719 155.167969 98.105469 155.242188 98.074219 C 155.476562 97.976562 155.710938 97.886719 155.949219 97.808594 C 156.007812 97.789062 156.214844 97.730469 156.214844 97.730469 C 156.382812 97.679688 156.554688 97.636719 156.726562 97.597656 L 156.789062 97.582031 C 156.875 97.5625 156.957031 97.542969 157.042969 97.527344 C 157.269531 97.484375 157.5 97.449219 157.726562 97.421875 L 157.867188 97.402344 C 157.929688 97.394531 157.992188 97.390625 158.054688 97.386719 L 158.320312 97.375 C 158.484375 97.363281 158.648438 97.359375 158.8125 97.359375 L 158.898438 97.363281 C 159.648438 97.371094 160.390625 97.472656 161.109375 97.660156 L 161.207031 97.6875 C 161.355469 97.726562 161.503906 97.773438 161.648438 97.820312 C 161.71875 97.84375 161.785156 97.867188 161.855469 97.894531 C 161.976562 97.9375 162.097656 97.984375 162.21875 98.03125 C 162.320312 98.074219 162.425781 98.121094 162.527344 98.167969 L 162.597656 98.199219 C 162.664062 98.226562 162.730469 98.257812 162.796875 98.289062 C 162.992188 98.386719 163.1875 98.488281 163.378906 98.597656 L 340.289062 201.796875 C 340.429688 201.878906 340.558594 201.96875 340.6875 202.0625 C 340.6875 202.0625 340.792969 202.132812 340.8125 202.148438 C 340.945312 202.25 341.058594 202.355469 341.171875 202.464844 L 341.226562 202.511719 C 341.246094 202.53125 341.269531 202.546875 341.285156 202.5625 C 341.40625 202.683594 341.515625 202.816406 341.621094 202.949219 C 341.621094 202.949219 341.65625 202.992188 341.660156 202.992188 C 341.792969 203.160156 341.878906 203.296875 341.960938 203.4375 C 341.96875 203.445312 342.027344 203.53125 342.035156 203.539062 C 342.105469 203.667969 342.167969 203.804688 342.226562 203.941406 L 342.261719 204.011719 C 342.277344 204.039062 342.289062 204.0625 342.300781 204.089844 C 342.339844 204.191406 342.375 204.296875 342.40625 204.402344 L 342.457031 204.550781 C 342.46875 204.59375 342.484375 204.632812 342.496094 204.675781 C 342.519531 204.761719 342.535156 204.84375 342.546875 204.929688 L 342.585938 205.128906 C 342.597656 205.183594 342.609375 205.238281 342.617188 205.292969 C 342.625 205.363281 342.628906 205.4375 342.632812 205.511719 L 342.644531 205.730469 C 342.652344 205.792969 342.65625 205.851562 342.65625 205.914062 L 342.660156 215 C 342.660156 216.746094 341.753906 218.296875 340.238281 219.15625 L 220.707031 286.734375 C 220.363281 286.929688 220.003906 287.101562 219.636719 287.25 C 218.546875 287.691406 217.398438 287.914062 216.214844 287.914062 Z M 216.214844 287.914062 " fill-opacity="1" fill-rule="nonzero"/><path fill="#fefae0" d="M 158.050781 97.800781 C 157.980469 97.808594 157.914062 97.8125 157.84375 97.820312 C 157.867188 97.820312 157.886719 97.8125 157.910156 97.8125 C 157.957031 97.804688 158.003906 97.804688 158.050781 97.800781 Z M 342.226562 205.636719 C 342.234375 205.730469 342.242188 205.820312 342.242188 205.914062 C 342.242188 205.820312 342.234375 205.730469 342.226562 205.636719 Z M 342.160156 205.09375 C 342.175781 205.1875 342.199219 205.285156 342.210938 205.382812 C 342.199219 205.285156 342.175781 205.1875 342.15625 205.089844 C 342.15625 205.089844 342.160156 205.09375 342.160156 205.09375 Z M 342.019531 204.554688 C 342.050781 204.648438 342.085938 204.742188 342.109375 204.839844 C 342.085938 204.746094 342.050781 204.652344 342.019531 204.554688 Z M 341.1875 203.078125 C 341.257812 203.160156 341.335938 203.242188 341.398438 203.328125 C 341.335938 203.238281 341.257812 203.160156 341.183594 203.074219 C 341.1875 203.074219 341.1875 203.078125 341.1875 203.078125 Z M 340.753906 202.644531 C 340.847656 202.726562 340.945312 202.804688 341.03125 202.894531 C 340.941406 202.800781 340.839844 202.71875 340.742188 202.632812 C 340.746094 202.636719 340.75 202.640625 340.753906 202.644531 Z M 340.589844 202.496094 C 340.433594 202.375 340.261719 202.257812 340.082031 202.152344 C 340.109375 202.167969 340.128906 202.1875 340.15625 202.203125 C 340.308594 202.296875 340.457031 202.390625 340.589844 202.496094 Z M 341.8125 204.039062 C 341.859375 204.128906 341.90625 204.21875 341.941406 204.3125 C 341.90625 204.21875 341.859375 204.128906 341.8125 204.035156 C 341.8125 204.035156 341.8125 204.035156 341.8125 204.039062 Z M 211.824219 277.230469 L 34.914062 174.03125 C 33.464844 173.183594 32.746094 171.71875 32.753906 170.25 C 32.753906 170.257812 32.75 170.261719 32.75 170.265625 L 32.75 179.355469 C 32.75 180.816406 33.46875 182.277344 34.910156 183.117188 L 211.824219 286.316406 C 212.660156 286.804688 213.558594 287.144531 214.480469 287.332031 C 215.035156 287.441406 215.59375 287.5 216.15625 287.503906 C 216.160156 287.503906 216.167969 287.503906 216.171875 287.503906 C 216.523438 287.507812 216.875 287.484375 217.226562 287.445312 C 217.273438 287.4375 217.320312 287.433594 217.363281 287.425781 C 217.667969 287.386719 217.964844 287.328125 218.261719 287.257812 C 219.039062 287.070312 219.792969 286.777344 220.503906 286.375 L 220.503906 277.289062 C 217.804688 278.8125 214.5 278.789062 211.824219 277.230469 Z M 211.824219 277.230469 " fill-opacity="1" fill-rule="nonzero"/></g><g clip-path="url(#6f0277a2c2)"><path fill="#ffffff" d="M 342.210938 205.382812 C 342.199219 205.285156 342.175781 205.1875 342.160156 205.09375 C 342.140625 205.007812 342.132812 204.921875 342.109375 204.839844 C 342.085938 204.746094 342.050781 204.652344 342.019531 204.554688 C 342.011719 204.53125 342.003906 204.503906 341.996094 204.476562 C 341.980469 204.421875 341.964844 204.367188 341.941406 204.3125 C 341.90625 204.21875 341.859375 204.128906 341.8125 204.039062 C 341.8125 204.035156 341.8125 204.035156 341.8125 204.035156 C 341.777344 203.960938 341.746094 203.882812 341.707031 203.808594 C 341.65625 203.71875 341.59375 203.628906 341.535156 203.542969 C 341.492188 203.472656 341.453125 203.398438 341.402344 203.332031 C 341.339844 203.246094 341.261719 203.164062 341.1875 203.078125 C 341.1875 203.078125 341.1875 203.074219 341.183594 203.074219 C 341.132812 203.015625 341.085938 202.953125 341.03125 202.894531 C 340.945312 202.804688 340.847656 202.726562 340.753906 202.644531 C 340.75 202.640625 340.746094 202.636719 340.742188 202.632812 C 340.695312 202.59375 340.65625 202.554688 340.609375 202.515625 C 340.605469 202.511719 340.597656 202.503906 340.589844 202.496094 C 340.457031 202.390625 340.308594 202.296875 340.15625 202.203125 C 340.128906 202.1875 340.109375 202.167969 340.082031 202.152344 L 273.738281 163.453125 L 267.675781 159.914062 L 163.171875 98.953125 C 162.984375 98.84375 162.792969 98.746094 162.601562 98.652344 C 162.539062 98.621094 162.476562 98.59375 162.414062 98.566406 C 162.28125 98.503906 162.148438 98.445312 162.011719 98.394531 C 161.9375 98.363281 161.867188 98.335938 161.792969 98.308594 C 161.664062 98.261719 161.53125 98.21875 161.402344 98.175781 C 161.328125 98.152344 161.253906 98.128906 161.179688 98.109375 C 161.039062 98.066406 160.894531 98.03125 160.75 97.996094 C 160.6875 97.984375 160.628906 97.96875 160.566406 97.953125 C 160.363281 97.910156 160.15625 97.875 159.949219 97.847656 C 159.921875 97.84375 159.894531 97.839844 159.871094 97.839844 C 159.6875 97.816406 159.507812 97.796875 159.324219 97.785156 C 159.253906 97.78125 159.183594 97.78125 159.117188 97.777344 C 158.972656 97.773438 158.832031 97.769531 158.691406 97.773438 C 158.613281 97.773438 158.539062 97.773438 158.460938 97.777344 C 158.324219 97.78125 158.1875 97.792969 158.050781 97.800781 C 157.980469 97.808594 157.914062 97.8125 157.84375 97.820312 C 157.585938 97.847656 157.328125 97.886719 157.074219 97.9375 C 157.027344 97.949219 156.980469 97.960938 156.933594 97.96875 C 156.699219 98.019531 156.46875 98.078125 156.242188 98.148438 C 156.203125 98.160156 156.164062 98.171875 156.125 98.183594 C 155.875 98.265625 155.628906 98.355469 155.386719 98.460938 C 155.332031 98.484375 155.277344 98.507812 155.222656 98.53125 C 154.976562 98.640625 154.730469 98.761719 154.492188 98.894531 L 34.964844 166.472656 C 34.78125 166.578125 34.609375 166.691406 34.449219 166.816406 C 34.390625 166.859375 34.339844 166.910156 34.285156 166.957031 C 34.1875 167.039062 34.085938 167.117188 34 167.207031 C 33.945312 167.261719 33.898438 167.324219 33.847656 167.382812 C 33.769531 167.46875 33.6875 167.554688 33.621094 167.644531 C 33.570312 167.710938 33.535156 167.777344 33.488281 167.84375 C 33.429688 167.9375 33.363281 168.027344 33.308594 168.121094 C 33.269531 168.195312 33.238281 168.269531 33.203125 168.34375 C 33.15625 168.4375 33.105469 168.53125 33.066406 168.628906 C 33.035156 168.707031 33.011719 168.789062 32.988281 168.871094 C 32.953125 168.964844 32.917969 169.058594 32.894531 169.15625 C 32.871094 169.238281 32.859375 169.324219 32.84375 169.40625 C 32.824219 169.503906 32.800781 169.601562 32.789062 169.699219 C 32.777344 169.785156 32.777344 169.875 32.769531 169.960938 C 32.765625 170.058594 32.753906 170.152344 32.753906 170.25 C 32.746094 171.71875 33.464844 173.183594 34.914062 174.03125 L 211.824219 277.230469 C 214.5 278.789062 217.804688 278.8125 220.503906 277.289062 L 340.03125 209.707031 C 341.597656 208.824219 342.324219 207.207031 342.226562 205.636719 C 342.222656 205.550781 342.222656 205.46875 342.210938 205.382812 Z M 327.414062 205.316406 L 269.863281 171.742188 L 262.222656 167.285156 L 161.675781 108.636719 L 46.738281 173.617188 L 43.492188 171.722656 L 161.675781 104.90625 L 263.570312 164.34375 L 271.234375 168.816406 L 330.660156 203.480469 Z M 327.414062 205.316406 " fill-opacity="1" fill-rule="nonzero"/></g><g clip-path="url(#5de75d2899)"><path fill="#d7907b" d="M 341.707031 203.808594 C 341.65625 203.71875 341.59375 203.628906 341.535156 203.542969 C 341.59375 203.628906 341.65625 203.710938 341.703125 203.800781 C 341.707031 203.804688 341.707031 203.808594 341.707031 203.808594 Z M 342.242188 205.914062 C 342.242188 205.820312 342.234375 205.730469 342.226562 205.636719 C 342.324219 207.207031 341.597656 208.824219 340.03125 209.707031 L 220.503906 277.289062 L 220.503906 286.375 L 340.035156 218.796875 C 341.507812 217.964844 342.246094 216.484375 342.246094 215.003906 L 342.246094 215 Z M 341.398438 203.328125 C 341.335938 203.242188 341.257812 203.160156 341.1875 203.078125 C 341.261719 203.164062 341.339844 203.246094 341.402344 203.332031 C 341.402344 203.332031 341.402344 203.328125 341.398438 203.328125 Z M 269.863281 171.742188 L 327.414062 205.316406 L 330.660156 203.480469 L 271.234375 168.816406 L 263.570312 164.34375 L 161.675781 104.90625 L 43.492188 171.722656 L 46.738281 173.617188 L 161.675781 108.636719 L 262.222656 167.285156 Z M 269.863281 171.742188 " fill-opacity="1" fill-rule="nonzero"/></g><g clip-path="url(#6d0f63f172)"><path fill="#1c2628" d="M 342.792969 205.914062 C 342.792969 205.8125 342.78125 205.710938 342.773438 205.609375 C 342.765625 205.496094 342.765625 205.386719 342.753906 205.277344 C 342.742188 205.183594 342.71875 205.097656 342.703125 205.007812 C 342.699219 205.003906 342.699219 205 342.699219 205 C 342.675781 204.878906 342.660156 204.757812 342.628906 204.640625 C 342.609375 204.566406 342.582031 204.5 342.558594 204.425781 C 342.515625 204.296875 342.480469 204.164062 342.425781 204.039062 C 342.40625 203.984375 342.375 203.9375 342.351562 203.886719 C 342.289062 203.746094 342.226562 203.605469 342.148438 203.472656 C 342.144531 203.460938 342.140625 203.453125 342.132812 203.445312 C 342.132812 203.445312 342.132812 203.445312 342.132812 203.441406 C 342.117188 203.417969 342.097656 203.390625 342.082031 203.367188 C 341.992188 203.222656 341.902344 203.078125 341.800781 202.945312 C 341.777344 202.917969 341.75 202.890625 341.726562 202.863281 C 341.621094 202.726562 341.507812 202.59375 341.382812 202.46875 C 341.347656 202.429688 341.304688 202.398438 341.265625 202.363281 C 341.148438 202.253906 341.03125 202.144531 340.902344 202.042969 C 340.902344 202.042969 340.898438 202.039062 340.894531 202.039062 C 340.855469 202.007812 340.808594 201.984375 340.769531 201.953125 C 340.636719 201.855469 340.503906 201.761719 340.359375 201.675781 L 163.449219 98.480469 C 163.253906 98.367188 163.058594 98.261719 162.859375 98.164062 C 162.769531 98.121094 162.675781 98.082031 162.585938 98.039062 C 162.480469 97.992188 162.375 97.945312 162.269531 97.902344 C 162.148438 97.855469 162.023438 97.808594 161.902344 97.761719 C 161.832031 97.738281 161.761719 97.714844 161.691406 97.691406 C 161.542969 97.640625 161.394531 97.597656 161.246094 97.554688 C 161.210938 97.546875 161.175781 97.539062 161.144531 97.527344 C 160.414062 97.335938 159.664062 97.234375 158.902344 97.222656 C 158.871094 97.222656 158.84375 97.222656 158.8125 97.222656 C 158.648438 97.222656 158.480469 97.226562 158.316406 97.234375 C 158.261719 97.238281 158.210938 97.242188 158.160156 97.246094 C 158.058594 97.25 157.957031 97.253906 157.855469 97.261719 C 157.804688 97.269531 157.761719 97.28125 157.710938 97.285156 C 157.480469 97.3125 157.246094 97.347656 157.019531 97.390625 C 156.910156 97.410156 156.804688 97.4375 156.695312 97.460938 C 156.519531 97.503906 156.347656 97.546875 156.175781 97.597656 C 156.085938 97.625 155.996094 97.648438 155.90625 97.675781 C 155.664062 97.753906 155.425781 97.847656 155.1875 97.945312 C 155.113281 97.976562 155.042969 98.011719 154.96875 98.042969 C 154.714844 98.15625 154.464844 98.277344 154.222656 98.417969 L 34.691406 165.996094 C 34.5 166.105469 34.316406 166.226562 34.140625 166.355469 C 34.019531 166.445312 33.914062 166.546875 33.800781 166.648438 C 33.753906 166.691406 33.699219 166.730469 33.652344 166.777344 C 33.519531 166.90625 33.398438 167.046875 33.285156 167.1875 C 33.265625 167.210938 33.246094 167.230469 33.226562 167.253906 C 33.117188 167.394531 33.015625 167.546875 32.921875 167.699219 C 32.90625 167.726562 32.886719 167.75 32.871094 167.777344 C 32.785156 167.917969 32.71875 168.070312 32.648438 168.21875 C 32.628906 168.261719 32.605469 168.300781 32.585938 168.347656 C 32.53125 168.476562 32.488281 168.613281 32.445312 168.75 C 32.421875 168.820312 32.394531 168.882812 32.375 168.953125 C 32.34375 169.070312 32.324219 169.195312 32.300781 169.320312 C 32.285156 169.410156 32.257812 169.496094 32.246094 169.589844 C 32.230469 169.703125 32.230469 169.816406 32.222656 169.929688 C 32.214844 170.03125 32.203125 170.132812 32.199219 170.234375 C 32.199219 170.238281 32.203125 170.246094 32.203125 170.25 C 32.203125 170.253906 32.199219 170.261719 32.199219 170.265625 L 32.199219 179.355469 C 32.199219 181.117188 33.109375 182.703125 34.632812 183.59375 L 211.546875 286.792969 C 212.488281 287.339844 213.503906 287.707031 214.546875 287.898438 C 215.097656 287.996094 215.65625 288.050781 216.214844 288.050781 C 217.398438 288.050781 218.578125 287.828125 219.6875 287.378906 C 220.058594 287.230469 220.421875 287.054688 220.773438 286.855469 L 340.304688 219.277344 C 341.867188 218.394531 342.796875 216.796875 342.796875 215 Z M 340.195312 218.035156 C 340.058594 218.136719 339.914062 218.230469 339.765625 218.316406 L 221.054688 285.433594 L 221.054688 277.609375 L 340.300781 210.1875 C 340.851562 209.878906 341.316406 209.476562 341.695312 209.011719 L 341.695312 215.003906 C 341.695312 215.917969 341.386719 216.761719 340.828125 217.433594 C 340.644531 217.65625 340.433594 217.855469 340.195312 218.035156 Z M 33.300781 173.359375 C 33.667969 173.808594 34.109375 174.199219 34.636719 174.503906 L 211.273438 277.542969 L 211.273438 285.359375 L 35.1875 182.640625 C 34.003906 181.953125 33.296875 180.722656 33.296875 179.351562 Z M 33.335938 169.738281 C 33.347656 169.675781 33.363281 169.617188 33.375 169.554688 C 33.394531 169.453125 33.410156 169.347656 33.4375 169.246094 C 33.449219 169.199219 33.46875 169.15625 33.484375 169.113281 C 33.519531 169 33.554688 168.886719 33.601562 168.777344 C 33.613281 168.746094 33.628906 168.71875 33.644531 168.6875 C 33.699219 168.566406 33.753906 168.449219 33.820312 168.335938 C 33.835938 168.3125 33.851562 168.289062 33.867188 168.265625 C 33.941406 168.148438 34.011719 168.035156 34.097656 167.929688 C 34.121094 167.898438 34.148438 167.875 34.171875 167.84375 C 34.253906 167.746094 34.335938 167.648438 34.425781 167.5625 C 34.476562 167.507812 34.539062 167.464844 34.59375 167.414062 C 34.664062 167.355469 34.730469 167.289062 34.804688 167.234375 C 34.941406 167.132812 35.082031 167.039062 35.234375 166.953125 L 154.761719 99.375 C 154.980469 99.253906 155.203125 99.144531 155.425781 99.042969 C 155.484375 99.015625 155.546875 98.988281 155.605469 98.964844 C 155.816406 98.875 156.027344 98.792969 156.242188 98.722656 C 156.320312 98.699219 156.398438 98.679688 156.476562 98.65625 C 156.628906 98.609375 156.789062 98.570312 156.945312 98.535156 C 157.035156 98.511719 157.121094 98.492188 157.210938 98.472656 C 157.414062 98.433594 157.621094 98.402344 157.824219 98.378906 C 157.929688 98.367188 158.035156 98.359375 158.140625 98.351562 C 158.277344 98.339844 158.414062 98.332031 158.546875 98.328125 C 158.625 98.328125 158.703125 98.320312 158.78125 98.320312 C 160.203125 98.320312 161.628906 98.691406 162.894531 99.429688 L 265.332031 159.183594 L 265.808594 159.464844 L 273.027344 163.675781 L 273.507812 163.953125 L 273.984375 164.234375 L 339.804688 202.628906 C 339.953125 202.714844 340.09375 202.808594 340.226562 202.914062 C 340.316406 202.984375 340.398438 203.0625 340.484375 203.140625 C 340.523438 203.171875 340.5625 203.203125 340.601562 203.242188 C 340.699219 203.34375 340.789062 203.449219 340.878906 203.558594 C 340.890625 203.578125 340.910156 203.59375 340.921875 203.613281 C 341.007812 203.722656 341.085938 203.84375 341.15625 203.964844 C 341.160156 203.96875 341.164062 203.972656 341.167969 203.980469 C 341.171875 203.984375 341.171875 203.988281 341.175781 203.992188 C 341.183594 204.003906 341.1875 204.011719 341.195312 204.019531 C 341.257812 204.128906 341.308594 204.246094 341.359375 204.359375 C 341.363281 204.363281 341.363281 204.367188 341.363281 204.367188 C 341.378906 204.398438 341.394531 204.429688 341.410156 204.457031 C 341.449219 204.558594 341.480469 204.664062 341.511719 204.769531 C 341.523438 204.800781 341.535156 204.835938 341.546875 204.871094 C 341.554688 204.890625 341.5625 204.90625 341.566406 204.925781 C 341.589844 205.015625 341.601562 205.109375 341.621094 205.203125 C 341.632812 205.273438 341.652344 205.34375 341.660156 205.417969 C 341.671875 205.503906 341.671875 205.589844 341.679688 205.675781 C 341.679688 205.679688 341.679688 205.679688 341.679688 205.683594 C 341.683594 205.769531 341.695312 205.855469 341.695312 205.941406 C 341.683594 207.320312 340.960938 208.550781 339.761719 209.230469 L 221.730469 275.960938 L 220.90625 276.429688 L 220.234375 276.808594 C 220.183594 276.835938 220.132812 276.859375 220.082031 276.886719 C 217.738281 278.148438 214.90625 278.179688 212.539062 276.988281 C 212.394531 276.914062 212.246094 276.835938 212.101562 276.753906 L 212.054688 276.726562 L 211.578125 276.445312 L 35.191406 173.554688 C 34 172.859375 33.296875 171.628906 33.300781 170.253906 C 33.300781 170.25 33.300781 170.246094 33.300781 170.242188 C 33.300781 170.167969 33.3125 170.097656 33.316406 170.023438 C 33.324219 169.929688 33.324219 169.832031 33.335938 169.738281 Z M 219.953125 286.046875 C 219.933594 286.058594 219.914062 286.0625 219.898438 286.074219 C 219.636719 286.203125 219.375 286.320312 219.105469 286.421875 C 219.058594 286.4375 219.015625 286.453125 218.96875 286.472656 C 218.699219 286.566406 218.425781 286.648438 218.148438 286.71875 C 218.105469 286.726562 218.0625 286.734375 218.019531 286.746094 C 217.734375 286.808594 217.449219 286.859375 217.164062 286.894531 C 217.132812 286.898438 217.101562 286.898438 217.070312 286.902344 C 216.769531 286.933594 216.464844 286.953125 216.160156 286.949219 C 216.15625 286.949219 216.15625 286.949219 216.15625 286.949219 C 215.847656 286.949219 215.542969 286.925781 215.234375 286.890625 C 215.210938 286.886719 215.1875 286.882812 215.160156 286.882812 C 214.867188 286.84375 214.578125 286.785156 214.289062 286.71875 C 214.253906 286.707031 214.214844 286.699219 214.175781 286.691406 C 213.898438 286.621094 213.621094 286.53125 213.351562 286.429688 C 213.308594 286.414062 213.265625 286.398438 213.222656 286.382812 C 212.957031 286.277344 212.695312 286.15625 212.4375 286.023438 C 212.417969 286.011719 212.394531 286.007812 212.375 285.996094 L 212.375 278.125 C 213.589844 278.679688 214.902344 278.960938 216.214844 278.960938 C 217.492188 278.960938 218.765625 278.695312 219.953125 278.171875 Z M 43.214844 172.199219 L 46.460938 174.09375 C 46.460938 174.09375 46.464844 174.09375 46.464844 174.09375 L 212.203125 270.773438 C 212.285156 270.824219 212.382812 270.847656 212.480469 270.847656 C 212.570312 270.847656 212.664062 270.824219 212.75 270.777344 L 214.675781 269.6875 L 215.492188 269.226562 L 216.3125 268.765625 L 226.601562 262.945312 L 227.429688 262.476562 L 228.253906 262.011719 L 327.683594 205.796875 C 327.683594 205.796875 327.6875 205.796875 327.6875 205.796875 L 330.933594 203.960938 C 331.105469 203.863281 331.210938 203.683594 331.210938 203.484375 C 331.210938 203.289062 331.109375 203.105469 330.9375 203.003906 L 271.945312 168.59375 L 271.46875 168.3125 L 270.988281 168.035156 L 264.28125 164.121094 L 263.800781 163.84375 L 263.324219 163.5625 L 161.953125 104.433594 C 161.910156 104.40625 161.867188 104.386719 161.820312 104.375 C 161.8125 104.375 161.808594 104.375 161.804688 104.375 C 161.792969 104.371094 161.78125 104.371094 161.773438 104.371094 C 161.757812 104.367188 161.742188 104.363281 161.722656 104.363281 C 161.710938 104.363281 161.695312 104.355469 161.679688 104.355469 C 161.652344 104.355469 161.628906 104.363281 161.601562 104.367188 C 161.582031 104.367188 161.558594 104.367188 161.539062 104.375 C 161.539062 104.375 161.539062 104.375 161.535156 104.375 C 161.527344 104.375 161.519531 104.382812 161.511719 104.382812 C 161.476562 104.394531 161.441406 104.410156 161.40625 104.429688 L 161.402344 104.429688 L 43.222656 171.246094 C 43.050781 171.34375 42.945312 171.523438 42.941406 171.71875 C 42.941406 171.769531 42.949219 171.816406 42.960938 171.863281 C 43 172.003906 43.089844 172.125 43.214844 172.199219 Z M 270.519531 169.035156 L 271 169.316406 L 271.476562 169.59375 L 329.554688 203.472656 L 327.417969 204.679688 L 270.574219 171.523438 L 270.097656 171.242188 L 269.621094 170.964844 L 262.929688 167.0625 L 262.453125 166.785156 L 261.976562 166.503906 L 162.226562 108.320312 L 162.226562 105.863281 L 162.582031 106.070312 L 262.863281 164.570312 L 263.339844 164.847656 L 263.820312 165.125 Z M 161.125 105.851562 L 161.125 108.3125 L 46.742188 172.984375 L 44.597656 171.730469 Z M 42.566406 183.429688 C 42.71875 183.167969 43.054688 183.078125 43.320312 183.230469 L 55.003906 190.046875 C 55.269531 190.199219 55.355469 190.539062 55.203125 190.800781 C 55.101562 190.976562 54.917969 191.074219 54.726562 191.074219 C 54.632812 191.074219 54.539062 191.050781 54.449219 191 L 42.765625 184.179688 C 42.503906 184.027344 42.414062 183.691406 42.566406 183.429688 Z M 58.277344 192.59375 C 58.429688 192.332031 58.765625 192.242188 59.03125 192.394531 L 70.714844 199.210938 C 70.980469 199.363281 71.066406 199.703125 70.914062 199.964844 C 70.8125 200.140625 70.628906 200.238281 70.4375 200.238281 C 70.34375 200.238281 70.25 200.214844 70.160156 200.164062 L 58.476562 193.347656 C 58.210938 193.191406 58.125 192.855469 58.277344 192.59375 Z M 96.265625 137.039062 C 96.113281 136.777344 96.203125 136.441406 96.464844 136.289062 L 108.152344 129.46875 C 108.414062 129.320312 108.75 129.40625 108.902344 129.667969 C 109.054688 129.933594 108.96875 130.269531 108.707031 130.421875 L 97.019531 137.238281 C 96.933594 137.289062 96.835938 137.3125 96.742188 137.3125 C 96.554688 137.3125 96.371094 137.214844 96.265625 137.039062 Z M 96.265625 137.039062 " fill-opacity="1" fill-rule="nonzero"/></g><path fill="#ffffff" d="M 224.457031 259.214844 L 214.949219 264.707031 C 214.160156 265.160156 212.96875 265.210938 212.285156 264.816406 L 206.785156 261.640625 C 206.101562 261.246094 206.1875 260.558594 206.976562 260.101562 L 216.484375 254.613281 C 217.273438 254.15625 218.464844 254.109375 219.148438 254.503906 L 224.648438 257.675781 C 225.332031 258.070312 225.246094 258.761719 224.457031 259.214844 Z M 230.597656 255.304688 L 223.414062 251.15625 C 223.046875 250.945312 222.425781 251.113281 222.46875 251.410156 L 222.808594 253.71875 C 222.839844 253.933594 223 254.132812 223.261719 254.285156 L 225.183594 255.390625 C 225.445312 255.542969 225.792969 255.636719 226.160156 255.65625 L 230.160156 255.851562 C 230.675781 255.875 230.964844 255.515625 230.597656 255.304688 Z M 113.601562 170.363281 C 113.609375 171.273438 112.84375 172.171875 111.304688 173.058594 C 109.753906 173.957031 108.183594 174.398438 106.601562 174.382812 C 105.023438 174.371094 103.546875 173.96875 102.179688 173.179688 L 95.042969 169.0625 C 93.65625 168.257812 92.957031 167.402344 92.953125 166.492188 C 92.949219 165.578125 93.714844 164.679688 95.25 163.792969 C 96.796875 162.902344 98.355469 162.457031 99.925781 162.457031 C 101.496094 162.460938 102.980469 162.867188 104.375 163.671875 L 111.511719 167.792969 C 112.902344 168.59375 113.597656 169.449219 113.601562 170.363281 Z M 109.148438 170.285156 C 108.996094 169.886719 108.550781 169.476562 107.816406 169.054688 L 102.191406 165.804688 C 101.453125 165.378906 100.738281 165.121094 100.050781 165.035156 C 99.367188 164.949219 98.714844 165.082031 98.101562 165.4375 C 97.492188 165.789062 97.261719 166.164062 97.410156 166.5625 C 97.554688 166.960938 97.996094 167.371094 98.738281 167.800781 L 104.363281 171.046875 C 105.097656 171.472656 105.8125 171.726562 106.503906 171.8125 C 107.195312 171.898438 107.847656 171.765625 108.453125 171.414062 C 109.070312 171.058594 109.300781 170.683594 109.148438 170.285156 Z M 125.113281 163.636719 C 125.15625 164.578125 124.449219 165.472656 122.996094 166.308594 C 121.554688 167.144531 120.019531 167.550781 118.394531 167.535156 C 116.769531 167.515625 115.203125 167.074219 113.699219 166.207031 L 113.6875 166.199219 C 113.011719 165.808594 112.394531 165.339844 111.835938 164.792969 C 111.277344 164.25 110.804688 163.671875 110.421875 163.0625 L 106.828125 157.332031 L 110.152344 155.414062 L 113.496094 160.898438 C 113.640625 160.777344 113.808594 160.65625 114.011719 160.539062 C 115.308594 159.792969 116.71875 159.449219 118.242188 159.511719 C 119.765625 159.574219 121.273438 160.035156 122.765625 160.898438 L 122.773438 160.902344 C 124.292969 161.78125 125.074219 162.691406 125.113281 163.636719 Z M 120.902344 163.699219 C 120.875 163.363281 120.582031 163.03125 120.019531 162.707031 L 120.007812 162.699219 C 119.367188 162.332031 118.730469 162.125 118.101562 162.082031 C 117.46875 162.039062 116.886719 162.171875 116.359375 162.476562 C 115.84375 162.773438 115.621094 163.105469 115.695312 163.476562 C 115.769531 163.84375 116.128906 164.214844 116.769531 164.582031 L 116.777344 164.589844 C 117.339844 164.914062 117.914062 165.082031 118.496094 165.09375 C 119.082031 165.105469 119.632812 164.960938 120.148438 164.664062 C 120.675781 164.359375 120.929688 164.035156 120.902344 163.699219 Z M 126.539062 160.660156 L 129.496094 162.371094 L 132.4375 160.671875 L 129.480469 158.964844 Z M 121.339844 154.265625 L 118.398438 155.960938 L 121.359375 157.671875 L 124.296875 155.972656 Z M 135.660156 155.519531 L 134.621094 150.488281 C 134.496094 149.902344 134.207031 149.335938 133.75 148.789062 C 133.296875 148.242188 132.710938 147.761719 132 147.351562 L 131.988281 147.34375 C 130.6875 146.59375 129.277344 146.242188 127.757812 146.296875 C 126.242188 146.347656 124.75 146.800781 123.285156 147.644531 C 121.933594 148.425781 121.242188 149.296875 121.214844 150.261719 C 121.1875 151.222656 121.871094 152.164062 123.257812 153.082031 L 123.269531 153.089844 L 126.285156 151.347656 L 126.273438 151.339844 C 125.75 150.964844 125.476562 150.59375 125.460938 150.234375 C 125.445312 149.875 125.675781 149.554688 126.15625 149.277344 C 126.65625 148.988281 127.15625 148.832031 127.660156 148.808594 C 128.160156 148.785156 128.625 148.894531 129.050781 149.140625 L 129.070312 149.152344 C 129.359375 149.320312 129.605469 149.539062 129.804688 149.808594 C 130.007812 150.078125 130.148438 150.375 130.21875 150.695312 L 131.949219 157.875 L 134.613281 159.414062 L 143.839844 154.089844 L 140.992188 152.441406 Z M 153.414062 146.367188 C 153.65625 146.984375 153.589844 147.609375 153.210938 148.242188 C 152.828125 148.878906 152.140625 149.484375 151.148438 150.058594 C 150.152344 150.628906 149.105469 151.027344 148.007812 151.246094 C 146.90625 151.464844 145.824219 151.507812 144.757812 151.367188 C 143.691406 151.226562 142.71875 150.902344 141.839844 150.394531 L 141.582031 150.246094 C 140.796875 149.792969 140.273438 149.242188 140.011719 148.59375 C 139.75 147.949219 139.800781 147.316406 140.164062 146.699219 C 139.253906 146.875 138.328125 146.910156 137.394531 146.804688 C 136.457031 146.695312 135.671875 146.460938 135.039062 146.09375 L 134.628906 145.859375 C 133.382812 145.140625 132.804688 144.320312 132.898438 143.398438 C 132.988281 142.476562 133.734375 141.613281 135.128906 140.808594 C 136.523438 140.003906 138.019531 139.574219 139.613281 139.519531 C 141.210938 139.46875 142.628906 139.800781 143.875 140.519531 L 144.285156 140.753906 C 144.933594 141.128906 145.347656 141.585938 145.523438 142.128906 C 145.703125 142.667969 145.628906 143.203125 145.300781 143.734375 C 146.378906 143.519531 147.476562 143.488281 148.605469 143.632812 C 149.730469 143.78125 150.6875 144.082031 151.472656 144.535156 L 151.730469 144.683594 C 152.609375 145.191406 153.171875 145.75 153.414062 146.367188 Z M 142.296875 143.535156 C 142.28125 143.171875 142.003906 142.832031 141.464844 142.519531 L 141.3125 142.433594 C 140.816406 142.148438 140.261719 142.003906 139.652344 142.007812 C 139.042969 142.011719 138.484375 142.160156 137.976562 142.453125 C 137.476562 142.742188 137.222656 143.0625 137.214844 143.417969 C 137.203125 143.773438 137.453125 144.09375 137.957031 144.386719 L 138.117188 144.480469 C 138.644531 144.78125 139.222656 144.9375 139.859375 144.945312 C 140.492188 144.953125 141.0625 144.8125 141.5625 144.523438 C 142.070312 144.230469 142.316406 143.898438 142.296875 143.535156 Z M 149.21875 147.261719 C 149.230469 146.84375 148.945312 146.46875 148.359375 146.132812 L 148.210938 146.042969 C 147.675781 145.738281 147.066406 145.59375 146.371094 145.621094 C 145.679688 145.648438 145.035156 145.832031 144.433594 146.179688 C 143.832031 146.527344 143.507812 146.898438 143.464844 147.300781 C 143.421875 147.699219 143.667969 148.054688 144.207031 148.367188 L 144.371094 148.460938 C 144.945312 148.792969 145.59375 148.953125 146.316406 148.945312 C 147.035156 148.9375 147.695312 148.757812 148.296875 148.410156 C 148.898438 148.066406 149.203125 147.683594 149.21875 147.261719 Z M 147.125 140.570312 L 144.492188 137.1875 L 144.996094 136.898438 L 150.855469 138.417969 L 150 138.910156 L 149.082031 138.65625 L 147.535156 139.546875 L 147.980469 140.078125 Z M 146.089844 137.820312 L 147.035156 138.949219 L 148.042969 138.367188 Z M 149.789062 134.128906 L 151.847656 136.246094 L 148.179688 135.058594 L 147.132812 135.664062 L 151.378906 138.117188 L 152.101562 137.699219 L 149.140625 135.988281 L 152.40625 136.976562 L 153.109375 136.570312 L 151.34375 134.652344 L 154.359375 136.394531 L 155.082031 135.976562 L 150.835938 133.527344 Z M 65.550781 169.191406 C 65.402344 168.925781 65.0625 168.835938 64.800781 168.988281 L 55.6875 174.25 C 55.425781 174.402344 55.335938 174.738281 55.484375 175 C 55.589844 175.179688 55.773438 175.277344 55.964844 175.277344 C 56.054688 175.277344 56.152344 175.253906 56.238281 175.203125 L 65.351562 169.941406 C 65.613281 169.789062 65.703125 169.453125 65.550781 169.191406 Z M 64.429688 173.332031 C 64.277344 173.070312 63.941406 172.980469 63.679688 173.132812 L 58.714844 175.996094 C 58.453125 176.148438 58.363281 176.484375 58.511719 176.75 C 58.617188 176.925781 58.800781 177.023438 58.992188 177.023438 C 59.082031 177.023438 59.179688 177 59.265625 176.949219 L 64.230469 174.085938 C 64.492188 173.933594 64.582031 173.597656 64.429688 173.332031 Z M 69.960938 173 L 61.742188 177.746094 C 61.480469 177.898438 61.390625 178.234375 61.539062 178.496094 C 61.644531 178.675781 61.828125 178.773438 62.019531 178.773438 C 62.109375 178.773438 62.207031 178.75 62.292969 178.699219 L 70.511719 173.953125 C 70.773438 173.800781 70.863281 173.464844 70.710938 173.203125 C 70.558594 172.9375 70.222656 172.847656 69.960938 173 Z M 163.707031 119.195312 L 160.351562 117.257812 C 160.085938 117.105469 159.75 117.195312 159.597656 117.460938 C 159.445312 117.722656 159.539062 118.058594 159.800781 118.210938 L 163.15625 120.148438 C 163.242188 120.199219 163.335938 120.222656 163.429688 120.222656 C 163.621094 120.222656 163.804688 120.121094 163.90625 119.945312 C 164.058594 119.683594 163.96875 119.347656 163.707031 119.195312 Z M 160.695312 120.929688 L 158.570312 119.703125 C 158.304688 119.550781 157.96875 119.640625 157.816406 119.90625 C 157.664062 120.167969 157.753906 120.503906 158.019531 120.65625 L 160.148438 121.882812 C 160.234375 121.933594 160.328125 121.957031 160.421875 121.957031 C 160.613281 121.957031 160.796875 121.859375 160.898438 121.683594 C 161.050781 121.417969 160.960938 121.082031 160.695312 120.929688 Z M 166.714844 117.457031 L 160.660156 113.960938 C 160.394531 113.808594 160.058594 113.898438 159.90625 114.164062 C 159.757812 114.425781 159.847656 114.761719 160.109375 114.914062 L 166.164062 118.410156 C 166.25 118.460938 166.34375 118.484375 166.4375 118.484375 C 166.628906 118.484375 166.8125 118.386719 166.914062 118.210938 C 167.066406 117.945312 166.976562 117.609375 166.714844 117.457031 Z M 317.679688 205.199219 L 308.597656 199.957031 L 295.425781 207.5625 L 301.195312 210.894531 L 300.542969 215.09375 Z M 317.679688 205.199219 " fill-opacity="1" fill-rule="nonzero"/><path fill="#386641" d="M 204.164062 243.785156 C 204.070312 243.785156 203.976562 243.761719 203.890625 243.710938 L 191.894531 236.785156 C 191.632812 236.632812 191.542969 236.296875 191.695312 236.035156 C 191.847656 235.769531 192.183594 235.679688 192.445312 235.832031 L 204.164062 242.597656 L 215.808594 235.875 C 216.070312 235.722656 216.410156 235.8125 216.5625 236.078125 C 216.714844 236.339844 216.625 236.675781 216.359375 236.828125 L 204.441406 243.710938 C 204.355469 243.761719 204.261719 243.785156 204.164062 243.785156 Z M 270.726562 205.355469 C 270.535156 205.355469 270.351562 205.257812 270.246094 205.082031 C 270.097656 204.816406 270.1875 204.480469 270.449219 204.328125 L 281.542969 197.925781 L 270.375 191.476562 C 270.113281 191.324219 270.019531 190.988281 270.171875 190.722656 C 270.324219 190.460938 270.664062 190.371094 270.925781 190.523438 L 282.917969 197.449219 C 283.089844 197.546875 283.195312 197.726562 283.195312 197.925781 C 283.195312 198.121094 283.089844 198.300781 282.917969 198.402344 L 271 205.28125 C 270.914062 205.332031 270.820312 205.355469 270.726562 205.355469 Z M 137.1875 205.117188 C 137.09375 205.117188 137 205.089844 136.914062 205.042969 L 124.917969 198.117188 C 124.746094 198.019531 124.644531 197.835938 124.644531 197.640625 C 124.644531 197.445312 124.746094 197.261719 124.917969 197.164062 L 136.835938 190.28125 C 137.101562 190.128906 137.4375 190.21875 137.589844 190.484375 C 137.742188 190.746094 137.652344 191.082031 137.386719 191.234375 L 126.292969 197.640625 L 137.464844 204.089844 C 137.726562 204.242188 137.816406 204.578125 137.664062 204.839844 C 137.5625 205.015625 137.378906 205.117188 137.1875 205.117188 Z M 215.667969 159.804688 C 215.574219 159.804688 215.476562 159.78125 215.390625 159.730469 L 203.671875 152.964844 L 192.027344 159.6875 C 191.765625 159.839844 191.429688 159.75 191.277344 159.488281 C 191.125 159.222656 191.214844 158.886719 191.476562 158.734375 L 203.398438 151.851562 C 203.566406 151.753906 203.777344 151.753906 203.949219 151.851562 L 215.941406 158.777344 C 216.207031 158.929688 216.296875 159.265625 216.144531 159.53125 C 216.042969 159.707031 215.855469 159.804688 215.667969 159.804688 Z M 215.667969 159.804688 " fill-opacity="1" fill-rule="nonzero"/><g mask="url(#ff1961e69b)"><g transform="matrix(1, 0, 0, 1, 142, 87)"><g clip-path="url(#7b67ed15a0)"><g clip-path="url(#d895241fff)"><path fill="#386641" d="M 72.625 84.160156 L 15.214844 117.304688 C 10.96875 119.757812 7.175781 118 6.738281 113.378906 L 0.59375 48.375 C 0.15625 43.753906 3.246094 38.023438 7.488281 35.574219 L 64.902344 2.425781 C 69.144531 -0.0234375 72.941406 1.734375 73.378906 6.351562 L 79.519531 71.359375 C 79.957031 75.976562 76.871094 81.710938 72.625 84.160156 Z M 72.625 84.160156 " fill-opacity="1" fill-rule="nonzero"/></g></g></g></g><path fill="#386641" d="M 153.527344 205.96875 C 152.671875 205.96875 151.863281 205.78125 151.132812 205.402344 C 149.457031 204.539062 148.410156 202.773438 148.191406 200.433594 L 142.046875 135.425781 C 141.59375 130.621094 144.808594 124.640625 149.214844 122.097656 L 206.625 88.949219 C 208.925781 87.621094 211.1875 87.402344 212.984375 88.328125 C 214.660156 89.195312 215.703125 90.960938 215.925781 93.300781 L 222.070312 158.308594 C 222.523438 163.113281 219.308594 169.09375 214.902344 171.636719 L 157.488281 204.78125 C 156.125 205.570312 154.777344 205.96875 153.527344 205.96875 Z M 210.585938 88.867188 C 209.53125 88.867188 208.367188 89.214844 207.175781 89.902344 L 149.765625 123.050781 C 145.695312 125.398438 142.722656 130.902344 143.140625 135.320312 L 149.285156 200.328125 C 149.472656 202.285156 150.304688 203.738281 151.636719 204.425781 C 153.089844 205.175781 154.972656 204.964844 156.9375 203.828125 L 214.351562 170.683594 C 218.421875 168.332031 221.390625 162.828125 220.972656 158.410156 L 214.828125 93.402344 C 214.644531 91.449219 213.808594 89.996094 212.480469 89.308594 C 211.90625 89.011719 211.269531 88.867188 210.585938 88.867188 Z M 210.585938 88.867188 " fill-opacity="1" fill-rule="nonzero"/><path fill="#ffffff" d="M 198.203125 101.132812 C 198.246094 101.609375 197.96875 102.136719 197.539062 102.382812 L 162.75 122.46875 C 162.589844 122.5625 162.425781 122.605469 162.265625 122.605469 C 162.132812 122.605469 162.007812 122.578125 161.890625 122.515625 C 161.636719 122.386719 161.476562 122.132812 161.445312 121.824219 C 161.402344 121.347656 161.679688 120.820312 162.109375 120.570312 L 196.898438 100.484375 C 197.183594 100.320312 197.496094 100.304688 197.757812 100.4375 C 198.011719 100.570312 198.171875 100.820312 198.203125 101.132812 Z M 198.203125 101.132812 " fill-opacity="1" fill-rule="nonzero"/><g mask="url(#182f19e6c6)"><g transform="matrix(1, 0, 0, 1, 155, 96)"><g clip-path="url(#a08ea4fb59)"><g clip-path="url(#51a6600ed7)"><path fill="#386641" d="M 73.175781 83.847656 L 15.765625 116.992188 C 11.519531 119.445312 7.722656 117.6875 7.289062 113.066406 L 1.144531 48.058594 C 0.707031 43.441406 3.792969 37.710938 8.039062 35.257812 L 65.449219 2.113281 C 69.695312 -0.339844 73.488281 1.417969 73.925781 6.039062 L 80.070312 71.046875 C 80.507812 75.664062 77.421875 81.394531 73.175781 83.847656 Z M 73.175781 83.847656 " fill-opacity="1" fill-rule="nonzero"/></g></g></g></g><path fill="#386641" d="M 167.078125 214.65625 C 166.222656 214.65625 165.414062 214.46875 164.679688 214.089844 C 163.003906 213.226562 161.960938 211.460938 161.738281 209.121094 L 155.59375 144.113281 C 155.140625 139.304688 158.355469 133.328125 162.765625 130.78125 L 220.175781 97.636719 C 222.476562 96.308594 224.734375 96.085938 226.53125 97.015625 C 228.207031 97.882812 229.253906 99.644531 229.472656 101.988281 L 235.617188 166.996094 C 236.074219 171.800781 232.855469 177.777344 228.449219 180.324219 L 171.039062 213.46875 C 169.675781 214.257812 168.324219 214.65625 167.078125 214.65625 Z M 224.132812 97.550781 C 223.082031 97.550781 221.917969 97.902344 220.726562 98.589844 L 163.3125 131.734375 C 159.246094 134.085938 156.273438 139.589844 156.691406 144.007812 L 162.835938 209.015625 C 163.019531 210.972656 163.855469 212.425781 165.1875 213.113281 C 166.640625 213.863281 168.523438 213.652344 170.488281 212.515625 L 227.898438 179.371094 C 231.96875 177.019531 234.941406 171.515625 234.523438 167.097656 L 228.378906 102.089844 C 228.195312 100.136719 227.359375 98.679688 226.027344 97.992188 C 225.457031 97.699219 224.816406 97.550781 224.132812 97.550781 Z M 228.175781 179.847656 L 228.179688 179.847656 Z M 228.175781 179.847656 " fill-opacity="1" fill-rule="nonzero"/><path fill="#ffffff" d="M 211.304688 109.125 C 211.046875 108.992188 210.734375 109.007812 210.449219 109.171875 L 175.660156 129.257812 C 175.230469 129.507812 174.949219 130.03125 174.996094 130.511719 C 175.027344 130.820312 175.1875 131.074219 175.441406 131.203125 C 175.558594 131.265625 175.683594 131.292969 175.8125 131.292969 C 175.976562 131.292969 176.140625 131.246094 176.296875 131.15625 L 211.089844 111.070312 C 211.519531 110.824219 211.796875 110.296875 211.75 109.820312 C 211.722656 109.507812 211.558594 109.257812 211.304688 109.125 Z M 211.304688 109.125 " fill-opacity="1" fill-rule="nonzero"/><g mask="url(#7c45c5ab56)"><g transform="matrix(1, 0, 0, 1, 169, 105)"><g clip-path="url(#8ff2a6f17c)"><g clip-path="url(#9b1c41b5ab)"><path fill="#386641" d="M 72.722656 83.535156 L 15.3125 116.679688 C 11.066406 119.128906 7.273438 117.375 6.835938 112.753906 L 0.691406 47.746094 C 0.257812 43.128906 3.34375 37.398438 7.589844 34.945312 L 65 1.800781 C 69.246094 -0.652344 73.039062 1.105469 73.476562 5.726562 L 79.621094 70.734375 C 80.054688 75.351562 76.96875 81.082031 72.722656 83.535156 Z M 72.722656 83.535156 " fill-opacity="1" fill-rule="nonzero"/></g></g></g></g><path fill="#ffffff" d="M 224.855469 117.8125 C 224.597656 117.675781 224.28125 117.695312 224 117.859375 L 189.207031 137.945312 C 188.777344 138.191406 188.5 138.71875 188.546875 139.199219 C 188.574219 139.507812 188.738281 139.757812 188.988281 139.890625 C 189.105469 139.949219 189.234375 139.980469 189.363281 139.980469 C 189.523438 139.980469 189.691406 139.933594 189.847656 139.84375 L 224.636719 119.757812 C 225.066406 119.511719 225.34375 118.984375 225.300781 118.507812 C 225.269531 118.195312 225.109375 117.941406 224.855469 117.8125 Z M 224.855469 117.8125 " fill-opacity="1" fill-rule="nonzero"/><path fill="#386641" d="M 180.625 223.34375 C 179.769531 223.34375 178.960938 223.15625 178.230469 222.777344 C 176.554688 221.910156 175.511719 220.148438 175.289062 217.804688 L 169.144531 152.796875 C 168.691406 147.992188 171.90625 142.011719 176.3125 139.46875 L 233.722656 106.324219 C 236.023438 104.996094 238.285156 104.773438 240.082031 105.703125 C 241.757812 106.566406 242.800781 108.332031 243.023438 110.671875 L 249.167969 175.679688 C 249.621094 180.488281 246.40625 186.464844 242 189.011719 L 184.589844 222.15625 C 183.222656 222.945312 181.875 223.34375 180.625 223.34375 Z M 237.683594 106.238281 C 236.628906 106.238281 235.464844 106.585938 234.273438 107.277344 L 176.863281 140.421875 C 172.792969 142.773438 169.824219 148.277344 170.238281 152.695312 L 176.382812 217.703125 C 176.570312 219.65625 177.402344 221.113281 178.734375 221.800781 C 180.1875 222.550781 182.074219 222.339844 184.039062 221.203125 L 241.449219 188.058594 C 245.519531 185.707031 248.488281 180.203125 248.074219 175.785156 L 241.929688 110.777344 C 241.742188 108.824219 240.910156 107.367188 239.578125 106.679688 C 239.003906 106.386719 238.367188 106.238281 237.683594 106.238281 Z M 237.683594 106.238281 " fill-opacity="1" fill-rule="nonzero"/><g mask="url(#b7cfaaa88d)"><g transform="matrix(1, 0, 0, 1, 183, 113)"><g clip-path="url(#bbb003b019)"><g clip-path="url(#6f0b1194c9)"><path fill="#386641" d="M 79.167969 71.417969 L 73.023438 6.410156 C 72.589844 1.792969 68.792969 0.0351562 64.546875 2.484375 L 7.136719 35.632812 C 2.890625 38.082031 -0.195312 43.8125 0.242188 48.433594 L 6.386719 113.441406 C 6.820312 118.058594 10.617188 119.816406 14.863281 117.367188 L 72.273438 84.21875 C 76.519531 81.769531 79.605469 76.039062 79.167969 71.417969 Z M 79.167969 71.417969 " fill-opacity="1" fill-rule="nonzero"/></g></g></g></g><path fill="#386641" d="M 194.175781 232.03125 C 193.320312 232.03125 192.511719 231.839844 191.777344 231.464844 C 190.105469 230.597656 189.058594 228.832031 188.835938 226.492188 L 182.695312 161.484375 C 182.238281 156.679688 185.457031 150.699219 189.863281 148.15625 L 247.273438 115.007812 C 249.574219 113.679688 251.832031 113.460938 253.632812 114.390625 C 255.308594 115.253906 256.351562 117.019531 256.574219 119.359375 L 262.714844 184.367188 C 263.171875 189.171875 259.957031 195.152344 255.546875 197.695312 L 198.136719 230.84375 C 196.773438 231.632812 195.421875 232.03125 194.175781 232.03125 Z M 251.234375 114.925781 C 250.179688 114.925781 249.015625 115.273438 247.824219 115.960938 L 190.414062 149.109375 C 186.34375 151.457031 183.371094 156.964844 183.789062 161.382812 L 189.933594 226.390625 C 190.117188 228.34375 190.953125 229.800781 192.285156 230.484375 C 193.738281 231.238281 195.621094 231.023438 197.585938 229.890625 L 255 196.742188 C 259.066406 194.394531 262.039062 188.886719 261.621094 184.472656 L 255.476562 119.464844 C 255.292969 117.507812 254.457031 116.054688 253.125 115.367188 C 252.554688 115.070312 251.917969 114.925781 251.234375 114.925781 Z M 255.273438 197.21875 L 255.277344 197.21875 Z M 246.183594 145.746094 C 245.820312 141.878906 242.640625 140.40625 239.085938 142.457031 L 202.558594 163.546875 C 199.003906 165.601562 196.417969 170.398438 196.785156 174.265625 L 197.40625 180.832031 L 246.804688 152.3125 Z M 246.183594 145.746094 " fill-opacity="1" fill-rule="nonzero"/><path fill="#ffffff" d="M 197.40625 180.832031 L 246.804688 152.3125 L 249.894531 185.019531 C 250.261719 188.886719 247.675781 193.6875 244.121094 195.738281 L 207.59375 216.828125 C 204.039062 218.882812 200.863281 217.410156 200.496094 213.542969 Z M 197.40625 180.832031 " fill-opacity="1" fill-rule="nonzero"/><path fill="#d7907b" d="M 230.144531 180.5 L 225.832031 182.988281 L 225.390625 178.296875 L 221.261719 180.679688 L 221.703125 185.375 L 217.394531 187.863281 L 217.816406 192.355469 L 222.128906 189.867188 L 222.574219 194.558594 L 226.703125 192.171875 L 226.257812 187.480469 L 230.570312 184.992188 Z M 230.144531 180.5 " fill-opacity="1" fill-rule="nonzero"/><path fill="#d7907b" d="M 207.515625 174.992188 L 211.269531 214.707031 " fill-opacity="1" fill-rule="nonzero"/><path fill="#d7907b" d="M 236.691406 158.148438 L 240.445312 197.863281 " fill-opacity="1" fill-rule="nonzero"/><path fill="#d7907b" d="M 247.335938 157.949219 L 197.9375 186.46875 " fill-opacity="1" fill-rule="nonzero"/><path fill="#d7907b" d="M 249.878906 186.46875 L 200.625 214.90625 " fill-opacity="1" fill-rule="nonzero"/><path fill="#d7907b" d="M 210.445312 189.007812 L 198.8125 195.722656 " fill-opacity="1" fill-rule="nonzero"/><path fill="#d7907b" d="M 214.75 196.992188 L 199.75 205.652344 " fill-opacity="1" fill-rule="nonzero"/><path fill="#d7907b" d="M 248.210938 167.203125 L 233.039062 175.964844 " fill-opacity="1" fill-rule="nonzero"/><path fill="#d7907b" d="M 249.148438 177.132812 L 237.515625 183.847656 " fill-opacity="1" fill-rule="nonzero"/><path fill="#d7907b" d="M 215.730469 170.253906 L 216.464844 178.054688 " fill-opacity="1" fill-rule="nonzero"/><path fill="#d7907b" d="M 231.453125 194.328125 L 232.234375 202.601562 " fill-opacity="1" fill-rule="nonzero"/><path fill="#d7907b" d="M 218.542969 200.035156 L 219.480469 209.964844 " fill-opacity="1" fill-rule="nonzero"/><path fill="#d7907b" d="M 228.480469 162.890625 L 229.464844 173.292969 " fill-opacity="1" fill-rule="nonzero"/><path fill="#1c2628" d="M 250.445312 184.96875 L 249.695312 177.0625 L 248.757812 167.136719 C 248.757812 167.136719 248.757812 167.136719 248.757812 167.132812 L 247.882812 157.882812 C 247.882812 157.882812 247.882812 157.878906 247.882812 157.878906 L 247.351562 152.257812 L 246.730469 145.695312 C 246.542969 143.703125 245.652344 142.199219 244.222656 141.460938 C 242.6875 140.667969 240.765625 140.855469 238.8125 141.980469 L 202.28125 163.070312 C 198.566406 165.21875 195.851562 170.261719 196.238281 174.316406 L 196.855469 180.882812 L 197.390625 186.535156 C 197.390625 186.535156 197.390625 186.539062 197.390625 186.539062 L 198.265625 195.789062 C 198.265625 195.792969 198.265625 195.792969 198.265625 195.792969 L 199.203125 205.71875 C 199.203125 205.71875 199.203125 205.71875 199.203125 205.722656 L 199.949219 213.59375 C 199.984375 213.972656 200.054688 214.328125 200.140625 214.667969 C 200.0625 214.828125 200.054688 215.015625 200.148438 215.183594 C 200.203125 215.273438 200.277344 215.34375 200.367188 215.390625 C 200.792969 216.488281 201.5 217.332031 202.460938 217.828125 C 203.085938 218.148438 203.777344 218.308594 204.507812 218.308594 C 205.566406 218.308594 206.710938 217.972656 207.867188 217.304688 L 219.742188 210.449219 L 232.496094 203.089844 C 232.496094 203.085938 232.496094 203.085938 232.496094 203.085938 L 244.398438 196.214844 C 248.113281 194.070312 250.828125 189.023438 250.445312 184.96875 Z M 219.53125 204.628906 L 231.234375 197.871094 L 231.652344 202.300781 L 219.949219 209.058594 Z M 218.902344 209.664062 L 211.738281 213.800781 L 211.320312 209.367188 L 218.480469 205.234375 Z M 232.28125 197.265625 L 239.445312 193.128906 L 239.863281 197.5625 L 232.703125 201.695312 Z M 232.167969 196.058594 L 232 194.277344 C 231.972656 193.976562 231.699219 193.746094 231.402344 193.78125 C 231.097656 193.808594 230.875 194.078125 230.90625 194.378906 L 231.121094 196.664062 L 219.414062 203.421875 L 219.089844 199.984375 C 219.0625 199.683594 218.789062 199.453125 218.492188 199.488281 C 218.1875 199.519531 217.964844 199.785156 217.996094 200.089844 L 218.367188 204.027344 L 211.203125 208.164062 L 210.445312 200.113281 L 215.027344 197.46875 C 215.289062 197.316406 215.378906 196.980469 215.226562 196.71875 C 215.074219 196.453125 214.738281 196.363281 214.476562 196.515625 L 210.328125 198.910156 L 209.503906 190.1875 L 210.71875 189.484375 C 210.984375 189.332031 211.074219 188.996094 210.921875 188.734375 C 210.769531 188.46875 210.433594 188.378906 210.171875 188.53125 L 209.390625 188.980469 L 208.628906 180.929688 L 215.792969 176.796875 L 215.917969 178.105469 C 215.945312 178.390625 216.183594 178.601562 216.464844 178.601562 C 216.480469 178.601562 216.5 178.601562 216.515625 178.601562 C 216.820312 178.574219 217.042969 178.304688 217.011719 178 L 216.84375 176.191406 L 228.546875 169.433594 L 228.914062 173.34375 C 228.941406 173.628906 229.183594 173.839844 229.460938 173.839844 C 229.480469 173.839844 229.496094 173.839844 229.515625 173.839844 C 229.816406 173.808594 230.039062 173.542969 230.011719 173.238281 L 229.59375 168.828125 L 236.757812 164.691406 L 237.519531 172.742188 L 232.761719 175.488281 C 232.5 175.640625 232.410156 175.976562 232.5625 176.238281 C 232.664062 176.414062 232.847656 176.515625 233.039062 176.515625 C 233.132812 176.515625 233.226562 176.492188 233.3125 176.441406 L 237.632812 173.945312 L 238.457031 182.667969 L 237.242188 183.371094 C 236.980469 183.523438 236.886719 183.859375 237.039062 184.121094 C 237.144531 184.300781 237.328125 184.398438 237.519531 184.398438 C 237.613281 184.398438 237.707031 184.375 237.792969 184.324219 L 238.570312 183.875 L 239.332031 191.921875 Z M 201.042969 213.492188 L 200.332031 205.953125 L 209.394531 200.71875 L 210.15625 208.769531 L 201.113281 213.988281 C 201.085938 213.828125 201.058594 213.664062 201.042969 213.492188 Z M 199.394531 196.023438 L 208.457031 190.792969 L 209.28125 199.515625 L 200.21875 204.746094 Z M 198.519531 186.769531 L 207.582031 181.535156 L 208.34375 189.585938 L 199.277344 194.820312 Z M 248.570312 176.832031 L 239.503906 182.0625 L 238.679688 173.34375 L 247.746094 168.109375 Z M 238.566406 172.136719 L 237.804688 164.085938 L 246.871094 158.855469 L 247.632812 166.902344 Z M 246.757812 157.648438 L 237.691406 162.882812 L 237.273438 158.449219 L 246.335938 153.214844 Z M 215.261719 171.15625 L 215.679688 175.589844 L 208.515625 179.726562 L 208.097656 175.292969 Z M 216.308594 170.554688 L 228.011719 163.796875 L 228.433594 168.226562 L 216.726562 174.984375 Z M 229.0625 163.191406 L 236.226562 159.054688 L 236.644531 163.488281 L 229.480469 167.625 Z M 197.984375 181.132812 L 207.050781 175.898438 L 207.46875 180.332031 L 198.40625 185.566406 Z M 239.617188 183.269531 L 248.683594 178.035156 L 249.347656 185.074219 C 249.382812 185.417969 249.382812 185.773438 249.367188 186.128906 L 240.378906 191.320312 Z M 202.832031 164.023438 L 239.363281 142.933594 C 240.347656 142.367188 241.304688 142.078125 242.171875 142.078125 C 242.730469 142.078125 243.25 142.199219 243.714844 142.4375 C 244.800781 143 245.484375 144.191406 245.636719 145.796875 L 246.222656 152.011719 L 228.21875 162.40625 L 207.257812 174.507812 C 207.257812 174.507812 207.257812 174.507812 207.253906 174.507812 L 197.871094 179.925781 L 197.332031 174.214844 C 196.984375 170.546875 199.453125 165.976562 202.832031 164.023438 Z M 207.316406 216.351562 C 205.699219 217.285156 204.152344 217.464844 202.964844 216.847656 C 202.277344 216.496094 201.753906 215.886719 201.421875 215.082031 L 210.269531 209.972656 L 210.691406 214.40625 Z M 243.847656 195.261719 L 240.914062 196.957031 L 240.492188 192.523438 L 249.199219 187.496094 C 248.597656 190.5625 246.507812 193.726562 243.847656 195.261719 Z M 230.398438 180.011719 C 230.230469 179.925781 230.03125 179.929688 229.871094 180.023438 L 226.300781 182.085938 L 225.9375 178.246094 C 225.921875 178.058594 225.808594 177.894531 225.644531 177.808594 C 225.476562 177.722656 225.277344 177.726562 225.113281 177.820312 L 220.984375 180.203125 C 220.800781 180.3125 220.691406 180.519531 220.714844 180.734375 L 221.125 185.074219 L 217.117188 187.386719 C 216.929688 187.492188 216.824219 187.699219 216.84375 187.914062 L 217.269531 192.40625 C 217.289062 192.59375 217.398438 192.757812 217.566406 192.84375 C 217.730469 192.929688 217.929688 192.925781 218.09375 192.832031 L 221.664062 190.769531 L 222.023438 194.609375 C 222.042969 194.796875 222.152344 194.960938 222.320312 195.046875 C 222.398438 195.085938 222.484375 195.109375 222.574219 195.109375 C 222.667969 195.109375 222.761719 195.082031 222.847656 195.035156 L 226.976562 192.652344 C 227.164062 192.542969 227.269531 192.335938 227.25 192.121094 L 226.839844 187.78125 L 230.84375 185.46875 C 231.03125 185.363281 231.136719 185.15625 231.117188 184.941406 L 230.691406 180.449219 C 230.675781 180.261719 230.5625 180.097656 230.398438 180.011719 Z M 225.984375 187.003906 C 225.796875 187.113281 225.691406 187.320312 225.710938 187.535156 L 226.121094 191.875 L 223.039062 193.652344 L 222.675781 189.816406 C 222.660156 189.628906 222.546875 189.464844 222.382812 189.378906 C 222.300781 189.335938 222.214844 189.316406 222.128906 189.316406 C 222.035156 189.316406 221.9375 189.339844 221.855469 189.390625 L 218.285156 191.449219 L 217.972656 188.160156 L 221.980469 185.851562 C 222.164062 185.742188 222.273438 185.535156 222.25 185.320312 L 221.839844 180.980469 L 224.921875 179.203125 L 225.285156 183.039062 C 225.304688 183.226562 225.414062 183.390625 225.582031 183.476562 C 225.746094 183.5625 225.945312 183.558594 226.109375 183.464844 L 229.679688 181.40625 L 229.988281 184.691406 Z M 225.984375 187.003906 " fill-opacity="1" fill-rule="nonzero"/><path fill="#ffffff" d="M 238.402344 126.5 C 238.144531 126.363281 237.832031 126.382812 237.546875 126.546875 L 202.757812 146.632812 C 202.328125 146.878906 202.050781 147.40625 202.09375 147.882812 C 202.125 148.195312 202.285156 148.445312 202.539062 148.578125 C 202.65625 148.636719 202.78125 148.667969 202.910156 148.667969 C 203.074219 148.667969 203.238281 148.621094 203.398438 148.53125 L 238.1875 128.445312 C 238.617188 128.195312 238.894531 127.667969 238.847656 127.191406 C 238.820312 126.882812 238.65625 126.628906 238.402344 126.5 Z M 238.402344 126.5 " fill-opacity="1" fill-rule="nonzero"/></svg>